<svg xmlns="http://www.w3.org/2000/svg" xmlns:xlink="http://www.w3.org/1999/xlink" width="883.67" height="865.59" viewBox="0 0 883.67 865.59">
  <defs>
    <clipPath id="clip-path">
      <rect id="Rectangle_25" data-name="Rectangle 25" width="879.25" height="162.39" transform="translate(877.23 39.91)" fill="none"/>
    </clipPath>
    <clipPath id="clip-path-5">
      <rect id="Rectangle_30" data-name="Rectangle 30" width="475.48" height="211.45" transform="translate(1029.46 233.95)" fill="none"/>
    </clipPath>
  </defs>
  <g id="Group_43" data-name="Group 43" transform="translate(-932.81 -39.91)">
    <g id="Group_16" data-name="Group 16" transform="translate(60)" clip-path="url(#clip-path)">
      <path id="Path_60" data-name="Path 60" d="M946.7,101.55h21.48l2.26-9.46c2.86-10.41-3.81-17.73-10.89-17.73H908.8c-5.65,0-16.48,2.8-19.75,13.8L878.4,125.59c-3.22,10.59-.12,20.59,13.38,20.59l47.31-.12A21,21,0,0,0,959,132.2l4-13.57H941.35L940,122.49c-2.14,5.78-6.49,6.73-10.59,6.73H909.28c-5.54,0-9.34-3.27-6.37-13l5.83-18.92c.84-2.8,3.81-6.73,9.94-6.73H940c2.26,0,10.11.18,6.66,11" fill="#e12827"/>
      <path id="Path_61" data-name="Path 61" d="M1008.88,105.66s3.33-6.25,4.7-8.15S1018.64,91,1022,91s5.23,4.22,5.83,7.14a35.214,35.214,0,0,1,.24,7.56Zm40,40.52-.47-55.1c-.24-9.4-8.69-17.37-18.09-17.37h-7.86c-12,0-21.18,6.78-27,17.49s-30.22,55-30.22,55h22.84l12.17-23.2h26.66l-.24,23.21Z" fill="#e12827"/>
      <path id="Path_62" data-name="Path 62" d="M1133.29,97.27c-1.27,4.23-4.64,8.39-10.41,8.39h-31.59l4.28-15.53,29.09-.06c7.47,0,10.24,1.84,8.63,7.2m11.42-23h-66.57l-19.82,71.94H1081l6.78-23.21h12.68l17.13,23.21h25.53L1125.2,123c8.45,0,21.18-2,25.64-14.1L1156,93c2.44-7.73.36-18.74-11.25-18.74" fill="#e12827"/>
      <path id="Path_63" data-name="Path 63" d="M1488.08,86.76s4.89-9.16,6.9-12,7.41-9.6,12.38-9.6,7.68,6.2,8.56,10.47.34,11.08.34,11.08Zm58.72,59.42-.7-80.79c-.35-13.79-12.74-25.48-26.52-25.48h-11.52c-17.62,0-31.06,10-39.61,25.65s-44.32,80.62-44.32,80.62h33.51l17.79-34h39.09l-.35,34Z" fill="#fff"/>
      <path id="Path_64" data-name="Path 64" d="M1559.9,146.77h32.37l17.13-66c2.5-9.28,7.14-14.4,14.88-14.28h31.65c8.09,0,12.5,3.21,10.12,11.9-2,7.29-17.85,68.42-17.85,68.42h32.48L1701.15,70c3.45-13.33-.12-28.8-16.9-28.8h-70c-19,0-30.94,15.11-34.39,28.92Z" fill="#fff"/>
      <path id="Path_65" data-name="Path 65" d="M1439.59,41.22h-94.48c-19,0-30.94,15.11-34.39,28.92,0,0-10.44,37.08-12.76,48.89-2.59,13.22.62,27.74,18.47,27.74h95l6.77-25.2h-68.65c-11.42,0-18.62-2-15.89-15.36l6.61-25.48c2.79-10.42,11.3-13.75,19-13.63h73.18Z" fill="#fff"/>
      <path id="Path_66" data-name="Path 66" d="M1305.24,41.22h-99.72c-19,0-29.74,15.11-34.39,28.92s3.85,19.14,12.34,22.78L1241,115.83c4.76,1.79,5,5.22-1.42,5.22h-81.71l-6.71,25.72h106c26.06,0,35.34-38.55,21.77-45.46l-68.3-28.79c-4.64-1.79-7.62-6.07,2-6.07h86.63Z" fill="#fff"/>
    </g>
    <path id="Path_67" data-name="Path 67" d="M1719.83,61.09l4.52-17.01h5.6l.95-3.69h-17.26l-1.19,3.69h7.26l-4.52,17.01Z" transform="translate(60)" fill="#fff"/>
    <path id="Path_68" data-name="Path 68" d="M1750.3,40.39l-8.21,13.56-2.15-13.56h-6.54l-4.64,20.7h4.76l3.45-15.59,3.09,15.59h1.67l9.4-15.59-3.09,15.59h4.87l3.57-20.7Z" transform="translate(60)" fill="#fff"/>
    <rect id="Rectangle_26" data-name="Rectangle 26" width="10.96" height="40.51" transform="translate(1214.7 160.02)" fill="#fff"/>
    <g id="Group_17" data-name="Group 17" transform="translate(60)" clip-path="url(#clip-path)">
      <path id="Path_69" data-name="Path 69" d="M1167.88,160h10.42l8.76,24.39.11-.11c-.43-4.67-1.24-9.29-1.24-14V160h10.53v40.51h-10.53l-8.16-23.37-.11.11c.27,3.81.75,7.57.75,11.38v11.88h-10.53Z" fill="#fff"/>
      <path id="Path_70" data-name="Path 70" d="M1198.68,160h10.42l8.77,24.39.1-.11c-.43-4.67-1.23-9.29-1.23-14V160h10.52v40.51h-10.52l-8.17-23.37-.11.11c.27,3.81.75,7.57.75,11.38v11.88h-10.53Z" fill="#fff"/>
      <path id="Path_71" data-name="Path 71" d="M1281.91,200.53l-9.3-40.51h11.5l2.58,16.66c.48,3.27.75,6.5,1.18,9.77h.11c.48-3.27.64-6.5,1.23-9.77l3-16.66h11.88l-11,40.51Z" fill="#fff"/>
      <path id="Path_72" data-name="Path 72" d="M1316.49,200.53l-.81-5.21h-7.36l-.91,5.21h-11.29l9.73-40.51h13.38l8.59,40.51Zm-2.1-13.81-1.18-9.4c-.32-2.53-.54-5.1-.81-7.63h-.1c-.32,2.53-.6,5.1-1,7.63l-1.5,9.4Z" fill="#fff"/>
      <path id="Path_73" data-name="Path 73" d="M1327.27,159.85a5.55,5.55,0,1,0,5.55,5.55,5.46,5.46,0,0,0-5.55-5.55m0,.8a4.76,4.76,0,1,1-4.67,4.75,4.64,4.64,0,0,1,4.67-4.75m-1.21,5.11h1.32l1.8,2.84h.93l-1.9-2.84a1.72,1.72,0,0,0,1.59-1.77c0-1.17-.63-1.79-2.08-1.79h-2.46v6.4h.8Zm0-.67v-2.22h1.45c.78,0,1.5.21,1.5,1.12,0,1.07-1,1.1-1.9,1.1Z" fill="#fff"/>
      <path id="Path_74" data-name="Path 74" d="M1251.86,196.4a16.163,16.163,0,1,0-.03,0m0-38.23a22.07,22.07,0,1,0,22.07,22.07,22.07,22.07,0,0,0-22.07-22.07" fill="#fff"/>
      <path id="Path_75" data-name="Path 75" d="M1251.86,167.2a13,13,0,1,0,13,13,13,13,0,0,0-13-13" fill="#e12827"/>
      <path id="Path_76" data-name="Path 76" d="M885.1,185.15a9.829,9.829,0,0,0,2.18.17c3.47,0,5.61-1.75,5.61-4.71,0-2.66-1.84-4.24-5.09-4.24a11,11,0,0,0-2.7.26ZM878.63,172a53.679,53.679,0,0,1,8.82-.6c4,0,6.9.77,8.83,2.32a8.42,8.42,0,0,1,3.08,6.68,9.23,9.23,0,0,1-2.65,6.85c-2.23,2.1-5.53,3-9.39,3a17.543,17.543,0,0,1-2.22-.12v10.32h-6.47Z" fill="#fff"/>
      <path id="Path_77" data-name="Path 77" d="M909.09,186.18c0,5.65,2.65,9.64,7,9.64s6.94-4.2,6.94-9.81c0-5.19-2.48-9.64-7-9.64s-7,4.2-7,9.81m20.86-.39c0,9.47-5.74,15.21-14.18,15.21s-13.58-6.47-13.58-14.69c0-8.66,5.53-15.12,14-15.12,8.87,0,13.71,6.64,13.71,14.6" fill="#fff"/>
      <path id="Path_78" data-name="Path 78" d="M938.6,200.53l-6.85-28.87h7l2.19,11.91c.64,3.42,1.24,7.15,1.71,10.06h.09c.47-3.12,1.15-6.59,1.88-10.15L947,171.66h7l2.31,12.16c.65,3.39,1.12,6.47,1.55,9.68h.08c.43-3.21,1.07-6.59,1.67-10L962,171.66h6.64l-7.45,28.87h-7.07l-2.44-12.42c-.56-2.92-1-5.62-1.37-8.91h-.09c-.52,3.25-1,6-1.67,8.91l-2.74,12.42Z" fill="#fff"/>
    </g>
    <path id="Path_79" data-name="Path 79" d="M989.15,188.32H978.53v6.85H990.4v5.36H971.98V171.66H989.8v5.35H978.53v6h10.62Z" transform="translate(60)" fill="#fff"/>
    <g id="Group_18" data-name="Group 18" transform="translate(60)" clip-path="url(#clip-path)">
      <path id="Path_80" data-name="Path 80" d="M1001.32,184.47h2.57c3.26,0,5.18-1.63,5.18-4.16s-1.8-4-4.79-4a15.7,15.7,0,0,0-3,.22ZM994.85,172a57.792,57.792,0,0,1,8.7-.6c4.28,0,7.28.65,9.34,2.27a7.34,7.34,0,0,1,2.65,6,7.65,7.65,0,0,1-5.1,7.11V187c2,.82,3.13,2.74,3.86,5.4.9,3.26,1.8,7,2.36,8.14H1010a36.461,36.461,0,0,1-2-6.73c-.77-3.59-2-4.58-4.67-4.62h-2v11.35h-6.47Z" fill="#fff"/>
    </g>
    <path id="Path_81" data-name="Path 81" d="M1037.43,188.32h-10.62v6.85h11.86v5.36h-18.42V171.66h17.83v5.35h-11.27v6h10.62Z" transform="translate(60)" fill="#fff"/>
    <g id="Group_19" data-name="Group 19" transform="translate(60)" clip-path="url(#clip-path)">
      <path id="Path_82" data-name="Path 82" d="M1049.68,195.6a11.911,11.911,0,0,0,2.27.13c5.92,0,9.77-3.21,9.77-10.11,0-6-3.47-9.17-9.08-9.17a13.47,13.47,0,0,0-3,.26Zm-6.55-23.6a59,59,0,0,1,8.82-.6c5.49,0,9,1,11.83,3.09,3,2.22,4.88,5.78,4.88,10.88,0,5.52-2,9.34-4.8,11.69-3,2.53-7.66,3.73-13.32,3.73a55.513,55.513,0,0,1-7.41-.43Z" fill="#fff"/>
      <path id="Path_83" data-name="Path 83" d="M1088.07,195.9a19.585,19.585,0,0,0,2.53.09c3,0,5.56-1.12,5.56-4.16s-2.61-4.07-5.86-4.07h-2.23Zm0-12.81h2.14c3.43,0,5.27-1.41,5.27-3.55s-1.67-3.34-4.63-3.34a17.34,17.34,0,0,0-2.78.17ZM1081.6,172a52.262,52.262,0,0,1,8.44-.6c4,0,6.42.39,8.52,1.63a6.27,6.27,0,0,1,3.47,5.65c0,2.58-1.5,5-4.75,6.17V185c3.3.9,5.74,3.38,5.74,7.11a7.71,7.71,0,0,1-3,6.13c-2.1,1.67-5.61,2.61-11.35,2.61a49.549,49.549,0,0,1-7.07-.43Z" fill="#fff"/>
      <path id="Path_84" data-name="Path 84" d="M1112.7,200.53V188.71l-9.12-17.05H1111l3,6.94c.9,2.1,1.5,3.64,2.22,5.52h.09c.64-1.8,1.33-3.47,2.18-5.52l2.92-6.94h7.32l-9.51,16.83v12Z" fill="#fff"/>
    </g>
    <path id="Path_85" data-name="Path 85" d="M919.48,243.66V285.9H877.23v11.53h42.25v42.24H931V297.43h42.24V285.9H931V243.66Z" transform="translate(431.165 160)" fill="#fff"/>
    <g id="Group_42" data-name="Group 42" transform="translate(29.2 460.1)">
      <g id="Group_40" data-name="Group 40">
        <g id="Group_20" data-name="Group 20" transform="translate(60)" clip-path="url(#clip-path-5)">
          <path id="Path_86" data-name="Path 86" d="M1422.44,299.86V274.79h-69.5a28.57,28.57,0,0,0-45.67,22.91,27.155,27.155,0,0,0,.31,3.93,48.3,48.3,0,0,0-18.9-3.7,47.75,47.75,0,0,0-21.47,5.08,39.63,39.63,0,0,0-9.56-15.68c-8.09-8.09-19.69-12.54-32.66-12.54H1204.8a27.62,27.62,0,0,0,.32-4,28.59,28.59,0,0,0-54.92-11.1c-11.49-8.31-25.29-12.67-40.46-12.67a68.28,68.28,0,0,0-48.63,20.1c-15.11,15.11-23.43,36.62-23.43,60.57s7.89,45.07,22.2,59.38c12.56,12.56,29.72,19.48,48.33,19.48,26.25,0,47.29-11.79,59.85-31.71v26.09h90l4.43-5.53c8.66,7.37,14.06,7.46,26.65,7.46a51.431,51.431,0,0,0,20.13-3.94v2h89.3v22.37h25.89c16.3,0,32.44-3.46,40.12-28.59l29.24-94.81Z" fill="#fff"/>
          <path id="Path_87" data-name="Path 87" d="M1406.77,415h17.86c8.6,0,14.47-1.16,19-3.79,6-3.45,10-9.24,13-18.73l.06-.2v.48c.24-1.29,1.26-4.62,4.58-15.38l10.06-32.59c4.26-13.82,8.52-27.63,11.34-36.75h-68.46V283h-64l-.67-.49-1.52-1.14a20.36,20.36,0,0,0-32.52,16.33,18.388,18.388,0,0,0,.22,2.74l1.45,10,.63,4.39-4.09-1.73-9.32-3.94a40.32,40.32,0,0,0-15.71-3,39.44,39.44,0,0,0-17.78,4.2l-5.93,3-2.6,1.3-.9-2.76-2.06-6.3a31,31,0,0,0-7.57-12.42c-6.52-6.53-16-10.13-26.84-10.14h-29.7l.42-2.86,1-6.53a20.35,20.35,0,0,0-38.89-10.78l-2.79,6.63-1.22,2.91-2.55-1.85-5.83-4.21c-10.2-7.36-22.2-11.1-35.65-11.11a60.19,60.19,0,0,0-42.82,17.69c-13.54,13.54-21,33-21,54.76s7,40.83,19.79,53.57c11,11,26.11,17.06,42.52,17.08,23.07-.08,41.36-9.72,52.9-27.89l10.54-16.72,4.63-7.33v46.31h77.83l5.64-7,1.61-2,2,1.67,4.49,3.81c3.81,3.2,5.9,4.14,8.43,4.76s6.22.74,11.68.74h1.22a43.309,43.309,0,0,0,16.93-3.29L1314,388l3.48-1.47v6.18h89.3V415Zm17.69,16.44h-34.12V409.1H1304.6a61.111,61.111,0,0,1-15.44,1.93h-.86c-6,0-10.83,0-15.84-1.18a30.551,30.551,0,0,1-8.41-3.31l-1.3,1.63-.75.93H1159.84V396.72c-13.83,11.65-31.86,18-51.39,18h-.29c-20.78,0-40-7.78-54.09-21.9-15.87-15.87-24.61-39-24.61-65.18s9.17-49.72,25.84-66.38a76.33,76.33,0,0,1,54.4-22.5h.11a76.93,76.93,0,0,1,37.66,9.42,36.769,36.769,0,0,1,65.59,18.39H1225c15.14,0,28.79,5.3,38.43,14.94a46.769,46.769,0,0,1,8.09,10.86,56,56,0,0,1,17.12-2.66,59,59,0,0,1,11,1,36.8,36.8,0,0,1,55.77-24.15h75.17v25.06h74.29l-1,3.25-2.28,7.39v-.31c-.19.78-.94,3.22-3.93,12.91-7.09,23-21.68,70.24-24.77,80.3l-.58,1.89c-4.06,13.46-11,23-20.63,28.46-9.19,5.22-19,5.94-27.34,6" fill="#fff"/>
          <path id="Path_88" data-name="Path 88" d="M1404.27,395.18v22.37h20.18c7.78,0,14.82-.89,20.46-4.12s10.54-8.77,14.13-20.23l.07-.22,14.62-47.41c4.81-15.58,9.61-31.15,12.34-40h-63.63v-5.71h0v5.71h-5.72V280.5H1351l-1.52-1.14A22.87,22.87,0,0,0,1313,297.7a21.535,21.535,0,0,0,.25,3.11l1.45,10-9.33-3.94a43.23,43.23,0,0,0-35.59,1.22l-5.92,3-2.06-6.29a33.661,33.661,0,0,0-8.17-13.42c-6.88-6.89-16.94-10.86-28.62-10.87H1198.2l1-6.53a22.853,22.853,0,0,0-43.68-12.11l-2.79,6.63-5.82-4.21c-10.51-7.58-23-11.57-37.12-11.58a62.49,62.49,0,0,0-44.59,18.42c-13.97,13.87-21.8,33.87-21.8,56.52s7.47,42.3,20.52,55.34c11.46,11.45,27.1,17.8,44.29,17.81,24.54-.08,43.41-10.77,55-29.05L1173.77,355v40.15h81.53l6.39-8,4.49,3.81c4,3.32,6.41,4.54,9.46,5.28s7.19.83,13.49.81a45.9,45.9,0,0,0,17.91-3.48l7.93-3.35v4.91ZM1392.85,429V406.6h-88.58a59,59,0,0,1-15.14,1.93c-6.29,0-11.15,0-16.11-1.12a29.66,29.66,0,0,1-9.55-4.15l-2.68,3.34h-98.44V391c-13.66,13.51-32.47,21.24-54.14,21.18-20,0-38.71-7.48-52.37-21.16-15.57-15.57-23.87-38.2-23.87-63.41s8.8-48.31,25.1-64.61a75.68,75.68,0,0,1,91.1-11.55,33.719,33.719,0,0,1,4.12-5,34.3,34.3,0,0,1,58.51,22.58H1225c14.26,0,27.4,4.91,36.69,14.21a44.537,44.537,0,0,1,8.63,12.17,53.559,53.559,0,0,1,18.36-3.24,56.419,56.419,0,0,1,13.11,1.51,34.28,34.28,0,0,1,53-24.65h73.4V294.1h73.4l-2.28,7.4s-24.53,79.49-28.66,92.89l-.58,1.9c-4.08,13.53-11,22.25-19.46,27S1433,429,1424.45,429Z" fill="#231f20"/>
          <path id="Path_89" data-name="Path 89" d="M1206.3,332.21h17c6.12,0,9.4-3.86,9.4-10.8s-4.59-9.9-10.27-9.9H1206.3ZM1186,292.35h39.78c13.77,0,27.32,7.33,27.32,25.85,0,9.9-4,19.29-12.24,23v.27c8.32,2.31,10.72,13.24,11.37,22,.22,3.86-1.85,17.36.88,20.7H1233c-1.76-3.08.31-12.09.09-14.66-.53-9.26-1.86-18.77-11.36-18.77H1206.3v33.43H1186Z" fill="#009d57"/>
          <path id="Path_90" data-name="Path 90" d="M1301,343.92c-.35-7.46-5.06-13.63-11.6-13.63-6.89,0-11.47,5.53-12.63,13.63Zm-24.23,12.21c.35,9.13,5,15.17,13.32,15.17a11.54,11.54,0,0,0,11.14-7.33h18.23c-3.54,15.44-16.28,22.12-29.6,22.12-19.39,0-32.59-13.12-32.59-35.48,0-20.46,14.58-35.11,32.13-35.11,21.35,0,32,18,31.1,40.63Z" fill="#009d57"/>
        </g>
      </g>
      <rect id="Rectangle_31" data-name="Rectangle 31" width="18.58" height="66.74" transform="translate(1387.16 317.43)" fill="#009d57"/>
      <rect id="Rectangle_32" data-name="Rectangle 32" width="18.58" height="91.81" transform="translate(1417.32 292.35)" fill="#009d57"/>
      <rect id="Rectangle_33" data-name="Rectangle 33" width="18.57" height="91.81" transform="translate(1445.58 292.35)" fill="#009d57"/>
      <g id="Group_21" data-name="Group 21" transform="translate(60)" clip-path="url(#clip-path-5)">
        <path id="Path_91" data-name="Path 91" d="M1448.93,390.08c-4.47,14.66-11.15,16.46-23.71,16.46h-8.75V388.79h6.45a7,7,0,0,0,7.43-7.45c0-3.61-3.62-13.89-4.7-17.49L1411,317.43h19.67l10.72,43.46h.2l10.72-43.46h19Z" fill="#009d57"/>
        <path id="Path_92" data-name="Path 92" d="M1325.18,298.11a11.45,11.45,0,1,1,11.44,11.45,11.45,11.45,0,0,1-11.44-11.45" fill="#009d57"/>
        <path id="Path_93" data-name="Path 93" d="M1109.27,277.4c-18.92,0-29.07,16-29.07,46.24,0,22.09,6.61,52.76,31.68,52.76,20.16,0,28-18.37,28-47.69,0-30.95-11.54-51.31-30.61-51.31m55.22,49c0,39.45-22.45,63.16-55.52,63.16-30.92,0-53.39-23.89-53.39-61.72,0-35.83,22.77-63.52,54.92-63.52,32,0,54,25.34,54,62.08" fill="#009d57"/>
        <path id="Path_94" data-name="Path 94" d="M1188.74,271.17a11.44,11.44,0,1,0-22.87,0l.11,1.45a8.058,8.058,0,0,0,.73,2.86l.37.76v.08l.3.56a41.09,41.09,0,0,0,6,7.85l-4.28,3.22,4.28,7.14s13.46-8.74,15.15-21.75a11.092,11.092,0,0,0,.22-2.17" fill="#009d57"/>
        <path id="Path_95" data-name="Path 95" d="M1091.73,328.82a6.63,6.63,0,0,0-1.68,6.61s1.39,5.57,8.44,5.67c3.19-.28,4.14-3.13,9.82-3.55h1v5.78a10,10,0,0,1-2.52,5.53,3.43,3.43,0,0,0,.39,4.68s2.62,2.9,5.8-1a17.941,17.941,0,0,0,3.67-10.93c-.12-1.77-.06-3.6-.06-3.6s9.74,6.28,15.57-2.53a6.8,6.8,0,0,0-.89-7.36s4.34-5-1.14-9.78a7.42,7.42,0,0,0-8.81-.09s4.77-8.12-2.49-12c-5.2-2.14-8.14,1.26-8.14,1.26s-4.79-5-10.51.13c0,0-5,5,1.52,11.1,0,0-5.76-4.87-11,1a6.52,6.52,0,0,0,1,9.05" fill="#009d57"/>
        <path id="Path_96" data-name="Path 96" d="M1182.19,433.38l1.34-7.19c.32-1.92.64-3.87.78-5.78h.19c.18,2,.5,4,.87,6l1.29,7Zm7.46-19.08h-10.13L1172,444.68h8.37l1-5.06h6.25l1,5.06h8.41Z" fill="#fff"/>
        <path id="Path_97" data-name="Path 97" d="M1217,440.71a12.177,12.177,0,0,0,1-4.68V414.29h-8.1v22c0,1.77-.23,3.82-2.39,3.82s-2.3-2.18-2.3-4V414.29h-8.1v19.17c0,.91.08,2.57.08,2.57a14.712,14.712,0,0,0,1,4.68c1.31,3.11,4.07,4.69,9.48,4.69,3.59,0,7.18-1,9.12-4.24Z" fill="#fff"/>
      </g>
      <path id="Path_98" data-name="Path 98" d="M1220.21,414.28v6.6h6.17v23.77h8V420.88h6.07v-6.6Z" transform="translate(60)" fill="#fff"/>
      <g id="Group_22" data-name="Group 22" transform="translate(60)" clip-path="url(#clip-path-5)">
        <path id="Path_99" data-name="Path 99" d="M1254.66,431.14c0,1.62-.15,4.89-.15,4.89l-.17,1.53c-.18,1.37-.78,2.55-2.29,2.55s-2.17-1.23-2.35-2.55l-.19-1.53c-.16-1.66-.18-3.36-.18-5v-1.45c0-1.87,0-3.69.09-5.52s0-4.95,2.53-4.95c1.94,0,2.39,1.77,2.53,3.36.18,2.37.18,4.74.18,7.11Zm8.28-1.59c0-8.47-.22-15.9-10.94-15.9s-11,7.43-11,15.9a49.833,49.833,0,0,0,.31,6.48,14.357,14.357,0,0,0,1.33,4.68c1.45,2.86,4.2,4.69,9.36,4.69,5.31,0,8-1.83,9.43-4.69a14.563,14.563,0,0,0,1.23-4.68,58.671,58.671,0,0,0,.23-6.48" fill="#fff"/>
      </g>
      <path id="Path_100" data-name="Path 100" d="M1340.15,414.28v6.6h6.16v23.77h8.01V420.88h6.08v-6.6Z" transform="translate(60)" fill="#fff"/>
      <g id="Group_23" data-name="Group 23" transform="translate(60)" clip-path="url(#clip-path-5)">
        <path id="Path_101" data-name="Path 101" d="M1280.75,427.34v-7.43c3,0,4.6.41,4.6,3.78,0,3.19-1.66,3.65-4.6,3.65m0,5.69h2.72c6.21,0,10.08-3,10.08-9.38,0-7.15-4-9.38-10.63-9.38H1272.7v30.37h8Z" fill="#fff"/>
        <path id="Path_102" data-name="Path 102" d="M1301.31,433.36l1.33-7.2a57.25,57.25,0,0,0,.78-5.78h.19c.18,2,.51,4,.87,6l1.29,7Zm7.45-19.08h-10.12l-7.54,30.37h8.37l1-5h6.26l1,5h8.42Z" fill="#fff"/>
        <path id="Path_103" data-name="Path 103" d="M1325.85,427v-7.15c2.94,0,4.88.14,4.88,3.6,0,3.23-2.08,3.55-4.88,3.55m12.65,9c-.17-3.31-.87-5.86-5-6.38,3.82-.83,5.2-3.28,5.2-7.06,0-6.84-3.82-8.29-9.8-8.29h-11.1v30.37h8V432.36c4.26,0,4.61.92,4.69,3.65l.1,4.69a9.052,9.052,0,0,0,.68,3.95h8.56v-.41c-1.11-.45-1.25-2-1.25-3.37v-.17c0-1.13-.11-4.28-.13-4.69" fill="#fff"/>
        <path id="Path_104" data-name="Path 104" d="M1362.4,440.66c1.35,3.4,4.52,4.63,9.56,4.63,4.83,0,8.33-1.26,9.9-4.63a11.45,11.45,0,0,0,.91-4.69h0v-.15c0-10.93-13-8.29-13-14.21a2.34,2.34,0,0,1,2.39-2.6c2.07,0,2.25,2.28,2.25,3.83H1382c0-6.6-3.59-9.2-9.94-9.2-5.84,0-10.16,2.64-10.16,8.93,0,10.92,11.18,8.37,12.59,13.4h0l.15,1.12a2.69,2.69,0,0,1-2.76,2.92c-2.26,0-2.5-2.26-2.52-4h0v-.52h-7.68V436h0a13,13,0,0,0,.75,4.68Z" fill="#fff"/>
        <path id="Path_105" data-name="Path 105" d="M1477.47,404.74v-2.33h2c.81,0,2,0,2,1.07s-.66,1.28-1.58,1.26Zm3.36,1.25c1.48-.1,2.29-.73,2.29-2.25a2.369,2.369,0,0,0-1-2.15,4.3,4.3,0,0,0-2.26-.43h-4v8.37h1.65V406h1.62l1.86,3.54h1.91ZM1479,411.6a6.28,6.28,0,1,1,4.441-1.85A6.29,6.29,0,0,1,1479,411.6m0,1.46a7.74,7.74,0,1,0-5.493-2.267A7.74,7.74,0,0,0,1479,413.06" fill="#fff"/>
      </g>
    </g>
    <rect id="Rectangle_49" data-name="Rectangle 49" width="786.8" height="131.83" transform="translate(932.81 747.47)" fill="none"/>
    <rect id="Rectangle_50" data-name="Rectangle 50" width="786.8" height="131.83" transform="translate(932.81 747.47)" fill="none"/>
  </g>
</svg>
