<svg xmlns="http://www.w3.org/2000/svg" xmlns:xlink="http://www.w3.org/1999/xlink" width="578.4" height="614.4" viewBox="0 0 578.4 614.4">
  <defs>
    <clipPath id="clip-path">
      <rect id="Rectangle_24" data-name="Rectangle 24" width="578.4" height="614.4" transform="translate(1210.33 1165.6)" fill="none"/>
    </clipPath>
  </defs>
  <g id="Group_15" data-name="Group 15" transform="translate(-1210.33 -1165.6)" clip-path="url(#clip-path)">
    <path id="Path_55" data-name="Path 55" d="M1637.64,1199.46a260.79,260.79,0,1,1-184.39,76.38,260.794,260.794,0,0,1,184.39-76.38m157.81,103a223.18,223.18,0,1,0,65.37,157.82,223.18,223.18,0,0,0-65.37-157.82" fill="#27282a"/>
    <path id="Path_56" data-name="Path 56" d="M1851.8,1220a18.769,18.769,0,1,1,25-28,359.21,359.21,0,0,1,0,536.561,18.769,18.769,0,1,1-25-28,321.48,321.48,0,0,0,0-480.479M1423.47,1700.56a18.769,18.769,0,1,1-25,28,359.21,359.21,0,0,1,0-536.561,18.769,18.769,0,1,1,25,28,321.48,321.48,0,0,0,0,480.479" fill="#27282a"/>
    <path id="Path_57" data-name="Path 57" d="M1527.94,1418.63h-.09l-19,57.22H1547Zm61.8,98.72a39,39,0,0,1,1.56,5.93,3.559,3.559,0,0,1-.85,3.27,6.62,6.62,0,0,1-4,1.36c-2,.17-4.61.26-8,.26-3.55,0-6.3-.06-8.28-.16a20.262,20.262,0,0,1-4.52-.62,4.06,4.06,0,0,1-2.18-1.3,7,7,0,0,1-1.05-2.19l-9-27h-50.54l-8.54,26.32a7.872,7.872,0,0,1-1.1,2.44,4.359,4.359,0,0,1-2.18,1.56,15.842,15.842,0,0,1-4.26.78q-2.75.21-7.23.21a68.651,68.651,0,0,1-7.49-.31,5.69,5.69,0,0,1-3.74-1.51,4.09,4.09,0,0,1-.74-3.39,36.777,36.777,0,0,1,1.56-5.82l41.52-119.41a10.374,10.374,0,0,1,1.45-2.87,5.132,5.132,0,0,1,2.66-1.66,20.689,20.689,0,0,1,5-.72q3.24-.165,8.53-.17,6.15,0,9.79.17a26.084,26.084,0,0,1,5.67.72,5.421,5.421,0,0,1,2.9,1.72,9.862,9.862,0,0,1,1.52,3.12Z" fill="#27282a"/>
    <path id="Path_58" data-name="Path 58" d="M1677.62,1488.12a21.321,21.321,0,0,0-1.56-8.37,15.881,15.881,0,0,0-4.57-6.19,21.19,21.19,0,0,0-7.69-3.85,45.1,45.1,0,0,0-12.19-1.36h-16.23v38.29h19.77a33.005,33.005,0,0,0,9.62-1.2,19.586,19.586,0,0,0,6.77-3.54,16,16,0,0,0,4.46-5.82,18.708,18.708,0,0,0,1.62-8m-7-57.63a20.1,20.1,0,0,0-1.25-7.28,13.429,13.429,0,0,0-3.74-5.36,17.172,17.172,0,0,0-6.3-3.27,36,36,0,0,0-10.15-1.14h-13.84v34.94h15.29a26.064,26.064,0,0,0,9.47-1.4,16.408,16.408,0,0,0,5.88-3.84,15.581,15.581,0,0,0,3.48-5.73,20.682,20.682,0,0,0,1.16-6.92m35.37,56.69a40.293,40.293,0,0,1-2,13,34.42,34.42,0,0,1-13.79,18,48.678,48.678,0,0,1-10.66,5.31,65.69,65.69,0,0,1-12.43,3.06,99.706,99.706,0,0,1-14.72,1H1616.6a8.471,8.471,0,0,1-5.76-2c-1.56-1.35-2.35-3.56-2.35-6.61V1401.57c0-3,.79-5.25,2.35-6.6a8.47,8.47,0,0,1,5.76-2h33.81a90.27,90.27,0,0,1,21,2.07,41.23,41.23,0,0,1,14.46,6.3,27.869,27.869,0,0,1,9,10.66,34.64,34.64,0,0,1,3.12,15.19,33.085,33.085,0,0,1-1.25,9.2,27.678,27.678,0,0,1-3.63,7.86,27.365,27.365,0,0,1-5.88,6.24,30,30,0,0,1-8,4.36,35.173,35.173,0,0,1,10.55,3.65,29.536,29.536,0,0,1,8.43,6.71,30.842,30.842,0,0,1,5.67,9.61,34.831,34.831,0,0,1,2.09,12.38" fill="#27282a"/>
    <path id="Path_59" data-name="Path 59" d="M1807.74,1487.18a41.839,41.839,0,0,1-3.94,18.63,38.691,38.691,0,0,1-10.72,13.37,46.91,46.91,0,0,1-15.8,8,67.524,67.524,0,0,1-19.37,2.71,69.137,69.137,0,0,1-12.94-1.15,73.27,73.27,0,0,1-10.55-2.75,44.452,44.452,0,0,1-7.65-3.39,21.087,21.087,0,0,1-4.43-3.12,7.871,7.871,0,0,1-1.92-3.9,35,35,0,0,1-.57-7.33c0-2.15.07-4,.2-5.4a16.578,16.578,0,0,1,.68-3.55,3.85,3.85,0,0,1,1.25-1.92,3.049,3.049,0,0,1,1.82-.57,8.671,8.671,0,0,1,4.11,1.71,69.317,69.317,0,0,0,6.82,3.8,60.678,60.678,0,0,0,9.93,3.8,47.089,47.089,0,0,0,13.36,1.72,30.641,30.641,0,0,0,8.94-1.21,19.462,19.462,0,0,0,6.72-3.37,14.343,14.343,0,0,0,4.22-5.41,17.409,17.409,0,0,0,1.45-7.18,12.551,12.551,0,0,0-2.49-7.85,25.116,25.116,0,0,0-6.5-5.83,68.965,68.965,0,0,0-9.11-4.79q-5.09-2.22-10.51-4.72a96.781,96.781,0,0,1-10.5-5.67,42.079,42.079,0,0,1-9.1-7.6,35.242,35.242,0,0,1-6.5-10.46,37.53,37.53,0,0,1-2.5-14.45,38.428,38.428,0,0,1,3.58-17,35.19,35.19,0,0,1,9.67-12.17,41.047,41.047,0,0,1,14.36-7.22,65.27,65.27,0,0,1,36,.31,48,48,0,0,1,7.4,2.81,17.19,17.19,0,0,1,4.26,2.59,8.1,8.1,0,0,1,1.41,1.77,9.581,9.581,0,0,1,.63,1.92,19.674,19.674,0,0,1,.34,3c.08,1.21.11,2.73.11,4.53,0,2,0,3.7-.14,5.1a19.884,19.884,0,0,1-.53,3.43,4.1,4.1,0,0,1-1,2,2.619,2.619,0,0,1-1.84.63,8.789,8.789,0,0,1-3.63-1.46q-2.51-1.46-6.13-3.17a60.525,60.525,0,0,0-8.43-3.12,37.107,37.107,0,0,0-10.51-1.41,25.331,25.331,0,0,0-7.8,1.09,16.242,16.242,0,0,0-5.56,3,12,12,0,0,0-3.34,4.63,15.28,15.28,0,0,0-1.09,5.72,12.661,12.661,0,0,0,2.44,7.76,23.521,23.521,0,0,0,6.56,5.81,69.406,69.406,0,0,0,9.3,4.8q5.2,2.22,10.63,4.72a107.391,107.391,0,0,1,10.61,5.67,43.257,43.257,0,0,1,9.25,7.6,35.7,35.7,0,0,1,6.55,10.4,36.35,36.35,0,0,1,2.49,14.09" fill="#27282a"/>
  </g>
</svg>
