<?xml version="1.0" encoding="utf-8"?>
<!-- Generator: Adobe Illustrator 26.0.1, SVG Export Plug-In . SVG Version: 6.00 Build 0)  -->
<svg version="1.1" xmlns="http://www.w3.org/2000/svg" xmlns:xlink="http://www.w3.org/1999/xlink" x="0px" y="0px"
	 viewBox="0 0 585.3 315.8" style="enable-background:new 0 0 585.3 315.8;" xml:space="preserve">
<style type="text/css">
	.st0{clip-path:url(#SVGID_00000132055942717608326860000007788390614040230534_);}
	.st1{fill:#FFDD15;}
	.st2{fill:#FFF2C1;}
	.st3{fill:#FFE573;}
	.st4{clip-path:url(#SVGID_00000045585388338119471490000009957530539609180606_);}
	.st5{fill:#FFFFFF;}
	.st6{fill:#1F2123;}
	.st7{clip-path:url(#SVGID_00000162314889708919137780000002215148047414422671_);}
	.st8{clip-path:url(#SVGID_00000146499536468977735810000017520365166307225535_);}
	.st9{clip-path:url(#SVGID_00000155831308868971692580000007466595765034717861_);}
	.st10{clip-path:url(#SVGID_00000148655410976215073550000002947825708510947751_);}
	.st11{fill:#231F20;}
	.st12{clip-path:url(#SVGID_00000098923970126268621020000011056814691506427304_);}
	.st13{clip-path:url(#SVGID_00000000220644277984526320000002835668509256519871_);}
	.st14{fill:#CCCBCB;}
</style>
<g id="Layer_2">
</g>
<g id="Layer_1">
	<g>
		<g>
			<g>
				<defs>
					<rect id="SVGID_1_" x="0" y="0" width="585.3" height="315.8"/>
				</defs>
				<clipPath id="SVGID_00000012459117914831483130000014649453520842727304_">
					<use xlink:href="#SVGID_1_"  style="overflow:visible;"/>
				</clipPath>
				<g style="clip-path:url(#SVGID_00000012459117914831483130000014649453520842727304_);">
					<path class="st1" d="M403.7,294.3V188.5c0,0,0,0,0,0c2.1-3.1,4.8-1.2,4.8,1.5v103.1c0,9.1,6.8,16.4,15.2,16.4l141.4,0.1
						c8.4,0,15.3-7.3,15.3-16.4V22.7c0-9.1-6.9-16.5-15.3-16.5H423.8c-8.4,0-15.3,7.4-15.3,16.4v94c0,0,0,0,0,0
						c-2.1,3.1-4.8,1.2-4.8-1.5V21.7c0-12,9-21.7,20.1-21.7h141.3c11.1,0,20.1,9.7,20.1,21.7v272.6c0,11.9-9,21.5-20,21.5H423.8
						C412.7,315.8,403.7,306.2,403.7,294.3"/>
				</g>
				<g style="clip-path:url(#SVGID_00000012459117914831483130000014649453520842727304_);">
					<path class="st2" d="M207.9,126.5C207.9,126.5,207.9,126.5,207.9,126.5c-3.2-0.3-4.1,3.5-2.6,5.4l13.5,17.3
						c0,0.1,0,0.1-0.1,0.1H184c-4,0-7.2,3.5-7.2,7.8v136.1c0,9-6.8,16.3-15.2,16.3H20.2c-8.5,0-15.4-7.4-15.4-16.6V22.9
						c0-9.2,6.9-16.7,15.5-16.7h141c8.5,0,15.5,7.5,15.5,16.7c0,0,0,96.3,0,113.4c0,1.4,1.1,2.6,2.4,2.6c1.3,0,2.4-1.2,2.4-2.6
						l-0.1-114.8c0-11.9-8.9-21.5-20-21.5H20.3C9.1,0,0.1,9.7,0.1,21.8C0,79.6,0,236.3,0,294.1c0,12,9,21.7,20.2,21.7h141.1
						c11.2,0,20.2-9.7,20.2-21.7c0-39.2,0-119.1,0.1-135.5c0-1.6,1.2-3,2.8-3c8.5,0,33.5-0.1,33.5-0.1c0.1,0,0.1,0.1,0.1,0.1
						l-12.5,16.1c-0.8,1.1-1.1,2.6-0.5,3.9c0.5,1.1,1.3,1.6,2.1,1.6c0.6,0,1.2-0.3,1.7-0.9l19-24.3c0,0,0-0.1,0-0.1L207.9,126.5z"/>
				</g>
				<g style="clip-path:url(#SVGID_00000012459117914831483130000014649453520842727304_);">
					<path class="st3" d="M201.2,115.2c0,2.7,2.7,4.6,4.8,1.5c0,0,0,0,0,0V22.7c0-9.1,6.9-16.5,15.4-16.5h141.2
						c8.5,0,15.4,7.4,15.4,16.5v116.1c0,0,0,0,0,0c2.1,3.1,4.8,1.2,4.8-1.5V21.9c0-12.1-9.1-21.9-20.3-21.9h-141
						c-11.2,0-20.3,9.8-20.3,21.9V115.2z"/>
				</g>
				<g style="clip-path:url(#SVGID_00000012459117914831483130000014649453520842727304_);">
					<path class="st3" d="M408.4,127.5c-1.5-1.9-4.4-0.8-4.2,3.3c0,0,0,0,0,0l14.3,18.4c0,0.1,0,0.1-0.1,0.1h-33.3
						c-4,0-7.2,3.5-7.2,7.8v136c0,9.1-6.9,16.5-15.3,16.5H221.1c-8.3,0-15.1-7.3-15.1-16.3V187.7c0,0,0,0,0,0
						c-2.1-3.1-4.8-1.2-4.8,1.5v105c0,11.9,9,21.6,20.1,21.6h141.3c11.2,0,20.3-9.8,20.3-21.8V158.4c0-1.6,1.2-2.9,2.7-2.9h32.1
						c0.1,0,0.1,0.1,0.1,0.1L405,171.9c-0.9,1.2-0.9,3.2,0,4.4c0.5,0.6,1.1,0.9,1.7,0.9s1.2-0.3,1.7-0.9l19-24.3c0,0,0-0.1,0-0.1
						L408.4,127.5z"/>
				</g>
			</g>
		</g>
		<g>
			<defs>
				<rect id="SVGID_00000174561202559467820390000010814406726494945936_" x="13.3" y="86.4" width="152.2" height="134.9"/>
			</defs>
			<clipPath id="SVGID_00000147203584869160676450000015000262917256431530_">
				<use xlink:href="#SVGID_00000174561202559467820390000010814406726494945936_"  style="overflow:visible;"/>
			</clipPath>
			<g style="clip-path:url(#SVGID_00000147203584869160676450000015000262917256431530_);">
				<path class="st5" d="M196.1,93.5c2.9,0,5.6,1.2,7.5,3.1h0c1.9,1.9,3.1,4.6,3.1,7.5c0,2.9-1.2,5.6-3.1,7.5l-0.1,0.1
					c-1.9,1.9-4.5,3-7.4,3c-2.9,0-5.6-1.2-7.5-3.1h0c-1.9-1.9-3.1-4.6-3.1-7.5c0-2.9,1.2-5.6,3.1-7.5l0.1-0.1
					C190.6,94.6,193.2,93.5,196.1,93.5 M213,182.6c1,0,1.9,0.8,1.9,1.9c0,1-0.8,1.9-1.9,1.9h-84.8c-1,0-1.9-0.8-1.9-1.9
					c0-1,0.8-1.9,1.9-1.9H213z M148.5,151.2l3.4-15.9h-26l-3,16.6c-0.2,0.9-1,1.5-1.8,1.5v0h-13.3c-1,0-1.9-0.8-1.9-1.9
					c0-1,0.8-1.9,1.9-1.9h11.7l3-16.5c0.1-0.9,0.9-1.7,1.9-1.7l29.9,0c0.1,0,0.3,0,0.4,0c1,0.2,1.7,1.2,1.4,2.2l-3.9,18.2
					c-0.2,1-1.2,1.7-2.2,1.4C149,153.2,148.3,152.3,148.5,151.2 M246.9,210.8c1,0,1.9,0.8,1.9,1.9c0,1-0.8,1.9-1.9,1.9H98.4
					c-1,0-1.9-0.8-1.9-1.9c0-1,0.8-1.9,1.9-1.9H246.9z M245.8,157.4c1,0,1.9,0.8,1.9,1.9s-0.8,1.9-1.9,1.9H99.5
					c-1,0-1.9-0.8-1.9-1.9s0.8-1.9,1.9-1.9H245.8z M109.6,166.5c0-1,0.8-1.9,1.9-1.9c1,0,1.9,0.8,1.9,1.9v38.7c0,1-0.8,1.9-1.9,1.9
					c-1,0-1.9-0.8-1.9-1.9V166.5z M232,166.5c0-1,0.8-1.9,1.9-1.9c1,0,1.9,0.8,1.9,1.9v38.7c0,1-0.8,1.9-1.9,1.9
					c-1,0-1.9-0.8-1.9-1.9V166.5z M176.3,151.6c0,1-0.8,1.9-1.9,1.9c-1,0-1.9-0.8-1.9-1.9v-13.5c0-5.9,2.4-11.3,6.3-15.1
					c3.9-3.9,9.2-6.3,15.1-6.3h4c5.9,0,11.3,2.4,15.1,6.3c3.9,3.9,6.3,9.2,6.3,15.1v13.5c0,1-0.8,1.9-1.9,1.9s-1.9-0.8-1.9-1.9
					v-13.5c0-4.9-2-9.3-5.2-12.5c-3.2-3.2-7.6-5.2-12.5-5.2h-4c-4.9,0-9.3,2-12.5,5.2c-3.2,3.2-5.2,7.6-5.2,12.5V151.6z
					 M207.1,135.2v16.5c0,1,0.8,1.9,1.9,1.9c1,0,1.9-0.8,1.9-1.9v-16.5c0-1-0.8-1.9-1.9-1.9C207.9,133.3,207.1,134.1,207.1,135.2
					 M181.3,135.2v16.5c0,1,0.8,1.9,1.9,1.9c1,0,1.9-0.8,1.9-1.9v-16.5c0-1-0.8-1.9-1.9-1.9C182.1,133.3,181.3,134.1,181.3,135.2
					 M200.9,99.2c-1.2-1.2-3-2-4.8-2c-1.9,0-3.5,0.7-4.8,1.9l-0.1,0.1c-1.2,1.2-2,3-2,4.8c0,1.9,0.8,3.6,2,4.8l0,0
					c1.2,1.2,3,2,4.8,2c1.9,0,3.5-0.7,4.8-1.9l0.1-0.1c1.2-1.2,2-3,2-4.8C202.9,102.2,202.1,100.5,200.9,99.2L200.9,99.2z"/>
			</g>
			<g style="clip-path:url(#SVGID_00000147203584869160676450000015000262917256431530_);">
				<path class="st5" d="M45,93.5c3.1,0,5.8,1.2,7.8,3.2c2,2,3.2,4.8,3.2,7.8s-1.2,5.8-3.2,7.8c-2,2-4.8,3.2-7.8,3.2
					c-3.1,0-5.8-1.2-7.8-3.2c-2-2-3.2-4.8-3.2-7.8s1.2-5.8,3.2-7.8C39.2,94.7,42,93.5,45,93.5"/>
			</g>
			<g style="clip-path:url(#SVGID_00000147203584869160676450000015000262917256431530_);">
				<path class="st5" d="M78.7,153.7c1.2,2.3,0.9,4.6-0.1,6.3c-0.5,0.8-1.3,1.5-2.1,2.1c-0.8,0.5-1.8,0.9-2.8,1
					c-2.1,0.2-4.4-0.5-6.1-2.8c0-0.1-0.1-0.1-0.1-0.2l-6.8-10.7v55.4c0,0.9-0.7,1.6-1.6,1.6c-0.9,0-1.6-0.7-1.6-1.6v-64.4
					c0-0.9,0.7-1.6,1.6-1.6c0.9,0,1.6,0.7,1.6,1.6v3l9.5,15c0.9,1.2,2.1,1.6,3.2,1.5c0.5-0.1,1-0.2,1.5-0.5c0.4-0.3,0.8-0.6,1.1-1.1
					c0.5-0.8,0.6-1.9,0-3.1l-10-19.5c-0.3-0.6-0.6-1.2-0.9-1.7c-2.4-4.8-3.9-7.7-9.5-10.4c-1.3-0.6-2.6-1-4-1.3
					c-1.4-0.3-2.8-0.5-4.2-0.5h-4.4c-5.4,0-10.3,2.2-13.9,5.8c-3.6,3.6-5.8,8.5-5.8,13.9v18.7c0,2.3,0.9,4.3,2.3,5.8
					c1.1,1.1,2.4,1.9,4,2.2v-29.9c0-0.9,0.7-1.6,1.6-1.6c0.9,0,1.6,0.7,1.6,1.6V170v34.8c0,0.9-0.7,1.6-1.6,1.6
					c-0.9,0-1.6-0.7-1.6-1.6v-33.3c-2.4-0.4-4.6-1.5-6.3-3.2c-2-2.1-3.2-4.9-3.2-8v-18.7c0-6.3,2.6-12,6.7-16.1
					c4.1-4.1,9.9-6.7,16.1-6.7h4.4c1.7,0,3.3,0.2,4.9,0.5c1.6,0.4,3.2,0.9,4.7,1.6c6.6,3.1,8.3,6.4,11.1,11.8
					c0.3,0.5,0.6,1.1,0.8,1.7L78.7,153.7z"/>
			</g>
			<g style="clip-path:url(#SVGID_00000147203584869160676450000015000262917256431530_);">
				<path class="st5" d="M43.4,165.7v39.1c0,0.9,0.7,1.6,1.6,1.6c0.9,0,1.6-0.7,1.6-1.6v-39.1c0-0.9-0.7-1.6-1.6-1.6
					C44.1,164.1,43.4,164.8,43.4,165.7"/>
			</g>
			<g style="clip-path:url(#SVGID_00000147203584869160676450000015000262917256431530_);">
				<path class="st6" d="M50.7,98.9c-1.4-1.4-3.4-2.3-5.6-2.3c-2.2,0-4.2,0.9-5.6,2.3c-1.4,1.4-2.3,3.4-2.3,5.6
					c0,2.2,0.9,4.2,2.3,5.6c1.4,1.4,3.4,2.3,5.6,2.3c2.2,0,4.2-0.9,5.6-2.3c1.4-1.4,2.3-3.4,2.3-5.6C53,102.3,52.1,100.4,50.7,98.9"
					/>
			</g>
			<g style="clip-path:url(#SVGID_00000147203584869160676450000015000262917256431530_);">
				<path class="st5" d="M45,113c-2.3,0-4.4-0.9-6-2.5c-1.6-1.6-2.5-3.7-2.5-6c0-2.3,0.9-4.4,2.5-6c1.6-1.6,3.7-2.5,6-2.5
					c2.3,0,4.4,0.9,6,2.5l0,0c1.6,1.6,2.5,3.7,2.5,6c0,2.3-0.9,4.4-2.5,6C49.4,112.1,47.3,113,45,113z M45,97c-2,0-3.9,0.8-5.3,2.2
					c-1.4,1.4-2.2,3.3-2.2,5.3c0,2,0.8,3.9,2.2,5.3c1.4,1.4,3.3,2.2,5.3,2.2c2,0,3.9-0.8,5.3-2.2c1.4-1.4,2.2-3.3,2.2-5.3
					c0-2-0.8-3.9-2.2-5.3C48.9,97.8,47,97,45,97z"/>
			</g>
			<g style="clip-path:url(#SVGID_00000147203584869160676450000015000262917256431530_);">
				<path class="st6" d="M77.6,135.7c-5.2,4.6-7.1,17.8-7.1,17.8l1.1,2.7l-3.4,15.9l17.4,4.5l9.2-35.8
					C94.8,140.8,81.3,132.4,77.6,135.7"/>
			</g>
			<g style="clip-path:url(#SVGID_00000147203584869160676450000015000262917256431530_);">
				<path class="st5" d="M85.9,153.3C85.9,153.4,85.9,153.4,85.9,153.3c-0.1,0.3-0.1,0.5-0.2,0.7c0,0,0,0.1,0,0.1
					c-0.1,0.2-0.1,0.4-0.2,0.6c0,0,0,0.1,0,0.1c-0.1,0.2-0.1,0.4-0.2,0.6c0,0,0,0.1,0,0.1c-0.1,0.1-0.1,0.3-0.2,0.4
					c0,0,0,0.1-0.1,0.1c0,0,0,0,0,0.1c0,0,0,0.1-0.1,0.1c-0.1,0.1-0.1,0.2-0.2,0.2l-0.1,0.1l-0.1,0.1l-0.4,0.4l0,0
					c0,0-0.1,0.1-0.1,0.1c-0.1,0.1-0.2,0.3-0.3,0.4c0,0-0.1,0.1-0.1,0.1c0,0,0,0.1-0.1,0.1c0,0,0,0,0,0.1c0,0,0,0,0,0.1c0,0,0,0,0,0
					c0,0,0,0,0,0.1c0,0,0,0,0,0.1c0,0,0,0,0,0.1c0,0,0,0,0,0.1c0,0,0,0,0,0c0,0,0,0,0,0c0,0,0,0,0,0.1c0,0.1-0.1,0.2-0.1,0.3
					c0,0.1,0,0.1,0,0.1c0,0,0,0.1,0,0.1c0,0,0,0,0,0c0,0.1-0.1,0.2-0.1,0.2c0,0.1-0.1,0.2-0.1,0.3c0,0,0,0.1,0,0.1c0,0,0,0.1,0,0.1
					c0,0,0,0,0,0.1c0,0.1-0.1,0.2-0.1,0.3c0,0.1-0.1,0.2-0.1,0.3c0,0,0,0,0,0c0,0,0,0.1,0,0.1c0,0.1,0,0.1-0.1,0.2
					c0,0.1-0.1,0.2-0.1,0.3c0,0.1,0,0.1-0.1,0.2c0,0,0,0.1,0,0.1c0,0,0,0,0,0c0,0.1-0.1,0.2-0.1,0.2c0,0.1-0.1,0.2-0.1,0.3
					c0,0,0,0.1,0,0.1c0,0,0,0.1,0,0.1c0,0,0,0,0,0.1c0,0.1-0.1,0.2-0.1,0.3c0,0.1-0.1,0.2-0.1,0.3c0,0,0,0,0,0c0,0,0,0.1,0,0.1
					c0,0,0,0.1-0.1,0.1c0,0.1-0.1,0.2-0.1,0.3c0,0.1,0,0.1-0.1,0.2c0,0,0,0.1,0,0.1c0,0,0,0.1-0.1,0.2c0,0.1-0.1,0.2-0.1,0.3
					c0,0.1-0.1,0.1-0.1,0.2c0,0,0,0.1-0.1,0.1c-0.1,0.1-0.1,0.3-0.2,0.4c-0.1,0.2-0.2,0.3-0.2,0.5c0,0,0,0,0,0c0,0,0,0.1-0.1,0.1
					c-0.1,0.1-0.2,0.1-0.3,0.1c0,0-0.1,0-0.1,0c-0.2,0-0.5,0-0.7,0c-0.2,0-0.4,0-0.6-0.1c0,0-0.1,0-0.1,0c-0.2,0-0.3-0.1-0.5-0.1
					c-0.1,0-0.1,0-0.2,0c-0.2,0-0.3-0.1-0.5-0.1c0,0-0.1,0-0.1,0c-0.2,0-0.4-0.1-0.5-0.1c0,0-0.1,0-0.1,0c-0.2,0-0.3-0.1-0.5-0.2
					c0,0-0.1,0-0.1,0c-0.2-0.1-0.3-0.1-0.5-0.2c0,0-0.1,0-0.1-0.1c-0.2-0.1-0.4-0.2-0.6-0.2c-0.2-0.1-0.4-0.2-0.6-0.3
					c-0.1,0-0.1-0.1-0.2-0.1c-0.1,0-0.2-0.1-0.2-0.2c0,0,0-0.1,0-0.1c0,0,0,0,0,0c0-0.1,0-0.3,0-0.5c0-0.2,0-0.4,0.1-0.5
					c0,0,0-0.1,0-0.1c0-0.1,0-0.1,0-0.2c0-0.1,0-0.3,0-0.4c0-0.1,0-0.1,0-0.2c0,0,0,0,0-0.1c0-0.1,0-0.1,0-0.2c0-0.1,0-0.2,0-0.3
					c0,0,0-0.1,0-0.1c0,0,0-0.1,0-0.1c0,0,0,0,0,0c0-0.1,0-0.2,0-0.3c0-0.1,0-0.2,0-0.3c0,0,0,0,0-0.1c0,0,0-0.1,0-0.1
					c0,0,0-0.1,0-0.1c0-0.1,0-0.2,0-0.3c0-0.1,0-0.2,0-0.2c0,0,0,0,0,0c0,0,0,0,0-0.1c0-0.1,0-0.1,0-0.2c0-0.1,0-0.2,0-0.3
					c0,0,0-0.1,0-0.1c0,0,0-0.1,0-0.1c0,0,0,0,0,0c0-0.1,0-0.2,0.1-0.3c0-0.1,0-0.2,0.1-0.3c0,0,0,0,0-0.1c0,0,0-0.1,0-0.1
					c0,0,0-0.1,0-0.1c0-0.1,0-0.2,0.1-0.3c0-0.1,0-0.1,0-0.2c0,0,0,0,0-0.1c0,0,0-0.1,0-0.1c0-0.1,0-0.1,0-0.2c0-0.1,0-0.2,0.1-0.3
					c0,0,0,0,0-0.1c0,0,0,0,0,0c0,0,0,0,0-0.1c0,0,0,0,0-0.1c0,0,0,0,0-0.1c0,0,0,0,0-0.1c0,0,0,0,0-0.1c0,0,0,0,0,0c0,0,0,0,0-0.1
					c0,0,0,0,0-0.1c0,0,0-0.1,0-0.1c0-0.1,0-0.1,0-0.2c0-0.2,0-0.4-0.1-0.5c0,0,0-0.1,0-0.1l0,0l-0.2-0.6l0-0.1l-0.1-0.2
					c0-0.1,0-0.2,0-0.3c0,0,0-0.1,0-0.1c0,0,0-0.1,0-0.1c0-0.1,0-0.1,0-0.2c0-0.1,0-0.3,0.1-0.4c0,0,0-0.1,0-0.1c0,0,0-0.1,0-0.1
					c0-0.2,0.1-0.3,0.1-0.5c0,0,0-0.1,0-0.1c0-0.2,0.1-0.4,0.1-0.6c0,0,0-0.1,0-0.1c0-0.2,0.1-0.4,0.1-0.6c0,0,0-0.1,0-0.1
					c0.1-0.2,0.1-0.4,0.2-0.6c0,0,0-0.1,0-0.1c0.1-0.2,0.1-0.4,0.2-0.6c0,0,0-0.1,0-0.1c0.1-0.2,0.1-0.4,0.2-0.6c0,0,0-0.1,0-0.1
					c0.1-0.2,0.1-0.4,0.2-0.6c0,0,0-0.1,0-0.1c0-0.1,0.1-0.2,0.1-0.3c0-0.1,0.1-0.2,0.1-0.4c0,0,0-0.1,0-0.1
					c0.1-0.2,0.2-0.4,0.2-0.6c0,0,0-0.1,0-0.1c0.1-0.2,0.2-0.4,0.2-0.6c0,0,0-0.1,0-0.1c0.1-0.2,0.1-0.3,0.2-0.5
					c0-0.1,0.1-0.1,0.1-0.2c0,0,0,0,0-0.1c0,0,0-0.1,0.1-0.1c0-0.1,0.2-0.2,0.3-0.2c0.1,0,0.1,0,0.2,0c0.1,0,0.1,0,0.2,0
					c0.1,0,0.1,0,0.2,0c0.2,0,0.4,0.1,0.5,0.1c0,0,0.1,0,0.1,0c0.2,0,0.3,0.1,0.5,0.1c0,0,0.1,0,0.1,0c0.2,0,0.3,0.1,0.5,0.1
					c0,0,0.1,0,0.1,0c0.2,0,0.4,0.1,0.5,0.1c0,0,0.1,0,0.1,0c0.2,0,0.3,0.1,0.5,0.1c0,0,0.1,0,0.1,0c0.2,0,0.4,0.1,0.6,0.1
					c0,0,0.1,0,0.1,0c0.2,0,0.3,0.1,0.5,0.1c0,0,0.1,0,0.1,0c0.2,0,0.4,0.1,0.5,0.1c0.1,0,0.1,0,0.2,0c0.2,0,0.3,0.1,0.5,0.1
					c0,0,0.1,0,0.1,0c0.2,0,0.3,0.1,0.5,0.1c0,0,0.1,0,0.1,0c0.2,0,0.3,0.1,0.5,0.1c0,0,0.1,0,0.1,0c0.2,0,0.3,0.1,0.5,0.1
					c0,0,0.1,0,0.1,0c0.2,0.1,0.4,0.1,0.6,0.2c0,0,0.1,0,0.1,0c0.1,0,0.1,0,0.2,0c0,0,0.1,0,0.1,0.1c0.1,0.1,0.2,0.2,0.2,0.3
					c0,0,0,0.1,0,0.1c0,0,0,0.1,0,0.1c0,0.1,0,0.1,0,0.2c0,0.2,0,0.3,0,0.5c0,0,0,0.1,0,0.1c0,0.2,0,0.4-0.1,0.7c0,0,0,0.1,0,0.1
					c0,0.2-0.1,0.4-0.1,0.7c0,0,0,0.1,0,0.1c0,0.2-0.1,0.4-0.1,0.6c0,0,0,0.1,0,0.1c0,0.2-0.1,0.4-0.1,0.6c0,0,0,0.1,0,0.1
					c0,0.2-0.1,0.4-0.1,0.6c0,0,0,0.1,0,0.1c0,0.2-0.1,0.4-0.2,0.6c0,0,0,0.1,0,0.1C86,152.9,86,153.1,85.9,153.3 M88.6,147.3
					c0-1.5,0-2.1-0.1-2.2l-0.3-0.1c0,0-0.2,0-0.2,0c0.1,0-0.8,0.5-0.8,0.5l-9.2-2.4c0,0-0.5-0.8-0.5-0.8c0.1,0-0.2-0.1-0.2-0.1
					l-0.3,0c-0.1,0.1-0.5,0.6-1.2,1.9c-1.4,2.6-2.6,6.5-2.7,9.4c0,0.2,0,0.2,0.1,0.4c0.1,0.3,0.4,0.7,0.6,1.2
					c0.6,1.2,0.2,1.3-0.4,2.9c-0.5,1.3-1,3.7-1.5,8.8c-0.1,1.2,0.3,2.3,1.4,2.8c0.5,0.3,1.2,0.5,2.5,0.9l0.2,0
					c1.3,0.3,2,0.4,2.6,0.4c1.1,0,2.1-0.7,2.6-1.8c2-4.7,2.7-7.1,2.9-8.5c0.3-1.6-0.1-1.9,1-2.7c0.4-0.3,0.9-0.6,1.1-0.8
					c0.2-0.1,0.2-0.1,0.3-0.3C87.8,154.2,88.6,150.3,88.6,147.3"/>
			</g>
		</g>
		<g>
			<polygon class="st5" points="78.5,146.1 87.6,148.4 85.8,155.3 85.8,155.3 87.6,148.3 78.5,146 			"/>
		</g>
		<g>
			
				<rect x="78.5" y="146" transform="matrix(0.2504 -0.9681 0.9681 0.2504 -84.3456 192.4689)" class="st5" width="7.1" height="9.4"/>
		</g>
		<g>
			<defs>
				<rect id="SVGID_00000002365638308909654330000014873198739697550984_" x="14.5" y="86.4" width="152.2" height="134.9"/>
			</defs>
			<clipPath id="SVGID_00000163791547902241995240000006504368906682053019_">
				<use xlink:href="#SVGID_00000002365638308909654330000014873198739697550984_"  style="overflow:visible;"/>
			</clipPath>
			<g style="clip-path:url(#SVGID_00000163791547902241995240000006504368906682053019_);">
				<path class="st5" d="M79.1,155.7C79.1,155.8,79.1,155.8,79.1,155.7c0.1,0.1,0.2,0.1,0.2,0.1c0,0,0.1,0,0.1,0c0,0,0.1,0,0.1-0.1
					c0,0,0-0.1,0-0.1s0-0.1,0-0.1c0,0,0-0.1,0-0.1c0,0,0-0.1-0.1-0.1s-0.1,0-0.1,0c0,0-0.1,0-0.1,0c0,0-0.1,0-0.1,0s-0.1,0-0.1,0.1
					c0,0,0,0.1,0,0.1c0,0,0,0.1,0,0.1C79,155.6,79,155.6,79.1,155.7C79,155.7,79,155.7,79.1,155.7"/>
			</g>
			<g style="clip-path:url(#SVGID_00000163791547902241995240000006504368906682053019_);">
				<path class="st5" d="M80.6,156.1C80.6,156.2,80.7,156.2,80.6,156.1c0.1,0.1,0.2,0.1,0.2,0.1c0,0,0.1,0,0.1,0c0,0,0.1,0,0.1-0.1
					c0,0,0-0.1,0-0.1s0-0.1,0-0.1c0,0,0-0.1,0-0.1c0,0,0-0.1-0.1-0.1c0,0-0.1,0-0.1,0c0,0-0.1,0-0.1,0c0,0-0.1,0-0.1,0
					c0,0-0.1,0-0.1,0.1c0,0,0,0.1,0,0.1c0,0,0,0.1,0,0.1C80.5,156,80.5,156,80.6,156.1C80.6,156.1,80.6,156.1,80.6,156.1"/>
			</g>
			<g style="clip-path:url(#SVGID_00000163791547902241995240000006504368906682053019_);">
				<path class="st5" d="M82.1,156.5C82.2,156.5,82.2,156.6,82.1,156.5c0.1,0.1,0.2,0.1,0.2,0.1c0,0,0.1,0,0.1,0c0,0,0.1,0,0.1-0.1
					c0,0,0-0.1,0-0.1c0,0,0-0.1,0-0.1c0,0,0-0.1,0-0.1c0,0,0-0.1-0.1-0.1c0,0-0.1,0-0.1,0c0,0-0.1,0-0.1,0s-0.1,0-0.1,0
					c0,0-0.1,0-0.1,0.1c0,0,0,0.1,0,0.1s0,0.1,0,0.1C82,156.4,82,156.4,82.1,156.5C82.1,156.5,82.1,156.5,82.1,156.5"/>
			</g>
			<g style="clip-path:url(#SVGID_00000163791547902241995240000006504368906682053019_);">
				<path class="st5" d="M78.4,157.1l1.4,2.4c0,0.1,0,0.1,0.2,0l2.4-1.4c0.1-0.1,0-0.2,0-0.2c-0.9-1.2-2.5-1.6-3.9-0.9
					C78.4,156.9,78.3,157,78.4,157.1"/>
			</g>
			<g style="clip-path:url(#SVGID_00000163791547902241995240000006504368906682053019_);">
				<path class="st5" d="M82.5,158.4l-2.4,1.4c-0.1,0.1-0.1,0.2,0,0.2l1.4,2.3c0.1,0.1,0.2,0.1,0.2,0.1c1.2-0.9,1.7-2.5,1.1-3.9
					C82.7,158.5,82.6,158.3,82.5,158.4"/>
			</g>
			<g style="clip-path:url(#SVGID_00000163791547902241995240000006504368906682053019_);">
				<path class="st5" d="M79.5,159.6l-1.4-2.3c-0.1-0.1-0.2-0.1-0.2-0.1c-1.2,0.9-1.7,2.5-1.1,3.9c0,0,0.1,0.2,0.2,0.1l2.3-1.4
					C79.5,159.7,79.5,159.7,79.5,159.6"/>
			</g>
			<g style="clip-path:url(#SVGID_00000163791547902241995240000006504368906682053019_);">
				<path class="st5" d="M79.8,160.2c0-0.1-0.1-0.1-0.2-0.1l-2.4,1.4c-0.1,0.1,0,0.2,0,0.2c0.9,1.2,2.5,1.6,3.9,0.9
					c0,0,0.1-0.1,0-0.2L79.8,160.2z"/>
			</g>
		</g>
		<g>
			<g>
				<polygon class="st5" points="245,161.2 245,158.3 252.7,158.3 252.7,161.2 248.8,161.2 				"/>
			</g>
			<g>
				<defs>
					<rect id="SVGID_00000086671288101148805150000001987489184037705144_" x="201" y="85.8" width="164.2" height="146.5"/>
				</defs>
				<clipPath id="SVGID_00000143575019713364700880000002147515367859416497_">
					<use xlink:href="#SVGID_00000086671288101148805150000001987489184037705144_"  style="overflow:visible;"/>
				</clipPath>
				<g style="clip-path:url(#SVGID_00000143575019713364700880000002147515367859416497_);">
					<path class="st5" d="M244.5,161.2h0.5h3.9h3.9h0.5c0.5,0,0.8,0.4,0.8,0.9c-0.2,3.6-1.7,6.8-2.3,7.9c-0.1,0.3-0.4,0.4-0.7,0.4
						h-2.1h-2.1c-0.3,0-0.6-0.2-0.7-0.4c-0.6-1.1-2.1-4.3-2.3-7.9C243.7,161.6,244,161.2,244.5,161.2"/>
				</g>
				<g style="clip-path:url(#SVGID_00000143575019713364700880000002147515367859416497_);">
					<path class="st5" d="M244,127.7L244,127.7c0-0.5,0.4-0.9,0.9-0.9h4.1c0.5,0,0.9,0.4,0.9,0.9s-0.4,0.9-0.9,0.9h-4.1
						C244.4,128.7,244,128.3,244,127.7"/>
				</g>
				<g style="clip-path:url(#SVGID_00000143575019713364700880000002147515367859416497_);">
					<path class="st5" d="M306.5,127.7L306.5,127.7c0-0.5,0.4-0.9,0.9-0.9h4.1c0.5,0,0.9,0.4,0.9,0.9s-0.4,0.9-0.9,0.9h-4.1
						C307,128.7,306.5,128.3,306.5,127.7"/>
				</g>
				<g style="clip-path:url(#SVGID_00000143575019713364700880000002147515367859416497_);">
					<path class="st5" d="M316.7,125.9L316.7,125.9c0-0.5,0.4-0.9,0.9-0.9h28.5c0.5,0,0.9,0.4,0.9,0.9c0,0.5-0.4,0.9-0.9,0.9h-28.5
						C317.2,126.8,316.7,126.4,316.7,125.9"/>
				</g>
				<g style="clip-path:url(#SVGID_00000143575019713364700880000002147515367859416497_);">
					<path class="st5" d="M319.2,147.6L319.2,147.6c0-0.5,0.4-0.9,0.9-0.9h23.7c0.5,0,0.9,0.4,0.9,0.9s-0.4,0.9-0.9,0.9h-23.7
						C319.7,148.6,319.2,148.1,319.2,147.6"/>
				</g>
				<g style="clip-path:url(#SVGID_00000143575019713364700880000002147515367859416497_);">
					<path class="st5" d="M260.8,95.5c-9.4,3.1-13.9,6.6-15.5,7.8c-1.5,1.1-2.9,2.5-3.8,3.4c-0.6,0.6-0.9,1.5-0.9,2.4v33.5
						c0,1.3,1,2.3,2.3,2.3H257c0.6,0,1.2-0.4,1.3-1.1c0.1-0.8-0.5-1.5-1.3-1.5h-13.5c-0.2,0-0.4-0.2-0.4-0.4v-32.7
						c0-0.4,0.2-0.9,0.5-1.2c0.8-0.9,2.3-2.6,3.4-3.3c3.4-2.5,5.2-3.8,14.6-7.1c0.5-0.2,0.9-0.7,0.8-1.3
						C262.1,95.7,261.4,95.3,260.8,95.5"/>
				</g>
				<g style="clip-path:url(#SVGID_00000143575019713364700880000002147515367859416497_);">
					<path class="st5" d="M278,94c-15.4,0-27.8,12.5-27.8,27.8s12.5,27.8,27.8,27.8s27.8-12.5,27.8-27.8S293.4,94,278,94 M278,143.9
						c-12.2,0-22.1-9.9-22.1-22.1c0-12.2,9.9-22.1,22.1-22.1c12.2,0,22.1,9.9,22.1,22.1C300.1,134,290.2,143.9,278,143.9"/>
				</g>
				<g style="clip-path:url(#SVGID_00000143575019713364700880000002147515367859416497_);">
					<path class="st5" d="M298.6,117.4c-1.2,0.9-2.6,1.6-3.7,1.5c-2.8-0.4-11.6-3.9-16.7-3.8c-5.1-0.1-13.9,3.4-16.7,3.8
						c-1.2,0.2-2.7-0.7-4-1.8c-0.3,1.5-0.5,3-0.5,4.5c0,1.8,0.2,3.5,0.6,5.2h40.7c0.4-1.6,0.6-3.4,0.6-5.2
						C299,120.2,298.9,118.8,298.6,117.4"/>
				</g>
				<g style="clip-path:url(#SVGID_00000143575019713364700880000002147515367859416497_);">
					<path class="st5" d="M298.6,117.4c-1.2,0.9-2.6,1.6-3.7,1.5c-2.8-0.4-11.6-3.9-16.7-3.8c-5.1-0.1-13.9,3.4-16.7,3.8
						c-1.2,0.2-2.7-0.7-4-1.8c-0.3,1.5-0.5,3-0.5,4.5c0,1.8,0.2,3.5,0.6,5.2h40.7c0.4-1.6,0.6-3.4,0.6-5.2
						C299,120.2,298.9,118.8,298.6,117.4"/>
				</g>
				<g style="clip-path:url(#SVGID_00000143575019713364700880000002147515367859416497_);">
					<path class="st5" d="M348.8,113.8h-33.8c-1,0-1.9,0.8-1.9,1.9h0c0,4.3,0.5,22.6,4.7,40.9c0.1,0.6,0.7,1.1,1.4,1.1h25.4
						c0.7,0,1.2-0.5,1.4-1.1c4.2-18.3,4.6-36.6,4.7-40.9h0C350.7,114.6,349.9,113.8,348.8,113.8 M347.8,132.3
						c-0.7,8.7-2.7,19.9-3.4,23.2c0,0.1-0.2,0.2-0.3,0.2h-24.4c-0.1,0-0.3-0.1-0.3-0.2c-0.6-3.3-2.6-14.5-3.4-23.2
						c-0.5-5.8-0.7-7.2-1-16.3c0-0.2,0.2-0.4,0.4-0.4h33.1c0.2,0,0.4,0.2,0.4,0.4C348.6,125.1,348.3,126.5,347.8,132.3"/>
				</g>
				<g style="clip-path:url(#SVGID_00000143575019713364700880000002147515367859416497_);">
					<path class="st5" d="M328.8,174.3V165c0-0.2,0.1-0.4,0.3-0.4c0.5-0.2,1.4-0.8,1.4-2.3c0-2-2.3-3.8-6.7-3.8
						c-4.3,0-5.6-0.1-5.6,3.6c0,3.5,2.2,3.7,5.3,3.7c0.3,0,0.5,0.2,0.5,0.5v8c0,0.2-0.1,0.3-0.2,0.4c-0.2,0.2-0.5,0.5-0.5,1.2
						c0,1.1,1.2,2,3.1,2c1.9,0,3.1-0.4,3.2-2c0-0.8-0.3-1.1-0.5-1.3C328.8,174.6,328.8,174.4,328.8,174.3"/>
				</g>
				<g style="clip-path:url(#SVGID_00000143575019713364700880000002147515367859416497_);">
					<path class="st5" d="M404.1,105.4l-2.5-1.2c-4.9-2.3-10.3-2.2-10.3-2.2l-59.4-2c-12.9-2-34.5-5.1-39.8-5.8
						c-0.6-0.1-1.2,0.2-1.4,0.8c-0.2,0.7,0.3,1.4,1,1.5c6.9,0.9,40.2,5.8,40.2,5.8l59.6,1.8c5.4-0.4,9.1,2,9.1,2l2.1,1.1
						c0.1,0.1,0.2,0.2,0.2,0.4v32.8c0,0.3-0.2,0.5-0.5,0.5H353c-1.3,0-2.4,1-2.5,2.3l-3.7,31.7l1.4,1.4c0.5,0.7,1,1.5,1.2,2.6
						c0.2,1.1,0.3,2.2,0.4,3.2c0,0.1-0.1,0.3-0.3,0.3h-35.7c-0.1,0-0.3-0.1-0.3-0.3c0-1,0.1-2.1,0.4-3.2c0.2-1,0.7-1.8,1.2-2.5
						l2.1-1.9l-3.7-30.3c-0.1-1.1-1-1.9-2.1-1.9h-12.6c-0.6,0-1.2,0.4-1.3,1.1c-0.1,0.8,0.5,1.5,1.3,1.5h12c0.1,0,0.2,0.1,0.3,0.2
						l3.5,28.6c-0.9,0.7-1.9,1.9-2.5,3.8c-0.5,1.8-0.8,3.8-0.9,5.2c-0.1,1.2,0.9,2.2,2.1,2.2H350c1.2,0,2.2-1,2.1-2.3
						c-0.1-1.4-0.3-3.4-0.9-5.2c-0.4-1.4-1.1-2.5-1.8-3.2l3.7-30.3c0-0.2,0.2-0.4,0.5-0.4H403c1.3,0,2.4-1.1,2.4-2.4v-33.5
						C405.4,106.7,404.9,105.9,404.1,105.4"/>
				</g>
				<g style="clip-path:url(#SVGID_00000143575019713364700880000002147515367859416497_);">
					<path class="st5" d="M297.8,197.2c0,0,0,0.1,0,0.1c0,0.3,0,0.6,0,1c0,0.1,0,0.1,0,0.2c0,0.3,0,0.6-0.1,1c0,0.1,0,0.1,0,0.2
						c0,0.3-0.1,0.7-0.1,1c0,0,0,0.1,0,0.1c0,0.2-0.1,0.4-0.1,0.6c0,0.1,0,0.1,0,0.2c0,0,0,0.1,0,0.1c0,0.1,0,0.1-0.1,0.2
						c0,0.1-0.1,0.3-0.2,0.3l-0.1,0.2l-0.1,0.2l-0.4,0.7l0,0c0,0-0.1,0.1-0.1,0.2c-0.1,0.2-0.2,0.4-0.3,0.7c0,0.1-0.1,0.2-0.1,0.2
						c0,0.1,0,0.1,0,0.2c0,0,0,0.1,0,0.1c0,0,0,0.1,0,0.1c0,0,0,0,0,0c0,0,0,0.1,0,0.1c0,0,0,0.1,0,0.1c0,0,0,0.1,0,0.1
						c0,0,0,0.1,0,0.1c0,0,0,0,0,0.1c0,0,0,0,0,0c0,0,0,0.1,0,0.1c0,0.1,0,0.3,0,0.4c0,0.1,0,0.2,0,0.2c0,0.1,0,0.1,0,0.2
						c0,0,0,0,0,0.1c0,0.1,0,0.2,0,0.4c0,0.1,0,0.3,0,0.4c0,0,0,0.1,0,0.1c0,0.1,0,0.1,0,0.2c0,0,0,0.1,0,0.1c0,0.1,0,0.3,0,0.4
						c0,0.1,0,0.3,0,0.4c0,0,0,0,0,0c0,0.1,0,0.1,0,0.2c0,0.1,0,0.2,0,0.3c0,0.1,0,0.3,0,0.4c0,0.1,0,0.2,0,0.3c0,0,0,0.1,0,0.1
						c0,0,0,0,0,0c0,0.1,0,0.3,0,0.4c0,0.1,0,0.3,0,0.4c0,0.1,0,0.1,0,0.2c0,0.1,0,0.1,0,0.2c0,0,0,0.1,0,0.1c0,0.1,0,0.3,0,0.4
						c0,0.1,0,0.3-0.1,0.4c0,0,0,0,0,0c0,0.1,0,0.1,0,0.2c0,0.1,0,0.1,0,0.2c0,0.1,0,0.3-0.1,0.4c0,0.1,0,0.2,0,0.3
						c0,0.1,0,0.1,0,0.2c0,0.1,0,0.2,0,0.2c0,0.1,0,0.3-0.1,0.5c0,0.1,0,0.2,0,0.3c0,0.1,0,0.1,0,0.2c0,0.2-0.1,0.5-0.1,0.7
						c0,0.3-0.1,0.5-0.1,0.7c0,0,0,0,0,0c0,0.1,0,0.1-0.1,0.2c-0.1,0.1-0.2,0.2-0.4,0.2c-0.1,0-0.1,0-0.2,0.1
						c-0.3,0.1-0.7,0.2-1.1,0.2c-0.3,0-0.6,0.1-0.9,0.1c-0.1,0-0.1,0-0.2,0c-0.2,0-0.5,0-0.8,0.1c-0.1,0-0.2,0-0.3,0
						c-0.2,0-0.5,0-0.8,0c-0.1,0-0.1,0-0.2,0c-0.3,0-0.6,0-0.8,0c0,0-0.1,0-0.2,0c-0.3,0-0.5,0-0.8,0c-0.1,0-0.2,0-0.2,0
						c-0.2,0-0.5,0-0.7-0.1c-0.1,0-0.2,0-0.2,0c-0.3,0-0.7-0.1-1-0.1c-0.3-0.1-0.7-0.1-1-0.2c-0.1,0-0.2,0-0.3-0.1
						c-0.2,0-0.3-0.1-0.4-0.3c0,0-0.1-0.1-0.1-0.2c0,0,0,0,0,0c0-0.2-0.1-0.5-0.1-0.7c0-0.2-0.1-0.5-0.1-0.8c0,0,0-0.1,0-0.1
						c0-0.1,0-0.2,0-0.3c0-0.2-0.1-0.4-0.1-0.5c0-0.1,0-0.2,0-0.2c0,0,0-0.1,0-0.1c0-0.1,0-0.2,0-0.3c0-0.1,0-0.3-0.1-0.4
						c0-0.1,0-0.1,0-0.2c0-0.1,0-0.1,0-0.2c0,0,0,0,0,0c0-0.1,0-0.3,0-0.4c0-0.1,0-0.3,0-0.4c0,0,0,0,0-0.1c0-0.1,0-0.1,0-0.2
						c0-0.1,0-0.1,0-0.2c0-0.1,0-0.3,0-0.4c0-0.1,0-0.2,0-0.4c0,0,0,0,0-0.1c0,0,0-0.1,0-0.1c0-0.1,0-0.2,0-0.3c0-0.1,0-0.3,0-0.4
						c0-0.1,0-0.1,0-0.2c0-0.1,0-0.1,0-0.2c0,0,0,0,0,0c0-0.1,0-0.3,0-0.4c0-0.1,0-0.3,0-0.4c0,0,0-0.1,0-0.1c0-0.1,0-0.1,0-0.2
						c0-0.1,0-0.1,0-0.2c0-0.1,0-0.3,0-0.4c0-0.1,0-0.2,0-0.3c0,0,0-0.1,0-0.1c0-0.1,0-0.1,0-0.2c0-0.1,0-0.2,0-0.2
						c0-0.1,0-0.3,0-0.4c0,0,0-0.1,0-0.1c0,0,0,0,0,0c0,0,0-0.1,0-0.1c0,0,0-0.1,0-0.1c0,0,0-0.1,0-0.1c0,0,0-0.1,0-0.1
						c0,0,0-0.1,0-0.1c0,0,0,0,0,0c0,0,0-0.1,0-0.1c0,0,0-0.1,0-0.1c0-0.1,0-0.1,0-0.2c0-0.1-0.1-0.2-0.1-0.3
						c-0.1-0.2-0.2-0.5-0.3-0.7c0-0.1-0.1-0.1-0.1-0.2l0,0l-0.4-0.7l-0.1-0.2l-0.1-0.3c-0.1-0.1-0.1-0.2-0.2-0.3
						c0-0.1,0-0.1-0.1-0.2c0,0,0-0.1,0-0.1c0-0.1,0-0.2,0-0.2c0-0.2-0.1-0.4-0.1-0.6c0-0.1,0-0.1,0-0.2c0-0.1,0-0.1,0-0.2
						c0-0.3,0-0.5-0.1-0.8c0,0,0-0.1,0-0.1c0-0.3,0-0.6-0.1-1c0-0.1,0-0.1,0-0.2c0-0.3,0-0.6,0-1c0-0.1,0-0.1,0-0.2c0-0.3,0-0.6,0-1
						c0-0.1,0-0.1,0-0.2c0-0.3,0-0.6,0-1c0-0.1,0-0.1,0-0.2c0-0.3,0-0.6,0-1c0-0.1,0-0.1,0-0.2c0-0.3,0-0.6,0.1-1c0-0.1,0-0.1,0-0.2
						c0-0.1,0-0.3,0-0.4c0-0.2,0-0.4,0-0.6c0,0,0-0.1,0-0.1c0-0.3,0.1-0.6,0.1-1c0-0.1,0-0.1,0-0.2c0-0.3,0.1-0.6,0.1-1
						c0,0,0-0.1,0-0.1c0-0.3,0.1-0.5,0.1-0.7c0-0.1,0-0.2,0.1-0.3c0,0,0-0.1,0-0.1c0-0.1,0-0.1,0-0.2c0-0.2,0.2-0.3,0.3-0.4
						c0.1,0,0.1-0.1,0.2-0.1c0.1,0,0.2,0,0.3,0c0.1,0,0.2,0,0.2,0c0.3,0,0.6,0,0.8,0c0.1,0,0.1,0,0.2,0c0.3,0,0.5,0,0.8,0
						c0.1,0,0.1,0,0.2,0c0.3,0,0.5,0,0.8,0c0.1,0,0.1,0,0.2,0c0.3,0,0.5,0,0.8,0c0.1,0,0.1,0,0.2,0c0.2,0,0.5,0,0.7,0
						c0.1,0,0.1,0,0.2,0c0.3,0,0.6,0,0.9,0c0.1,0,0.1,0,0.2,0c0.2,0,0.5,0,0.7,0c0.1,0,0.1,0,0.2,0c0.3,0,0.6,0,0.8,0
						c0.1,0,0.2,0,0.2,0c0.2,0,0.5,0,0.7,0c0.1,0,0.2,0,0.2,0c0.3,0,0.5,0,0.8,0c0.1,0,0.1,0,0.2,0c0.3,0,0.5,0,0.8,0
						c0.1,0,0.2,0,0.2,0c0.3,0,0.5,0,0.8,0c0.1,0,0.1,0,0.2,0c0.3,0,0.6,0,0.9,0c0.1,0,0.1,0,0.2,0c0.1,0,0.2,0,0.2,0
						c0.1,0,0.1,0,0.2,0c0.2,0.1,0.3,0.2,0.4,0.4c0,0,0,0.1,0,0.1c0,0,0,0.1,0,0.1c0,0.1,0,0.2,0.1,0.3c0,0.2,0.1,0.5,0.1,0.7
						c0,0.1,0,0.1,0,0.2c0,0.3,0.1,0.6,0.1,1c0,0.1,0,0.1,0,0.2c0,0.3,0.1,0.6,0.1,1c0,0.1,0,0.1,0,0.2c0,0.3,0.1,0.6,0.1,1
						c0,0.1,0,0.1,0,0.2c0,0.3,0,0.6,0.1,1c0,0,0,0.1,0,0.1c0,0.3,0,0.6,0,1c0,0.1,0,0.1,0,0.2c0,0.3,0,0.6,0,1c0,0.1,0,0.1,0,0.2
						C297.8,196.5,297.8,196.9,297.8,197.2 M299.5,187.6c-0.6-2.1-0.9-3-1-3.1l-0.5-0.1c0,0-0.4,0-0.3,0c0.1,0-1,1-1,1l-14.4,0
						c0,0-1.1-1-1-1c0.1,0-0.3,0-0.3,0l-0.5,0.1c-0.2,0.1-0.5,1-1,3.1c-1.1,4.2-1.4,10.1-0.4,14.3c0.1,0.3,0.1,0.3,0.3,0.5
						c0.3,0.3,0.8,0.9,1.3,1.5c1.3,1.5,0.7,1.8,0.5,4.2c-0.2,2,0,5.6,1.1,13c0.2,1.7,1.4,3.1,3.1,3.5c0.9,0.2,1.9,0.3,3.9,0.3l0.3,0
						c2,0,3.1-0.2,4-0.4c1.7-0.4,2.8-1.8,3.1-3.4c1.1-7.4,1.3-11,1.1-13c-0.2-2.4-0.8-2.7,0.5-4.2c0.5-0.6,1.1-1.2,1.3-1.5
						c0.2-0.2,0.2-0.2,0.3-0.5C300.9,197.7,300.6,191.8,299.5,187.6"/>
				</g>
			</g>
			<g>
				<polygon class="st5" points="282.4,190.1 296.7,190.1 296.7,200.5 296.7,200.5 296.7,189.9 282.4,189.9 				"/>
			</g>
			<g>
				<rect x="282.4" y="190.1" class="st5" width="14.2" height="10.4"/>
			</g>
			<g>
				<defs>
					<rect id="SVGID_00000048472411689965275890000016612882840763851932_" x="201" y="85.8" width="164.2" height="146.5"/>
				</defs>
				<clipPath id="SVGID_00000012444781015930556920000014218233647589104027_">
					<use xlink:href="#SVGID_00000048472411689965275890000016612882840763851932_"  style="overflow:visible;"/>
				</clipPath>
				<g style="clip-path:url(#SVGID_00000012444781015930556920000014218233647589104027_);">
					<path class="st5" d="M287,203.5c0.1,0,0.1,0,0.2,0s0.1,0,0.2,0c0.1,0,0.1-0.1,0.1-0.1c0,0,0.1-0.1,0.1-0.1c0,0,0-0.1,0-0.2
						s0-0.1,0-0.2c0,0-0.1-0.1-0.1-0.1c0,0-0.1-0.1-0.1-0.1c-0.1,0-0.1,0-0.2,0s-0.1,0-0.2,0c-0.1,0-0.1,0.1-0.1,0.1
						s-0.1,0.1-0.1,0.1c0,0,0,0.1,0,0.2s0,0.1,0,0.2c0,0,0.1,0.1,0.1,0.1S286.9,203.5,287,203.5"/>
				</g>
				<g style="clip-path:url(#SVGID_00000012444781015930556920000014218233647589104027_);">
					<path class="st5" d="M289.4,203.5c0.1,0,0.1,0,0.2,0s0.1,0,0.2,0c0.1,0,0.1-0.1,0.1-0.1c0,0,0.1-0.1,0.1-0.1c0,0,0-0.1,0-0.2
						s0-0.1,0-0.2c0,0-0.1-0.1-0.1-0.1c0,0-0.1-0.1-0.1-0.1c-0.1,0-0.1,0-0.2,0s-0.1,0-0.2,0c-0.1,0-0.1,0.1-0.1,0.1
						c0,0-0.1,0.1-0.1,0.1c0,0,0,0.1,0,0.2s0,0.1,0,0.2c0,0,0.1,0.1,0.1,0.1C289.3,203.4,289.3,203.5,289.4,203.5"/>
				</g>
				<g style="clip-path:url(#SVGID_00000012444781015930556920000014218233647589104027_);">
					<path class="st5" d="M291.8,203.5c0.1,0,0.1,0,0.2,0s0.1,0,0.2,0c0.1,0,0.1-0.1,0.1-0.1c0,0,0.1-0.1,0.1-0.1c0,0,0-0.1,0-0.2
						s0-0.1,0-0.2c0,0-0.1-0.1-0.1-0.1c0,0-0.1-0.1-0.1-0.1c-0.1,0-0.1,0-0.2,0s-0.1,0-0.2,0c-0.1,0-0.1,0.1-0.1,0.1
						c0,0-0.1,0.1-0.1,0.1c0,0,0,0.1,0,0.2s0,0.1,0,0.2c0,0,0.1,0.1,0.1,0.1C291.7,203.4,291.7,203.5,291.8,203.5"/>
				</g>
				<g style="clip-path:url(#SVGID_00000012444781015930556920000014218233647589104027_);">
					<path class="st5" d="M286.5,205.7l2.9,2.9c0.1,0.1,0.1,0.1,0.2,0l3-2.9c0.2-0.2-0.1-0.3-0.1-0.3c-1.8-1.4-4.3-1.3-6.1,0.1
						C286.5,205.4,286.4,205.5,286.5,205.7"/>
				</g>
				<g style="clip-path:url(#SVGID_00000012444781015930556920000014218233647589104027_);">
					<path class="st5" d="M293,206l-2.9,2.8c-0.1,0.1,0,0.2,0,0.3l2.9,2.8c0.1,0.1,0.2,0,0.2,0c1.5-1.7,1.5-4.2,0.1-5.9
						C293.4,206.1,293.2,205.9,293,206"/>
				</g>
				<g style="clip-path:url(#SVGID_00000012444781015930556920000014218233647589104027_);">
					<path class="st5" d="M289,208.8l-2.9-2.8c-0.1-0.1-0.2,0-0.2,0c-1.5,1.7-1.5,4.2-0.1,5.9c0,0,0.2,0.2,0.3,0.1l2.9-2.8
						C289.1,209,289.1,208.9,289,208.8"/>
				</g>
				<g style="clip-path:url(#SVGID_00000012444781015930556920000014218233647589104027_);">
					<path class="st5" d="M289.8,209.5c-0.1-0.1-0.2-0.1-0.3,0l-2.9,2.8c-0.2,0.2,0.1,0.3,0.1,0.3c1.8,1.4,4.3,1.3,6.1-0.1
						c0,0,0.1-0.1,0-0.2L289.8,209.5z"/>
				</g>
				<g style="clip-path:url(#SVGID_00000012444781015930556920000014218233647589104027_);">
					<path class="st5" d="M291.8,174.4h-4.7c-1.5,0-3.8,4.4-3.8,10.7h12.6C295.8,178.9,293.4,174.4,291.8,174.4"/>
				</g>
				<g style="clip-path:url(#SVGID_00000012444781015930556920000014218233647589104027_);">
					<path class="st5" d="M263.5,201.1h-7.7c-2.9,0-8.3-1.7-8.3-8.3v-22.3c0-0.8,0.6-1.4,1.4-1.4c0.8,0,1.4,0.6,1.4,1.4v22.3
						c0,5.3,4.9,5.5,5.5,5.5h7.7c4.1,0,4.3-3.6,4.3-4.4v-26c0-6.6,5.5-8.3,8.3-8.3h7.3c5.7,0,7.2,4.6,7.2,7v5.6
						c0,0.8-0.6,1.4-1.4,1.4s-1.4-0.6-1.4-1.4v-5.6c0-0.7-0.3-4.2-4.3-4.2h-7.3c-0.6,0-5.5,0.2-5.5,5.5v26
						C270.6,196.4,269.1,201.1,263.5,201.1z"/>
				</g>
				<g style="clip-path:url(#SVGID_00000012444781015930556920000014218233647589104027_);">
					<path class="st6" d="M244.9,182.4c5.2,0,9.4-4.1,9.4-9.2s-4.2-9.2-9.4-9.2c-5.2,0-9.4,4.1-9.4,9.2S239.7,182.4,244.9,182.4"/>
				</g>
				<g style="clip-path:url(#SVGID_00000012444781015930556920000014218233647589104027_);">
					<path class="st5" d="M230.4,199.4l17.4-24.5c0.7-1.3,0.7-2.6,0.1-3.5c-0.3-0.5-0.6-0.9-1-1.2c-0.4-0.3-0.9-0.5-1.4-0.6
						c-1-0.2-2,0.2-2.9,1.2l-19.9,23.7 M220.3,192.5l19.9-23.7c1.7-2,3.8-2.6,5.8-2.3c1,0.2,1.9,0.5,2.7,1.1c0.8,0.6,1.5,1.3,2,2.2
						c1,1.9,1.2,4.3-0.2,6.7c0,0.1-0.1,0.1-0.1,0.2l-14.5,20.3"/>
				</g>
			</g>
			<g>
				
					<rect x="220.9" y="181.7" transform="matrix(0.4384 -0.8988 0.8988 0.4384 -49.0366 316.7682)" class="st6" width="16.2" height="31.9"/>
			</g>
		</g>
		<g>
			<defs>
				<rect id="SVGID_00000067201918608229975680000010177605925925186188_" x="430" y="91.6" width="144.5" height="130.9"/>
			</defs>
			<clipPath id="SVGID_00000096744000921553696730000012697848599181116050_">
				<use xlink:href="#SVGID_00000067201918608229975680000010177605925925186188_"  style="overflow:visible;"/>
			</clipPath>
			<g style="clip-path:url(#SVGID_00000096744000921553696730000012697848599181116050_);">
				<path class="st5" d="M535.3,91.6c-3,0-5.7,1.2-7.6,3.2c-2,2-3.2,4.7-3.2,7.6c0,3,1.2,5.7,3.2,7.6c2,2,4.7,3.2,7.6,3.2
					c3,0,5.7-1.2,7.6-3.2c2-2,3.2-4.7,3.2-7.6c0-3-1.2-5.7-3.2-7.6C541,92.8,538.3,91.6,535.3,91.6"/>
			</g>
			<g style="clip-path:url(#SVGID_00000096744000921553696730000012697848599181116050_);">
				<path class="st5" d="M502.6,150.3c-1.2,2.3-0.9,4.4,0.1,6.1c0.5,0.8,1.2,1.5,2,2c0.8,0.5,1.8,0.8,2.7,0.9c2.1,0.2,4.3-0.5,6-2.7
					c0-0.1,0.1-0.1,0.1-0.2l6.6-10.5v54c0,0.9,0.7,1.6,1.6,1.6c0.9,0,1.6-0.7,1.6-1.6v-62.8c0-0.9-0.7-1.6-1.6-1.6
					c-0.9,0-1.6,0.7-1.6,1.6v2.9l-9.2,14.6c-0.9,1.2-2.1,1.6-3.1,1.5c-0.5-0.1-1-0.2-1.4-0.5c-0.4-0.3-0.8-0.6-1-1
					c-0.5-0.8-0.6-1.9,0-3l9.8-19c0.3-0.6,0.6-1.1,0.8-1.6c2.4-4.7,3.8-7.5,9.3-10.1c1.2-0.6,2.5-1,3.9-1.3c1.3-0.3,2.7-0.4,4.1-0.4
					h4.3c5.3,0,10.1,2.2,13.5,5.6c3.5,3.5,5.6,8.3,5.6,13.5v18.2c0,2.2-0.9,4.2-2.3,5.6c-1,1.1-2.4,1.8-3.9,2.1v-29.1
					c0-0.9-0.7-1.6-1.6-1.6c-0.9,0-1.6,0.7-1.6,1.6v30.8v33.9c0,0.9,0.7,1.6,1.6,1.6c0.9,0,1.6-0.7,1.6-1.6v-32.5
					c2.4-0.3,4.5-1.5,6.1-3.1c2-2,3.1-4.8,3.1-7.8v-18.2c0-6.1-2.5-11.7-6.5-15.7c-4-4-9.6-6.5-15.7-6.5h-4.3
					c-1.6,0-3.2,0.2-4.8,0.5c-1.6,0.3-3.1,0.9-4.5,1.5c-6.5,3-8.1,6.2-10.8,11.5c-0.3,0.5-0.5,1.1-0.8,1.6L502.6,150.3z"/>
			</g>
			<g style="clip-path:url(#SVGID_00000096744000921553696730000012697848599181116050_);">
				<path class="st11" d="M536.9,162v38.1c0,0.9-0.7,1.6-1.6,1.6c-0.9,0-1.6-0.7-1.6-1.6V162c0-0.9,0.7-1.6,1.6-1.6
					C536.2,160.4,536.9,161.1,536.9,162"/>
			</g>
			<g style="clip-path:url(#SVGID_00000096744000921553696730000012697848599181116050_);">
				<path class="st6" d="M529.8,96.9c1.4-1.4,3.4-2.3,5.5-2.3c2.1,0,4.1,0.9,5.5,2.3c1.4,1.4,2.3,3.4,2.3,5.5c0,2.1-0.9,4.1-2.3,5.5
					c-1.4,1.4-3.4,2.3-5.5,2.3c-2.1,0-4.1-0.9-5.5-2.3c-1.4-1.4-2.3-3.4-2.3-5.5C527.5,100.3,528.4,98.3,529.8,96.9"/>
			</g>
			<g style="clip-path:url(#SVGID_00000096744000921553696730000012697848599181116050_);">
				<path class="st5" d="M535.3,110.6c-2.2,0-4.3-0.9-5.8-2.4c-1.6-1.6-2.4-3.6-2.4-5.8c0-2.2,0.9-4.3,2.4-5.8
					c1.6-1.6,3.6-2.4,5.8-2.4c2.2,0,4.3,0.9,5.8,2.4c1.6,1.6,2.4,3.6,2.4,5.8c0,2.2-0.9,4.3-2.4,5.8
					C539.6,109.8,537.5,110.6,535.3,110.6z M535.3,95.1c-2,0-3.8,0.8-5.2,2.1c-1.4,1.4-2.1,3.2-2.1,5.2c0,2,0.8,3.8,2.1,5.2
					c1.4,1.4,3.2,2.1,5.2,2.1c2,0,3.8-0.8,5.2-2.1c1.4-1.4,2.1-3.2,2.1-5.2c0-2-0.8-3.8-2.1-5.2C539.1,95.8,537.3,95.1,535.3,95.1z"
					/>
			</g>
		</g>
		<g>
			<polygon class="st6" points="553.2,126 535.3,126 531.8,137.1 519.8,143.1 519.5,150.1 515.4,150.3 514.3,147.7 513,150.5 
				510.6,150.6 510.6,153.4 509.7,156.4 510.6,157.5 510.6,162.2 517,201.6 523.1,204.6 564.2,204.6 574.5,141.2 574.5,136.3 
				572.5,126 558,126 555.4,124.2 			"/>
		</g>
		<g>
			<defs>
				<rect id="SVGID_00000070090329073204089730000011158996328302423482_" x="501.8" y="118.4" width="72.7" height="104.1"/>
			</defs>
			<clipPath id="SVGID_00000013194543839506457950000011445344643931977601_">
				<use xlink:href="#SVGID_00000070090329073204089730000011158996328302423482_"  style="overflow:visible;"/>
			</clipPath>
			<g style="clip-path:url(#SVGID_00000013194543839506457950000011445344643931977601_);">
				<path class="st5" d="M610.9,90.7c2.8,0,5.4,1.2,7.3,3h0c1.9,1.9,3,4.4,3,7.3c0,2.9-1.2,5.4-3,7.3l-0.1,0.1
					c-1.9,1.8-4.4,2.9-7.2,2.9c-2.8,0-5.4-1.2-7.3-3h0c-1.9-1.9-3-4.4-3-7.3c0-2.8,1.2-5.4,3-7.3l0.1-0.1
					C605.5,91.8,608.1,90.7,610.9,90.7 M627.4,177.6c1,0,1.8,0.8,1.8,1.8c0,1-0.8,1.8-1.8,1.8h-82.6c-1,0-1.8-0.8-1.8-1.8
					c0-1,0.8-1.8,1.8-1.8H627.4z M564.6,147l3.3-15.5h-25.4l-3,16.2c-0.2,0.9-0.9,1.5-1.8,1.5v0h-12.9c-1,0-1.8-0.8-1.8-1.8
					c0-1,0.8-1.8,1.8-1.8h11.4l2.9-16.1c0.1-0.9,0.9-1.6,1.8-1.6l29.1,0c0.1,0,0.3,0,0.4,0c1,0.2,1.6,1.2,1.4,2.2l-3.8,17.7
					c-0.2,1-1.2,1.6-2.2,1.4C565,149,564.4,148,564.6,147 M660.4,205c1,0,1.8,0.8,1.8,1.8c0,1-0.8,1.8-1.8,1.8H515.8
					c-1,0-1.8-0.8-1.8-1.8c0-1,0.8-1.8,1.8-1.8H660.4z M659.4,153c1,0,1.8,0.8,1.8,1.8c0,1-0.8,1.8-1.8,1.8H516.8
					c-1,0-1.8-0.8-1.8-1.8c0-1,0.8-1.8,1.8-1.8H659.4z M526.7,161.9c0-1,0.8-1.8,1.8-1.8c1,0,1.8,0.8,1.8,1.8v37.7
					c0,1-0.8,1.8-1.8,1.8c-1,0-1.8-0.8-1.8-1.8V161.9z M645.9,161.9c0-1,0.8-1.8,1.8-1.8c1,0,1.8,0.8,1.8,1.8v37.7
					c0,1-0.8,1.8-1.8,1.8c-1,0-1.8-0.8-1.8-1.8V161.9z M591.7,147.4c0,1-0.8,1.8-1.8,1.8c-1,0-1.8-0.8-1.8-1.8v-13.2
					c0-5.7,2.4-11,6.1-14.8c3.8-3.8,9-6.1,14.8-6.1h3.9c5.7,0,11,2.4,14.8,6.1c3.8,3.8,6.1,9,6.1,14.8v13.2c0,1-0.8,1.8-1.8,1.8
					s-1.8-0.8-1.8-1.8v-13.2c0-4.7-1.9-9.1-5.1-12.2c-3.1-3.1-7.4-5.1-12.2-5.1h-3.9c-4.7,0-9.1,1.9-12.2,5.1
					c-3.1,3.1-5.1,7.4-5.1,12.2V147.4z M621.6,131.3v16.1c0,1,0.8,1.8,1.8,1.8c1,0,1.8-0.8,1.8-1.8v-16.1c0-1-0.8-1.8-1.8-1.8
					C622.4,129.5,621.6,130.3,621.6,131.3 M596.5,131.3v16.1c0,1,0.8,1.8,1.8,1.8c1,0,1.8-0.8,1.8-1.8v-16.1c0-1-0.8-1.8-1.8-1.8
					C597.3,129.5,596.5,130.3,596.5,131.3 M615.6,96.3c-1.2-1.2-2.9-2-4.7-2c-1.8,0-3.4,0.7-4.6,1.9l-0.1,0.1c-1.2,1.2-2,2.9-2,4.7
					c0,1.8,0.7,3.5,2,4.7l0,0c1.2,1.2,2.9,2,4.7,2c1.8,0,3.4-0.7,4.6-1.9l0.1-0.1c1.2-1.2,2-2.9,2-4.7
					C617.6,99.2,616.8,97.5,615.6,96.3L615.6,96.3z"/>
			</g>
		</g>
		<g>
			<defs>
				<rect id="SVGID_00000166672877006524842090000001702327143966557593_" x="430" y="91.6" width="144.5" height="130.9"/>
			</defs>
			<clipPath id="SVGID_00000100375709242659085520000010496795824027217310_">
				<use xlink:href="#SVGID_00000166672877006524842090000001702327143966557593_"  style="overflow:visible;"/>
			</clipPath>
			<g style="clip-path:url(#SVGID_00000100375709242659085520000010496795824027217310_);">
				<path class="st5" d="M454.4,91.6c3,0,5.7,1.2,7.6,3.2c2,2,3.2,4.7,3.2,7.6c0,3-1.2,5.7-3.2,7.6c-2,2-4.7,3.2-7.6,3.2
					c-3,0-5.7-1.2-7.6-3.2c-2-2-3.2-4.7-3.2-7.6c0-3,1.2-5.7,3.2-7.6C448.7,92.8,451.4,91.6,454.4,91.6"/>
			</g>
			<g style="clip-path:url(#SVGID_00000100375709242659085520000010496795824027217310_);">
				<path class="st5" d="M487.2,150.3c1.2,2.3,0.9,4.4-0.1,6.1c-0.5,0.8-1.2,1.5-2,2c-0.8,0.5-1.8,0.8-2.7,0.9
					c-2.1,0.2-4.3-0.5-6-2.7c0-0.1-0.1-0.1-0.1-0.2l-6.6-10.5v54c0,0.9-0.7,1.6-1.6,1.6c-0.9,0-1.6-0.7-1.6-1.6v-62.8
					c0-0.9,0.7-1.6,1.6-1.6c0.9,0,1.6,0.7,1.6,1.6v2.9l9.2,14.6c0.9,1.2,2.1,1.6,3.1,1.5c0.5-0.1,1-0.2,1.4-0.5c0.4-0.3,0.8-0.6,1-1
					c0.5-0.8,0.6-1.9,0-3l-9.8-19c-0.3-0.6-0.6-1.1-0.8-1.6c-2.4-4.7-3.8-7.5-9.3-10.1c-1.2-0.6-2.5-1-3.9-1.3
					c-1.3-0.3-2.7-0.4-4.1-0.4h-4.3c-5.3,0-10.1,2.2-13.5,5.6c-3.5,3.5-5.6,8.3-5.6,13.5v18.2c0,2.2,0.9,4.2,2.3,5.6
					c1,1.1,2.4,1.8,3.9,2.1v-29.1c0-0.9,0.7-1.6,1.6-1.6c0.9,0,1.6,0.7,1.6,1.6v30.8v33.9c0,0.9-0.7,1.6-1.6,1.6
					c-0.9,0-1.6-0.7-1.6-1.6v-32.5c-2.4-0.3-4.5-1.5-6.1-3.1c-2-2-3.1-4.8-3.1-7.8v-18.2c0-6.1,2.5-11.7,6.5-15.7
					c4-4,9.6-6.5,15.7-6.5h4.3c1.6,0,3.2,0.2,4.8,0.5c1.6,0.3,3.1,0.9,4.5,1.5c6.5,3,8.1,6.2,10.8,11.5c0.3,0.5,0.5,1.1,0.8,1.6
					L487.2,150.3z"/>
			</g>
			<g style="clip-path:url(#SVGID_00000100375709242659085520000010496795824027217310_);">
				<path class="st5" d="M452.8,162v38.1c0,0.9,0.7,1.6,1.6,1.6c0.9,0,1.6-0.7,1.6-1.6V162c0-0.9-0.7-1.6-1.6-1.6
					C453.5,160.4,452.8,161.1,452.8,162"/>
			</g>
			<g style="clip-path:url(#SVGID_00000100375709242659085520000010496795824027217310_);">
				<path class="st6" d="M459.9,96.9c-1.4-1.4-3.4-2.3-5.5-2.3c-2.1,0-4.1,0.9-5.5,2.3c-1.4,1.4-2.3,3.4-2.3,5.5
					c0,2.1,0.9,4.1,2.3,5.5c1.4,1.4,3.4,2.3,5.5,2.3c2.1,0,4.1-0.9,5.5-2.3c1.4-1.4,2.3-3.4,2.3-5.5
					C462.2,100.3,461.3,98.3,459.9,96.9"/>
			</g>
			<g style="clip-path:url(#SVGID_00000100375709242659085520000010496795824027217310_);">
				<path class="st5" d="M454.4,110.6c-2.2,0-4.3-0.9-5.8-2.4c-1.6-1.6-2.4-3.6-2.4-5.8c0-2.2,0.9-4.3,2.4-5.8
					c1.6-1.6,3.6-2.4,5.8-2.4c2.2,0,4.3,0.9,5.8,2.4c1.6,1.6,2.4,3.6,2.4,5.8c0,2.2-0.9,4.3-2.4,5.8
					C458.7,109.8,456.6,110.6,454.4,110.6z M454.4,95.1c-2,0-3.8,0.8-5.2,2.1c-1.4,1.4-2.1,3.2-2.1,5.2c0,2,0.8,3.8,2.1,5.2
					c1.4,1.4,3.2,2.1,5.2,2.1c2,0,3.8-0.8,5.2-2.1c1.4-1.4,2.1-3.2,2.1-5.2c0-2-0.8-3.8-2.1-5.2S456.4,95.1,454.4,95.1z"/>
			</g>
			<g style="clip-path:url(#SVGID_00000100375709242659085520000010496795824027217310_);">
				<path class="st6" d="M488.2,140.2c0,0-4,0-4,4v19.3c0,0,0,4,4,4h12.9c0,0,4,0,4-4v-19.3c0,0,0-4-4-4H488.2z"/>
			</g>
			<g style="clip-path:url(#SVGID_00000100375709242659085520000010496795824027217310_);">
				<path class="st5" d="M501.1,169h-12.9c-4,0-5.5-3.3-5.5-5.5v-19.3c0-4,3.3-5.5,5.5-5.5h12.9c4,0,5.5,3.3,5.5,5.5v19.3
					C506.6,167.5,503.3,169,501.1,169z M488.2,141.6c-0.6,0-2.6,0.2-2.6,2.6v19.3c0,0.6,0.2,2.6,2.6,2.6h12.9c0.6,0,2.6-0.2,2.6-2.6
					v-19.3c0-0.6-0.2-2.6-2.6-2.6H488.2z"/>
			</g>
			<g style="clip-path:url(#SVGID_00000100375709242659085520000010496795824027217310_);">
				<path class="st5" d="M553.4,126.7c0.9,0,1.6-0.7,1.6-1.6c0-0.9-0.7-1.6-1.6-1.6c-0.9,0-1.6,0.7-1.6,1.6
					C551.8,126,552.5,126.7,553.4,126.7"/>
			</g>
			<g style="clip-path:url(#SVGID_00000100375709242659085520000010496795824027217310_);">
				<path class="st5" d="M510.6,158.9c1,0,1.7-0.8,1.7-1.7c0-0.9-0.8-1.7-1.7-1.7s-1.7,0.8-1.7,1.7
					C508.9,158.1,509.7,158.9,510.6,158.9"/>
			</g>
			<g style="clip-path:url(#SVGID_00000100375709242659085520000010496795824027217310_);">
				<path class="st5" d="M516,151.3c0.9,0,1.6-0.7,1.6-1.6c0-0.9-0.7-1.6-1.6-1.6c-0.9,0-1.6,0.7-1.6,1.6
					C514.4,150.6,515.1,151.3,516,151.3"/>
			</g>
		</g>
		<g>
			<polygon class="st5" points="518.2,149.1 523.2,141.4 523.2,140.4 520.7,141.2 518.6,143.8 			"/>
		</g>
		<g>
			<path class="st5" d="M68.7,27.1c0-1.6-0.6-2.8-2.4-2.8c-1.6,0-2.6,0.9-2.6,2.5c0,4.4,7.3,1.8,7.3,7.4c0,3.6-2.6,4.6-4.8,4.6
				c-3.6,0-4.7-1.9-4.7-5.2h1.9c0,1.7,0.1,3.6,2.9,3.6c1.5,0,2.7-1.1,2.7-2.7c0-4.4-7.3-1.8-7.3-7.5c0-1.4,0.6-4.3,4.5-4.3
				c2.9,0,4.3,1.5,4.3,4.3H68.7z"/>
			<path class="st5" d="M79.3,38.6h-1.9V24.8h-3.9v-1.7h9.7v1.7h-3.9V38.6z"/>
			<path class="st5" d="M86.3,23.1h8v1.7h-6.1v4.9h5.7v1.7h-5.7v5.5h6.4v1.7h-8.3V23.1z"/>
			<path class="st5" d="M97.9,23.1h3.9c1.3,0,4.8,0,4.8,4.4c0,2.9-1.8,4.5-4.5,4.5h-2.4v6.5h-1.9V23.1z M99.8,30.5h2.3
				c1.4,0,2.6-1,2.6-3c0-1.7-0.8-2.8-2.7-2.8h-2.1V30.5z"/>
			<path class="st5" d="M110.2,25.8c1.9-0.1,3.7-0.3,3.8-2.5h1.3v15.3h-1.8V27.1h-3.3V25.8z"/>
		</g>
		<g>
			<path class="st5" d="M270,27.1c0-1.6-0.6-2.8-2.4-2.8c-1.6,0-2.6,0.9-2.6,2.5c0,4.4,7.3,1.8,7.3,7.4c0,3.6-2.6,4.6-4.8,4.6
				c-3.6,0-4.7-1.9-4.7-5.2h1.9c0,1.7,0.1,3.6,2.9,3.6c1.5,0,2.7-1.1,2.7-2.7c0-4.4-7.3-1.8-7.3-7.5c0-1.4,0.6-4.3,4.5-4.3
				c2.9,0,4.3,1.5,4.3,4.3H270z"/>
			<path class="st5" d="M280.6,38.6h-1.9V24.8h-3.9v-1.7h9.7v1.7h-3.9V38.6z"/>
			<path class="st5" d="M287.5,23.1h8v1.7h-6.1v4.9h5.7v1.7h-5.7v5.5h6.4v1.7h-8.3V23.1z"/>
			<path class="st5" d="M299.2,23.1h3.9c1.3,0,4.8,0,4.8,4.4c0,2.9-1.8,4.5-4.5,4.5h-2.4v6.5h-1.9V23.1z M301.1,30.5h2.3
				c1.4,0,2.6-1,2.6-3c0-1.7-0.8-2.8-2.7-2.8h-2.1V30.5z"/>
			<path class="st5" d="M319.5,38.6h-8.6c0-2.9,1.6-4.8,3.3-6.3l1.3-1.1c1.2-1.1,2-2,2-3.7c0-1.3-0.6-2.8-2.2-2.8
				c-2.4,0-2.4,2.4-2.4,3.3H311c0-2.9,1.2-4.9,4.4-4.9c3.6,0,4.1,2.8,4.1,4.1c0,2.3-1,3.6-2.7,5.1l-2.2,1.9
				c-0.8,0.7-1.5,1.6-1.7,2.6h6.6V38.6z"/>
		</g>
		<g>
			<path class="st5" d="M472.6,27.1c0-1.6-0.6-2.8-2.4-2.8c-1.6,0-2.6,0.9-2.6,2.5c0,4.4,7.3,1.8,7.3,7.4c0,3.6-2.6,4.6-4.8,4.6
				c-3.6,0-4.7-1.9-4.7-5.2h1.9c0,1.7,0.1,3.6,2.9,3.6c1.5,0,2.7-1.1,2.7-2.7c0-4.4-7.3-1.8-7.3-7.5c0-1.4,0.6-4.3,4.5-4.3
				c2.9,0,4.3,1.5,4.3,4.3H472.6z"/>
			<path class="st5" d="M483.2,38.6h-1.9V24.8h-3.9v-1.7h9.7v1.7h-3.9V38.6z"/>
			<path class="st5" d="M490.2,23.1h8v1.7h-6.1v4.9h5.7v1.7h-5.7v5.5h6.4v1.7h-8.3V23.1z"/>
			<path class="st5" d="M501.9,23.1h3.9c1.3,0,4.8,0,4.8,4.4c0,2.9-1.8,4.5-4.5,4.5h-2.4v6.5h-1.9V23.1z M503.8,30.5h2.3
				c1.4,0,2.6-1,2.6-3c0-1.7-0.8-2.8-2.7-2.8h-2.1V30.5z"/>
			<path class="st5" d="M516.6,30h1c1.6,0,2.3-1.2,2.3-2.7c0-1.4-0.5-2.6-2-2.6c-2,0-2.2,1.9-2.2,3h-1.9c0-2.6,1.2-4.4,4.1-4.4
				c3.2,0,3.9,2.3,3.9,4c0,1.5-0.8,2.9-2.4,3.3v0c1.7,0.3,2.8,1.5,2.8,3.6c0,2.8-1.4,4.7-4.4,4.7c-4.1,0-4.4-3.6-4.4-4.3v-0.2h1.9
				c0,1.4,0.7,3,2.4,3c1.1,0,2.4-0.6,2.4-3.2c0-1.8-0.9-2.9-2.8-2.9h-1V30z"/>
		</g>
		<g>
			<path class="st14" d="M17.9,241.9h1.6l2.6,9.8h-1.3l-0.7-2.7h-3.1l-0.7,2.7h-1.3L17.9,241.9z M17.4,247.9H20l-1.2-4.7h0
				L17.4,247.9z"/>
			<path class="st14" d="M27,246.4c0-0.9-0.2-1.4-1.1-1.4c-0.4,0-1.2,0.1-1.2,1.1c0,0.9,0.9,1,1.8,1.3c0.9,0.3,1.8,0.6,1.8,2.1
				c0,1.5-1,2.3-2.4,2.3c-2.5,0-2.5-1.8-2.5-2.6h1.1c0,0.9,0.2,1.7,1.4,1.7c0.4,0,1.2-0.2,1.2-1.2c0-1-0.9-1.2-1.8-1.5
				c-0.9-0.3-1.8-0.6-1.8-2.1c0-1.4,1.1-2,2.3-2c2.1,0,2.2,1.5,2.2,2.3H27z"/>
			<path class="st14" d="M35.9,251.6h-1.3l-2-3.6l-0.9,1.1v2.5h-1.1v-9.8h1.1v5.8h0l2.6-3.4h1.3l-2.2,2.8L35.9,251.6z"/>
			<path class="st14" d="M44.9,246.4c0-0.9-0.2-1.4-1.1-1.4c-0.4,0-1.2,0.1-1.2,1.1c0,0.9,0.9,1,1.8,1.3c0.9,0.3,1.8,0.6,1.8,2.1
				c0,1.5-1,2.3-2.4,2.3c-2.5,0-2.5-1.8-2.5-2.6h1.1c0,0.9,0.2,1.7,1.4,1.7c0.4,0,1.2-0.2,1.2-1.2c0-1-0.9-1.2-1.8-1.5
				c-0.9-0.3-1.8-0.6-1.8-2.1c0-1.4,1.1-2,2.3-2c2.1,0,2.2,1.5,2.2,2.3H44.9z"/>
			<path class="st14" d="M48.7,242.2h1.1v2.1h1.3v0.9h-1.3v4.7c0,0.6,0.2,0.8,0.8,0.8c0.2,0,0.4,0,0.5,0v0.9c-0.2,0-0.5,0.1-0.9,0.1
				c-1.2,0-1.5-0.5-1.5-1.4v-5.1h-1.1v-0.9h1.1V242.2z"/>
			<path class="st14" d="M52.8,246.5c0-1.7,0.7-2.4,2.5-2.4c2.2,0,2.2,1.3,2.2,2.1v4.1c0,0.3,0,0.6,0.4,0.6c0.2,0,0.2,0,0.3-0.1v0.8
				c-0.1,0-0.4,0.1-0.7,0.1c-0.4,0-1,0-1-0.9h0c-0.4,0.7-1.1,1.1-1.8,1.1c-1.4,0-2-0.8-2-2.1c0-1,0.4-1.7,1.4-2l1.5-0.5
				c0.8-0.3,0.8-0.5,0.8-1.1c0-0.7-0.4-1.1-1.2-1.1c-1.3,0-1.3,1.2-1.3,1.4v0.1H52.8z M56.3,247.6c-0.4,0.5-1.4,0.5-2,0.9
				c-0.4,0.2-0.6,0.5-0.6,1.2c0,0.7,0.3,1.3,1,1.3c0.8,0,1.5-0.6,1.5-1.4V247.6z"/>
			<path class="st14" d="M60.4,245.2h-1.1v-0.9h1.1v-0.9c0-1.1,0.5-1.7,1.6-1.7h0.8v1h-0.5c-0.5,0-0.7,0.2-0.7,0.7v0.9h1.3v0.9h-1.3
				v6.4h-1.1V245.2z"/>
			<path class="st14" d="M64.9,245.2h-1.1v-0.9h1.1v-0.9c0-1.1,0.5-1.7,1.6-1.7h0.8v1h-0.5c-0.5,0-0.7,0.2-0.7,0.7v0.9h1.3v0.9h-1.3
				v6.4h-1.1V245.2z"/>
			<path class="st14" d="M73.8,245.2h-1.1v-0.9h1.1v-0.9c0-1.1,0.5-1.7,1.6-1.7h0.8v1h-0.5c-0.5,0-0.7,0.2-0.7,0.7v0.9h1.3v0.9h-1.3
				v6.4h-1.1V245.2z"/>
			<path class="st14" d="M80.3,244.1c2.1,0,2.6,1.8,2.6,3.9s-0.5,3.9-2.6,3.9c-2.1,0-2.6-1.8-2.6-3.9S78.2,244.1,80.3,244.1z
				 M81.7,247.9c0-1.6-0.2-2.9-1.5-2.9c-1.2,0-1.4,1.4-1.4,2.9c0,1.6,0.2,2.9,1.4,2.9C81.5,250.9,81.7,249.5,81.7,247.9z"/>
			<path class="st14" d="M85.1,244.3h1.1v1.1h0c0.3-0.7,0.8-1.3,1.6-1.3c0.2,0,0.4,0,0.5,0.1v1.1c-0.1,0-0.2-0.1-0.6-0.1
				c-0.6,0-1.5,0.5-1.5,1.7v4.6h-1.1V244.3z"/>
			<path class="st14" d="M94.8,242.2H96v2.1h1.3v0.9H96v4.7c0,0.6,0.2,0.8,0.8,0.8c0.2,0,0.4,0,0.5,0v0.9c-0.2,0-0.5,0.1-0.9,0.1
				c-1.2,0-1.5-0.5-1.5-1.4v-5.1h-1.1v-0.9h1.1V242.2z"/>
			<path class="st14" d="M99,241.9h1.1v3.3h0c0.3-0.6,1.1-1,1.8-1c1.9,0,1.9,1.5,1.9,2.3v5.2h-1.1v-5.1c0-0.6,0-1.5-1.1-1.5
				c-0.6,0-1.4,0.4-1.4,1.5v5.1H99V241.9z"/>
			<path class="st14" d="M107.3,248.1c0,1.1,0,2.8,1.4,2.8c1.1,0,1.2-1.1,1.2-1.7h1.1c0,0.8-0.5,2.6-2.5,2.6c-1.8,0-2.5-1.2-2.5-3.8
				c0-1.8,0.4-3.9,2.6-3.9c2.2,0,2.4,2,2.4,3.5v0.5H107.3z M110,247.2v-0.4c0-0.8-0.3-1.8-1.3-1.8c-1.2,0-1.3,1.5-1.3,1.9v0.3H110z"
				/>
			<path class="st14" d="M123.8,248.3c-0.1,1.8-0.8,3.5-3,3.5c-2.8,0-3.1-2.6-3.1-5.1s0.5-5.1,3.1-5.1c2,0,2.8,1.1,2.9,3h-1.3
				c0-1.1-0.4-2-1.6-2c-1.7,0-1.9,1.8-1.9,4.1c0,2.3,0.2,4.1,1.9,4.1c1.5,0,1.7-1.4,1.7-2.6H123.8z"/>
			<path class="st14" d="M125.7,246.5c0-1.7,0.7-2.4,2.5-2.4c2.2,0,2.2,1.3,2.2,2.1v4.1c0,0.3,0,0.6,0.4,0.6c0.2,0,0.2,0,0.3-0.1
				v0.8c-0.1,0-0.4,0.1-0.7,0.1c-0.4,0-1,0-1-0.9h0c-0.4,0.7-1.1,1.1-1.8,1.1c-1.4,0-2-0.8-2-2.1c0-1,0.4-1.7,1.4-2l1.5-0.5
				c0.8-0.3,0.8-0.5,0.8-1.1c0-0.7-0.4-1.1-1.2-1.1c-1.3,0-1.3,1.2-1.3,1.4v0.1H125.7z M129.2,247.6c-0.4,0.5-1.4,0.5-2,0.9
				c-0.4,0.2-0.6,0.5-0.6,1.2c0,0.7,0.3,1.3,1,1.3c0.8,0,1.5-0.6,1.5-1.4V247.6z"/>
			<path class="st14" d="M133,244.3h1.1v1.1h0c0.3-0.7,0.8-1.3,1.6-1.3c0.2,0,0.4,0,0.5,0.1v1.1c-0.1,0-0.2-0.1-0.6-0.1
				c-0.6,0-1.5,0.5-1.5,1.7v4.6H133V244.3z"/>
			<path class="st14" d="M142.2,244.4c0-1-0.4-1.7-1.5-1.7c-1,0-1.6,0.5-1.6,1.6c0,2.7,4.6,1.1,4.6,4.7c0,2.3-1.7,2.9-3,2.9
				c-2.3,0-2.9-1.2-2.9-3.2h1.2c0,1.1,0.1,2.3,1.8,2.3c1,0,1.7-0.7,1.7-1.7c0-2.8-4.6-1.2-4.6-4.7c0-0.9,0.4-2.7,2.9-2.7
				c1.9,0,2.7,0.9,2.7,2.7H142.2z"/>
			<path class="st14" d="M149.4,246.5c0-0.7-0.3-1.5-1.2-1.5c-0.7,0-1.4,0.4-1.4,3c0,1,0,2.9,1.4,2.9c1,0,1.2-1,1.2-1.8h1.1
				c0,1.2-0.6,2.7-2.4,2.7c-1.8,0-2.5-1.2-2.5-3.8c0-1.8,0.4-3.9,2.6-3.9c2,0,2.3,1.6,2.3,2.4H149.4z"/>
			<path class="st14" d="M152.5,246.5c0-1.7,0.7-2.4,2.5-2.4c2.2,0,2.2,1.3,2.2,2.1v4.1c0,0.3,0,0.6,0.4,0.6c0.2,0,0.2,0,0.3-0.1
				v0.8c-0.1,0-0.4,0.1-0.7,0.1c-0.4,0-1,0-1-0.9h0c-0.4,0.7-1.1,1.1-1.8,1.1c-1.4,0-2-0.8-2-2.1c0-1,0.4-1.7,1.4-2l1.5-0.5
				c0.8-0.3,0.8-0.5,0.8-1.1c0-0.7-0.4-1.1-1.2-1.1c-1.3,0-1.3,1.2-1.3,1.4v0.1H152.5z M156.1,247.6c-0.4,0.5-1.4,0.5-2,0.9
				c-0.4,0.2-0.6,0.5-0.6,1.2c0,0.7,0.3,1.3,1,1.3c0.8,0,1.5-0.6,1.5-1.4V247.6z"/>
			<path class="st14" d="M159.8,244.3h1.1v0.9h0c0.3-0.7,1.1-1.1,1.8-1.1c1.9,0,1.9,1.5,1.9,2.3v5.2h-1.1v-5.1c0-0.6,0-1.5-1.1-1.5
				c-0.6,0-1.4,0.4-1.4,1.5v5.1h-1.1V244.3z"/>
			<path class="st14" d="M16.1,258.2h2.6c3,0,3.4,2.2,3.4,4.9c0,2.5-0.6,4.9-3.3,4.9h-2.7V258.2z M17.3,267h1.3
				c2.1,0,2.3-2.1,2.3-3.9c0-1.9-0.1-3.9-2.3-3.9h-1.3V267z"/>
			<path class="st14" d="M24.6,258.2h1.1v1.3h-1.1V258.2z M24.6,260.7h1.1v7.3h-1.1V260.7z"/>
			<path class="st14" d="M28.1,262.9c0-1.7,0.7-2.4,2.5-2.4c2.2,0,2.2,1.3,2.2,2.1v4.1c0,0.3,0,0.6,0.4,0.6c0.2,0,0.2,0,0.3-0.1v0.8
				c-0.1,0-0.4,0.1-0.7,0.1c-0.4,0-1,0-1-0.9h0c-0.4,0.7-1.1,1.1-1.8,1.1c-1.4,0-2-0.8-2-2.1c0-1,0.4-1.7,1.4-2l1.5-0.5
				c0.8-0.3,0.8-0.5,0.8-1.1c0-0.7-0.4-1.1-1.2-1.1c-1.3,0-1.3,1.2-1.3,1.4v0.1H28.1z M31.7,264c-0.4,0.5-1.4,0.5-2,0.9
				c-0.4,0.2-0.6,0.5-0.6,1.2c0,0.7,0.3,1.3,1,1.3c0.8,0,1.5-0.6,1.5-1.4V264z"/>
			<path class="st14" d="M40.4,267.5c0,2.2-1,3-2.5,3c-0.5,0-2.2,0-2.4-1.8h1.1c0.1,0.7,0.6,0.9,1.2,0.9c1.5,0,1.4-1.1,1.4-1.6v-1h0
				c-0.2,0.6-0.9,1-1.7,1c-2.1,0-2.3-2.7-2.3-3.7c0-2,0.5-3.9,2.4-3.9c0.8,0,1.4,0.5,1.6,1.1h0v-0.9h1.1V267.5z M36.5,264.3
				c0,1.2,0.2,2.7,1.3,2.7c1.2,0,1.5-1.2,1.5-2.7c0-1.4-0.2-2.9-1.5-2.9C36.7,261.5,36.5,262.6,36.5,264.3z"/>
			<path class="st14" d="M42.9,260.7H44v0.9h0c0.3-0.7,1.1-1.1,1.8-1.1c1.9,0,1.9,1.5,1.9,2.3v5.2h-1.1v-5.1c0-0.6,0-1.5-1.1-1.5
				c-0.6,0-1.4,0.4-1.4,1.5v5.1h-1.1V260.7z"/>
			<path class="st14" d="M52.5,260.5c2.1,0,2.6,1.8,2.6,3.9s-0.5,3.9-2.6,3.9c-2.1,0-2.6-1.8-2.6-3.9S50.4,260.5,52.5,260.5z
				 M53.9,264.3c0-1.6-0.2-2.9-1.5-2.9c-1.2,0-1.4,1.4-1.4,2.9s0.2,2.9,1.4,2.9C53.7,267.3,53.9,265.9,53.9,264.3z"/>
			<path class="st14" d="M60.5,262.8c0-0.9-0.2-1.4-1.1-1.4c-0.4,0-1.2,0.1-1.2,1.1c0,0.9,0.9,1,1.8,1.3c0.9,0.3,1.8,0.6,1.8,2.1
				c0,1.5-1,2.3-2.4,2.3c-2.5,0-2.5-1.8-2.5-2.6h1.1c0,0.9,0.2,1.7,1.4,1.7c0.4,0,1.2-0.2,1.2-1.2c0-1-0.9-1.2-1.8-1.5
				c-0.9-0.3-1.8-0.6-1.8-2.1c0-1.4,1.1-2,2.3-2c2.1,0,2.2,1.5,2.2,2.3H60.5z"/>
			<path class="st14" d="M64.2,258.5h1.1v2.1h1.3v0.9h-1.3v4.7c0,0.6,0.2,0.8,0.8,0.8c0.2,0,0.4,0,0.5,0v0.9c-0.2,0-0.5,0.1-0.9,0.1
				c-1.2,0-1.5-0.5-1.5-1.4v-5.1h-1.1v-0.9h1.1V258.5z"/>
			<path class="st14" d="M68.5,258.2h1.1v1.3h-1.1V258.2z M68.5,260.7h1.1v7.3h-1.1V260.7z"/>
			<path class="st14" d="M75.7,262.9c0-0.7-0.3-1.5-1.2-1.5c-0.7,0-1.4,0.4-1.4,3c0,1,0,2.9,1.4,2.9c1,0,1.2-1,1.2-1.8h1.1
				c0,1.2-0.6,2.7-2.4,2.7c-1.8,0-2.5-1.2-2.5-3.8c0-1.8,0.4-3.9,2.6-3.9c2,0,2.3,1.6,2.3,2.4H75.7z"/>
			<path class="st14" d="M83.8,258.5h1.1v2.1h1.3v0.9h-1.3v4.7c0,0.6,0.2,0.8,0.8,0.8c0.2,0,0.4,0,0.5,0v0.9c-0.2,0-0.5,0.1-0.9,0.1
				c-1.2,0-1.5-0.5-1.5-1.4v-5.1h-1.1v-0.9h1.1V258.5z"/>
			<path class="st14" d="M90.3,260.5c2.1,0,2.6,1.8,2.6,3.9s-0.5,3.9-2.6,3.9c-2.1,0-2.6-1.8-2.6-3.9S88.1,260.5,90.3,260.5z
				 M91.7,264.3c0-1.6-0.2-2.9-1.5-2.9c-1.2,0-1.4,1.4-1.4,2.9s0.2,2.9,1.4,2.9C91.4,267.3,91.7,265.9,91.7,264.3z"/>
			<path class="st14" d="M97.3,260.5c2.1,0,2.6,1.8,2.6,3.9s-0.5,3.9-2.6,3.9c-2.1,0-2.6-1.8-2.6-3.9S95.2,260.5,97.3,260.5z
				 M98.8,264.3c0-1.6-0.2-2.9-1.5-2.9c-1.2,0-1.4,1.4-1.4,2.9s0.2,2.9,1.4,2.9C98.5,267.3,98.8,265.9,98.8,264.3z"/>
			<path class="st14" d="M102.2,258.2h1.1v9.8h-1.1V258.2z"/>
			<path class="st14" d="M110.1,262.9c0-1.7,0.7-2.4,2.5-2.4c2.2,0,2.2,1.3,2.2,2.1v4.1c0,0.3,0,0.6,0.4,0.6c0.2,0,0.2,0,0.3-0.1
				v0.8c-0.1,0-0.4,0.1-0.7,0.1c-0.4,0-1,0-1-0.9h0c-0.4,0.7-1.1,1.1-1.8,1.1c-1.4,0-2-0.8-2-2.1c0-1,0.4-1.7,1.4-2l1.5-0.5
				c0.8-0.3,0.8-0.5,0.8-1.1c0-0.7-0.4-1.1-1.2-1.1c-1.3,0-1.3,1.2-1.3,1.4v0.1H110.1z M113.6,264c-0.4,0.5-1.4,0.5-2,0.9
				c-0.4,0.2-0.6,0.5-0.6,1.2c0,0.7,0.3,1.3,1,1.3c0.8,0,1.5-0.6,1.5-1.4V264z"/>
			<path class="st14" d="M117.3,260.7h1.1v0.9h0c0.3-0.7,1.1-1.1,1.8-1.1c1.9,0,1.9,1.5,1.9,2.3v5.2H121v-5.1c0-0.6,0-1.5-1.1-1.5
				c-0.6,0-1.4,0.4-1.4,1.5v5.1h-1.1V260.7z"/>
			<path class="st14" d="M129.5,268h-1.1v-0.9h0c-0.2,0.5-0.8,1.1-1.6,1.1c-1.7,0-2.4-1.5-2.4-3.9c0-1.5,0.2-3.9,2.3-3.9
				c0.7,0,1.4,0.4,1.6,1h0v-3.3h1.1V268z M127,267.2c1.3,0,1.5-1.2,1.5-2.9c0-1.4-0.2-2.9-1.5-2.9c-1.1,0-1.3,1.1-1.3,2.9
				S125.9,267.2,127,267.2z"/>
			<path class="st14" d="M136.3,258.2h1.1v3.3h0c0.3-0.6,1-1,1.7-1c2,0,2.2,2.3,2.2,3.9c0,2.1-0.7,3.9-2.4,3.9
				c-0.8,0-1.4-0.5-1.6-1.1h0v0.9h-1.1V258.2z M138.9,267.2c1.1,0,1.3-1.2,1.3-2.9c0-1.7-0.3-2.9-1.3-2.9c-1.2,0-1.5,1.4-1.5,2.9
				C137.4,265.8,137.7,267.2,138.9,267.2z"/>
			<path class="st14" d="M143.7,260.7h1.1v1.1h0c0.3-0.7,0.8-1.3,1.6-1.3c0.2,0,0.4,0,0.5,0.1v1.1c-0.1,0-0.2-0.1-0.6-0.1
				c-0.6,0-1.5,0.5-1.5,1.7v4.6h-1.1V260.7z"/>
			<path class="st14" d="M148.8,258.2h1.1v1.3h-1.1V258.2z M148.8,260.7h1.1v7.3h-1.1V260.7z"/>
			<path class="st14" d="M152.6,260.7h1.1v0.9h0c0.3-0.7,1.1-1.1,1.8-1.1c1.9,0,1.9,1.5,1.9,2.3v5.2h-1.1v-5.1c0-0.6,0-1.5-1.1-1.5
				c-0.6,0-1.4,0.4-1.4,1.5v5.1h-1.1V260.7z"/>
			<path class="st14" d="M164.7,267.5c0,2.2-1,3-2.5,3c-0.5,0-2.2,0-2.4-1.8h1.1c0.1,0.7,0.6,0.9,1.2,0.9c1.5,0,1.4-1.1,1.4-1.6v-1
				h0c-0.2,0.6-0.9,1-1.7,1c-2.1,0-2.3-2.7-2.3-3.7c0-2,0.5-3.9,2.4-3.9c0.8,0,1.4,0.5,1.6,1.1h0v-0.9h1.1V267.5z M160.8,264.3
				c0,1.2,0.2,2.7,1.3,2.7c1.2,0,1.5-1.2,1.5-2.7c0-1.4-0.2-2.9-1.5-2.9C161.1,261.5,160.8,262.6,160.8,264.3z"/>
			<path class="st14" d="M47.6,274.9h1.1v2.1H50v0.9h-1.3v4.7c0,0.6,0.2,0.8,0.8,0.8c0.2,0,0.4,0,0.5,0v0.9c-0.2,0-0.5,0.1-0.9,0.1
				c-1.2,0-1.5-0.5-1.5-1.4V278h-1.1v-0.9h1.1V274.9z"/>
			<path class="st14" d="M54.1,276.9c2.1,0,2.6,1.8,2.6,3.9s-0.5,3.9-2.6,3.9c-2.1,0-2.6-1.8-2.6-3.9S52,276.9,54.1,276.9z
				 M55.5,280.7c0-1.6-0.2-2.9-1.5-2.9c-1.2,0-1.4,1.4-1.4,2.9s0.2,2.9,1.4,2.9C55.3,283.7,55.5,282.3,55.5,280.7z"/>
			<path class="st14" d="M62.6,277.1h1.3l1.4,5.9h0l1.3-5.9h1.3l-2.1,7.8c-0.3,1-0.6,1.9-2,1.9c-0.5,0-0.6,0-0.8,0v-0.9
				c0.2,0,0.4,0,0.7,0c0.5,0,0.8-0.3,0.9-0.7l0.2-0.6L62.6,277.1z"/>
			<path class="st14" d="M72.1,276.9c2.1,0,2.6,1.8,2.6,3.9s-0.5,3.9-2.6,3.9c-2.1,0-2.6-1.8-2.6-3.9S70,276.9,72.1,276.9z
				 M73.5,280.7c0-1.6-0.2-2.9-1.5-2.9c-1.2,0-1.4,1.4-1.4,2.9s0.2,2.9,1.4,2.9C73.3,283.7,73.5,282.3,73.5,280.7z"/>
			<path class="st14" d="M81.7,284.4h-1.1v-0.9h0c-0.3,0.7-1.1,1.1-1.8,1.1c-1.9,0-1.9-1.5-1.9-2.3v-5.2H78v5.1c0,0.6,0,1.5,1.1,1.5
				c0.6,0,1.4-0.4,1.4-1.5v-5.1h1.1V284.4z"/>
			<path class="st14" d="M84.2,277.1h1.1v1.1h0c0.3-0.7,0.8-1.3,1.6-1.3c0.2,0,0.4,0,0.5,0.1v1.1c-0.1,0-0.2-0.1-0.6-0.1
				c-0.6,0-1.5,0.5-1.5,1.7v4.6h-1.1V277.1z"/>
			<path class="st14" d="M93,277.1h1.3l1.4,5.9h0l1.4-5.9h1.3l-2,7.3H95L93,277.1z"/>
			<path class="st14" d="M101.1,280.9c0,1.1,0,2.8,1.4,2.8c1.1,0,1.2-1.1,1.2-1.7h1.1c0,0.8-0.5,2.6-2.5,2.6c-1.8,0-2.5-1.2-2.5-3.8
				c0-1.8,0.4-3.9,2.6-3.9c2.2,0,2.4,2,2.4,3.5v0.5H101.1z M103.8,280v-0.4c0-0.8-0.3-1.8-1.3-1.8c-1.2,0-1.3,1.5-1.3,1.9v0.3H103.8
				z"/>
			<path class="st14" d="M107.2,274.6h1.1v3.3h0c0.3-0.6,1.1-1,1.8-1c1.9,0,1.9,1.5,1.9,2.3v5.2h-1.1v-5.1c0-0.6,0-1.5-1.1-1.5
				c-0.6,0-1.4,0.4-1.4,1.5v5.1h-1.1V274.6z"/>
			<path class="st14" d="M114.7,274.6h1.1v1.3h-1.1V274.6z M114.7,277.1h1.1v7.3h-1.1V277.1z"/>
			<path class="st14" d="M121.9,279.3c0-0.7-0.3-1.5-1.2-1.5c-0.7,0-1.4,0.4-1.4,3c0,1,0,2.9,1.4,2.9c1,0,1.2-1,1.2-1.8h1.1
				c0,1.2-0.6,2.7-2.4,2.7c-1.8,0-2.5-1.2-2.5-3.8c0-1.8,0.4-3.9,2.6-3.9c2,0,2.3,1.6,2.3,2.4H121.9z"/>
			<path class="st14" d="M125,274.6h1.1v9.8H125V274.6z"/>
			<path class="st14" d="M129.7,280.9c0,1.1,0,2.8,1.4,2.8c1.1,0,1.2-1.1,1.2-1.7h1.1c0,0.8-0.5,2.6-2.5,2.6c-1.8,0-2.5-1.2-2.5-3.8
				c0-1.8,0.4-3.9,2.6-3.9c2.2,0,2.4,2,2.4,3.5v0.5H129.7z M132.4,280v-0.4c0-0.8-0.3-1.8-1.3-1.8c-1.2,0-1.3,1.5-1.3,1.9v0.3H132.4
				z"/>
		</g>
		<g>
			<path class="st14" d="M241.1,241.9h2.5c0.8,0,3,0,3,2.8c0,1.8-1.2,2.8-2.8,2.8h-1.5v4.1h-1.2V241.9z M242.3,246.5h1.4
				c0.9,0,1.6-0.6,1.6-1.9c0-1.1-0.5-1.8-1.7-1.8h-1.4V246.5z"/>
			<path class="st14" d="M248.7,241.9h1.1v9.8h-1.1V241.9z"/>
			<path class="st14" d="M257.3,251.6h-1.1v-0.9h0c-0.3,0.7-1.1,1.1-1.8,1.1c-1.9,0-1.9-1.5-1.9-2.3v-5.2h1.1v5.1
				c0,0.6,0,1.5,1.1,1.5c0.6,0,1.4-0.4,1.4-1.5v-5.1h1.1V251.6z"/>
			<path class="st14" d="M264.6,251.1c0,2.2-1,3-2.5,3c-0.5,0-2.2,0-2.4-1.8h1.1c0.1,0.7,0.6,0.9,1.2,0.9c1.5,0,1.4-1.1,1.4-1.6v-1
				h0c-0.2,0.6-0.9,1-1.7,1c-2.1,0-2.3-2.7-2.3-3.7c0-2,0.5-3.9,2.4-3.9c0.8,0,1.4,0.5,1.6,1.1h0v-0.9h1.1V251.1z M260.7,247.9
				c0,1.2,0.2,2.7,1.3,2.7c1.2,0,1.5-1.2,1.5-2.7c0-1.4-0.2-2.9-1.5-2.9C261,245.1,260.7,246.2,260.7,247.9z"/>
			<path class="st14" d="M271.5,241.9h1.1v1.3h-1.1V241.9z M271.5,244.3h1.1v7.3h-1.1V244.3z"/>
			<path class="st14" d="M275.3,244.3h1.1v0.9h0c0.3-0.7,1.1-1.1,1.8-1.1c1.9,0,1.9,1.5,1.9,2.3v5.2h-1.1v-5.1c0-0.6,0-1.5-1.1-1.5
				c-0.6,0-1.4,0.4-1.4,1.5v5.1h-1.1V244.3z"/>
			<path class="st14" d="M283,242.2h1.1v2.1h1.3v0.9h-1.3v4.7c0,0.6,0.1,0.8,0.8,0.8c0.2,0,0.4,0,0.5,0v0.9c-0.2,0-0.5,0.1-0.9,0.1
				c-1.2,0-1.5-0.5-1.5-1.4v-5.1h-1.1v-0.9h1.1V242.2z"/>
			<path class="st14" d="M289.5,244.1c2.1,0,2.6,1.8,2.6,3.9s-0.5,3.9-2.6,3.9c-2.1,0-2.6-1.8-2.6-3.9S287.4,244.1,289.5,244.1z
				 M290.9,247.9c0-1.6-0.2-2.9-1.5-2.9c-1.2,0-1.4,1.4-1.4,2.9c0,1.6,0.2,2.9,1.4,2.9C290.6,250.9,290.9,249.5,290.9,247.9z"/>
			<path class="st14" d="M298,244.3h1.3l1.4,5.9h0l1.4-5.9h1.3l-2,7.3h-1.3L298,244.3z"/>
			<path class="st14" d="M306.1,248.1c0,1.1,0,2.8,1.4,2.8c1.1,0,1.2-1.1,1.2-1.7h1.1c0,0.8-0.5,2.6-2.5,2.6c-1.8,0-2.5-1.2-2.5-3.8
				c0-1.8,0.4-3.9,2.6-3.9c2.2,0,2.4,2,2.4,3.5v0.5H306.1z M308.7,247.2v-0.4c0-0.8-0.3-1.8-1.3-1.8c-1.2,0-1.3,1.5-1.3,1.9v0.3
				H308.7z"/>
			<path class="st14" d="M312.2,241.9h1.1v3.3h0c0.3-0.6,1.1-1,1.8-1c1.9,0,1.9,1.5,1.9,2.3v5.2h-1.1v-5.1c0-0.6,0-1.5-1.1-1.5
				c-0.6,0-1.4,0.4-1.4,1.5v5.1h-1.1V241.9z"/>
			<path class="st14" d="M319.6,241.9h1.1v1.3h-1.1V241.9z M319.6,244.3h1.1v7.3h-1.1V244.3z"/>
			<path class="st14" d="M326.9,246.5c0-0.7-0.3-1.5-1.2-1.5c-0.7,0-1.4,0.4-1.4,3c0,1,0,2.9,1.4,2.9c1,0,1.2-1,1.2-1.8h1.1
				c0,1.2-0.6,2.7-2.4,2.7c-1.8,0-2.5-1.2-2.5-3.8c0-1.8,0.4-3.9,2.6-3.9c2,0,2.3,1.6,2.3,2.4H326.9z"/>
			<path class="st14" d="M330,241.9h1.1v9.8H330V241.9z"/>
			<path class="st14" d="M334.7,248.1c0,1.1,0,2.8,1.4,2.8c1.1,0,1.2-1.1,1.2-1.7h1.1c0,0.8-0.5,2.6-2.5,2.6c-1.8,0-2.5-1.2-2.5-3.8
				c0-1.8,0.4-3.9,2.6-3.9c2.2,0,2.4,2,2.4,3.5v0.5H334.7z M337.4,247.2v-0.4c0-0.8-0.3-1.8-1.3-1.8c-1.2,0-1.3,1.5-1.3,1.9v0.3
				H337.4z"/>
			<path class="st14" d="M341.1,250.2h1.3v1.2c0,1-0.1,2-1.3,2.3V253c0.5-0.2,0.6-0.5,0.6-1.1v-0.3h-0.6V250.2z"/>
			<path class="st14" d="M255.5,262.8c0-0.9-0.2-1.4-1.1-1.4c-0.4,0-1.2,0.1-1.2,1.1c0,0.9,0.9,1,1.8,1.3c0.9,0.3,1.8,0.6,1.8,2.1
				c0,1.5-1,2.3-2.4,2.3c-2.5,0-2.5-1.8-2.5-2.6h1.1c0,0.9,0.2,1.7,1.4,1.7c0.4,0,1.2-0.2,1.2-1.2c0-1-0.9-1.2-1.8-1.5
				c-0.9-0.3-1.8-0.6-1.8-2.1c0-1.4,1.1-2,2.3-2c2.1,0,2.2,1.5,2.2,2.3H255.5z"/>
			<path class="st14" d="M259.2,258.5h1.1v2.1h1.3v0.9h-1.3v4.7c0,0.6,0.1,0.8,0.8,0.8c0.2,0,0.4,0,0.5,0v0.9
				c-0.2,0-0.5,0.1-0.9,0.1c-1.2,0-1.5-0.5-1.5-1.4v-5.1h-1.1v-0.9h1.1V258.5z"/>
			<path class="st14" d="M263.3,262.9c0-1.7,0.7-2.4,2.5-2.4c2.2,0,2.2,1.3,2.2,2.1v4.1c0,0.3,0,0.6,0.4,0.6c0.2,0,0.2,0,0.3-0.1
				v0.8c-0.1,0-0.4,0.1-0.7,0.1c-0.4,0-1,0-1-0.9h0c-0.4,0.7-1.1,1.1-1.8,1.1c-1.4,0-2-0.8-2-2.1c0-1,0.4-1.7,1.4-2l1.5-0.5
				c0.8-0.3,0.8-0.5,0.8-1.1c0-0.7-0.4-1.1-1.2-1.1c-1.3,0-1.3,1.2-1.3,1.4v0.1H263.3z M266.8,264c-0.4,0.5-1.4,0.5-2,0.9
				c-0.4,0.2-0.6,0.5-0.6,1.2c0,0.7,0.3,1.3,1,1.3c0.8,0,1.5-0.6,1.5-1.4V264z"/>
			<path class="st14" d="M270.5,260.7h1.1v1.1h0c0.3-0.7,0.8-1.3,1.6-1.3c0.2,0,0.4,0,0.5,0.1v1.1c-0.1,0-0.2-0.1-0.6-0.1
				c-0.6,0-1.5,0.5-1.5,1.7v4.6h-1.1V260.7z"/>
			<path class="st14" d="M276,258.5h1.1v2.1h1.3v0.9h-1.3v4.7c0,0.6,0.2,0.8,0.8,0.8c0.2,0,0.4,0,0.5,0v0.9c-0.2,0-0.5,0.1-0.9,0.1
				c-1.2,0-1.5-0.5-1.5-1.4v-5.1h-1.1v-0.9h1.1V258.5z"/>
			<path class="st14" d="M284.5,258.2h1.1v1.3h-1.1V258.2z M284.5,260.7h1.1v7.3h-1.1V260.7z"/>
			<path class="st14" d="M293.1,267.5c0,2.2-1,3-2.5,3c-0.5,0-2.2,0-2.4-1.8h1.1c0.1,0.7,0.6,0.9,1.2,0.9c1.5,0,1.4-1.1,1.4-1.6v-1
				h0c-0.2,0.6-0.9,1-1.7,1c-2.1,0-2.3-2.7-2.3-3.7c0-2,0.5-3.9,2.4-3.9c0.8,0,1.4,0.5,1.6,1.1h0v-0.9h1.1V267.5z M289.2,264.3
				c0,1.2,0.2,2.7,1.3,2.7c1.2,0,1.5-1.2,1.5-2.7c0-1.4-0.2-2.9-1.5-2.9C289.5,261.5,289.2,262.6,289.2,264.3z"/>
			<path class="st14" d="M295.6,260.7h1.1v0.9h0c0.3-0.7,1.1-1.1,1.8-1.1c1.9,0,1.9,1.5,1.9,2.3v5.2h-1.1v-5.1c0-0.6,0-1.5-1.1-1.5
				c-0.6,0-1.4,0.4-1.4,1.5v5.1h-1.1V260.7z"/>
			<path class="st14" d="M303,258.2h1.1v1.3H303V258.2z M303,260.7h1.1v7.3H303V260.7z"/>
			<path class="st14" d="M307.1,258.5h1.1v2.1h1.3v0.9h-1.3v4.7c0,0.6,0.2,0.8,0.8,0.8c0.2,0,0.4,0,0.5,0v0.9
				c-0.2,0-0.5,0.1-0.9,0.1c-1.2,0-1.5-0.5-1.5-1.4v-5.1h-1.1v-0.9h1.1V258.5z"/>
			<path class="st14" d="M311.4,258.2h1.1v1.3h-1.1V258.2z M311.4,260.7h1.1v7.3h-1.1V260.7z"/>
			<path class="st14" d="M317.4,260.5c2.1,0,2.6,1.8,2.6,3.9s-0.5,3.9-2.6,3.9c-2.1,0-2.6-1.8-2.6-3.9S315.3,260.5,317.4,260.5z
				 M318.9,264.3c0-1.6-0.2-2.9-1.5-2.9c-1.2,0-1.4,1.4-1.4,2.9s0.2,2.9,1.4,2.9C318.6,267.3,318.9,265.9,318.9,264.3z"/>
			<path class="st14" d="M322.2,260.7h1.1v0.9h0c0.3-0.7,1.1-1.1,1.8-1.1c1.9,0,1.9,1.5,1.9,2.3v5.2h-1.1v-5.1c0-0.6,0-1.5-1.1-1.5
				c-0.6,0-1.4,0.4-1.4,1.5v5.1h-1.1V260.7z"/>
			<path class="st14" d="M329.8,266.5h1.3v1.2c0,1-0.1,2-1.3,2.3v-0.6c0.5-0.2,0.6-0.5,0.6-1.1V268h-0.6V266.5z"/>
			<path class="st14" d="M240.4,279.3c0-1.7,0.7-2.4,2.5-2.4c2.2,0,2.2,1.3,2.2,2.1v4.1c0,0.3,0,0.6,0.4,0.6c0.2,0,0.2,0,0.3-0.1
				v0.8c-0.1,0-0.4,0.1-0.7,0.1c-0.4,0-1,0-1-0.9h0c-0.4,0.7-1.1,1.1-1.8,1.1c-1.4,0-2-0.8-2-2.1c0-1,0.4-1.7,1.4-2l1.5-0.5
				c0.8-0.3,0.8-0.5,0.8-1.1c0-0.7-0.4-1.1-1.2-1.1c-1.3,0-1.3,1.2-1.3,1.4v0.1H240.4z M243.9,280.4c-0.4,0.5-1.4,0.5-2,0.9
				c-0.4,0.2-0.6,0.5-0.6,1.2c0,0.7,0.3,1.3,1,1.3c0.8,0,1.5-0.6,1.5-1.4V280.4z"/>
			<path class="st14" d="M247.7,277.1h1.1v0.9h0c0.3-0.7,1.1-1.1,1.8-1.1c1.9,0,1.9,1.5,1.9,2.3v5.2h-1.1v-5.1c0-0.6,0-1.5-1.1-1.5
				c-0.6,0-1.4,0.4-1.4,1.5v5.1h-1.1V277.1z"/>
			<path class="st14" d="M259.8,284.4h-1.1v-0.9h0c-0.2,0.5-0.8,1.1-1.6,1.1c-1.7,0-2.4-1.5-2.4-3.9c0-1.5,0.2-3.9,2.3-3.9
				c0.7,0,1.4,0.4,1.6,1h0v-3.3h1.1V284.4z M257.3,283.6c1.3,0,1.5-1.2,1.5-2.9c0-1.4-0.2-2.9-1.5-2.9c-1.1,0-1.3,1.1-1.3,2.9
				S256.2,283.6,257.3,283.6z"/>
			<path class="st14" d="M266,277.1h1.2l1.2,6h0l1.2-6h1.4l1.2,6h0l1.1-6h1.2l-1.7,7.3h-1.3l-1.3-6h0l-1.2,6h-1.3L266,277.1z"/>
			<path class="st14" d="M276.3,279.3c0-1.7,0.7-2.4,2.5-2.4c2.2,0,2.2,1.3,2.2,2.1v4.1c0,0.3,0,0.6,0.4,0.6c0.2,0,0.2,0,0.3-0.1
				v0.8c-0.1,0-0.4,0.1-0.7,0.1c-0.4,0-1,0-1-0.9h0c-0.4,0.7-1.1,1.1-1.8,1.1c-1.4,0-2-0.8-2-2.1c0-1,0.4-1.7,1.4-2l1.5-0.5
				c0.8-0.3,0.8-0.5,0.8-1.1c0-0.7-0.4-1.1-1.2-1.1c-1.3,0-1.3,1.2-1.3,1.4v0.1H276.3z M279.9,280.4c-0.4,0.5-1.4,0.5-2,0.9
				c-0.4,0.2-0.6,0.5-0.6,1.2c0,0.7,0.3,1.3,1,1.3c0.8,0,1.5-0.6,1.5-1.4V280.4z"/>
			<path class="st14" d="M283.7,274.6h1.1v1.3h-1.1V274.6z M283.7,277.1h1.1v7.3h-1.1V277.1z"/>
			<path class="st14" d="M287.8,274.9h1.1v2.1h1.3v0.9h-1.3v4.7c0,0.6,0.2,0.8,0.8,0.8c0.2,0,0.4,0,0.5,0v0.9
				c-0.2,0-0.5,0.1-0.9,0.1c-1.2,0-1.5-0.5-1.5-1.4V278h-1.1v-0.9h1.1V274.9z"/>
			<path class="st14" d="M296.6,278h-1.1v-0.9h1.1v-0.9c0-1.1,0.5-1.7,1.6-1.7h0.8v1h-0.5c-0.5,0-0.7,0.2-0.7,0.7v0.9h1.3v0.9h-1.3
				v6.4h-1.1V278z"/>
			<path class="st14" d="M303.1,276.9c2.1,0,2.6,1.8,2.6,3.9s-0.5,3.9-2.6,3.9c-2.1,0-2.6-1.8-2.6-3.9S301,276.9,303.1,276.9z
				 M304.5,280.7c0-1.6-0.2-2.9-1.5-2.9c-1.2,0-1.4,1.4-1.4,2.9s0.2,2.9,1.4,2.9C304.3,283.7,304.5,282.3,304.5,280.7z"/>
			<path class="st14" d="M307.9,277.1h1.1v1.1h0c0.3-0.7,0.8-1.3,1.6-1.3c0.2,0,0.4,0,0.5,0.1v1.1c-0.1,0-0.2-0.1-0.6-0.1
				c-0.6,0-1.5,0.5-1.5,1.7v4.6h-1.1V277.1z"/>
			<path class="st14" d="M320.4,279.2c0-0.9-0.2-1.4-1.1-1.4c-0.4,0-1.2,0.1-1.2,1.1c0,0.9,0.9,1,1.8,1.3c0.9,0.3,1.8,0.6,1.8,2.1
				c0,1.5-1,2.3-2.4,2.3c-2.5,0-2.5-1.8-2.5-2.6h1.1c0,0.9,0.2,1.7,1.4,1.7c0.4,0,1.2-0.2,1.2-1.2c0-1-0.9-1.2-1.8-1.5
				c-0.9-0.3-1.8-0.6-1.8-2.1c0-1.4,1.1-2,2.3-2c2.1,0,2.2,1.5,2.2,2.3H320.4z"/>
			<path class="st14" d="M327.3,279.3c0-0.7-0.3-1.5-1.2-1.5c-0.7,0-1.4,0.4-1.4,3c0,1,0,2.9,1.4,2.9c1,0,1.2-1,1.2-1.8h1.1
				c0,1.2-0.6,2.7-2.4,2.7c-1.8,0-2.5-1.2-2.5-3.8c0-1.8,0.4-3.9,2.6-3.9c2,0,2.3,1.6,2.3,2.4H327.3z"/>
			<path class="st14" d="M330.5,279.3c0-1.7,0.7-2.4,2.5-2.4c2.2,0,2.2,1.3,2.2,2.1v4.1c0,0.3,0,0.6,0.4,0.6c0.2,0,0.2,0,0.3-0.1
				v0.8c-0.1,0-0.4,0.1-0.7,0.1c-0.4,0-1,0-1-0.9h0c-0.4,0.7-1.1,1.1-1.8,1.1c-1.4,0-2-0.8-2-2.1c0-1,0.4-1.7,1.4-2l1.5-0.5
				c0.8-0.3,0.8-0.5,0.8-1.1c0-0.7-0.4-1.1-1.2-1.1c-1.3,0-1.3,1.2-1.3,1.4v0.1H330.5z M334.1,280.4c-0.4,0.5-1.4,0.5-2,0.9
				c-0.4,0.2-0.6,0.5-0.6,1.2c0,0.7,0.3,1.3,1,1.3c0.8,0,1.5-0.6,1.5-1.4V280.4z"/>
			<path class="st14" d="M337.8,277.1h1.1v0.9h0c0.3-0.7,1.1-1.1,1.8-1.1c1.9,0,1.9,1.5,1.9,2.3v5.2h-1.1v-5.1c0-0.6,0-1.5-1.1-1.5
				c-0.6,0-1.4,0.4-1.4,1.5v5.1h-1.1V277.1z"/>
		</g>
		<g>
			<path class="st14" d="M443,248.3c-0.1,1.8-0.8,3.5-3,3.5c-2.8,0-3.1-2.6-3.1-5.1s0.5-5.1,3.1-5.1c2,0,2.8,1.1,2.9,3h-1.3
				c0-1.1-0.4-2-1.6-2c-1.7,0-1.9,1.8-1.9,4.1c0,2.3,0.2,4.1,1.9,4.1c1.5,0,1.7-1.4,1.7-2.6H443z"/>
			<path class="st14" d="M447.4,244.1c2.1,0,2.6,1.8,2.6,3.9s-0.5,3.9-2.6,3.9c-2.1,0-2.6-1.8-2.6-3.9S445.3,244.1,447.4,244.1z
				 M448.8,247.9c0-1.6-0.2-2.9-1.5-2.9c-1.2,0-1.4,1.4-1.4,2.9c0,1.6,0.2,2.9,1.4,2.9C448.6,250.9,448.8,249.5,448.8,247.9z"/>
			<path class="st14" d="M452.2,244.3h1.1v0.9h0c0.3-0.7,1.1-1.1,1.8-1.1c1.9,0,1.9,1.5,1.9,2.3v5.2h-1.1v-5.1c0-0.6,0-1.5-1.1-1.5
				c-0.6,0-1.4,0.4-1.4,1.5v5.1h-1.1V244.3z"/>
			<path class="st14" d="M459.6,244.3h1.1v0.9h0c0.3-0.7,1.1-1.1,1.8-1.1c1.9,0,1.9,1.5,1.9,2.3v5.2h-1.1v-5.1c0-0.6,0-1.5-1.1-1.5
				c-0.6,0-1.4,0.4-1.4,1.5v5.1h-1.1V244.3z"/>
			<path class="st14" d="M467.9,248.1c0,1.1,0,2.8,1.4,2.8c1.1,0,1.2-1.1,1.2-1.7h1.1c0,0.8-0.5,2.6-2.5,2.6c-1.8,0-2.5-1.2-2.5-3.8
				c0-1.8,0.4-3.9,2.6-3.9c2.2,0,2.4,2,2.4,3.5v0.5H467.9z M470.5,247.2v-0.4c0-0.8-0.3-1.8-1.3-1.8c-1.2,0-1.3,1.5-1.3,1.9v0.3
				H470.5z"/>
			<path class="st14" d="M477.5,246.5c0-0.7-0.3-1.5-1.2-1.5c-0.7,0-1.4,0.4-1.4,3c0,1,0,2.9,1.4,2.9c1,0,1.2-1,1.2-1.8h1.1
				c0,1.2-0.6,2.7-2.4,2.7c-1.8,0-2.5-1.2-2.5-3.8c0-1.8,0.4-3.9,2.6-3.9c2,0,2.3,1.6,2.3,2.4H477.5z"/>
			<path class="st14" d="M481.2,242.2h1.1v2.1h1.3v0.9h-1.3v4.7c0,0.6,0.2,0.8,0.8,0.8c0.2,0,0.4,0,0.5,0v0.9
				c-0.1,0-0.5,0.1-0.9,0.1c-1.2,0-1.5-0.5-1.5-1.4v-5.1h-1.1v-0.9h1.1V242.2z"/>
			<path class="st14" d="M490,242.2h1.1v2.1h1.3v0.9h-1.3v4.7c0,0.6,0.1,0.8,0.8,0.8c0.2,0,0.4,0,0.5,0v0.9c-0.2,0-0.5,0.1-0.9,0.1
				c-1.2,0-1.5-0.5-1.5-1.4v-5.1H489v-0.9h1.1V242.2z"/>
			<path class="st14" d="M496.5,244.1c2.1,0,2.6,1.8,2.6,3.9s-0.5,3.9-2.6,3.9c-2.1,0-2.6-1.8-2.6-3.9S494.4,244.1,496.5,244.1z
				 M498,247.9c0-1.6-0.2-2.9-1.5-2.9c-1.2,0-1.4,1.4-1.4,2.9c0,1.6,0.2,2.9,1.4,2.9C497.7,250.9,498,249.5,498,247.9z"/>
			<path class="st14" d="M505.7,241.9h1.2v4.7h0l3.4-4.7h1.3l-2.9,4.1l3.2,5.7h-1.3l-2.6-4.7l-1,1.4v3.3h-1.2V241.9z"/>
			<path class="st14" d="M513.6,241.9h1.1v1.3h-1.1V241.9z M513.6,244.3h1.1v7.3h-1.1V244.3z"/>
			<path class="st14" d="M519.6,244.1c2.1,0,2.6,1.8,2.6,3.9s-0.5,3.9-2.6,3.9c-2.1,0-2.6-1.8-2.6-3.9S517.5,244.1,519.6,244.1z
				 M521,247.9c0-1.6-0.2-2.9-1.5-2.9c-1.2,0-1.4,1.4-1.4,2.9c0,1.6,0.2,2.9,1.4,2.9C520.8,250.9,521,249.5,521,247.9z"/>
			<path class="st14" d="M527.5,246.4c0-0.9-0.2-1.4-1.1-1.4c-0.4,0-1.2,0.1-1.2,1.1c0,0.9,0.9,1,1.8,1.3c0.9,0.3,1.8,0.6,1.8,2.1
				c0,1.5-1,2.3-2.4,2.3c-2.5,0-2.5-1.8-2.5-2.6h1.1c0,0.9,0.2,1.7,1.4,1.7c0.4,0,1.2-0.2,1.2-1.2c0-1-0.9-1.2-1.8-1.5
				c-0.9-0.3-1.8-0.6-1.8-2.1c0-1.4,1.1-2,2.3-2c2.1,0,2.2,1.5,2.2,2.3H527.5z"/>
			<path class="st14" d="M536.4,251.6h-1.3l-2-3.6l-0.9,1.1v2.5H531v-9.8h1.1v5.8h0l2.6-3.4h1.3l-2.2,2.8L536.4,251.6z"/>
			<path class="st14" d="M542.7,242.2h1.1v2.1h1.3v0.9h-1.3v4.7c0,0.6,0.1,0.8,0.8,0.8c0.2,0,0.4,0,0.5,0v0.9
				c-0.2,0-0.5,0.1-0.9,0.1c-1.2,0-1.5-0.5-1.5-1.4v-5.1h-1.1v-0.9h1.1V242.2z"/>
			<path class="st14" d="M549.2,244.1c2.1,0,2.6,1.8,2.6,3.9s-0.5,3.9-2.6,3.9c-2.1,0-2.6-1.8-2.6-3.9S547.1,244.1,549.2,244.1z
				 M550.6,247.9c0-1.6-0.2-2.9-1.5-2.9c-1.2,0-1.4,1.4-1.4,2.9c0,1.6,0.2,2.9,1.4,2.9C550.4,250.9,550.6,249.5,550.6,247.9z"/>
			<path class="st14" d="M440.7,260.5c2.1,0,2.6,1.8,2.6,3.9s-0.5,3.9-2.6,3.9c-2.1,0-2.6-1.8-2.6-3.9S438.6,260.5,440.7,260.5z
				 M442.1,264.3c0-1.6-0.2-2.9-1.5-2.9c-1.2,0-1.4,1.4-1.4,2.9c0,1.6,0.2,2.9,1.4,2.9C441.9,267.3,442.1,265.9,442.1,264.3z"/>
			<path class="st14" d="M445.5,258.2h1.1v3.3h0c0.3-0.6,1-1,1.7-1c2,0,2.2,2.3,2.2,3.9c0,2.1-0.7,3.9-2.4,3.9
				c-0.8,0-1.4-0.5-1.6-1.1h0v0.9h-1.1V258.2z M448.1,267.2c1.1,0,1.3-1.2,1.3-2.9c0-1.7-0.3-2.9-1.3-2.9c-1.2,0-1.5,1.4-1.5,2.9
				C446.6,265.8,446.8,267.2,448.1,267.2z"/>
			<path class="st14" d="M453.2,258.5h1.1v2.1h1.3v0.9h-1.3v4.7c0,0.6,0.2,0.8,0.8,0.8c0.2,0,0.4,0,0.5,0v0.9
				c-0.2,0-0.5,0.1-0.9,0.1c-1.2,0-1.5-0.5-1.5-1.4v-5.1h-1.1v-0.9h1.1V258.5z"/>
			<path class="st14" d="M457.2,262.9c0-1.7,0.7-2.4,2.5-2.4c2.2,0,2.2,1.3,2.2,2.1v4.1c0,0.3,0,0.6,0.4,0.6c0.2,0,0.2,0,0.3-0.1
				v0.8c-0.1,0-0.4,0.1-0.7,0.1c-0.4,0-1,0-1-0.9h0c-0.4,0.7-1.1,1.1-1.8,1.1c-1.4,0-2-0.8-2-2.1c0-1,0.4-1.7,1.4-2l1.5-0.5
				c0.8-0.3,0.8-0.5,0.8-1.1c0-0.7-0.4-1.1-1.2-1.1c-1.3,0-1.3,1.2-1.3,1.4v0.1H457.2z M460.8,264c-0.4,0.5-1.4,0.5-2,0.9
				c-0.4,0.2-0.6,0.5-0.6,1.2c0,0.7,0.3,1.3,1,1.3c0.8,0,1.5-0.6,1.5-1.4V264z"/>
			<path class="st14" d="M464.6,258.2h1.1v1.3h-1.1V258.2z M464.6,260.7h1.1v7.3h-1.1V260.7z"/>
			<path class="st14" d="M468.3,260.7h1.1v0.9h0c0.3-0.7,1.1-1.1,1.8-1.1c1.9,0,1.9,1.5,1.9,2.3v5.2H472v-5.1c0-0.6,0-1.5-1.1-1.5
				c-0.6,0-1.4,0.4-1.4,1.5v5.1h-1.1V260.7z"/>
			<path class="st14" d="M479.3,260.7h1.3l1.4,5.9h0l1.3-5.9h1.3l-2.1,7.8c-0.3,1-0.6,1.9-2,1.9c-0.5,0-0.6,0-0.8,0v-0.9
				c0.2,0,0.4,0,0.7,0c0.5,0,0.8-0.3,0.9-0.7l0.2-0.6L479.3,260.7z"/>
			<path class="st14" d="M488.8,260.5c2.1,0,2.6,1.8,2.6,3.9s-0.5,3.9-2.6,3.9c-2.1,0-2.6-1.8-2.6-3.9S486.7,260.5,488.8,260.5z
				 M490.2,264.3c0-1.6-0.2-2.9-1.5-2.9c-1.2,0-1.4,1.4-1.4,2.9c0,1.6,0.2,2.9,1.4,2.9C490,267.3,490.2,265.9,490.2,264.3z"/>
			<path class="st14" d="M498.4,268h-1.1v-0.9h0c-0.3,0.7-1.1,1.1-1.8,1.1c-1.9,0-1.9-1.5-1.9-2.3v-5.2h1.1v5.1c0,0.6,0,1.5,1.1,1.5
				c0.6,0,1.4-0.4,1.4-1.5v-5.1h1.1V268z"/>
			<path class="st14" d="M501,260.7h1.1v1.1h0c0.3-0.7,0.8-1.3,1.6-1.3c0.2,0,0.4,0,0.5,0.1v1.1c-0.1,0-0.2-0.1-0.6-0.1
				c-0.6,0-1.5,0.5-1.5,1.7v4.6H501V260.7z"/>
			<path class="st14" d="M509,258.2h1.3l1.9,8.4h0l1.9-8.4h1.3l-2.5,9.8h-1.5L509,258.2z"/>
			<path class="st14" d="M517.9,264.5c0,1.1,0,2.8,1.4,2.8c1.1,0,1.2-1.1,1.2-1.7h1.1c0,0.8-0.5,2.6-2.5,2.6c-1.8,0-2.5-1.2-2.5-3.8
				c0-1.8,0.4-3.9,2.6-3.9c2.2,0,2.4,2,2.4,3.5v0.5H517.9z M520.5,263.6v-0.4c0-0.8-0.3-1.8-1.3-1.8c-1.2,0-1.3,1.5-1.3,1.9v0.3
				H520.5z"/>
			<path class="st14" d="M524,258.2h1.1v3.3h0c0.3-0.6,1.1-1,1.8-1c1.9,0,1.9,1.5,1.9,2.3v5.2h-1.1v-5.1c0-0.6,0-1.5-1.1-1.5
				c-0.6,0-1.4,0.4-1.4,1.5v5.1H524V258.2z"/>
			<path class="st14" d="M531.4,258.2h1.1v1.3h-1.1V258.2z M531.4,260.7h1.1v7.3h-1.1V260.7z"/>
			<path class="st14" d="M538.6,262.9c0-0.7-0.3-1.5-1.2-1.5c-0.7,0-1.4,0.4-1.4,3c0,1,0,2.9,1.4,2.9c1,0,1.2-1,1.2-1.8h1.1
				c0,1.2-0.6,2.7-2.4,2.7c-1.8,0-2.5-1.2-2.5-3.8c0-1.8,0.4-3.9,2.6-3.9c2,0,2.3,1.6,2.3,2.4H538.6z"/>
			<path class="st14" d="M541.8,258.2h1.1v9.8h-1.1V258.2z"/>
			<path class="st14" d="M546.5,264.5c0,1.1,0,2.8,1.4,2.8c1.1,0,1.2-1.1,1.2-1.7h1.1c0,0.8-0.5,2.6-2.5,2.6c-1.8,0-2.5-1.2-2.5-3.8
				c0-1.8,0.4-3.9,2.6-3.9c2.2,0,2.4,2,2.4,3.5v0.5H546.5z M549.1,263.6v-0.4c0-0.8-0.3-1.8-1.3-1.8c-1.2,0-1.3,1.5-1.3,1.9v0.3
				H549.1z"/>
			<path class="st14" d="M460.4,284.4h-1.2v-4.7h-3.3v4.7h-1.2v-9.8h1.2v4h3.3v-4h1.2V284.4z"/>
			<path class="st14" d="M463.9,280.9c0,1.1,0,2.8,1.4,2.8c1.1,0,1.2-1.1,1.2-1.7h1.1c0,0.8-0.5,2.6-2.5,2.6c-1.8,0-2.5-1.2-2.5-3.8
				c0-1.8,0.4-3.9,2.6-3.9c2.2,0,2.4,2,2.4,3.5v0.5H463.9z M466.6,280v-0.4c0-0.8-0.3-1.8-1.3-1.8c-1.2,0-1.3,1.5-1.3,1.9v0.3H466.6
				z"/>
			<path class="st14" d="M469.9,279.3c0-1.7,0.7-2.4,2.5-2.4c2.2,0,2.2,1.3,2.2,2.1v4.1c0,0.3,0,0.6,0.4,0.6c0.2,0,0.2,0,0.3-0.1
				v0.8c-0.1,0-0.4,0.1-0.7,0.1c-0.4,0-1,0-1-0.9h0c-0.4,0.7-1.1,1.1-1.8,1.1c-1.4,0-2-0.8-2-2.1c0-1,0.4-1.7,1.4-2l1.5-0.5
				c0.8-0.3,0.8-0.5,0.8-1.1c0-0.7-0.4-1.1-1.2-1.1c-1.3,0-1.3,1.2-1.3,1.4v0.1H469.9z M473.4,280.4c-0.4,0.5-1.4,0.5-2,0.9
				c-0.4,0.2-0.6,0.5-0.6,1.2c0,0.7,0.3,1.3,1,1.3c0.8,0,1.5-0.6,1.5-1.4V280.4z"/>
			<path class="st14" d="M477.2,274.6h1.1v9.8h-1.1V274.6z"/>
			<path class="st14" d="M481.3,274.9h1.1v2.1h1.3v0.9h-1.3v4.7c0,0.6,0.2,0.8,0.8,0.8c0.2,0,0.4,0,0.5,0v0.9
				c-0.2,0-0.5,0.1-0.9,0.1c-1.2,0-1.5-0.5-1.5-1.4V278h-1.1v-0.9h1.1V274.9z"/>
			<path class="st14" d="M485.5,274.6h1.1v3.3h0c0.3-0.6,1.1-1,1.8-1c1.9,0,1.9,1.5,1.9,2.3v5.2h-1.1v-5.1c0-0.6,0-1.5-1.1-1.5
				c-0.6,0-1.4,0.4-1.4,1.5v5.1h-1.1V274.6z"/>
			<path class="st14" d="M497.2,274.6h3.2c1.5,0,2.5,0.9,2.5,2.4c0,1.1-0.4,2.2-1.5,2.5v0c0.8,0.1,1.3,0.8,1.4,1.6l0.1,1.7
				c0.1,1.1,0.2,1.4,0.5,1.5h-1.4c-0.2-0.2-0.3-0.9-0.3-1.4l-0.1-1.5c-0.1-1.3-0.8-1.4-1.4-1.4h-1.6v4.3h-1.2V274.6z M498.4,279.1
				h1.2c0.7,0,2,0,2-1.9c0-1-0.6-1.6-1.8-1.6h-1.4V279.1z"/>
			<path class="st14" d="M506.2,280.9c0,1.1,0,2.8,1.4,2.8c1.1,0,1.2-1.1,1.2-1.7h1.1c0,0.8-0.5,2.6-2.5,2.6c-1.8,0-2.5-1.2-2.5-3.8
				c0-1.8,0.4-3.9,2.6-3.9c2.2,0,2.4,2,2.4,3.5v0.5H506.2z M508.9,280v-0.4c0-0.8-0.3-1.8-1.3-1.8c-1.2,0-1.3,1.5-1.3,1.9v0.3H508.9
				z"/>
			<path class="st14" d="M512.4,277.1h1.1v0.9h0c0.2-0.5,0.8-1.1,1.6-1.1c1.7,0,2.4,1.5,2.4,3.7c0,1.7-0.5,4-2.4,4
				c-0.7,0-1.3-0.4-1.5-1h0v3.2h-1.1V277.1z M514.9,283.6c1.1,0,1.3-1.1,1.3-3c0-1.6-0.3-2.7-1.3-2.7c-1.3,0-1.5,1.2-1.5,2.9
				C513.4,282.1,513.7,283.6,514.9,283.6z"/>
			<path class="st14" d="M522,276.9c2.1,0,2.6,1.8,2.6,3.9s-0.5,3.9-2.6,3.9c-2.1,0-2.6-1.8-2.6-3.9S519.9,276.9,522,276.9z
				 M523.4,280.7c0-1.6-0.2-2.9-1.5-2.9c-1.2,0-1.4,1.4-1.4,2.9s0.2,2.9,1.4,2.9C523.2,283.7,523.4,282.3,523.4,280.7z"/>
			<path class="st14" d="M526.8,277.1h1.1v1.1h0c0.3-0.7,0.8-1.3,1.6-1.3c0.2,0,0.4,0,0.5,0.1v1.1c-0.1,0-0.2-0.1-0.6-0.1
				c-0.6,0-1.5,0.5-1.5,1.7v4.6h-1.1V277.1z"/>
			<path class="st14" d="M532.2,274.9h1.1v2.1h1.3v0.9h-1.3v4.7c0,0.6,0.2,0.8,0.8,0.8c0.2,0,0.4,0,0.5,0v0.9
				c-0.2,0-0.5,0.1-0.9,0.1c-1.2,0-1.5-0.5-1.5-1.4V278h-1.1v-0.9h1.1V274.9z"/>
		</g>
	</g>
</g>
</svg>
