<?xml version="1.0" encoding="UTF-8"?>
<!-- Generator: Adobe Illustrator 26.0.1, SVG Export Plug-In . SVG Version: 6.00 Build 0)  -->
<svg version="1.1" id="Layer_1" xmlns="http://www.w3.org/2000/svg" xmlns:xlink="http://www.w3.org/1999/xlink" x="0px" y="0px" viewBox="0 0 78.5 69" style="enable-background:new 0 0 78.5 69;" xml:space="preserve">
<style type="text/css">
	.st0{fill:#FFFFFF;}
</style>
<g>
	<path class="st0" d="M75.4,36.1c-0.8,0-1.5-0.7-1.5-1.6c0-0.9,0.7-1.6,1.5-1.6c0.8,0,1.5,0.7,1.5,1.6   C76.9,35.4,76.3,36.1,75.4,36.1 M72.2,36.1L72.2,36.1C72.2,36.1,72.2,36.2,72.2,36.1h-0.6v-8.5h0.6c0,0,0,3.7,0,5.2   C72.2,35.3,72.2,35.9,72.2,36.1 M71.1,36.1c-0.1,0-0.1,0-0.2,0v-8.5c0.1,0,0.1,0,0.2,0V36.1z M70.4,36.1h-0.9v-8.5h0.9V36.1z    M68.5,36.1h-0.6l0-8.5h0.4h0.2V36.1z M67.5,36.1h-0.9v-8.5h0.9V36.1z M66.1,36.1h-1.2v-8.5h1.2V36.1z M64.4,36.1c0,0-0.1,0-0.1,0   v-8.5c0,0,0.1,0,0.1,0V36.1z M63.4,36.1c0,0-0.1,0-0.1,0v-8.5c0,0,0.1,0,0.1,0V36.1z M62.8,36.1h-0.4h-0.2v-8.5h0.6L62.8,36.1z    M61.5,36.1h-0.9v-8.5h0.9V36.1z M60.1,36.1c-0.1,0-0.1,0-0.2,0v-8.5c0.1,0,0.1,0,0.2,0V36.1z M59.5,36.1h-0.4h-0.2v-8.5h0.6   L59.5,36.1z M57.8,36.1h-0.9v-8.5h0.9V36.1z M56.1,36.1h-1.2v-8.5h1.2V36.1z M54.1,36.1c-0.1,0-0.1,0-0.2,0v-8.5c0.1,0,0.1,0,0.2,0   V36.1z M53.5,36.1c-0.1,0-0.1,0-0.2,0v-8.5c0.1,0,0.1,0,0.2,0V36.1z M52.8,36.1h-1.2v-8.5h1.2V36.1z M51.2,36.1h-0.9v-8.5h0.9V36.1   z M49.8,36.1c-0.1,0-0.1,0-0.2,0v-8.5c0.1,0,0.1,0,0.2,0V36.1z M49.2,36.1h-0.9v-8.5h0.9V36.1z M47.8,36.1c-0.1,0-0.1,0-0.2,0v-8.5   c0.1,0,0.1,0,0.2,0V36.1z M46.5,36.1h-0.6c0,0,0-2.5,0-3.5c0-4.5,0-5.1,0-5.1h0.6V36.1z M45.5,36.1c-0.1,0-0.1,0-0.2,0v-8.5   c0.1,0,0.1,0,0.2,0V36.1z M44.2,36.1h-0.4h-0.2v-8.5h0.6L44.2,36.1z M42.5,36.1c-0.1,0-0.1,0-0.2,0v-8.5c0.1,0,0.1,0,0.2,0V36.1z    M41.6,32.4c0,3,0,3.6,0,3.7h0c0,0,0,0,0,0H41v-8.5h0.6C41.6,29,41.6,31.1,41.6,32.4 M40.5,36.1h-0.9v-8.5h0.9V36.1z M38.8,36.1   c-0.1,0-0.1,0-0.2,0v-8.5c0.1,0,0.1,0,0.2,0V36.1z M37.5,36.1c-0.1,0-0.1,0-0.2,0v-8.5c0.1,0,0.1,0,0.2,0V36.1z M36.2,36.1   c-0.1,0-0.1,0-0.2,0v-8.5c0.1,0,0.1,0,0.2,0V36.1z M35.6,36.1h-0.4H35v-8.5h0.6L35.6,36.1z M34.6,36.1h-0.4H34v-8.5h0.6L34.6,36.1z    M32.9,36.1c-0.1,0-0.1,0-0.2,0v-8.5c0.1,0,0.1,0,0.2,0V36.1z M31.5,36.1c-0.1,0-0.1,0-0.2,0v-8.5c0.1,0,0.1,0,0.2,0V36.1z    M30.2,36.1c-0.1,0-0.1,0-0.2,0v-8.5c0.1,0,0.1,0,0.2,0V36.1z M28.9,36.1c-0.1,0-0.1,0-0.2,0v-8.5c0.1,0,0.1,0,0.2,0V36.1z    M28.3,36.1h-0.4h-0.2v-8.5h0.6L28.3,36.1z M26.5,36.1c-0.1,0-0.1,0-0.2,0v-8.5c0.1,0,0.1,0,0.2,0V36.1z M25.3,36.1h-0.4h-0.2v-8.5   h0.6L25.3,36.1z M24.2,36.1c-0.1,0-0.1,0-0.2,0v-8.5c0.1,0,0.1,0,0.2,0V36.1z M23.6,36.1h-0.9v-8.5h0.9V36.1z M22.2,36.1   c-0.1,0-0.1,0-0.2,0v-8.5c0.1,0,0.1,0,0.2,0V36.1z M21,36.1h-0.6l0-8.5h0.4H21V36.1z M19.9,36.1H19v-8.5h0.9V36.1z M18.2,36.1   c-0.1,0-0.1,0-0.2,0v-8.5c0.1,0,0.1,0,0.2,0V36.1z M17.3,36.1h-0.6l0-8.5h0.4h0.2V36.1z M16.3,36.1h-0.4h-0.2v-8.5h0.6L16.3,36.1z    M14.6,36.1c-0.1,0-0.1,0-0.2,0v-8.5c0.1,0,0.1,0,0.2,0V36.1z M13.2,36.1c-0.1,0-0.1,0-0.2,0v-8.5c0.1,0,0.1,0,0.2,0V36.1z    M12.6,36.1c-0.1,0-0.1,0-0.2,0v-8.5c0.1,0,0.1,0,0.2,0V36.1z M11.6,36.1h-0.9v-8.5h0.9V36.1z M10,36.1H9.6H9.4v-8.5H10L10,36.1z    M7.9,36.1c-0.1,0-0.1,0-0.2,0v-8.5c0.1,0,0.1,0,0.2,0V36.1z M6.9,36.1c-0.1,0-0.1,0-0.2,0v-8.5c0.1,0,0.1,0,0.2,0V36.1z M6.3,36.1   H5.7l0-8.5h0.4h0.2V36.1z M2.8,36.1c-0.8,0-1.5-0.7-1.5-1.6c0-0.9,0.7-1.6,1.5-1.6c0.8,0,1.5,0.7,1.5,1.6   C4.3,35.4,3.6,36.1,2.8,36.1 M75.9,24.2H2.6C1.2,24.2,0,25.4,0,27V42c0,1.5,1.2,2.8,2.6,2.8h73.3c1.4,0,2.6-1.2,2.6-2.8V27   C78.5,25.4,77.4,24.2,75.9,24.2"/>
</g>
</svg>