<?xml version="1.0" encoding="UTF-8"?>
<!-- Generator: Adobe Illustrator 26.0.1, SVG Export Plug-In . SVG Version: 6.00 Build 0)  -->
<svg version="1.1" id="Layer_1" xmlns="http://www.w3.org/2000/svg" xmlns:xlink="http://www.w3.org/1999/xlink" x="0px" y="0px" viewBox="0 0 78.5 69" style="enable-background:new 0 0 78.5 69;" xml:space="preserve">
<style type="text/css">
	.st0{fill:#FFFFFF;}
</style>
<g>
	<path class="st0" d="M63.6,29.9h-3.2v-2.2h3.2V29.9z M62.4,40.8h-3.2v-2.2h3.2V40.8z M57.1,29.9H54v-2.2h3.2V29.9z M56.2,40.8H53   v-2.2h3.2V40.8z M50.7,29.9h-3.2v-2.2h3.2V29.9z M49.9,40.8h-3.2v-2.2h3.2V40.8z M44.2,29.9h-3.2v-2.2h3.2V29.9z M43.7,40.8h-3.2   v-2.2h3.2V40.8z M37.7,29.9h-3.2v-2.2h3.2V29.9z M37.5,40.8h-3.2v-2.2h3.2V40.8z M31.3,29.9h-3.2v-2.2h3.2V29.9z M31.2,40.8h-3.2   v-2.2h3.2V40.8z M25,40.8h-3.2v-2.2H25V40.8z M21.7,27.7h3.2v2.2h-3.2V27.7z M18.8,40.8h-3.2v-2.2h3.2V40.8z M15.2,27.7h3.2v2.2   h-3.2V27.7z M64.9,23.6H13.6c-2.7,0-4.6,2.6-3.8,5.2L14.3,43c0.5,1.4,1.8,2.4,3.3,2.4h43.1c1.5,0,2.8-0.9,3.3-2.3l4.8-14.1   C69.6,26.3,67.7,23.6,64.9,23.6"/>
</g>
</svg>