<svg xmlns="http://www.w3.org/2000/svg" width="159.6" height="159.6" viewBox="0 0 159.6 159.6">
  <g id="Group_92" data-name="Group 92" transform="translate(-496.98 -377.75)">
    <path id="Path_89" data-name="Path 89" d="M114.78,649.85a72.3,72.3,0,1,0-72.3-72.3,72.3,72.3,0,0,0,72.3,72.3" transform="translate(462 -120)" fill="#414042"/>
    <circle id="Ellipse_1" data-name="Ellipse 1" cx="72.3" cy="72.3" r="72.3" transform="translate(504.48 385.25)" fill="none" stroke="#ffde17" stroke-width="15"/>
    <path id="Path_90" data-name="Path 90" d="M93.4,618.68a10.72,10.72,0,0,1-7.61-3.15L61.92,591.62A10.759,10.759,0,1,1,77.131,576.4L93.4,592.69l53-53.11A10.759,10.759,0,1,1,161.611,554.8L101,615.53a10.71,10.71,0,0,1-7.6,3.15" transform="translate(462 -120)" fill="#fff"/>
    <rect id="Rectangle_115" data-name="Rectangle 115" width="159.6" height="159.6" transform="translate(496.98 377.75)" fill="none"/>
  </g>
</svg>
