<svg xmlns="http://www.w3.org/2000/svg" xmlns:xlink="http://www.w3.org/1999/xlink" width="162.16" height="159.51" viewBox="0 0 162.16 159.51">
  <defs>
    <clipPath id="clip-path">
      <rect id="Rectangle_51" data-name="Rectangle 51" width="162.16" height="159.51" transform="translate(346.14 239.78)" fill="none"/>
    </clipPath>
  </defs>
  <g id="Group_39" data-name="Group 39" transform="translate(-346.14 -239.78)" clip-path="url(#clip-path)">
    <path id="Path_111" data-name="Path 111" d="M439,319.53a11.81,11.81,0,1,1-11.81-11.81A11.81,11.81,0,0,1,439,319.53Zm18.69-7.4h-3a3.91,3.91,0,0,1-3.6-2.48h0a3.88,3.88,0,0,1,.79-4.26L454,303.2a3.88,3.88,0,0,0,0-5.48l-5-5a3.88,3.88,0,0,0-5.48,0l-2.14,2.14a3.88,3.88,0,0,1-4.26.79h0a3.9,3.9,0,0,1-2.48-3.6v-3a3.87,3.87,0,0,0-3.87-3.87h-7.06a3.87,3.87,0,0,0-3.87,3.87v3a3.92,3.92,0,0,1-2.48,3.6h0a3.89,3.89,0,0,1-4.27-.79l-2.13-2.14a3.88,3.88,0,0,0-5.48,0l-5,5a3.86,3.86,0,0,0,0,5.48l2.13,2.14a3.9,3.9,0,0,1,.8,4.26h0a3.91,3.91,0,0,1-3.6,2.48h-3a3.88,3.88,0,0,0-3.88,3.88v7.05a3.88,3.88,0,0,0,3.88,3.88h3a3.91,3.91,0,0,1,3.6,2.48v.05a3.9,3.9,0,0,1-.8,4.26l-2.13,2.14a3.86,3.86,0,0,0,0,5.48l5,5a3.88,3.88,0,0,0,5.48,0l2.04-2.1a3.91,3.91,0,0,1,4.27-.8h0a3.94,3.94,0,0,1,2.48,3.61v3a3.87,3.87,0,0,0,3.87,3.87h7.06a3.87,3.87,0,0,0,3.87-3.87v-3a3.93,3.93,0,0,1,2.48-3.61h0a3.9,3.9,0,0,1,4.26.8l2.14,2.14a3.88,3.88,0,0,0,5.48,0l5-5a3.88,3.88,0,0,0,0-5.48l-2.14-2.14a3.88,3.88,0,0,1-.79-4.26.08.08,0,0,1,0-.05,3.91,3.91,0,0,1,3.6-2.48h3a3.88,3.88,0,0,0,3.87-3.88V316a3.88,3.88,0,0,0-3.73-3.87Z" fill="none" stroke="#fff" stroke-miterlimit="10" stroke-width="6"/>
    <path id="Path_112" data-name="Path 112" d="M371.3,334.7l-12.73-9.23-9.43,12.92M447.09,374,437,386l12.29,10.27m34.41-94.43,13.67,7.77,7.95-13.88M409,263l5.36-14.75-15.08-5.44M439.36,250A69.33,69.33,0,0,1,496,308.09m.18,18.63a69.32,69.32,0,0,1-56.79,59.48m-27.05-.57a69.32,69.32,0,0,1-53.92-58.91m.18-18.64a69.35,69.35,0,0,1,53.74-57.56" fill="none" stroke="#fff" stroke-linecap="round" stroke-linejoin="round" stroke-width="6"/>
  </g>
</svg>
