<?xml version="1.0" encoding="UTF-8"?>
<!-- Generator: Adobe Illustrator 26.0.1, SVG Export Plug-In . SVG Version: 6.00 Build 0)  -->
<svg version="1.1" id="Layer_1" xmlns="http://www.w3.org/2000/svg" xmlns:xlink="http://www.w3.org/1999/xlink" x="0px" y="0px" viewBox="0 0 78.5 69" style="enable-background:new 0 0 78.5 69;" xml:space="preserve">
<style type="text/css">
	.st0{fill:#FFFFFF;}
</style>
<g>
	<path class="st0" d="M39.3,9.2c10.1,0,18.2,8.3,18.2,18.6c0,10.3-8.2,18.6-18.2,18.6c-10.1,0-18.2-8.3-18.2-18.6   C21.1,17.5,29.2,9.2,39.3,9.2 M39.3,66.5c6.2-7.3,15-16.5,20.2-24.2C62.4,38,64,33.1,64,27.8c0-14-11.1-25.3-24.7-25.3   c-13.7,0-24.7,11.3-24.7,25.3c0,5.2,1.6,10.3,4.5,14.6C24.3,50,33.1,59.2,39.3,66.5"/>
	<path class="st0" d="M46.6,36.1c3.7-2.5,7.7-10,5.4-12.3L51.3,23l-5.2,5.3c-1.3,1.3-3.7,0.2-5.4-1.6c-1.7-1.7-2.8-4.2-1.6-5.5   l5.2-5.3l-0.7-0.7c-2.3-2.3-9.6,1.8-12,5.6c-1.3,1.9-1.6,4.8,0.3,7.2l-5.3,5.5c1.5,3.6,4.4,6.3,8,7.7l5-5.2   C41.7,38.1,44.6,37.5,46.6,36.1"/>
</g>
</svg>