<svg xmlns="http://www.w3.org/2000/svg" xmlns:xlink="http://www.w3.org/1999/xlink" width="76.83" height="34.17" viewBox="0 0 76.83 34.17">
  <defs>
    <clipPath id="clip-path">
      <rect id="Rectangle_21" data-name="Rectangle 21" width="76.83" height="34.17" transform="translate(20.96 71.47)"/>
    </clipPath>
  </defs>
  <g id="Group_154" data-name="Group 154" transform="translate(-36.96 -72.47)">
    <g id="Group_27" data-name="Group 27" transform="translate(16 1)">
      <g id="Group_22" data-name="Group 22" clip-path="url(#clip-path)">
        <path id="Path_23" data-name="Path 23" d="M84.46,82.12V78.07H73.23a4.6,4.6,0,0,0-7.33,4.34,7.888,7.888,0,0,0-6.52.22,6.377,6.377,0,0,0-1.54-2.53,7.356,7.356,0,0,0-5.28-2.03H49.3a4.866,4.866,0,0,0,.05-.65,4.624,4.624,0,0,0-7.89-3.26,4.648,4.648,0,0,0-.99,1.47,11.271,11.271,0,0,0-14.4,1.2,13.662,13.662,0,0,0-3.78,9.79,13.318,13.318,0,0,0,3.59,9.59,10.93,10.93,0,0,0,7.81,3.15,11.027,11.027,0,0,0,9.67-5.12v4.22H57.9l.72-.89c1.4,1.19,2.27,1.21,4.31,1.21a8.158,8.158,0,0,0,3.25-.64v.33H80.61v3.61h4.18c2.63,0,5.24-.56,6.48-4.62L96,82.12Z" fill="#fff"/>
      </g>
      <g id="Group_23" data-name="Group 23" clip-path="url(#clip-path)">
        <path id="Path_24" data-name="Path 24" d="M81.93,100.73h2.89a6.1,6.1,0,0,0,3.08-.61A4.92,4.92,0,0,0,90,97.09v.05c.04-.21.2-.75.74-2.49l1.62-5.27c.69-2.23,1.38-4.47,1.83-5.94H83.14V79.39H72.79l-.11-.08-.25-.18a3.282,3.282,0,0,0-4.29.32,3.284,3.284,0,0,0-.97,2.33,2.394,2.394,0,0,0,.04.44l.23,1.62.1.71-.66-.28-1.51-.64a6.607,6.607,0,0,0-2.54-.49,6.419,6.419,0,0,0-2.88.68l-.96.48-.39.2-.15-.45-.33-1.02a5.157,5.157,0,0,0-1.22-2.01,6.054,6.054,0,0,0-4.34-1.64h-4.8l.07-.46.15-1.06a2.682,2.682,0,0,0,.04-.46,3.286,3.286,0,0,0-6.32-1.27l-.45,1.07-.2.47-.41-.3-.94-.67a9.957,9.957,0,0,0-12.68,1.07,12.342,12.342,0,0,0-3.4,8.85,12.037,12.037,0,0,0,3.2,8.65,9.615,9.615,0,0,0,6.87,2.76,9.649,9.649,0,0,0,8.55-4.51l1.7-2.7.75-1.18v7.48H57.27l.91-1.14.26-.32.32.27.73.62a3,3,0,0,0,1.36.77,8.942,8.942,0,0,0,1.89.12h.2a7.079,7.079,0,0,0,2.74-.53l1.28-.54.56-.24v1H81.95v3.6Zm2.86,2.65H79.28V99.77H65.42a9.843,9.843,0,0,1-2.5.31h-.14a10.886,10.886,0,0,1-2.56-.19,5.05,5.05,0,0,1-1.36-.53l-.21.26-.12.15H42.04v-2a12.818,12.818,0,0,1-8.31,2.91h-.05a12.239,12.239,0,0,1-8.74-3.54,14.676,14.676,0,0,1-3.98-10.53,15.008,15.008,0,0,1,4.17-10.73,12.351,12.351,0,0,1,8.79-3.64h.02a12.384,12.384,0,0,1,6.08,1.52,6.546,6.546,0,0,1,.49-.56,5.943,5.943,0,0,1,10.11,3.53h1.93a8.7,8.7,0,0,1,6.21,2.41,7.538,7.538,0,0,1,1.31,1.76,8.911,8.911,0,0,1,2.77-.43,10.336,10.336,0,0,1,1.78.16,5.941,5.941,0,0,1,9.01-3.9H85.78v4.06h12l-.16.52-.37,1.19.01-.05c-.03.12-.15.52-.64,2.08-1.15,3.71-3.5,11.35-4,12.98l-.09.3a7.493,7.493,0,0,1-3.33,4.6,8.5,8.5,0,0,1-4.41.97" fill="#fff"/>
      </g>
      <g id="Group_24" data-name="Group 24" clip-path="url(#clip-path)">
        <path id="Path_25" data-name="Path 25" d="M81.53,97.52v3.61h3.26a6.571,6.571,0,0,0,3.31-.67,5.229,5.229,0,0,0,2.28-3.27l.01-.04,2.36-7.66c.78-2.52,1.55-5.03,1.99-6.46H84.46v-.92h0v.92h-.92V78.98H72.93l-.25-.18a3.686,3.686,0,0,0-5.9,2.96,2.886,2.886,0,0,0,.04.5l.23,1.62-1.51-.64a6.9,6.9,0,0,0-2.69-.52,6.82,6.82,0,0,0-3.06.72l-.96.48L58.5,82.9a5.451,5.451,0,0,0-1.32-2.17,6.487,6.487,0,0,0-4.62-1.76H48.23l.15-1.06a3.282,3.282,0,0,0,.04-.52,3.691,3.691,0,0,0-6.3-2.61,3.549,3.549,0,0,0-.79,1.18l-.45,1.07-.94-.68a10.362,10.362,0,0,0-13.21,1.11,12.733,12.733,0,0,0-3.51,9.14,12.444,12.444,0,0,0,3.32,8.94,10.006,10.006,0,0,0,7.16,2.88,10.067,10.067,0,0,0,8.89-4.69l1.7-2.7v6.49H57.46l1.03-1.29.72.62a3.456,3.456,0,0,0,1.53.85,10.2,10.2,0,0,0,2.18.13,7.444,7.444,0,0,0,2.89-.56l1.28-.54v.79H81.53Zm-1.85,5.46V99.37H65.37a9.729,9.729,0,0,1-2.45.31,11.62,11.62,0,0,1-2.6-.18,4.632,4.632,0,0,1-1.54-.67l-.43.54H42.44V96.86a12.183,12.183,0,0,1-8.75,3.42,11.871,11.871,0,0,1-8.46-3.42,14.276,14.276,0,0,1-3.86-10.25,14.558,14.558,0,0,1,4.06-10.44A12.229,12.229,0,0,1,40.15,74.3a5.148,5.148,0,0,1,.67-.81,5.481,5.481,0,0,1,3.92-1.62,5.542,5.542,0,0,1,5.54,5.27h2.29a8.26,8.26,0,0,1,5.93,2.3,7.225,7.225,0,0,1,1.39,1.97,8.713,8.713,0,0,1,2.97-.52,9.248,9.248,0,0,1,2.12.24,5.54,5.54,0,0,1,8.56-3.98H85.4V81.2H97.26l-.37,1.2s-3.96,12.85-4.63,15.01l-.09.31a7.049,7.049,0,0,1-3.14,4.36,8.344,8.344,0,0,1-4.22.91H79.68Z"/>
      </g>
      <g id="Group_25" data-name="Group 25" clip-path="url(#clip-path)">
        <path id="Path_26" data-name="Path 26" d="M49.54,87.34h2.75c.99,0,1.52-.62,1.52-1.75a1.506,1.506,0,0,0-1.66-1.6H49.54ZM46.25,80.9h6.43c2.23,0,4.42,1.19,4.42,4.18a3.9,3.9,0,0,1-1.98,3.72v.04c1.34.37,1.73,2.14,1.84,3.55.03.62-.3,2.8.14,3.34H53.85c-.28-.5.05-1.95.02-2.37-.09-1.5-.3-3.03-1.84-3.03H49.54v5.4H46.26V80.9Z" fill="#009d57"/>
      </g>
      <g id="Group_26" data-name="Group 26" clip-path="url(#clip-path)">
        <path id="Path_27" data-name="Path 27" d="M64.84,89.24a2.088,2.088,0,0,0-1.87-2.2c-1.11,0-1.85.89-2.04,2.2Zm-3.91,1.97c.06,1.48.82,2.45,2.15,2.45a1.862,1.862,0,0,0,1.8-1.18h2.95a4.584,4.584,0,0,1-4.78,3.57c-3.13,0-5.27-2.12-5.27-5.73a5.352,5.352,0,0,1,5.19-5.67c3.45,0,5.18,2.91,5.03,6.57H60.93Z" fill="#009d57"/>
      </g>
    </g>
    <rect id="Rectangle_26" data-name="Rectangle 26" width="3" height="10.78" transform="translate(85.07 85.96)" fill="#009d57"/>
    <rect id="Rectangle_27" data-name="Rectangle 27" width="3" height="14.84" transform="translate(89.94 81.9)" fill="#009d57"/>
    <rect id="Rectangle_28" data-name="Rectangle 28" width="3" height="14.84" transform="translate(94.51 81.9)" fill="#009d57"/>
    <g id="Group_35" data-name="Group 35" transform="translate(16 1)">
      <g id="Group_28" data-name="Group 28" clip-path="url(#clip-path)">
        <path id="Path_28" data-name="Path 28" d="M88.74,96.69c-.72,2.37-1.8,2.66-3.83,2.66H83.5V96.48h1.04a1.141,1.141,0,0,0,1.2-1.21,16.742,16.742,0,0,0-.76-2.83l-2.37-7.5h3.18l1.73,7.02h.03l1.73-7.02h3.07Z" fill="#009d57"/>
      </g>
      <g id="Group_29" data-name="Group 29" clip-path="url(#clip-path)">
        <path id="Path_29" data-name="Path 29" d="M68.75,81.83a1.85,1.85,0,1,1,1.85,1.85,1.852,1.852,0,0,1-1.85-1.85" fill="#009d57"/>
      </g>
      <g id="Group_30" data-name="Group 30" clip-path="url(#clip-path)">
        <path id="Path_30" data-name="Path 30" d="M33.86,78.49c-3.06,0-4.7,2.59-4.7,7.47,0,3.57,1.07,8.53,5.12,8.53,3.26,0,4.52-2.97,4.52-7.71.01-5-1.86-8.29-4.94-8.29m8.92,7.91c0,6.38-3.63,10.21-8.97,10.21-5,0-8.63-3.86-8.63-9.97,0-5.79,3.68-10.26,8.87-10.26s8.73,4.08,8.73,10.02" fill="#009d57"/>
      </g>
      <g id="Group_31" data-name="Group 31" clip-path="url(#clip-path)">
        <path id="Path_31" data-name="Path 31" d="M46.7,77.48a1.85,1.85,0,1,0-3.7,0l.02.23a1.229,1.229,0,0,0,.12.46l.06.12.01.01.05.09a6.707,6.707,0,0,0,.96,1.27l-.69.52.69,1.15a5.823,5.823,0,0,0,2.45-3.51,1.793,1.793,0,0,0,.03-.34" fill="#009d57"/>
      </g>
      <g id="Group_32" data-name="Group 32" clip-path="url(#clip-path)">
        <path id="Path_32" data-name="Path 32" d="M31.03,86.8a1.072,1.072,0,0,0-.27,1.07,1.335,1.335,0,0,0,1.36.92c.52-.04.67-.51,1.59-.57h.17v.93a1.644,1.644,0,0,1-.41.89.561.561,0,0,0,.06.76s.42.47.94-.16a2.9,2.9,0,0,0,.59-1.77c-.02-.29-.01-.58-.01-.58a1.811,1.811,0,0,0,2.51-.41,1.1,1.1,0,0,0-.14-1.19,1.09,1.09,0,0,0-.18-1.58,1.19,1.19,0,0,0-1.42-.02s.77-1.31-.4-1.94a1.125,1.125,0,0,0-1.31.2,1.184,1.184,0,0,0-1.7.02s-.82.8.24,1.79a1.245,1.245,0,0,0-1.78.17,1.053,1.053,0,0,0,.16,1.47" fill="#009d57"/>
      </g>
      <g id="Group_33" data-name="Group 33" clip-path="url(#clip-path)">
        <path id="Path_33" data-name="Path 33" d="M45.64,103.69l.22-1.16c.05-.31.1-.62.13-.93h.03c.03.32.08.65.14.97l.21,1.13h-.73Zm1.21-3.08H45.21l-1.22,4.91h1.35l.16-.82h1.01l.16.82h1.36Z"/>
      </g>
      <g id="Group_34" data-name="Group 34" clip-path="url(#clip-path)">
        <path id="Path_34" data-name="Path 34" d="M51.27,104.88a1.952,1.952,0,0,0,.16-.76c.01-.11.01-.42.01-.42v-3.09H50.13v3.55c0,.29-.04.62-.39.62s-.37-.35-.37-.64v-3.53H48.06v3.1c0,.15.01.42.01.42a2.315,2.315,0,0,0,.16.76c.21.5.66.76,1.53.76a1.582,1.582,0,0,0,1.47-.68Z"/>
      </g>
    </g>
    <path id="Path_35" data-name="Path 35" d="M51.79,100.6v1.07h.99v3.84h1.3v-3.84h.98V100.6Z" transform="translate(16 1)"/>
    <g id="Group_37" data-name="Group 37" transform="translate(16 1)">
      <g id="Group_36" data-name="Group 36" clip-path="url(#clip-path)">
        <path id="Path_36" data-name="Path 36" d="M57.35,103.33c0,.26-.03.79-.03.79l-.03.25c-.03.22-.13.41-.37.41s-.35-.2-.38-.41l-.03-.25a7.311,7.311,0,0,1-.03-.81v-.24c0-.3,0-.6.01-.89s0-.8.41-.8c.31,0,.39.29.41.54.03.38.03.77.03,1.15v.26Zm1.34-.26c0-1.37-.04-2.57-1.77-2.57s-1.77,1.2-1.77,2.57a8.8,8.8,0,0,0,.05,1.05,2.246,2.246,0,0,0,.22.76,1.512,1.512,0,0,0,1.51.76,1.481,1.481,0,0,0,1.52-.76,2.237,2.237,0,0,0,.2-.76,8.871,8.871,0,0,0,.04-1.05"/>
      </g>
    </g>
    <path id="Path_37" data-name="Path 37" d="M71.17,100.6v1.07h.99v3.84h1.3v-3.84h.98V100.6Z" transform="translate(16 1)"/>
    <g id="Group_43" data-name="Group 43" transform="translate(16 1)">
      <g id="Group_38" data-name="Group 38" clip-path="url(#clip-path)">
        <path id="Path_38" data-name="Path 38" d="M61.57,102.72v-1.2c.48,0,.74.07.74.61,0,.51-.27.59-.74.59m.01.92h.44a1.423,1.423,0,0,0,1.63-1.52c0-1.16-.65-1.51-1.72-1.51H60.28v4.91h1.3v-1.88Z"/>
      </g>
      <g id="Group_39" data-name="Group 39" clip-path="url(#clip-path)">
        <path id="Path_39" data-name="Path 39" d="M64.89,103.69l.22-1.16c.05-.31.1-.62.13-.93h.03c.03.32.08.65.14.97l.21,1.12Zm1.21-3.09H64.46l-1.22,4.91h1.35l.16-.82h1.01l.16.82h1.36Z"/>
      </g>
      <g id="Group_40" data-name="Group 40" clip-path="url(#clip-path)">
        <path id="Path_40" data-name="Path 40" d="M68.86,102.67v-1.15c.48,0,.79.02.79.58-.01.51-.34.57-.79.57m2.04,1.45c-.03-.53-.14-.95-.8-1.03a1,1,0,0,0,.84-1.14c0-1.1-.62-1.34-1.58-1.34h-1.8v4.91h1.3v-1.99c.69,0,.74.15.76.59l.02.76a1.544,1.544,0,0,0,.11.64h1.38v-.07c-.18-.07-.2-.33-.2-.54v-.03c-.01-.19-.03-.7-.03-.76"/>
      </g>
      <g id="Group_41" data-name="Group 41" clip-path="url(#clip-path)">
        <path id="Path_41" data-name="Path 41" d="M74.76,104.87c.22.55.73.75,1.54.75.78,0,1.35-.2,1.6-.75a1.832,1.832,0,0,0,.15-.76h0v-.03c0-1.76-2.1-1.34-2.1-2.3a.376.376,0,0,1,.39-.42c.33,0,.36.37.36.62h1.23c0-1.07-.58-1.49-1.61-1.49-.94,0-1.64.43-1.64,1.44,0,1.76,1.81,1.35,2.04,2.17l.03.18a.435.435,0,0,1-.45.47c-.37,0-.4-.36-.41-.65h0v-.08H74.65l-.01.07v.01A2.109,2.109,0,0,0,74.76,104.87Z"/>
      </g>
      <g id="Group_42" data-name="Group 42" clip-path="url(#clip-path)">
        <path id="Path_42" data-name="Path 42" d="M93.36,99.06v-.38h.33c.13,0,.32,0,.32.17s-.1.21-.25.2h-.4Zm.54.21c.24-.02.37-.12.37-.36a.393.393,0,0,0-.16-.35.665.665,0,0,0-.37-.07h-.65v1.35h.27v-.57h.26l.3.57h.31Zm-.29.9a1.015,1.015,0,1,1,0-2.03,1.015,1.015,0,0,1,0,2.03m0,.24a1.25,1.25,0,1,0-1.26-1.25,1.25,1.25,0,0,0,1.26,1.25" fill="#fff"/>
      </g>
    </g>
  </g>
</svg>
