<svg id="Layer_1" data-name="Layer 1" xmlns="http://www.w3.org/2000/svg" xmlns:xlink="http://www.w3.org/1999/xlink" viewBox="0 0 879.25 162.39"><defs><style>.cls-1{fill:none;}.cls-2{clip-path:url(#clip-path);}.cls-3{fill:#e12827;}.cls-4{fill:#fff;}</style><clipPath id="clip-path" transform="translate(-5.4 0)"><rect class="cls-1" x="5.4" width="879.25" height="162.39"/></clipPath></defs><g class="cls-2"><path class="cls-3" d="M74.87,61.64H96.35l2.26-9.46c2.85-10.41-3.81-17.73-10.89-17.73H37c-5.65,0-16.48,2.8-19.76,13.8L6.56,85.68C3.35,96.27,6.44,106.26,20,106.26l47.3-.12A21,21,0,0,0,87.12,92.29l4-13.57H69.51L68.2,82.58c-2.14,5.77-6.48,6.73-10.59,6.73H37.44c-5.53,0-9.34-3.28-6.36-13l5.83-18.93c.83-2.79,3.81-6.72,9.93-6.72H68.2c2.26,0,10.12.18,6.67,11" transform="translate(-5.4 0)"/><path class="cls-3" d="M137,65.75s3.34-6.25,4.71-8.16,5.05-6.54,8.44-6.54,5.24,4.22,5.84,7.14a35,35,0,0,1,.23,7.56Zm40.05,40.51-.48-55.09c-.24-9.4-8.69-17.38-18.09-17.38h-7.85c-12,0-21.18,6.79-27,17.5s-30.23,55-30.23,55h22.85l12.14-23.2h26.65l-.23,23.2Z" transform="translate(-5.4 0)"/><path class="cls-3" d="M261.46,57.36c-1.28,4.23-4.64,8.39-10.41,8.39h-31.6l4.29-15.53,29.09-.06c7.47,0,10.23,1.84,8.63,7.2m11.42-23H206.3l-19.81,71.93h22.67l6.78-23.2h12.67l17.14,23.2h25.52l-17.9-23.2c8.45,0,21.18-2,25.64-14.1l5.12-15.89c2.44-7.73.35-18.74-11.25-18.74" transform="translate(-5.4 0)"/><path class="cls-4" d="M616.25,46.85s4.89-9.16,6.89-12,7.42-9.6,12.39-9.6,7.68,6.2,8.55,10.47.35,11.08.35,11.08ZM675,106.26l-.7-80.78C673.92,11.69,661.53,0,647.74,0H636.23c-17.63,0-31.06,10-39.61,25.65s-44.32,80.61-44.32,80.61h33.5l17.8-34h39.08l-.34,34Z" transform="translate(-5.4 0)"/><path class="cls-4" d="M688.07,106.86h32.36l17.14-66c2.5-9.29,7.14-14.4,14.87-14.28H784.1c8.09,0,12.49,3.21,10.11,11.9-2,7.29-17.85,68.42-17.85,68.42h32.49l20.47-76.75c3.45-13.33-.12-28.8-16.9-28.8h-70c-19,0-30.94,15.11-34.39,28.91Z" transform="translate(-5.4 0)"/><path class="cls-4" d="M567.76,1.31H473.27c-19,0-30.94,15.11-34.39,28.91,0,0-10.43,37.09-12.75,48.9-2.6,13.22.62,27.74,18.46,27.74h95l6.77-25.2H477.68c-11.43,0-18.63-2-15.9-15.37l6.62-25.47c2.79-10.42,11.3-13.75,19-13.63h73.19Z" transform="translate(-5.4 0)"/><path class="cls-4" d="M433.41,1.31H333.69c-19,0-29.75,15.11-34.39,28.91S303.14,49.37,311.63,53l57.52,22.92c4.76,1.78,5,5.22-1.43,5.22H286l-6.71,25.72h106c26.06,0,35.35-38.56,21.78-45.46L338.8,32.6c-4.64-1.78-7.61-6.06,2-6.06h86.63Z" transform="translate(-5.4 0)"/></g><polygon class="cls-4" points="842.6 21.18 847.13 4.16 852.72 4.16 853.67 0.47 836.41 0.47 835.23 4.16 842.48 4.16 837.96 21.18 842.6 21.18"/><polygon class="cls-4" points="873.07 0.47 864.86 14.04 862.71 0.47 856.17 0.47 851.53 21.18 856.29 21.18 859.74 5.59 862.83 21.18 864.5 21.18 873.9 5.59 870.81 21.18 875.68 21.18 879.25 0.47 873.07 0.47"/><rect class="cls-4" x="277.47" y="120.11" width="10.96" height="40.51"/><g class="cls-2"><path class="cls-4" d="M296,120.11h10.43l8.76,24.39.1-.11c-.43-4.67-1.23-9.29-1.23-14V120.11h10.53v40.51H314.1l-8.17-23.37-.11.11c.27,3.81.76,7.57.76,11.38v11.88H296Z" transform="translate(-5.4 0)"/><path class="cls-4" d="M326.85,120.11h10.42L346,144.5l.11-.11c-.44-4.67-1.24-9.29-1.24-14V120.11h10.53v40.51H344.9l-8.17-23.37-.1.11c.27,3.81.75,7.57.75,11.38v11.88H326.85Z" transform="translate(-5.4 0)"/><path class="cls-4" d="M410.08,160.62l-9.3-40.51h11.49l2.59,16.66c.48,3.27.75,6.49,1.18,9.77h.1c.49-3.28.65-6.5,1.24-9.77l3-16.66h11.87l-11,40.51Z" transform="translate(-5.4 0)"/><path class="cls-4" d="M444.65,160.62l-.8-5.21h-7.36l-.92,5.21H424.29L434,120.11H447.4L456,160.62Zm-2.09-13.81-1.18-9.4c-.33-2.53-.54-5.1-.81-7.63h-.11c-.32,2.53-.59,5.1-1,7.63l-1.5,9.4Z" transform="translate(-5.4 0)"/><path class="cls-4" d="M455.44,119.94a5.55,5.55,0,1,0,5.55,5.55,5.47,5.47,0,0,0-5.55-5.55m0,.8a4.75,4.75,0,1,1-4.67,4.75,4.64,4.64,0,0,1,4.67-4.75m-1.21,5.11h1.31l1.81,2.83h.93l-1.9-2.83a1.72,1.72,0,0,0,1.59-1.78c0-1.16-.64-1.78-2.08-1.78h-2.47v6.39h.81Zm0-.68V123h1.45c.78,0,1.49.21,1.49,1.11,0,1.08-.94,1.1-1.9,1.1Z" transform="translate(-5.4 0)"/><path class="cls-4" d="M380,156.49a16.17,16.17,0,1,1,16.17-16.17A16.17,16.17,0,0,1,380,156.49m0-38.23a22.07,22.07,0,1,0,22.07,22.06A22.06,22.06,0,0,0,380,118.26" transform="translate(-5.4 0)"/><path class="cls-3" d="M380,127.29a13,13,0,1,0,13,13,13,13,0,0,0-13-13" transform="translate(-5.4 0)"/><path class="cls-4" d="M13.26,145.24a10,10,0,0,0,2.19.17c3.47,0,5.61-1.76,5.61-4.71,0-2.66-1.84-4.24-5.1-4.24a11.77,11.77,0,0,0-2.7.25ZM6.8,132.13a53.68,53.68,0,0,1,8.82-.6c4,0,6.9.77,8.82,2.31a8.44,8.44,0,0,1,3.09,6.69,9.21,9.21,0,0,1-2.66,6.85c-2.22,2.1-5.52,3-9.38,3a15.75,15.75,0,0,1-2.23-.13v10.33H6.8Z" transform="translate(-5.4 0)"/><path class="cls-4" d="M37.25,146.27c0,5.65,2.66,9.64,7,9.64s6.94-4.2,6.94-9.81c0-5.19-2.49-9.64-7-9.64s-7,4.19-7,9.81m20.87-.39c0,9.47-5.74,15.21-14.18,15.21s-13.58-6.47-13.58-14.69c0-8.66,5.52-15.13,14-15.13,8.86,0,13.71,6.64,13.71,14.61" transform="translate(-5.4 0)"/><path class="cls-4" d="M66.77,160.62l-6.85-28.88h7l2.18,11.91c.65,3.43,1.25,7.16,1.72,10.07h.08c.47-3.13,1.16-6.6,1.89-10.15l2.44-11.83h6.94l2.31,12.17c.64,3.39,1.12,6.47,1.54,9.68h.09c.43-3.21,1.07-6.59,1.67-10l2.36-11.83h6.64L89.3,160.62H82.23l-2.44-12.43c-.55-2.91-1-5.61-1.37-8.91h-.08c-.52,3.26-1,6-1.67,8.91l-2.75,12.43Z" transform="translate(-5.4 0)"/></g><polygon class="cls-4" points="111.92 148.41 101.3 148.41 101.3 155.26 113.17 155.26 113.17 160.62 94.75 160.62 94.75 131.74 112.57 131.74 112.57 137.1 101.3 137.1 101.3 143.1 111.92 143.1 111.92 148.41"/><g class="cls-2"><path class="cls-4" d="M129.49,144.55h2.57c3.25,0,5.18-1.62,5.18-4.15s-1.8-4-4.8-4a15.65,15.65,0,0,0-2.95.22ZM123,132.13a57.64,57.64,0,0,1,8.69-.6c4.29,0,7.29.64,9.34,2.27a7.32,7.32,0,0,1,2.66,6,7.65,7.65,0,0,1-5.1,7.11v.13c2,.81,3.13,2.74,3.86,5.4.9,3.25,1.79,7,2.35,8.14h-6.68a35.91,35.91,0,0,1-2-6.73c-.78-3.6-2-4.58-4.67-4.62h-2v11.35H123Z" transform="translate(-5.4 0)"/></g><polygon class="cls-4" points="160.2 148.41 149.58 148.41 149.58 155.26 161.45 155.26 161.45 160.62 143.03 160.62 143.03 131.74 160.85 131.74 160.85 137.1 149.58 137.1 149.58 143.1 160.2 143.1 160.2 148.41"/><g class="cls-2"><path class="cls-4" d="M177.85,155.69a11.91,11.91,0,0,0,2.27.13c5.91,0,9.77-3.21,9.77-10.11,0-6-3.47-9.17-9.08-9.17a13.47,13.47,0,0,0-3,.26Zm-6.55-23.56a57.64,57.64,0,0,1,8.82-.6c5.49,0,9,1,11.83,3.08,3,2.23,4.88,5.79,4.88,10.89,0,5.52-2,9.33-4.8,11.69-3,2.53-7.67,3.73-13.32,3.73a57.16,57.16,0,0,1-7.41-.43Z" transform="translate(-5.4 0)"/><path class="cls-4" d="M216.23,156a19.75,19.75,0,0,0,2.53.09c3,0,5.57-1.12,5.57-4.16s-2.61-4.07-5.87-4.07h-2.23Zm0-12.81h2.15c3.42,0,5.27-1.41,5.27-3.55s-1.67-3.34-4.63-3.34a17.49,17.49,0,0,0-2.79.17Zm-6.46-11.05a52.26,52.26,0,0,1,8.44-.6c4,0,6.42.39,8.52,1.63a6.29,6.29,0,0,1,3.47,5.65c0,2.57-1.5,5-4.76,6.17v.09c3.3.9,5.75,3.38,5.75,7.11a7.67,7.67,0,0,1-3,6.12c-2.1,1.67-5.61,2.62-11.36,2.62a50.93,50.93,0,0,1-7.06-.43Z" transform="translate(-5.4 0)"/><path class="cls-4" d="M240.87,160.62V148.79l-9.13-17h7.46l3,6.94c.9,2.1,1.5,3.65,2.23,5.53h.09c.64-1.8,1.32-3.47,2.18-5.53l2.91-6.94h7.33l-9.51,16.84v12Z" transform="translate(-5.4 0)"/></g></svg>