<?xml version="1.0" encoding="UTF-8"?>
<!-- Generator: Adobe Illustrator 26.0.1, SVG Export Plug-In . SVG Version: 6.00 Build 0)  -->
<svg version="1.1" id="Layer_1" xmlns="http://www.w3.org/2000/svg" xmlns:xlink="http://www.w3.org/1999/xlink" x="0px" y="0px" viewBox="0 0 329.7 186.9" style="enable-background:new 0 0 329.7 186.9;" xml:space="preserve">
<style type="text/css">
	.st0{clip-path:url(#SVGID_00000098938484632552938380000000436109390745900929_);}
	.st1{fill:#FFFFFF;}
	.st2{clip-path:url(#SVGID_00000033349649951895260970000010805890641972099773_);}
	.st3{clip-path:url(#SVGID_00000141414237169649908930000006576649350190382994_);}
	.st4{clip-path:url(#SVGID_00000177472007042626819360000000008185661777836427_);}
	.st5{clip-path:url(#SVGID_00000148646698874315875000000012807607687445497276_);}
	.st6{clip-path:url(#SVGID_00000179613694049615868370000000963294092864839613_);}
	.st7{clip-path:url(#SVGID_00000098190354898019718930000001531195081202382728_);}
	.st8{clip-path:url(#SVGID_00000132083646773457526580000011713738320825979783_);}
	.st9{clip-path:url(#SVGID_00000144296529125088893810000014336543573178249143_);}
	.st10{clip-path:url(#SVGID_00000098221826042127820150000007474477253401029269_);}
	.st11{clip-path:url(#SVGID_00000154397876885619147710000009753185248988876697_);}
	.st12{clip-path:url(#SVGID_00000117659345042371139520000002319707287708576135_);}
	.st13{clip-path:url(#SVGID_00000119814513261282454330000017503114680405097620_);}
	.st14{clip-path:url(#SVGID_00000018926100328205578710000018220088856779141527_);}
	.st15{clip-path:url(#SVGID_00000083769089382096981850000017254095042093733260_);}
	.st16{clip-path:url(#SVGID_00000114041640473178745690000013503111944046505399_);}
	.st17{clip-path:url(#SVGID_00000145029582187777372640000015316739207679511475_);}
	.st18{clip-path:url(#SVGID_00000109024274653434803450000012229164444527050881_);}
	.st19{clip-path:url(#SVGID_00000179645122236183321350000005463752712203311546_);}
	.st20{clip-path:url(#SVGID_00000126323252952456220730000003096356843591286680_);}
	.st21{clip-path:url(#SVGID_00000023277175234320209490000007659355693535905960_);}
	.st22{clip-path:url(#SVGID_00000025413668707432345050000016496355823215432857_);}
	.st23{clip-path:url(#SVGID_00000180332724722662094960000001554423841144687507_);}
	.st24{clip-path:url(#SVGID_00000003077884547740936330000006810128472639208602_);}
	.st25{clip-path:url(#SVGID_00000047054016894559912620000016841594295364048544_);}
	.st26{clip-path:url(#SVGID_00000017480900702839858490000010748365592011975332_);}
	.st27{clip-path:url(#SVGID_00000031912668233465103820000011132223904194813826_);}
	.st28{clip-path:url(#SVGID_00000054250337327933378370000012627563441510138525_);}
	.st29{fill:#1F2123;}
	.st30{clip-path:url(#SVGID_00000142148114670030235890000009331848611342124422_);}
	.st31{fill:#E12827;}
	.st32{font-family:'HelveticaNeue-Medium';}
	.st33{font-size:24px;}
	.st34{font-family:'HelveticaNeue';}
	.st35{font-size:14px;}
	.st36{font-size:13px;}
	.st37{fill:#919090;}
	.st38{font-size:10px;}
	.st39{font-family:'HelveticaNeueLTStd-Cn';}
</style>
<g>
	<g>
		<g>
			<defs>
				<rect id="SVGID_1_" x="66" y="64.7" width="63.9" height="61"/>
			</defs>
			<clipPath id="SVGID_00000091007522565083205130000010950306628258536097_">
				<use xlink:href="#SVGID_1_" style="overflow:visible;"/>
			</clipPath>
			<g style="clip-path:url(#SVGID_00000091007522565083205130000010950306628258536097_);">
				<path class="st1" d="M90.8,125.1c-2,0-3.9-1.3-5-3c-1.3-2.1-1.7-5.6,1.8-8.2l1.1,1.5c-3.1,2.4-1.8,5-1.4,5.8      c1,1.5,3,2.7,4.5,1.9c3.2-1.6,5-2.9,5-2.9l1.1,1.5c-0.1,0.1-1.9,1.4-5.3,3.1C92.1,125,91.4,125.1,90.8,125.1z"/>
			</g>
		</g>
		<g>
			<defs>
				<rect id="SVGID_00000099635216565528867670000008178698288358586252_" x="66" y="64.7" width="63.9" height="61"/>
			</defs>
			<clipPath id="SVGID_00000082333389501840480560000013737423156789908914_">
				<use xlink:href="#SVGID_00000099635216565528867670000008178698288358586252_" style="overflow:visible;"/>
			</clipPath>
			<g style="clip-path:url(#SVGID_00000082333389501840480560000013737423156789908914_);">
				<path class="st1" d="M84.7,101.8c-1.6,0-3.2-0.4-4.5-1.2c-2.4-1.5-3.9-4.2-4.2-7.5c-0.3-3.3,0.7-6.8,2.7-10s4.7-5.6,7.8-6.8      c3.1-1.2,6.2-1.1,8.6,0.4c2.7,1.7,4.2,4.8,4.2,8.6h-1.1c0-3.4-1.3-6.2-3.7-7.7c-2.1-1.3-4.8-1.4-7.6-0.3      c-2.8,1.1-5.4,3.4-7.3,6.3c-1.8,3-2.7,6.3-2.5,9.3s1.5,5.3,3.6,6.7c1.8,1.1,4.1,1.4,6.5,0.7l0.3,1.1      C86.5,101.6,85.6,101.8,84.7,101.8z"/>
			</g>
		</g>
		<g>
			<defs>
				<rect id="SVGID_00000170963575193943335580000008778045213058500510_" x="66" y="64.7" width="63.9" height="61"/>
			</defs>
			<clipPath id="SVGID_00000175296336279253937930000011077790091151613871_">
				<use xlink:href="#SVGID_00000170963575193943335580000008778045213058500510_" style="overflow:visible;"/>
			</clipPath>
			<g style="clip-path:url(#SVGID_00000175296336279253937930000011077790091151613871_);">
				<path class="st1" d="M81.1,110.3c-2.8,0-5.5-0.7-7.8-2.2c-4.2-2.6-6.7-7.2-7.2-13c-0.5-5.7,1.2-11.8,4.6-17.3s8.2-9.6,13.5-11.7      c5.4-2.1,10.7-1.9,14.9,0.7c5.4,3.3,8.1,10.8,7,19l-1.9-0.3c1-7.4-1.4-14.1-6.1-17.1c-3.7-2.3-8.3-2.5-13.1-0.6      c-4.9,1.9-9.4,5.8-12.6,11C69.1,84,67.6,89.7,68,95c0.4,5.2,2.6,9.3,6.3,11.5c2.7,1.7,6.1,2.3,9.7,1.6l0.4,1.9      C83.2,110.2,82.1,110.3,81.1,110.3z"/>
			</g>
		</g>
		<g>
			<defs>
				<rect id="SVGID_00000176732596713586095190000018074732780465935530_" x="66" y="64.7" width="63.9" height="61"/>
			</defs>
			<clipPath id="SVGID_00000127748481968971109710000001871531025323090095_">
				<use xlink:href="#SVGID_00000176732596713586095190000018074732780465935530_" style="overflow:visible;"/>
			</clipPath>
			<g style="clip-path:url(#SVGID_00000127748481968971109710000001871531025323090095_);">
				<path class="st1" d="M96.8,125.7l-0.3-8.3c-0.4-0.8-1.4-2.8-2.6-5.3c-0.8,0.6-2.1,1.5-4,2.7c-1.4,0.8-3.1,0.6-4.3-0.7      c-2.1-2.2-2.9-7.1-0.6-10.5c0.8-1.2,1.3-1.9,2.2-3.1c0.3-0.3,0.6-0.7,0.9-1.2c-1.2-2.9-1.9-5.3-1.9-6.6c0-2.2,1-5.4,3.9-7.2      c1.8-1.2,5-2.1,9.9,0v-0.4c7.6,0.9,20.5,2.4,21.4,2.9c0.5,0.3,2.6,1.6,5.5,3.5c1.4,0.9,2.9,1.9,3.2,2.1l-0.9,1.6      c-0.3-0.2-1.5-0.9-3.3-2.1c-2-1.3-4.8-3.2-5.3-3.4c-0.8-0.3-10.1-1.4-17.4-2.3c3.4,2.6,6.5,7,8,11.7v0.2c0.3,0.9,0.6,1.9,1,2.9      V102c1.4,0.2,4.2,0.3,4.2,0.3h0.4l0.3,0.3c0,0,4.3,5,6,6.2l-1.1,1.5c-1.6-1.2-5-5.1-6-6.2c-0.7,0-2.1-0.1-3.2-0.2      c1.4,4.1,3.2,8.3,5.3,10.5l-1.3,1.3c-3.2-3.4-5.6-10.5-7.3-15.8v-0.2c-1.7-5.2-5.7-10.3-9.4-12c-3.6-1.7-6.7-1.9-8.9-0.5      c-2.1,1.3-3,3.8-3,5.7c0,2.9,6.1,16,10.3,24.1l0.1,0.2l0.3,8.7L96.8,125.7z M88.9,101.2c-0.1,0.1-0.2,0.2-0.2,0.3      c-0.9,1.1-1.4,1.8-2.2,3c-1.9,2.8-1,6.7,0.4,8.2c1,1,1.8,0.6,2,0.4c2.2-1.3,3.5-2.2,4.1-2.8C91.7,107.5,90.2,104.2,88.9,101.2z"/>
			</g>
		</g>
		<g>
			<defs>
				<rect id="SVGID_00000070831995798215732850000015643197698958196670_" x="66" y="64.7" width="63.9" height="61"/>
			</defs>
			<clipPath id="SVGID_00000073695548066616333790000006630561781776586131_">
				<use xlink:href="#SVGID_00000070831995798215732850000015643197698958196670_" style="overflow:visible;"/>
			</clipPath>
			<g style="clip-path:url(#SVGID_00000073695548066616333790000006630561781776586131_);">
				<path class="st1" d="M88,100.4l-2.3-1.7c-0.5-0.3-1.5-1.3-1.6-4.4c-0.1-3.2,0-11.8,0-12.1v-0.3l0.2-0.3c0.3-0.4,0.9-0.9,1.5-1.1      l0,0l4.8-1.6l10.5,6.9l-1.1,1.6L90.3,81l-1.1,0.4c1.7,1.3,4.7,3.2,4.7,3.2L93,86.1c-0.2-0.1-4-2.6-5.5-3.9      c-0.5-0.4-1.1,0-1.4,0.3c0,1.7-0.1,8.9,0,11.7c0.1,2.1,0.6,2.7,0.7,2.8l0.1,0.1l2.3,1.8L88,100.4z"/>
			</g>
		</g>
		<g>
			<defs>
				<rect id="SVGID_00000061445714469917838880000003115650590017434804_" x="66" y="64.7" width="63.9" height="61"/>
			</defs>
			<clipPath id="SVGID_00000072988922052659845870000018283157510844790712_">
				<use xlink:href="#SVGID_00000061445714469917838880000003115650590017434804_" style="overflow:visible;"/>
			</clipPath>
			<g style="clip-path:url(#SVGID_00000072988922052659845870000018283157510844790712_);">
				<path class="st1" d="M92.8,100.7c-0.6,0-1.2-0.5-1.4-0.8c-2.2-2.3-2.9-6.1-3-6.4c-0.4-1.3,0.3-3.3,1.9-4.9      c1.6-1.7,3.6-2.5,5.4-2c1.1,0.3,1.4,0.7,2.3,2l0.1,0.1c0,0,1.8,2.7,2.4,4.2c0.6,1.3,0.3,1.7-0.4,2.1c-1.6,0.7-5.7,3.5-6.5,5.2      c-0.1,0.2-0.3,0.4-0.5,0.4C92.8,100.7,92.8,100.7,92.8,100.7z M94.5,87c-1.3,0-2.7,0.7-3.9,2c-1.4,1.5-2.1,3.3-1.7,4.4l0,0      c0,0,0.8,3.9,2.9,6.1c0.3,0.3,0.8,0.7,1.1,0.6c0.1,0,0.1,0,0.1-0.1c1-1.9,5.3-4.8,6.8-5.5c0.4-0.2,0.6-0.3,0.1-1.4      c-0.6-1.5-2.4-4.1-2.4-4.1l-0.1-0.1c-0.9-1.3-1-1.6-2-1.8C95.1,87,94.8,87,94.5,87z"/>
			</g>
		</g>
		<g>
			<defs>
				<rect id="SVGID_00000128478687279968514210000016170972378261072274_" x="66" y="64.7" width="63.9" height="61"/>
			</defs>
			<clipPath id="SVGID_00000176011738210219303680000000371864464145950380_">
				<use xlink:href="#SVGID_00000128478687279968514210000016170972378261072274_" style="overflow:visible;"/>
			</clipPath>
			<g style="clip-path:url(#SVGID_00000176011738210219303680000000371864464145950380_);">
				<path class="st1" d="M75.1,82.3l-1.2-0.4c-0.3-0.1-0.5-0.2-0.8-0.3l0,0c0.2,0.2,0.3,0.4,0.5,0.6l0.8,1.1L75.1,82.3z M74.6,83.7      l0.8,1.2l-0.3,0.5l-2.6-3.7l0.4-0.5l4.3,1.4l-0.4,0.5l-1.4-0.4L74.6,83.7z"/>
			</g>
		</g>
		<g>
			<defs>
				<rect id="SVGID_00000056405297651022960160000005828104488426609799_" x="66" y="64.7" width="63.9" height="61"/>
			</defs>
			<clipPath id="SVGID_00000147905206165868850170000004924356481261272971_">
				<use xlink:href="#SVGID_00000056405297651022960160000005828104488426609799_" style="overflow:visible;"/>
			</clipPath>
			<g style="clip-path:url(#SVGID_00000147905206165868850170000004924356481261272971_);">
				<path class="st1" d="M79.2,79.5c0,0.2-0.2,0.6-0.5,1c-0.7,1-1.9,1.3-3,0.4c-1.1-0.8-1.3-2.1-0.5-3.1c0.3-0.4,0.6-0.6,0.8-0.7      l0.3,0.4c-0.2,0.1-0.4,0.3-0.7,0.6c-0.6,0.8-0.5,1.7,0.4,2.4c0.8,0.6,1.8,0.5,2.4-0.3c0.2-0.3,0.3-0.6,0.4-0.8L79.2,79.5z"/>
			</g>
		</g>
		<g>
			<defs>
				<rect id="SVGID_00000119077551346234375480000006500164778650373281_" x="66" y="64.7" width="63.9" height="61"/>
			</defs>
			<clipPath id="SVGID_00000001625388496303148780000008966768321148765858_">
				<use xlink:href="#SVGID_00000119077551346234375480000006500164778650373281_" style="overflow:visible;"/>
			</clipPath>
			<g style="clip-path:url(#SVGID_00000001625388496303148780000008966768321148765858_);">
				<path class="st1" d="M81.4,76.6c0,0.2-0.2,0.6-0.5,1c-0.7,1-1.9,1.3-3,0.4c-1.1-0.8-1.3-2.1-0.5-3.1c0.3-0.4,0.6-0.6,0.8-0.7      l0.3,0.4c-0.2,0.1-0.4,0.3-0.7,0.6c-0.6,0.8-0.5,1.7,0.4,2.4c0.8,0.6,1.8,0.5,2.4-0.3c0.2-0.3,0.3-0.6,0.4-0.8L81.4,76.6z"/>
			</g>
		</g>
		<g>
			<defs>
				<rect id="SVGID_00000158708518021686218760000008582365897201653149_" x="66" y="64.7" width="63.9" height="61"/>
			</defs>
			<clipPath id="SVGID_00000068650339118652448810000000515946196502639249_">
				<use xlink:href="#SVGID_00000158708518021686218760000008582365897201653149_" style="overflow:visible;"/>
			</clipPath>
			<g style="clip-path:url(#SVGID_00000068650339118652448810000000515946196502639249_);">
				<path class="st1" d="M83.7,72.1c0,0.9,0.5,1.6,1.3,1.5c0.9-0.1,1.4-1,1.5-2c0-0.8-0.4-1.6-1.3-1.5      C84.2,70.3,83.7,71.2,83.7,72.1 M87.1,71.5C87,73,86.1,73.9,85,74c-1.2,0.2-2-0.6-1.9-1.9c0-1.3,0.9-2.3,2.1-2.5      C86.4,69.5,87.2,70.3,87.1,71.5"/>
			</g>
		</g>
		<g>
			<defs>
				<rect id="SVGID_00000139271852977986006400000000555876149139139738_" x="66" y="64.7" width="63.9" height="61"/>
			</defs>
			<clipPath id="SVGID_00000168814319727083864690000004798972139808050817_">
				<use xlink:href="#SVGID_00000139271852977986006400000000555876149139139738_" style="overflow:visible;"/>
			</clipPath>
			<g style="clip-path:url(#SVGID_00000168814319727083864690000004798972139808050817_);">
				<path class="st1" d="M87.8,73.6l0.1-4.2l0.6-0.1l1.3,1.9c0.3,0.4,0.5,0.9,0.7,1.3l0,0c0-0.6,0-1.1,0-1.7l0.1-1.8l0.5-0.1      L91,73.1l-0.6,0.1l-1.3-1.9c-0.3-0.4-0.6-0.9-0.8-1.3l0,0c0,0.5,0,1,0,1.7l-0.1,1.8L87.8,73.6z"/>
			</g>
		</g>
		<g>
			<defs>
				<rect id="SVGID_00000138531167133703863470000003123600559712706231_" x="66" y="64.7" width="63.9" height="61"/>
			</defs>
			<clipPath id="SVGID_00000015320375955818980280000011895568756064622502_">
				<use xlink:href="#SVGID_00000138531167133703863470000003123600559712706231_" style="overflow:visible;"/>
			</clipPath>
			<g style="clip-path:url(#SVGID_00000015320375955818980280000011895568756064622502_);">
				<path class="st1" d="M95,73c0.1,0.2,0.3,0.4,0.6,0.6c0.4,0.2,0.7,0.1,0.9-0.1c0.2-0.3,0.1-0.5-0.2-0.9c-0.4-0.4-0.5-0.9-0.3-1.3      c0.3-0.5,0.8-0.6,1.4-0.3c0.3,0.2,0.5,0.4,0.6,0.5l-0.3,0.2c-0.1-0.1-0.2-0.3-0.5-0.5c-0.4-0.2-0.7-0.1-0.8,0.1      c-0.2,0.3-0.1,0.5,0.3,0.9c0.4,0.5,0.5,0.9,0.3,1.3c-0.3,0.5-0.8,0.7-1.5,0.3c-0.3-0.2-0.5-0.4-0.6-0.6L95,73z"/>
			</g>
		</g>
	</g>
	<g>
		<polygon class="st1" points="99,73.1 98.4,72.3 98.7,72.1 100.2,74 99.9,74.2 99.3,73.4 97,75.2 96.8,74.9   "/>
	</g>
	<g>
		<g>
			<defs>
				<rect id="SVGID_00000088853558848782747540000010994362706481034653_" x="66" y="64.7" width="63.9" height="61"/>
			</defs>
			<clipPath id="SVGID_00000016045367632245730860000003978660052778885272_">
				<use xlink:href="#SVGID_00000088853558848782747540000010994362706481034653_" style="overflow:visible;"/>
			</clipPath>
			<g style="clip-path:url(#SVGID_00000016045367632245730860000003978660052778885272_);">
				<path class="st1" d="M99.8,76.5l0.6-0.8c0.1-0.2,0.3-0.3,0.4-0.5l0,0c-0.2,0.1-0.4,0.1-0.6,0.2l-1,0.3L99.8,76.5z M98.9,75.9      l-1,0.3l-0.3-0.4l3.3-1l0.3,0.4l-2,2.8l-0.3-0.4l0.6-0.9L98.9,75.9z"/>
			</g>
		</g>
		<g>
			<defs>
				<rect id="SVGID_00000152964752603774176100000004553289116503371706_" x="66" y="64.7" width="63.9" height="61"/>
			</defs>
			<clipPath id="SVGID_00000036939893807966161580000004949535639887411387_">
				<use xlink:href="#SVGID_00000152964752603774176100000004553289116503371706_" style="overflow:visible;"/>
			</clipPath>
			<g style="clip-path:url(#SVGID_00000036939893807966161580000004949535639887411387_);">
				<path class="st1" d="M101.2,78.2l0.1,0.4c0.1,0.4,0.5,0.6,0.8,0.5c0.4-0.1,0.5-0.5,0.3-0.9c-0.1-0.2-0.1-0.3-0.2-0.4L101.2,78.2      z M102.4,77.3c0.1,0.2,0.2,0.5,0.3,0.7c0.1,0.4,0.2,0.7,0.1,1c-0.1,0.2-0.3,0.4-0.5,0.4c-0.4,0.1-0.8,0-1-0.3l0,0      c0,0.3-0.2,0.5-0.5,0.7c-0.4,0.3-0.7,0.4-0.8,0.5l-0.1-0.4c0.1-0.1,0.3-0.2,0.7-0.5c0.4-0.2,0.5-0.5,0.4-0.8l-0.1-0.4l-1.3,0.5      l-0.1-0.4L102.4,77.3z"/>
			</g>
		</g>
	</g>
	<g>
		<polygon class="st1" points="103.1,80.6 102.9,79.7 103.3,79.6 103.6,82 103.3,82 103.1,81.1 100.3,81.5 100.2,81.1   "/>
	</g>
</g>
<g>
	<g>
		<g>
			<defs>
				<rect id="SVGID_00000061451763569684297140000000461709126573989270_" x="203.1" y="60.3" width="90.3" height="70.9"/>
			</defs>
			<clipPath id="SVGID_00000100375107691123991310000002886940806687197059_">
				<use xlink:href="#SVGID_00000061451763569684297140000000461709126573989270_" style="overflow:visible;"/>
			</clipPath>
			<g style="clip-path:url(#SVGID_00000100375107691123991310000002886940806687197059_);">
				<path class="st1" d="M222.2,110.2c-2.9,0-5.7-0.6-8.3-1.9c-5.1-2.6-8.8-7.4-10.2-13.6c-1.4-6.1-0.5-12.9,2.6-19      s7.9-10.9,13.7-13.4s11.9-2.5,17,0.1c10.6,5.3,14,20,7.6,32.6l0,0C239.8,104.4,230.9,110.2,222.2,110.2z M228.7,62.2      c-2.6,0-5.3,0.6-7.9,1.7c-5.4,2.3-9.9,6.8-12.8,12.5c-2.9,5.7-3.7,12-2.4,17.7c1.3,5.6,4.6,10,9.2,12.4      c9.6,4.9,22.3-0.7,28.2-12.5c5.9-11.7,2.9-25.2-6.7-30.1C233.9,62.8,231.4,62.2,228.7,62.2z"/>
			</g>
		</g>
		<g>
			<defs>
				<rect id="SVGID_00000119087907854128487900000012511302557621095840_" x="203.1" y="60.3" width="90.3" height="70.9"/>
			</defs>
			<clipPath id="SVGID_00000147903751149421157560000012273246540499430560_">
				<use xlink:href="#SVGID_00000119087907854128487900000012511302557621095840_" style="overflow:visible;"/>
			</clipPath>
			<g style="clip-path:url(#SVGID_00000147903751149421157560000012273246540499430560_);">
				<path class="st1" d="M225,102.9c-2,0-4-0.5-5.8-1.4c-3.6-1.8-6.1-5.1-7-9.4c-1-4.2-0.3-8.9,1.8-13.1c4.4-8.8,14-12.9,21.3-9.2      c7.3,3.7,9.7,13.8,5.2,22.6l0,0c-2.1,4.2-5.5,7.5-9.5,9.3C229.1,102.4,227,102.9,225,102.9z M229.5,69.7      c-5.5,0-11.3,3.7-14.4,9.8c-2,4-2.6,8.3-1.7,12.3c0.9,3.9,3.2,6.9,6.4,8.6c3.2,1.6,7,1.6,10.7,0s6.9-4.7,8.9-8.6l0,0      c4.1-8.1,2-17.5-4.7-20.8C233.1,70.1,231.3,69.7,229.5,69.7z"/>
			</g>
		</g>
		<g>
			<defs>
				<rect id="SVGID_00000083066972352038599200000017460365477846795197_" x="203.1" y="60.3" width="90.3" height="70.9"/>
			</defs>
			<clipPath id="SVGID_00000066495172732442825420000007060975456399830149_">
				<use xlink:href="#SVGID_00000083066972352038599200000017460365477846795197_" style="overflow:visible;"/>
			</clipPath>
			<g style="clip-path:url(#SVGID_00000066495172732442825420000007060975456399830149_);">
				<path class="st1" d="M248.4,131.2c-0.9,0-1.8-0.4-2.6-1.2c-2.1-2.2-2.9-7.1-0.6-10.6c0.8-1.2,1.4-2,2.2-3.1      c0.3-0.4,0.6-0.8,0.9-1.3c-2.4-5.4-4.7-10.9-4.7-13c0-2.2,1-5.5,3.9-7.3c1.9-1.2,5.4-2.2,10.8,0.4c3.4,1.6,6.7,5.3,8.9,9.5      c16.5,2,17.1,2.3,17.4,2.4c0.5,0.3,2.6,1.6,5.5,3.5c1.4,0.9,2.9,1.9,3.2,2.1l-0.9,1.6c-0.3-0.2-1.5-0.9-3.3-2.2      c-2-1.3-4.8-3.2-5.3-3.4c-0.2-0.1-2.1-0.5-15.6-2.1c0.2,0.6,0.4,1.1,0.6,1.7l0.1,0.2c1.2,3.6,2.6,8.1,4.4,11.5      c1.8,0.2,4.9,0.6,4.9,0.6h0.4l0.2,0.3c0,0.1,4.3,5,6,6.3l-1.1,1.5c-1.6-1.2-5.1-5.2-6.1-6.3c-0.6-0.1-1.9-0.2-3.1-0.4      c0.4,0.6,0.9,1.2,1.3,1.7l-1.3,1.3c-3.3-3.4-5.6-10.6-7.4-15.9l-0.1-0.2c-1.7-5.2-5.7-10.3-9.5-12.2c-3.7-1.7-6.8-1.9-9-0.5      c-2.1,1.3-3,3.8-3,5.7c0,2.9,6.2,16.1,10.4,24.3l0.1,0.2l0.2,3.8l-1.9,0.1l-0.1-2.4c-0.8,0.6-2.1,1.6-4.1,2.7      C249.5,131.1,249,131.2,248.4,131.2z M249.2,117c-0.1,0.2-0.2,0.3-0.3,0.5c-0.9,1.1-1.4,1.8-2.2,3c-1.9,2.9-1,6.7,0.4,8.3      c1,1,1.8,0.6,2,0.4c2.6-1.5,4-2.7,4.5-3.1C252.7,124.2,251,120.7,249.2,117z"/>
			</g>
		</g>
		<g>
			<defs>
				<rect id="SVGID_00000067955007074454155390000016149034409398358448_" x="203.1" y="60.3" width="90.3" height="70.9"/>
			</defs>
			<clipPath id="SVGID_00000132809340728086834320000010685898901788530850_">
				<use xlink:href="#SVGID_00000067955007074454155390000016149034409398358448_" style="overflow:visible;"/>
			</clipPath>
			<g style="clip-path:url(#SVGID_00000132809340728086834320000010685898901788530850_);">
				<path class="st1" d="M250,109.9c-0.6,0-1.2-0.5-1.4-0.8c-2.2-2.3-3-6.1-3-6.4c-0.4-1.4,0.3-3.3,1.9-5c1.7-1.7,3.7-2.5,5.4-2      c1.1,0.3,1.4,0.7,2.3,2.1l0.1,0.1c0,0,1.8,2.7,2.4,4.3c0.6,1.3,0.3,1.7-0.4,2.1c-1.7,0.7-5.7,3.5-6.6,5.3      c-0.1,0.2-0.3,0.4-0.5,0.4C250.1,109.9,250.1,109.9,250,109.9z M251.8,96c-1.3,0-2.7,0.7-4,2c-1.4,1.5-2.1,3.3-1.8,4.5l0,0      c0,0,0.8,3.9,2.9,6.2c0.3,0.3,0.8,0.7,1.1,0.6c0.1,0,0.1,0,0.1-0.1c1-2,5.3-4.9,6.9-5.5c0.4-0.2,0.6-0.3,0.1-1.4      c-0.5-1.3-1.9-3.5-2.4-4.2l-0.1-0.1c-0.9-1.3-1.1-1.6-2-1.9C252.4,96.1,252.1,96,251.8,96z"/>
			</g>
		</g>
	</g>
	<g>
		<g>
			<defs>
				<rect id="SVGID_00000131366766327234226790000016098685521951275693_" x="203.1" y="59" width="90.3" height="70.9"/>
			</defs>
			<clipPath id="SVGID_00000068672713313106805130000004646764193557264041_">
				<use xlink:href="#SVGID_00000131366766327234226790000016098685521951275693_" style="overflow:visible;"/>
			</clipPath>
			<g style="clip-path:url(#SVGID_00000068672713313106805130000004646764193557264041_);">
				<path class="st1" d="M219.6,84v-4.9l0.6-0.2l1.5,1.9c0.3,0.4,0.6,0.9,0.8,1.3l0,0c-0.1-0.6-0.1-1.2-0.1-2v-2l0.6-0.2v4.9      l-0.6,0.2l-1.4-2c-0.3-0.4-0.6-0.9-0.9-1.3l0,0c0,0.6,0.1,1.2,0.1,2v2.1L219.6,84z"/>
			</g>
		</g>
		<g>
			<defs>
				<rect id="SVGID_00000102524044298476696240000005632600863355011768_" x="203.1" y="59" width="90.3" height="70.9"/>
			</defs>
			<clipPath id="SVGID_00000069356379051630516260000009248916382770032782_">
				<use xlink:href="#SVGID_00000102524044298476696240000005632600863355011768_" style="overflow:visible;"/>
			</clipPath>
			<g style="clip-path:url(#SVGID_00000069356379051630516260000009248916382770032782_);">
				<path class="st1" d="M227.6,80.8c-0.3,0.2-0.8,0.6-1.4,0.8c-0.7,0.3-1.3,0.3-1.7,0s-0.6-0.8-0.6-1.6c0-1.5,0.9-2.9,2.5-3.4      c0.5-0.2,0.9-0.2,1.1-0.2l-0.1,0.6c-0.2,0-0.5,0-1,0.2c-1.1,0.4-1.8,1.4-1.8,2.6s0.7,1.7,1.8,1.3c0.4-0.1,0.7-0.3,0.8-0.4v-1.4      l-0.9,0.3v-0.5l1.5-0.5L227.6,80.8z"/>
			</g>
		</g>
	</g>
	<g>
		<polygon class="st1" points="228.4,75.9 228.5,80.7 229,80.5 229,75.6   "/>
	</g>
	<g>
		<g>
			<defs>
				<rect id="SVGID_00000065792797734016725410000016673817856561008562_" x="203.1" y="59" width="90.3" height="70.9"/>
			</defs>
			<clipPath id="SVGID_00000039849603767255825480000017480735975763689641_">
				<use xlink:href="#SVGID_00000065792797734016725410000016673817856561008562_" style="overflow:visible;"/>
			</clipPath>
			<g style="clip-path:url(#SVGID_00000039849603767255825480000017480735975763689641_);">
				<path class="st1" d="M230.1,80.1v-4.9l0.6-0.2l1.5,1.9c0.3,0.4,0.6,0.9,0.8,1.3l0,0c-0.1-0.6-0.1-1.2-0.1-2v-2l0.6-0.2v4.9      l-0.6,0.2l-1.5-1.9c-0.3-0.4-0.6-0.9-0.9-1.3l0,0c0,0.6,0.1,1.2,0.1,2V80L230.1,80.1z"/>
			</g>
		</g>
	</g>
	<g>
		<polygon class="st1" points="236.9,75.4 235.1,76 235.1,77.8 237.1,77 237.1,77.6 234.5,78.5 234.5,73.6 237,72.7 237,73.3     235.1,74 235.1,75.5 236.9,74.8   "/>
	</g>
	<g>
		<g>
			<defs>
				<rect id="SVGID_00000117649077555086609820000004320840234829730985_" x="203.1" y="59" width="90.3" height="70.9"/>
			</defs>
			<clipPath id="SVGID_00000068639067839425848220000009480532428036206741_">
				<use xlink:href="#SVGID_00000117649077555086609820000004320840234829730985_" style="overflow:visible;"/>
			</clipPath>
			<g style="clip-path:url(#SVGID_00000068639067839425848220000009480532428036206741_);">
				<path class="st1" d="M219.4,89.9c0.3,0.1,0.7,0.1,1.1-0.1c0.6-0.2,1-0.7,1-1.2s-0.2-0.6-0.9-0.7c-0.7,0-1.2-0.3-1.2-0.9      c0-0.8,0.6-1.5,1.5-1.9c0.5-0.2,0.8-0.2,1-0.1l-0.2,0.6c-0.1,0-0.5-0.1-0.9,0.1c-0.6,0.2-0.9,0.7-0.9,1c0,0.5,0.3,0.6,0.9,0.6      c0.8,0,1.2,0.3,1.2,1s-0.5,1.6-1.6,2c-0.4,0.2-0.9,0.2-1.2,0.1L219.4,89.9z"/>
			</g>
		</g>
	</g>
	<g>
		<g>
			<defs>
				<rect id="SVGID_00000001643430380765633640000013356217188922712511_" x="203.1" y="59" width="90.3" height="70.9"/>
			</defs>
			<clipPath id="SVGID_00000088099211120351774940000016123245036216975295_">
				<use xlink:href="#SVGID_00000001643430380765633640000013356217188922712511_" style="overflow:visible;"/>
			</clipPath>
			<g style="clip-path:url(#SVGID_00000088099211120351774940000016123245036216975295_);">
				<path class="st1" d="M227.9,85.5l-0.5-1.2c-0.1-0.3-0.2-0.5-0.2-0.8l0,0c-0.1,0.3-0.1,0.6-0.2,1l-0.4,1.6L227.9,85.5z       M226.4,86.5l-0.5,1.7l-0.6,0.2l1.5-5.4l0.7-0.3l1.6,4.3l-0.6,0.2l-0.5-1.4L226.4,86.5z"/>
			</g>
		</g>
		<g>
			<defs>
				<rect id="SVGID_00000119098695512434922820000012825513356829338525_" x="203.1" y="59" width="90.3" height="70.9"/>
			</defs>
			<clipPath id="SVGID_00000164494528002821881010000003749149413585045149_">
				<use xlink:href="#SVGID_00000119098695512434922820000012825513356829338525_" style="overflow:visible;"/>
			</clipPath>
			<g style="clip-path:url(#SVGID_00000164494528002821881010000003749149413585045149_);">
				<path class="st1" d="M230.4,84l0.6-0.2c0.6-0.2,1-0.7,1-1.3c0-0.6-0.4-0.7-1.1-0.5c-0.3,0.1-0.5,0.2-0.6,0.3L230.4,84z       M229.8,82c0.3-0.2,0.7-0.4,1.1-0.5c0.6-0.2,1-0.3,1.3-0.1c0.2,0.1,0.4,0.4,0.4,0.8c0,0.6-0.4,1.2-0.9,1.6l0,0      c0.4,0,0.6,0.3,0.7,0.7c0.2,0.6,0.3,1.1,0.4,1.2l-0.6,0.2c-0.1-0.1-0.2-0.5-0.3-1c-0.1-0.6-0.4-0.8-0.9-0.6l-0.6,0.2v2.1      l-0.6,0.2L229.8,82z"/>
			</g>
		</g>
	</g>
	<g>
		<polygon class="st1" points="234.3,80.8 233,81.3 233,80.8 236.3,79.5 236.3,80.1 234.9,80.6 235,84.9 234.4,85.1   "/>
	</g>
	<g>
		<g>
			<defs>
				<rect id="SVGID_00000040550465717158883320000006127404151657147018_" x="203.1" y="59" width="90.3" height="70.9"/>
			</defs>
			<clipPath id="SVGID_00000085240610928101844420000006364658456141818036_">
				<use xlink:href="#SVGID_00000040550465717158883320000006127404151657147018_" style="overflow:visible;"/>
			</clipPath>
			<g style="clip-path:url(#SVGID_00000085240610928101844420000006364658456141818036_);">
				<path class="st1" d="M221.5,95.5c0.3,0.1,0.7,0.1,1.1-0.1c0.6-0.2,1-0.7,1-1.2s-0.2-0.6-0.9-0.7c-0.7,0-1.2-0.3-1.2-0.9      c0-0.8,0.6-1.5,1.5-1.9c0.5-0.2,0.8-0.2,1-0.1l-0.2,0.6c-0.1,0-0.5-0.1-0.9,0.1c-0.6,0.2-0.9,0.7-0.9,1c0,0.5,0.3,0.6,0.9,0.6      c0.8,0,1.2,0.3,1.2,1c0,0.8-0.5,1.6-1.6,2c-0.4,0.2-0.9,0.2-1.2,0.1L221.5,95.5z"/>
			</g>
		</g>
	</g>
	<g>
		<polygon class="st1" points="225.8,90.4 224.4,90.9 224.4,90.3 227.8,89.1 227.8,89.6 226.4,90.2 226.4,94.5 225.8,94.7   "/>
	</g>
	<g>
		<g>
			<defs>
				<rect id="SVGID_00000057830240551911921510000001917989583370731674_" x="203.1" y="59" width="90.3" height="70.9"/>
			</defs>
			<clipPath id="SVGID_00000084512473610406828600000006850467931744564895_">
				<use xlink:href="#SVGID_00000057830240551911921510000001917989583370731674_" style="overflow:visible;"/>
			</clipPath>
			<g style="clip-path:url(#SVGID_00000084512473610406828600000006850467931744564895_);">
				<path class="st1" d="M228.5,91.3c0,1,0.5,1.8,1.5,1.4c0.9-0.3,1.5-1.5,1.5-2.6c0-1-0.5-1.8-1.5-1.4      C229,89.1,228.5,90.3,228.5,91.3 M232,89.9c0,1.7-0.9,2.9-2.1,3.3c-1.2,0.4-2.1-0.2-2.1-1.7s0.9-2.9,2.1-3.3      C231.2,87.8,232,88.5,232,89.9"/>
			</g>
		</g>
		<g>
			<defs>
				<rect id="SVGID_00000102520375494234752430000005758949952509693591_" x="203.1" y="59" width="90.3" height="70.9"/>
			</defs>
			<clipPath id="SVGID_00000047047344319661694010000007739681925016219287_">
				<use xlink:href="#SVGID_00000102520375494234752430000005758949952509693591_" style="overflow:visible;"/>
			</clipPath>
			<g style="clip-path:url(#SVGID_00000047047344319661694010000007739681925016219287_);">
				<path class="st1" d="M233.4,89.5c0.1,0,0.3-0.1,0.5-0.1c0.7-0.3,1.1-0.8,1.1-1.5c0-0.6-0.4-0.8-1.1-0.6      c-0.3,0.1-0.5,0.2-0.6,0.3L233.4,89.5z M232.8,87.3c0.3-0.2,0.7-0.3,1.1-0.5c0.6-0.2,1-0.2,1.3-0.1s0.4,0.4,0.4,0.9      c0,0.4-0.1,0.8-0.3,1.2c-0.3,0.5-0.8,0.8-1.4,1c-0.2,0.1-0.3,0.1-0.5,0.1v1.9l-0.6,0.2V87.3z"/>
			</g>
		</g>
	</g>
</g>
<g>
	<g>
		<defs>
			<rect id="SVGID_00000162343014839630874090000003729140141212799635_" y="1.7" width="35.7" height="35.7"/>
		</defs>
		<clipPath id="SVGID_00000019678865897366774970000004966606289646534018_">
			<use xlink:href="#SVGID_00000162343014839630874090000003729140141212799635_" style="overflow:visible;"/>
		</clipPath>
		<g style="clip-path:url(#SVGID_00000019678865897366774970000004966606289646534018_);">
			<path class="st29" d="M17.9,35.8c8.9,0,16.2-7.3,16.2-16.2S26.8,3.4,17.9,3.4S1.7,10.7,1.7,19.6S8.9,35.8,17.9,35.8"/>
		</g>
	</g>
	<g>
		<defs>
			<rect id="SVGID_00000178164208298279587310000014269976141411751049_" y="1.7" width="35.7" height="35.7"/>
		</defs>
		<clipPath id="SVGID_00000164477056614326477040000003466187192961141172_">
			<use xlink:href="#SVGID_00000178164208298279587310000014269976141411751049_" style="overflow:visible;"/>
		</clipPath>
		<g style="clip-path:url(#SVGID_00000164477056614326477040000003466187192961141172_);">
			<path class="st31" d="M17.9,37.4C8,37.4,0,29.4,0,19.6C0,9.7,8,1.7,17.9,1.7c9.8,0,17.9,8,17.9,17.9     C35.7,29.4,27.7,37.4,17.9,37.4z M17.9,5.1c-8,0-14.5,6.5-14.5,14.5s6.5,14.5,14.5,14.5s14.5-6.5,14.5-14.5S25.9,5.1,17.9,5.1z"/>
		</g>
	</g>
</g>
<text transform="matrix(1 0 0 1 11.1894 26.9896)" class="st1 st32 st33">2</text>
<text transform="matrix(1 0 0 1 46.2331 11.9979)" class="st1 st34 st35">Turn your vehicle's ignition ON, DO NOT</text>
<text transform="matrix(1 0 0 1 46.2331 25.9979)" class="st1 st34 st35">start the engine. With parking brake set</text>
<text transform="matrix(1 0 0 1 46.2331 39.9979)" class="st1 st34 st35">and foot off brake, switch ignition to on,</text>
<text transform="matrix(1 0 0 1 46.2331 53.9979)" class="st1 st34 st35">do not start engine.</text>
<text transform="matrix(1 0 0 1 43.4083 146.8298)" class="st1 st32 st36">Traditional Ignition:</text>
<text transform="matrix(1 0 0 1 46.5083 156.8298)" class="st37 st34 st38">Turn the ignition key two</text>
<text transform="matrix(1 0 0 1 48.1083 166.8298)" class="st37 st34 st38">positions clockwise; the</text>
<text transform="matrix(1 0 0 1 56.2083 176.8298)" class="st37 st34 st38">dashboard lights will</text>
<text transform="matrix(1 0 0 1 81.3083 186.8298)" class="st37 st34 st38">illuminate.</text>
<text transform="matrix(1 0 0 1 194.8285 146.8298)" class="st1 st32 st36">Push Start Ignition:</text>
<text transform="matrix(1 0 0 1 183.5285 156.8298)" class="st37 st34 st38">Press the "Push Start" ignition</text>
<text transform="matrix(1 0 0 1 188.8285 166.8298)" class="st37 st34 st38">button twice, the dashboard</text>
<text transform="matrix(1 0 0 1 208.1285 176.8298)" class="st37 st34 st38">lights will illuminate.</text>
<text transform="matrix(1 0 0 1 166.5271 108.584)" class="st1 st39 st38">-OR-</text>
</svg>