<?xml version="1.0" encoding="UTF-8"?>
<!-- Generator: Adobe Illustrator 26.0.1, SVG Export Plug-In . SVG Version: 6.00 Build 0)  -->
<svg version="1.1" id="Layer_1" xmlns="http://www.w3.org/2000/svg" xmlns:xlink="http://www.w3.org/1999/xlink" x="0px" y="0px" viewBox="0 0 327.2 186" style="enable-background:new 0 0 327.2 186;" xml:space="preserve">
<style type="text/css">
	.st0{clip-path:url(#SVGID_00000031166885243645818980000011494161342404475039_);}
	.st1{fill:#1F2123;}
	.st2{clip-path:url(#SVGID_00000080901370206103525280000015287582986953602479_);}
	.st3{fill:#E12827;}
	.st4{clip-path:url(#SVGID_00000003071906034874541860000011274816523156635789_);fill:#FFFFFF;}
	.st5{clip-path:url(#SVGID_00000173864414929486546140000002383964874211616145_);fill:#FFFFFF;}
	.st6{clip-path:url(#SVGID_00000112630066348771522110000018061067127987413674_);fill:#FFFFFF;}
	.st7{clip-path:url(#SVGID_00000074443400693314225560000011080406179076944574_);fill:#FFFFFF;}
	.st8{clip-path:url(#SVGID_00000142893483166672150750000002536401347215147136_);fill:#1F2123;}
	.st9{clip-path:url(#SVGID_00000124852842338165958890000014191858811527836810_);fill:none;stroke:#FFFFFF;stroke-miterlimit:10;}
	.st10{fill:#FFFFFF;}
	.st11{clip-path:url(#SVGID_00000002383106142246218990000010200372847806066325_);fill:#FFFFFF;}
	.st12{clip-path:url(#SVGID_00000051372060434419471500000006209258835065686957_);fill:#FFFFFF;}
	.st13{clip-path:url(#SVGID_00000127002237145985115570000018317761600047154362_);fill:#FFFFFF;}
	.st14{clip-path:url(#SVGID_00000091717677445194146910000002155710404204857522_);fill:#FFFFFF;}
	.st15{clip-path:url(#SVGID_00000165936957111447792670000003235669608219031425_);fill:#FFFFFF;}
	.st16{clip-path:url(#SVGID_00000080884974236033298140000009844704481145114760_);fill:#FFFFFF;}
	.st17{clip-path:url(#SVGID_00000103249224139362961760000001271054219404186519_);fill:#FFFFFF;}
	.st18{clip-path:url(#SVGID_00000018949043990276230040000013470038351183707560_);fill:#FFFFFF;}
	.st19{clip-path:url(#SVGID_00000170276100094120494010000018055558884145019023_);fill:#FFFFFF;}
	.st20{clip-path:url(#SVGID_00000106830713978251966960000011769169741499754885_);fill:#FFFFFF;}
	
		.st21{clip-path:url(#SVGID_00000093150976498366666270000015210160330524949416_);fill:none;stroke:#FFFFFF;stroke-width:3;stroke-linecap:round;stroke-linejoin:round;}
	.st22{font-family:'HelveticaNeue-Medium';}
	.st23{font-size:24px;}
	.st24{font-family:'HelveticaNeue';}
	.st25{font-size:14px;}
	.st26{clip-path:url(#SVGID_00000020371000515577943860000018120234462457425846_);fill:#1F2123;}
	
		.st27{clip-path:url(#SVGID_00000107546241674529332800000005981825005004514456_);fill:none;stroke:#FFFFFF;stroke-width:0.6;stroke-miterlimit:10;}
	
		.st28{clip-path:url(#SVGID_00000100365477753671321650000005770005847311099316_);fill:none;stroke:#FFFFFF;stroke-width:0.4;stroke-miterlimit:10;}
	.st29{clip-path:url(#SVGID_00000147182040711638992360000004051171935567574690_);fill:#1F2123;}
	
		.st30{clip-path:url(#SVGID_00000103245275785205145070000002191225242374988437_);fill:none;stroke:#FFFFFF;stroke-width:0.15;stroke-miterlimit:10;}
	.st31{fill:none;stroke:#333537;stroke-width:0.2;}
	.st32{fill:none;stroke:#FFFFFF;stroke-width:0.353;}
	.st33{fill:none;stroke:#231F20;stroke-width:0.102;}
	.st34{fill:none;stroke:#FFFFFF;stroke-width:0.2;stroke-miterlimit:10;}
	.st35{clip-path:url(#SVGID_00000043456151828736039520000015470561071714301088_);fill:#1F2123;}
	
		.st36{clip-path:url(#SVGID_00000019671754891244499280000008642761181616120713_);fill:none;stroke:#FFFFFF;stroke-width:0.6;stroke-linejoin:round;stroke-miterlimit:10;}
	.st37{clip-path:url(#SVGID_00000087381439183190395870000016091726983593417098_);fill:#1F2123;}
	
		.st38{clip-path:url(#SVGID_00000118377333522193157370000014199368557805864341_);fill:none;stroke:#FFFFFF;stroke-width:0.2;stroke-miterlimit:10;}
	.st39{clip-path:url(#SVGID_00000050655527259993835800000014122320162374848937_);fill:#1F2123;}
	
		.st40{clip-path:url(#SVGID_00000181046794208978103110000012427045441847576220_);fill:none;stroke:#FFFFFF;stroke-width:0.6;stroke-miterlimit:10;}
	.st41{clip-path:url(#SVGID_00000101099539994903091090000017022204405497976738_);fill:#1F2123;}
	
		.st42{clip-path:url(#SVGID_00000049938684774085624460000006173409387539481524_);fill:none;stroke:#FFFFFF;stroke-width:0.2;stroke-miterlimit:10;}
	.st43{clip-path:url(#SVGID_00000054956702295956609390000008722286521551246504_);}
	.st44{font-family:'Swiss721BT-BlackExtended';}
	.st45{font-size:1.4944px;}
	.st46{clip-path:url(#SVGID_00000112620226073973446760000012024911510251655337_);}
	.st47{clip-path:url(#SVGID_00000027594631714201363060000013889056549118951556_);}
	.st48{clip-path:url(#SVGID_00000080197960702303418350000007745056212789386891_);}
	.st49{fill:none;stroke:#231F20;stroke-width:0.2;stroke-miterlimit:10;}
	.st50{clip-path:url(#SVGID_00000155854770801891943160000007713756681529538482_);fill:#FFFFFF;}
	.st51{clip-path:url(#SVGID_00000101105551836938665970000004252153460536536495_);fill:#FFFFFF;}
	.st52{clip-path:url(#SVGID_00000146459043948971539850000015789837991082345880_);fill:#FFFFFF;}
	.st53{clip-path:url(#SVGID_00000121974112760935733620000012892587238403725223_);fill:#1F2123;}
	
		.st54{clip-path:url(#SVGID_00000060733451991896104540000015194125347850914230_);fill:none;stroke:#F1F2F3;stroke-width:0.5;stroke-miterlimit:3.864;}
	.st55{clip-path:url(#SVGID_00000008108859343354557300000003264454873089928119_);fill:#1F2123;}
	.st56{clip-path:url(#SVGID_00000084490263336981935400000016162120232715255937_);fill:none;stroke:#FFFFFF;stroke-width:0.4;}
	.st57{clip-path:url(#SVGID_00000111191747582369674390000013000167183768317855_);fill:#EC1C24;}
	.st58{clip-path:url(#SVGID_00000176023911500597611000000006835256808212027531_);fill:#FFF100;}
	.st59{clip-path:url(#SVGID_00000078007152992232528540000005170819580082057123_);fill:#FFF100;}
	.st60{clip-path:url(#SVGID_00000078016299100005600290000002150191715267356058_);fill:#EC1C24;}
	.st61{clip-path:url(#SVGID_00000030487919435815197230000009651494346669246903_);fill:#1F2123;}
	.st62{clip-path:url(#SVGID_00000018204923554139860250000008794833953242652850_);fill:#1F2123;}
	.st63{clip-path:url(#SVGID_00000072238893921760471450000013576439067602606991_);fill:#1F2123;}
	.st64{clip-path:url(#SVGID_00000099660464154837689890000012848935657664754601_);fill:#FFFFFF;}
	.st65{clip-path:url(#SVGID_00000123404508597443515130000014125913228967447971_);fill:#FFFFFF;}
	.st66{clip-path:url(#SVGID_00000142170648464319007410000004087811409687590287_);fill:#FFFFFF;}
	.st67{clip-path:url(#SVGID_00000125591687561363346040000012361974115230156440_);fill:#FFFFFF;}
	.st68{clip-path:url(#SVGID_00000086675657608176422840000016624179661795416767_);fill:#FFFFFF;}
	.st69{clip-path:url(#SVGID_00000094612548044770739380000006120714627417051562_);fill:#FFFFFF;}
	.st70{clip-path:url(#SVGID_00000031894835100855553520000002508228451883854987_);fill:#FFFFFF;}
	.st71{clip-path:url(#SVGID_00000137813747822622417490000002619984966749465782_);fill:#FFFFFF;}
	.st72{clip-path:url(#SVGID_00000031193852381558028370000007955992209083134615_);fill:#FFFFFF;}
	.st73{clip-path:url(#SVGID_00000087401873662948023180000011915342430022884755_);fill:#FFFFFF;}
	.st74{clip-path:url(#SVGID_00000170989824577259513580000003220571215983265195_);fill:#FFFFFF;}
	.st75{clip-path:url(#SVGID_00000167373630816677962490000002604076227564612797_);fill:#FFFFFF;}
	.st76{clip-path:url(#SVGID_00000135671043403298352000000013253914858712403135_);fill:#FFFFFF;}
	.st77{clip-path:url(#SVGID_00000147182604359858543860000013247935525207370410_);fill:#FFFFFF;}
	.st78{clip-path:url(#SVGID_00000097484594030760959840000009881403134523821973_);fill:#FFFFFF;}
	.st79{fill:none;stroke:#FFFFFF;stroke-width:0.316;stroke-miterlimit:10;}
	.st80{clip-path:url(#SVGID_00000021098642692308027260000010771366910281948325_);fill:#1F2123;}
	.st81{clip-path:url(#SVGID_00000021808016442499991740000009379537211209524109_);fill:none;stroke:#FFFFFF;stroke-width:0.4;}
	.st82{clip-path:url(#SVGID_00000011023288550195382650000005222931973456697510_);fill:#1F2123;}
	
		.st83{clip-path:url(#SVGID_00000124161442298972943790000003270551349142656949_);fill:none;stroke:#FFFFFF;stroke-width:0.2;stroke-linecap:round;stroke-linejoin:round;stroke-miterlimit:3.864;}
	.st84{clip-path:url(#SVGID_00000112616828385391645150000014951715096664118971_);fill:#1F2123;}
	
		.st85{clip-path:url(#SVGID_00000084530208072736916080000016201293699044712864_);fill:none;stroke:#FFFFFF;stroke-width:0.2;stroke-miterlimit:3.864;}
	.st86{clip-path:url(#SVGID_00000083791997043959260020000005964359411780294046_);fill:#1F2123;}
	
		.st87{clip-path:url(#SVGID_00000137831231882943775300000003522880460648932287_);fill:none;stroke:#FFFFFF;stroke-width:0.2;stroke-miterlimit:3.864;}
	.st88{fill:none;stroke:#FFFFFF;stroke-width:0.4;stroke-linecap:round;stroke-linejoin:round;}
	.st89{fill:none;stroke:#C1C3C5;stroke-width:0.289;}
	.st90{fill:none;stroke:#FFFFFF;stroke-width:0.4;}
	.st91{fill:#231F20;}
</style>
<g>
	<g>
		<g>
			<defs>
				<rect id="SVGID_1_" y="1.4" width="35.7" height="35.7"/>
			</defs>
			<clipPath id="SVGID_00000093892238301807892220000011288498673060626106_">
				<use xlink:href="#SVGID_1_" style="overflow:visible;"/>
			</clipPath>
			<g style="clip-path:url(#SVGID_00000093892238301807892220000011288498673060626106_);">
				<path class="st1" d="M17.9,35.4c8.9,0,16.2-7.3,16.2-16.2S26.8,3.1,17.9,3.1S1.7,10.3,1.7,19.2S8.9,35.4,17.9,35.4"/>
			</g>
		</g>
		<g>
			<defs>
				<rect id="SVGID_00000018935209580365740780000008368968017183232128_" y="1.4" width="35.7" height="35.7"/>
			</defs>
			<clipPath id="SVGID_00000131355790656400348370000017893055261055216774_">
				<use xlink:href="#SVGID_00000018935209580365740780000008368968017183232128_" style="overflow:visible;"/>
			</clipPath>
			<g style="clip-path:url(#SVGID_00000131355790656400348370000017893055261055216774_);">
				<path class="st3" d="M17.9,37.1C8,37.1,0,29.1,0,19.2C0,9.4,8,1.4,17.9,1.4c9.8,0,17.9,8,17.9,17.9      C35.7,29.1,27.7,37.1,17.9,37.1z M17.9,4.7c-8,0-14.5,6.5-14.5,14.5s6.5,14.5,14.5,14.5s14.5-6.5,14.5-14.5S25.9,4.7,17.9,4.7z"/>
			</g>
		</g>
	</g>
	<g>
		<g>
			<g>
				<defs>
					<rect id="SVGID_00000047762726142407245630000017803363230038923939_" x="114.1" y="46" width="213.1" height="135.4"/>
				</defs>
				<clipPath id="SVGID_00000015338877741304280330000004707769056307444619_">
					<use xlink:href="#SVGID_00000047762726142407245630000017803363230038923939_" style="overflow:visible;"/>
				</clipPath>
				<path style="clip-path:url(#SVGID_00000015338877741304280330000004707769056307444619_);fill:#FFFFFF;" d="M273.7,52.5      c-1.4-1.4-3.3-2.2-5.4-2.2s-4,0.8-5.3,2.1l-0.1,0.1c-1.4,1.4-2.2,3.3-2.2,5.4s0.9,4,2.2,5.4l0,0c1.4,1.4,3.3,2.2,5.4,2.2      s4-0.8,5.3-2.1l0.1-0.1c1.4-1.4,2.2-3.3,2.2-5.4C275.9,55.8,275.1,53.9,273.7,52.5L273.7,52.5z M251.8,92.6V111      c0,1.2,0.9,2.1,2.1,2.1c1.2,0,2.1-0.9,2.1-2.1V92.6c0-1.2-0.9-2.1-2.1-2.1C252.7,90.6,251.8,91.5,251.8,92.6 M280.6,92.6V111      c0,1.2,0.9,2.1,2.1,2.1s2.1-0.9,2.1-2.1V92.6c0-1.2-0.9-2.1-2.1-2.1C281.5,90.6,280.6,91.5,280.6,92.6 M246.2,111.1      c0,1.2-0.9,2.1-2.1,2.1c-1.2,0-2.1-0.9-2.1-2.1V96c0-6.6,2.7-12.6,7-16.9s10.3-7,16.9-7h4.5c6.6,0,12.6,2.7,16.9,7      s7,10.3,7,16.9v15.1c0,1.2-0.9,2.1-2.1,2.1s-2.1-0.9-2.1-2.1V96c0-5.4-2.2-10.4-5.8-14c-3.6-3.6-8.5-5.8-14-5.8H266      c-5.4,0-10.4,2.2-14,5.8c-3.6,3.6-5.8,8.5-5.8,14V111.1z M308.5,127.7c0-1.2,0.9-2.1,2.1-2.1s2.1,0.9,2.1,2.1V171      c0,1.2-0.9,2.1-2.1,2.1s-2.1-0.9-2.1-2.1V127.7z M198.3,127.7c0-1.2,0.9-2.1,2.1-2.1c1.2,0,2.1,0.9,2.1,2.1V171      c0,1.2-0.9,2.1-2.1,2.1c-1.2,0-2.1-0.9-2.1-2.1V127.7z M323.9,117.5c1.2,0,2.1,0.9,2.1,2.1c0,1.2-0.9,2.1-2.1,2.1H187      c-1.2,0-2.1-0.9-2.1-2.1c0-1.2,0.9-2.1,2.1-2.1H323.9z M325.2,177.2c1.2,0,2.1,0.9,2.1,2.1c0,1.2-0.9,2.1-2.1,2.1H185.8      c-1.2,0-2.1-0.9-2.1-2.1c0-1.2,0.9-2.1,2.1-2.1H325.2z M287.2,145.7c1.2,0,2.1,0.9,2.1,2.1c0,1.2-0.9,2.1-2.1,2.1H219      c-1.2,0-2.1-0.9-2.1-2.1c0-1.2,0.9-2.1,2.1-2.1H287.2z M268.3,46c3.3,0,6.2,1.3,8.4,3.5l0,0c2.1,2.1,3.5,5.1,3.5,8.4      s-1.3,6.2-3.5,8.4l-0.1,0.1c-2.1,2.1-5,3.4-8.3,3.4s-6.2-1.3-8.4-3.5l0,0c-2.1-2.1-3.5-5.1-3.5-8.4s1.3-6.2,3.5-8.4l0.1-0.1      C262.1,47.3,265.1,46,268.3,46"/>
			</g>
			<g>
				<defs>
					<rect id="SVGID_00000006697166933269204370000003804614374354233022_" x="114.1" y="46" width="213.1" height="135.4"/>
				</defs>
				<clipPath id="SVGID_00000001646701873046827970000000201886273504304060_">
					<use xlink:href="#SVGID_00000006697166933269204370000003804614374354233022_" style="overflow:visible;"/>
				</clipPath>
				<path style="clip-path:url(#SVGID_00000001646701873046827970000000201886273504304060_);fill:#FFFFFF;" d="M142.1,46      c3.4,0,6.5,1.4,8.8,3.6c2.2,2.2,3.6,5.3,3.6,8.8c0,3.4-1.4,6.5-3.6,8.8c-2.2,2.2-5.3,3.6-8.8,3.6c-3.4,0-6.5-1.4-8.8-3.6      c-2.2-2.2-3.6-5.3-3.6-8.8c0-3.4,1.4-6.5,3.6-8.8C135.6,47.4,138.7,46,142.1,46"/>
			</g>
			<g>
				<defs>
					<rect id="SVGID_00000176753448891159680140000009713155612251268525_" x="114.1" y="46" width="213.1" height="135.4"/>
				</defs>
				<clipPath id="SVGID_00000176001343690914246530000018263616593022363543_">
					<use xlink:href="#SVGID_00000176753448891159680140000009713155612251268525_" style="overflow:visible;"/>
				</clipPath>
				<path style="clip-path:url(#SVGID_00000176001343690914246530000018263616593022363543_);fill:#FFFFFF;" d="M179.8,113.4      c1.3,2.6,1,5.1-0.2,7c-0.6,0.9-1.4,1.7-2.3,2.3c-0.9,0.6-2,1-3.1,1.1c-2.4,0.3-4.9-0.6-6.8-3.1c0-0.1-0.1-0.1-0.1-0.2l-7.6-12      v62c0,1-0.8,1.8-1.8,1.8s-1.8-0.8-1.8-1.8v-72c0-1,0.8-1.8,1.8-1.8s1.8,0.8,1.8,1.8v3.4l10.6,16.7c1,1.3,2.4,1.8,3.6,1.7      c0.6-0.1,1.1-0.3,1.6-0.6s0.9-0.7,1.2-1.2c0.6-0.9,0.7-2.2,0-3.5l-11.2-21.8c-0.3-0.7-0.7-1.3-1-1.9c-2.7-5.4-4.4-8.7-10.7-11.6      c-1.4-0.7-2.9-1.2-4.5-1.5c-1.5-0.3-3.1-0.5-4.7-0.5h-4.9c-6,0-11.5,2.5-15.5,6.5s-6.5,9.5-6.5,15.5v20.9c0,2.5,1,4.8,2.6,6.5      c1.2,1.2,2.7,2.1,4.4,2.4V96.1c0-1,0.8-1.8,1.8-1.8s1.8,0.8,1.8,1.8v35.4v38.9c0,1-0.8,1.8-1.8,1.8s-1.8-0.8-1.8-1.8v-37.3      c-2.7-0.4-5.2-1.7-7-3.6c-2.2-2.3-3.6-5.5-3.6-8.9V99.7c0-7,2.9-13.4,7.5-18.1c4.6-4.6,11-7.5,18.1-7.5h4.9      c1.9,0,3.7,0.2,5.5,0.6s3.6,1,5.2,1.8c7.4,3.4,9.3,7.2,12.4,13.2c0.3,0.6,0.6,1.2,0.9,1.9L179.8,113.4z"/>
			</g>
			<g>
				<defs>
					<rect id="SVGID_00000074404400559744280650000001547923492231665061_" x="114.1" y="46" width="213.1" height="135.4"/>
				</defs>
				<clipPath id="SVGID_00000034796461573454318650000013431636212481741188_">
					<use xlink:href="#SVGID_00000074404400559744280650000001547923492231665061_" style="overflow:visible;"/>
				</clipPath>
				<path style="clip-path:url(#SVGID_00000034796461573454318650000013431636212481741188_);fill:#FFFFFF;" d="M140.4,126.8v43.7      c0,1,0.8,1.8,1.8,1.8s1.8-0.8,1.8-1.8v-43.7c0-1-0.8-1.8-1.8-1.8S140.4,125.8,140.4,126.8"/>
			</g>
			<g>
				<defs>
					<rect id="SVGID_00000086663221819770078000000010028862863338505345_" x="114.1" y="46" width="213.1" height="135.4"/>
				</defs>
				<clipPath id="SVGID_00000175298910910747494730000004543927805835327399_">
					<use xlink:href="#SVGID_00000086663221819770078000000010028862863338505345_" style="overflow:visible;"/>
				</clipPath>
				<path style="clip-path:url(#SVGID_00000175298910910747494730000004543927805835327399_);fill:#1F2123;" d="M148.6,52      c-1.6-1.6-3.9-2.7-6.4-2.7s-4.8,1-6.4,2.7c-1.6,1.6-2.7,3.9-2.7,6.4s1,4.8,2.7,6.4c1.6,1.6,3.9,2.7,6.4,2.7s4.8-1,6.4-2.7      c1.6-1.6,2.7-3.9,2.7-6.4S150.2,53.6,148.6,52"/>
			</g>
			<g>
				<defs>
					<rect id="SVGID_00000142869786905302675780000004823292914176604042_" x="114.1" y="46" width="213.1" height="135.4"/>
				</defs>
				<clipPath id="SVGID_00000111914280559289251850000000984465294976452234_">
					<use xlink:href="#SVGID_00000142869786905302675780000004823292914176604042_" style="overflow:visible;"/>
				</clipPath>
				
					<path style="clip-path:url(#SVGID_00000111914280559289251850000000984465294976452234_);fill:none;stroke:#FFFFFF;stroke-miterlimit:10;" d="      M148.6,52c-1.6-1.6-3.9-2.7-6.4-2.7s-4.8,1-6.4,2.7c-1.6,1.6-2.7,3.9-2.7,6.4s1,4.8,2.7,6.4c1.6,1.6,3.9,2.7,6.4,2.7      s4.8-1,6.4-2.7c1.6-1.6,2.7-3.9,2.7-6.4S150.2,53.6,148.6,52z"/>
			</g>
		</g>
		<polygon class="st10" points="210.1,107.8 210.1,109.9 215.7,109.9 215.7,107.8 212.9,107.8   "/>
		<g>
			<g>
				<defs>
					<rect id="SVGID_00000142875975899951745790000016186234264579210143_" x="114.1" y="46" width="213.1" height="135.4"/>
				</defs>
				<clipPath id="SVGID_00000008144674929795488440000016075615209276980375_">
					<use xlink:href="#SVGID_00000142875975899951745790000016186234264579210143_" style="overflow:visible;"/>
				</clipPath>
				<path style="clip-path:url(#SVGID_00000008144674929795488440000016075615209276980375_);fill:#FFFFFF;" d="M209.8,107.8h0.3      h2.8h2.8h0.3c0.3,0,0.6-0.3,0.6-0.6c-0.2-2.5-1.2-4.8-1.7-5.6c-0.1-0.2-0.3-0.3-0.5-0.3h-1.5h-1.5c-0.2,0-0.4,0.1-0.5,0.3      c-0.4,0.8-1.5,3.1-1.7,5.6C209.2,107.5,209.5,107.8,209.8,107.8"/>
			</g>
			<g>
				<defs>
					<rect id="SVGID_00000142140078826123774890000015457546653720904359_" x="114.1" y="46" width="213.1" height="135.4"/>
				</defs>
				<clipPath id="SVGID_00000158004832888375852790000014337848905469891744_">
					<use xlink:href="#SVGID_00000142140078826123774890000015457546653720904359_" style="overflow:visible;"/>
				</clipPath>
				<path style="clip-path:url(#SVGID_00000158004832888375852790000014337848905469891744_);fill:#FFFFFF;" d="M192.4,93.9      L192.4,93.9c0,0.3,0,0.6,0,0.8v0.1c0,0.2,0,0.5,0,0.7v0.1c0,0.2,0,0.5,0.1,0.7v0.1c0,0.2,0,0.3,0.1,0.4c0,0,0,0.1,0,0.2v0.1v0.1      c0,0.1,0.1,0.2,0.1,0.2l0.1,0.2l0.1,0.1l0.3,0.5l0,0c0,0,0,0.1,0.1,0.1c0.1,0.1,0.2,0.3,0.2,0.5c0,0.1,0,0.1,0.1,0.2v0.1      c0,0,0,0,0,0.1c0,0,0,0,0,0.1l0,0c0,0,0,0,0,0.1c0,0,0,0,0,0.1c0,0,0,0,0,0.1c0,0,0,0,0,0.1c0,0,0,0,0,0.1l0,0c0,0,0,0,0,0.1      s0,0.2,0,0.3c0,0.1,0,0.1,0,0.2v0.1l0,0c0,0.1,0,0.2,0,0.3c0,0.1,0,0.2,0,0.3v0.1v0.1v0.1c0,0.1,0,0.2,0,0.3c0,0.1,0,0.2,0,0.3      l0,0v0.1c0,0.1,0,0.1,0,0.2s0,0.2,0,0.3c0,0.1,0,0.1,0,0.2v0.1l0,0c0,0.1,0,0.2,0,0.3c0,0.1,0,0.2,0,0.3v0.1v0.1c0,0,0,0,0,0.1      s0,0.2,0,0.3c0,0.1,0,0.2,0,0.3l0,0v0.1v0.1c0,0.1,0,0.2,0,0.3c0,0.1,0,0.1,0,0.2v0.1c0,0.1,0,0.1,0,0.2s0,0.2,0,0.3      c0,0.1,0,0.1,0,0.2s0,0.1,0,0.2c0,0.2,0.1,0.3,0.1,0.5s0.1,0.4,0.1,0.5l0,0c0,0,0,0.1,0.1,0.1c0.1,0.1,0.2,0.2,0.3,0.2      s0.1,0,0.2,0c0.2,0.1,0.5,0.1,0.8,0.2c0.2,0,0.4,0.1,0.7,0.1c0.1,0,0.1,0,0.2,0c0.2,0,0.4,0,0.5,0s0.1,0,0.2,0      c0.2,0,0.4,0,0.5,0h0.1c0.2,0,0.4,0,0.6,0h0.1c0.2,0,0.4,0,0.6,0c0.1,0,0.1,0,0.2,0c0.2,0,0.3,0,0.5,0c0.1,0,0.1,0,0.2,0      c0.2,0,0.5-0.1,0.7-0.1s0.5-0.1,0.7-0.1c0.1,0,0.1,0,0.2-0.1c0.1,0,0.2-0.1,0.3-0.2v-0.1l0,0c0-0.1,0.1-0.3,0.1-0.5      s0.1-0.4,0.1-0.6v-0.1c0-0.1,0-0.1,0-0.2s0-0.3,0.1-0.4c0-0.1,0-0.1,0-0.2c0,0,0,0,0-0.1s0-0.1,0-0.2s0-0.2,0-0.3v-0.1v-0.1l0,0      c0-0.1,0-0.2,0-0.3c0-0.1,0-0.2,0-0.3c0,0,0,0,0-0.1v-0.1v-0.1c0-0.1,0-0.2,0-0.3c0-0.1,0-0.2,0-0.3l0,0c0,0,0,0,0-0.1      s0-0.2,0-0.2c0-0.1,0-0.2,0-0.3c0-0.1,0-0.1,0-0.2v-0.1l0,0c0-0.1,0-0.2,0-0.3c0-0.1,0-0.2,0-0.3c0,0,0,0,0-0.1v-0.1V101      c0-0.1,0-0.2,0-0.3c0-0.1,0-0.2,0-0.2s0,0,0-0.1v-0.1c0-0.1,0-0.1,0-0.2s0-0.2,0-0.3c0,0,0,0,0-0.1l0,0c0,0,0,0,0-0.1      c0,0,0,0,0-0.1c0,0,0,0,0-0.1c0,0,0,0,0-0.1s0,0,0-0.1l0,0c0,0,0,0,0-0.1c0,0,0,0,0-0.1v-0.1c0-0.1,0-0.1,0.1-0.2      c0.1-0.2,0.1-0.4,0.2-0.5c0,0,0-0.1,0.1-0.1l0,0l0.3-0.5l0.1-0.1l0.1-0.2c0-0.1,0.1-0.2,0.1-0.2V97v-0.1c0-0.1,0-0.1,0-0.2      s0-0.3,0.1-0.4v-0.1v-0.1c0-0.2,0-0.4,0-0.6v-0.1c0-0.2,0-0.4,0-0.7v-0.1c0-0.2,0-0.5,0-0.7v-0.1c0-0.2,0-0.5,0-0.7V93      c0-0.2,0-0.5,0-0.7v-0.1c0-0.2,0-0.5,0-0.7v-0.1c0-0.2,0-0.5,0-0.7v-0.1c0-0.1,0-0.2,0-0.3c0-0.1,0-0.3,0-0.4v-0.1      c0-0.2,0-0.5-0.1-0.7V89c0-0.2-0.1-0.5-0.1-0.7v-0.1c0-0.2-0.1-0.4-0.1-0.5s0-0.1,0-0.2c0,0,0,0,0-0.1v-0.1      c0-0.1-0.1-0.2-0.2-0.3c-0.1,0-0.1,0-0.2,0c-0.1,0-0.1,0-0.2,0c-0.1,0-0.1,0-0.2,0c-0.2,0-0.4,0-0.6,0c-0.1,0-0.1,0-0.2,0      c-0.2,0-0.4,0-0.6,0h-0.1c-0.2,0-0.4,0-0.6,0c-0.1,0-0.1,0-0.2,0c-0.2,0-0.4,0-0.6,0c-0.1,0-0.1,0-0.2,0c-0.2,0-0.3,0-0.5,0      c-0.1,0-0.1,0-0.2,0c-0.2,0-0.4,0-0.6,0h-0.1c-0.2,0-0.3,0-0.5,0h-0.1c-0.2,0-0.4,0-0.6,0c-0.1,0-0.1,0-0.2,0      c-0.2,0-0.3,0-0.5,0c-0.1,0-0.1,0-0.2,0c-0.2,0-0.4,0-0.6,0h-0.1c-0.2,0-0.4,0-0.6,0c-0.1,0-0.1,0-0.2,0c-0.2,0-0.4,0-0.5,0      h-0.1c-0.2,0-0.4,0-0.6,0c-0.1,0-0.1,0-0.2,0c-0.1,0-0.1,0-0.2,0H192c-0.1,0.1-0.2,0.2-0.3,0.3v0.1v0.1c0,0.1,0,0.2,0,0.2      c0,0.2-0.1,0.3-0.1,0.5v0.1c0,0.2-0.1,0.4-0.1,0.7v0.1c0,0.2-0.1,0.5-0.1,0.7v0.1c0,0.2,0,0.5-0.1,0.7v0.1c0,0.2,0,0.5,0,0.7      v0.1c0,0.2,0,0.5,0,0.7v0.1c0,0.2,0,0.5,0,0.7v0.1C192.4,93.4,192.4,93.6,192.4,93.9 M191.2,87c0.4-1.5,0.6-2.1,0.7-2.2h0.3      c0,0,0.3,0,0.2,0s0.7,0.7,0.7,0.7h10.3c0,0,0.8-0.7,0.7-0.7s0.2,0,0.2,0h0.3c0.1,0.1,0.3,0.7,0.7,2.2c0.8,3,1,7.2,0.3,10.2      c-0.1,0.2-0.1,0.2-0.2,0.3c-0.2,0.2-0.6,0.6-0.9,1.1c-1,1.1-0.5,1.3-0.4,3c0.1,1.4,0,4-0.8,9.3c-0.2,1.2-1,2.2-2.2,2.5      c-0.6,0.1-1.4,0.2-2.8,0.2h-0.2c-1.4,0-2.2-0.2-2.8-0.3c-1.2-0.3-2-1.3-2.2-2.5c-0.8-5.3-0.9-7.9-0.8-9.3c0.2-1.7,0.6-1.9-0.3-3      c-0.4-0.4-0.8-0.8-0.9-1.1c-0.1-0.2-0.1-0.1-0.2-0.3C190.2,94.3,190.4,90,191.2,87"/>
			</g>
		</g>
		<polygon class="st10" points="203.4,88.8 193.2,88.8 193.2,96.2 193.2,96.2 193.2,88.7 203.4,88.7   "/>
		<rect x="193.2" y="88.8" class="st10" width="10.2" height="7.5"/>
		<g>
			<g>
				<defs>
					<rect id="SVGID_00000154415876786663752600000016050268154348448697_" x="114.1" y="46" width="213.1" height="135.4"/>
				</defs>
				<clipPath id="SVGID_00000063592081775960407050000010641427364014125752_">
					<use xlink:href="#SVGID_00000154415876786663752600000016050268154348448697_" style="overflow:visible;"/>
				</clipPath>
				<path style="clip-path:url(#SVGID_00000063592081775960407050000010641427364014125752_);fill:#FFFFFF;" d="M200.2,98.4h-0.1      H200c0,0-0.1,0-0.1-0.1c0,0,0-0.1-0.1-0.1v-0.1V98c0,0,0-0.1,0.1-0.1c0,0,0.1,0,0.1-0.1h0.1h0.1c0,0,0.1,0,0.1,0.1      c0,0,0,0.1,0.1,0.1v0.1v0.1C200.3,98.3,200.3,98.3,200.2,98.4C200.2,98.3,200.2,98.4,200.2,98.4"/>
			</g>
			<g>
				<defs>
					<rect id="SVGID_00000036241400089923690740000011773794996920565432_" x="114.1" y="46" width="213.1" height="135.4"/>
				</defs>
				<clipPath id="SVGID_00000079479790179639854210000004721710943247821484_">
					<use xlink:href="#SVGID_00000036241400089923690740000011773794996920565432_" style="overflow:visible;"/>
				</clipPath>
				<path style="clip-path:url(#SVGID_00000079479790179639854210000004721710943247821484_);fill:#FFFFFF;" d="M198.4,98.4h-0.1      h-0.1c0,0-0.1,0-0.1-0.1c0,0,0-0.1-0.1-0.1v-0.1V98c0,0,0-0.1,0.1-0.1c0,0,0.1,0,0.1-0.1h0.1h0.1c0,0,0.1,0,0.1,0.1      c0,0,0,0.1,0.1,0.1v0.1v0.1C198.6,98.3,198.6,98.3,198.4,98.4C198.5,98.3,198.5,98.4,198.4,98.4"/>
			</g>
			<g>
				<defs>
					<rect id="SVGID_00000132053471160943693930000006658878778255813516_" x="114.1" y="46" width="213.1" height="135.4"/>
				</defs>
				<clipPath id="SVGID_00000049204296833997807030000014944551821178195861_">
					<use xlink:href="#SVGID_00000132053471160943693930000006658878778255813516_" style="overflow:visible;"/>
				</clipPath>
				<path style="clip-path:url(#SVGID_00000049204296833997807030000014944551821178195861_);fill:#FFFFFF;" d="M196.7,98.4h-0.1      h-0.1c0,0-0.1,0-0.1-0.1c0,0,0-0.1-0.1-0.1v-0.1V98c0,0,0-0.1,0.1-0.1c0,0,0.1,0,0.1-0.1h0.1h0.1c0,0,0.1,0,0.1,0.1      c0,0,0,0.1,0.1,0.1v0.1v0.1C196.9,98.3,196.8,98.3,196.7,98.4C196.8,98.3,196.8,98.4,196.7,98.4"/>
			</g>
			<g>
				<defs>
					<rect id="SVGID_00000107574482326176998680000012463748176594575543_" x="114.1" y="46" width="213.1" height="135.4"/>
				</defs>
				<clipPath id="SVGID_00000039098979626473306780000003749055310506794416_">
					<use xlink:href="#SVGID_00000107574482326176998680000012463748176594575543_" style="overflow:visible;"/>
				</clipPath>
				<path style="clip-path:url(#SVGID_00000039098979626473306780000003749055310506794416_);fill:#FFFFFF;" d="M200.5,99.9l-2.1,2      c0,0-0.1,0.1-0.2,0l-2.1-2c-0.1-0.1,0-0.2,0-0.2c1.3-1,3.1-1,4.3,0.1C200.5,99.8,200.6,99.8,200.5,99.9"/>
			</g>
			<g>
				<defs>
					<rect id="SVGID_00000008138486474417460730000005959351857197987470_" x="114.1" y="46" width="213.1" height="135.4"/>
				</defs>
				<clipPath id="SVGID_00000041291875388084943250000007988774949621916294_">
					<use xlink:href="#SVGID_00000008138486474417460730000005959351857197987470_" style="overflow:visible;"/>
				</clipPath>
				<path style="clip-path:url(#SVGID_00000041291875388084943250000007988774949621916294_);fill:#FFFFFF;" d="M195.8,100.2l2.1,2      c0.1,0.1,0,0.2,0,0.2l-2,2c-0.1,0.1-0.2,0-0.2,0c-1.1-1.2-1.1-3-0.1-4.2C195.6,100.3,195.7,100.1,195.8,100.2"/>
			</g>
			<g>
				<defs>
					<rect id="SVGID_00000065796837321763367830000014240792717782824329_" x="114.1" y="46" width="213.1" height="135.4"/>
				</defs>
				<clipPath id="SVGID_00000117656968308975432520000018279003129186732448_">
					<use xlink:href="#SVGID_00000065796837321763367830000014240792717782824329_" style="overflow:visible;"/>
				</clipPath>
				<path style="clip-path:url(#SVGID_00000117656968308975432520000018279003129186732448_);fill:#FFFFFF;" d="M198.7,102.2l2.1-2      c0.1-0.1,0.2,0,0.2,0c1.1,1.2,1.1,3,0.1,4.2c0,0-0.1,0.2-0.2,0l-2.1-2C198.6,102.3,198.6,102.2,198.7,102.2"/>
			</g>
			<g>
				<defs>
					<rect id="SVGID_00000127742047392287179820000008114088684638797447_" x="114.1" y="46" width="213.1" height="135.4"/>
				</defs>
				<clipPath id="SVGID_00000035501986419051241900000003759000076163266962_">
					<use xlink:href="#SVGID_00000127742047392287179820000008114088684638797447_" style="overflow:visible;"/>
				</clipPath>
				<path style="clip-path:url(#SVGID_00000035501986419051241900000003759000076163266962_);fill:#FFFFFF;" d="M198.2,102.7      c0,0,0.1-0.1,0.2,0l2.1,2c0.1,0.1,0,0.2,0,0.2c-1.3,1-3.1,0.9-4.3-0.1c0,0-0.1-0.1,0-0.2L198.2,102.7z"/>
			</g>
			<g>
				<defs>
					<rect id="SVGID_00000069392829565156479160000016188910776704914328_" x="114.1" y="46" width="213.1" height="135.4"/>
				</defs>
				<clipPath id="SVGID_00000155859167974172690290000002814099172966219397_">
					<use xlink:href="#SVGID_00000069392829565156479160000016188910776704914328_" style="overflow:visible;"/>
				</clipPath>
				<path style="clip-path:url(#SVGID_00000155859167974172690290000002814099172966219397_);fill:#FFFFFF;" d="M196.7,77.5h3.4      c1.1,0,2.7,3.2,2.7,7.6h-9C193.8,80.8,195.6,77.5,196.7,77.5"/>
			</g>
			<g>
				<defs>
					<rect id="SVGID_00000119101968314025146900000009237184943663087790_" x="114.1" y="46" width="213.1" height="135.4"/>
				</defs>
				<clipPath id="SVGID_00000067216779014832850410000001944516418960876460_">
					<use xlink:href="#SVGID_00000119101968314025146900000009237184943663087790_" style="overflow:visible;"/>
				</clipPath>
				
					<path style="clip-path:url(#SVGID_00000067216779014832850410000001944516418960876460_);fill:none;stroke:#FFFFFF;stroke-width:3;stroke-linecap:round;stroke-linejoin:round;" d="      M198.6,76.2v-5c0,0,0-2.7,2.7-2.7h4.5c0,0,7.2,0,7.2,8v25"/>
			</g>
		</g>
	</g>
	<text transform="matrix(1 0 0 1 11.1894 26.6516)" class="st10 st22 st23">1</text>
	<text transform="matrix(1 0 0 1 43.7485 11.9982)" class="st10 st24 st25">Check out the INNOVA tool from the</text>
	<text transform="matrix(1 0 0 1 43.7485 25.9982)" class="st10 st24 st25">counterperson.</text>
	<g>
		<g>
			<g>
				<defs>
					<rect id="SVGID_00000150083796774537070040000000679211218422245543_" x="11.1" y="50.1" width="71.5" height="134.4"/>
				</defs>
				<clipPath id="SVGID_00000018234425787539027060000016464932268539351475_">
					<use xlink:href="#SVGID_00000150083796774537070040000000679211218422245543_" style="overflow:visible;"/>
				</clipPath>
				<path style="clip-path:url(#SVGID_00000018234425787539027060000016464932268539351475_);fill:#1F2123;" d="M24.4,57.1      c0,0-3.4-5.8-3.1-5.8s-0.8-0.1-0.8-0.1l-1.4,0.2c-0.6,0.5-1.5,3.4-3.2,10.2c-3.5,13.8-4.3,32.9-1.1,46.4c0.2,1,0.3,0.8,0.8,1.6      c0.8,1.1,2.5,2.9,4.1,4.8c4.2,4.9,2.3,5.8,1.6,13.7c-0.6,6.6-0.1,18.2,3.4,42.4c0.8,5.5,4.3,10.2,9.6,11.4      c2.7,0.6,6.1,1.1,12.3,1.1h1c6.3,0,9.7-0.7,12.4-1.3c5.3-1.2,8.8-5.8,9.6-11.2c3.4-24.1,4-35.8,3.4-42.4      c-0.7-7.9-2.7-8.7,1.5-13.6c1.7-2,3.3-3.7,4.1-4.8c0.6-0.7,0.6-0.6,0.8-1.6c3.2-13.5,2.4-32.7-1.1-46.4      c-1.7-6.8-2.7-9.7-3.2-10.2l-1.4-0.2c0,0-1.1,0.1-0.8,0.1c0.3,0-3.1,5.8-3.1,5.8"/>
			</g>
			<g>
				<defs>
					<rect id="SVGID_00000149345455727716668750000000366390924079793538_" x="11.1" y="50.1" width="71.5" height="134.4"/>
				</defs>
				<clipPath id="SVGID_00000048499834002125420770000016873168073943762601_">
					<use xlink:href="#SVGID_00000149345455727716668750000000366390924079793538_" style="overflow:visible;"/>
				</clipPath>
				
					<path style="clip-path:url(#SVGID_00000048499834002125420770000016873168073943762601_);fill:none;stroke:#FFFFFF;stroke-width:0.6;stroke-miterlimit:10;" d="      M24.3,57c0,0-3.4-5.8-3.1-5.8s-0.9-0.1-0.9-0.1L19,51.3c-0.6,0.5-1.5,3.4-3.3,10.2c-3.5,13.8-4.3,33-1.2,46.5      c0.2,1,0.3,0.8,0.8,1.6c0.8,1.1,2.5,2.9,4.1,4.8c4.2,4.9,2.3,5.8,1.6,13.7c-0.6,6.6-0.1,18.3,3.4,42.5      c0.8,5.5,4.3,10.2,9.6,11.4c2.7,0.6,6.1,1.1,12.4,1.1h1c6.3,0,9.7-0.7,12.4-1.3c5.3-1.2,8.9-5.8,9.6-11.2      c3.4-24.2,4-35.9,3.4-42.5c-0.7-7.9-2.7-8.7,1.5-13.7c1.7-2,3.3-3.8,4.1-4.8c0.6-0.7,0.6-0.6,0.8-1.6      c3.2-13.5,2.4-32.7-1.2-46.5c-1.7-6.8-2.7-9.7-3.3-10.2l-1.4-0.2c0,0-1.1,0.1-0.9,0.1c0.3,0-3.1,5.8-3.1,5.8"/>
			</g>
			<g>
				<defs>
					<rect id="SVGID_00000053510479761938909410000005686274019461257902_" x="11.1" y="50.1" width="71.5" height="134.4"/>
				</defs>
				<clipPath id="SVGID_00000080887527657667652460000016040488870306389924_">
					<use xlink:href="#SVGID_00000053510479761938909410000005686274019461257902_" style="overflow:visible;"/>
				</clipPath>
				
					<path style="clip-path:url(#SVGID_00000080887527657667652460000016040488870306389924_);fill:none;stroke:#FFFFFF;stroke-width:0.4;stroke-miterlimit:10;" d="      M15.7,109.7c0,0,2.6,2.9,4.7,4.9c4,4,3.6,6.6,4,12.7c0.9,13.3,1.5,19.6,4.4,34.2c1.4,7.1,5.1,8.1,10,8.7c2.8,0.4,5,0.4,7.8,0.3      h0.7c2.8,0,4.9,0,7.8-0.3c5-0.6,8.6-1.6,10-8.7c2.9-14.6,3.5-20.9,4.4-34.2c0.4-6,0-8.7,4-12.7c2-2,4.7-4.9,4.7-4.9"/>
			</g>
			<g>
				<defs>
					<rect id="SVGID_00000139987519519412323630000000953498590114236087_" x="11.1" y="50.1" width="71.5" height="134.4"/>
				</defs>
				<clipPath id="SVGID_00000088825287313669886040000013245503198675881912_">
					<use xlink:href="#SVGID_00000139987519519412323630000000953498590114236087_" style="overflow:visible;"/>
				</clipPath>
				<path style="clip-path:url(#SVGID_00000088825287313669886040000013245503198675881912_);fill:#1F2123;" d="M47.3,156.5h1.4      c6.9,0,11-0.9,12.4-1.3c1.4-0.3,2.7-0.8,3.2-3.3c1.8-9.8,2.8-19.7,3.4-31.2c0.2-2.9,1-4.5,1.9-6.7c0.8-1.7,1.9-3.2,2.9-5.1      c0.8-1.4,1.3-3.1,1.4-5.6c0.8-12.5,1.3-24.2-1.8-41c-0.2-1.4-1.4-2.4-2.4-2.5c-2.6-0.2-6.1-0.8-22.5-0.8h-0.8      c-16.4,0-20,0.6-22.5,0.8c-1,0.1-2.2,1.2-2.4,2.5c-3.1,16.9-2.6,28.6-1.8,41c0.2,2.5,0.7,4.2,1.4,5.6c1,1.8,2.2,3.4,2.9,5.1      c1,2.2,1.8,3.8,1.9,6.7c0.7,11.4,1.6,21.4,3.4,31.2c0.5,2.5,1.8,2.9,3.2,3.3c1.4,0.3,5.5,1.3,12.4,1.3h1.4H47.3z"/>
			</g>
			<g>
				<defs>
					<rect id="SVGID_00000168806405686142796010000017742641353853026178_" x="11.1" y="50.1" width="71.5" height="134.4"/>
				</defs>
				<clipPath id="SVGID_00000103245569141065580710000008412369936363558323_">
					<use xlink:href="#SVGID_00000168806405686142796010000017742641353853026178_" style="overflow:visible;"/>
				</clipPath>
				
					<path style="clip-path:url(#SVGID_00000103245569141065580710000008412369936363558323_);fill:none;stroke:#FFFFFF;stroke-width:0.15;stroke-miterlimit:10;" d="      M47.3,156.5h1.4c6.9,0,11-0.9,12.4-1.3c1.4-0.3,2.7-0.8,3.2-3.3c1.8-9.8,2.8-19.7,3.4-31.2c0.2-2.9,1-4.5,1.9-6.7      c0.8-1.7,1.9-3.2,2.9-5.1c0.8-1.4,1.3-3.1,1.4-5.6c0.8-12.5,1.3-24.2-1.8-41.1c-0.2-1.4-1.4-2.4-2.4-2.5      c-2.6-0.2-6.1-0.8-22.6-0.8h-0.8c-16.4,0-20,0.6-22.6,0.8c-1,0.1-2.2,1.2-2.4,2.5c-3.1,16.9-2.6,28.6-1.8,41.1      c0.2,2.5,0.7,4.2,1.4,5.6c1,1.8,2.2,3.4,2.9,5.1c1,2.2,1.8,3.8,1.9,6.7c0.7,11.5,1.7,21.4,3.4,31.2c0.5,2.5,1.8,2.9,3.2,3.3      c1.4,0.3,5.6,1.3,12.4,1.3h1.4H47.3z"/>
			</g>
		</g>
		<rect x="24.7" y="69.1" class="st1" width="44.6" height="34.4"/>
		<rect x="24.7" y="69" class="st31" width="44.7" height="34.5"/>
		<line class="st32" x1="38.5" y1="108.6" x2="55.7" y2="108.9"/>
		<path class="st33" d="M54.9,108.1v1.4 M54.3,108.8h1.2 M39.4,108v1.4 M38.8,108.8H40 M46.9,108.1v1.4 M46.3,108.8h1.2"/>
		<polygon class="st1" points="55.7,165.6 55.5,165.1 54.9,164.8 54.2,165.1 54.1,165.6 54.2,166.2 54.9,166.3 55.5,166.2   "/>
		<polygon class="st34" points="55.7,165.6 55.6,165.1 54.9,164.7 54.2,165.1 54,165.6 54.2,166.2 54.9,166.4 55.6,166.2   "/>
		<polygon class="st1" points="55.7,160.8 55.5,160.2 54.9,160.1 54.2,160.2 54.1,160.8 54.2,161.4 54.9,161.6 55.5,161.4   "/>
		<polygon class="st34" points="55.7,160.8 55.6,160.2 54.9,160 54.2,160.2 54,160.8 54.2,161.5 54.9,161.6 55.6,161.5   "/>
		<polygon class="st1" points="50.6,160.8 50.3,160.2 49.8,160.1 49.2,160.2 48.9,160.8 49.2,161.4 49.8,161.6 50.3,161.4   "/>
		<polygon class="st34" points="50.7,160.8 50.3,160.2 49.8,160 49.2,160.2 48.8,160.8 49.2,161.5 49.8,161.6 50.3,161.5   "/>
		<polygon class="st1" points="50.6,165.6 50.3,165.1 49.8,164.8 49.2,165.1 48.9,165.6 49.2,166.2 49.8,166.3 50.3,166.2   "/>
		<polygon class="st34" points="50.7,165.6 50.4,165.1 49.8,164.7 49.2,165.1 48.8,165.6 49.2,166.2 49.8,166.4 50.4,166.2   "/>
		<polygon class="st1" points="45.4,160.8 45.3,160.2 44.6,160.1 44.1,160.2 43.8,160.8 44.1,161.4 44.6,161.6 45.3,161.4   "/>
		<polygon class="st34" points="45.5,160.8 45.3,160.2 44.6,160 44.1,160.2 43.8,160.8 44.1,161.5 44.6,161.6 45.3,161.5   "/>
		<polygon class="st1" points="45.4,165.6 45.3,165.1 44.6,164.8 44.1,165.1 43.8,165.6 44.1,166.2 44.6,166.3 45.3,166.2   "/>
		<polygon class="st34" points="45.5,165.6 45.3,165.1 44.6,164.7 44.1,165.1 43.8,165.6 44.1,166.2 44.6,166.4 45.3,166.2   "/>
		<polygon class="st1" points="40.4,160.8 40.2,160.2 39.6,160.1 38.9,160.2 38.8,160.8 38.9,161.4 39.6,161.6 40.2,161.4   "/>
		<polygon class="st34" points="40.4,160.8 40.3,160.2 39.6,160 38.9,160.2 38.7,160.8 38.9,161.5 39.6,161.6 40.3,161.5   "/>
		<polygon class="st1" points="40.4,165.6 40.2,165.1 39.6,164.8 38.9,165.1 38.8,165.6 38.9,166.2 39.6,166.3 40.2,166.2   "/>
		<polygon class="st34" points="40.4,165.6 40.3,165.1 39.6,164.7 38.9,165.1 38.7,165.6 38.9,166.2 39.6,166.4 40.3,166.2   "/>
		<g>
			<g>
				<defs>
					<rect id="SVGID_00000062909287372794923770000002325153988852284858_" x="11.1" y="50.1" width="71.5" height="134.4"/>
				</defs>
				<clipPath id="SVGID_00000108270538991553469880000015062140105336819895_">
					<use xlink:href="#SVGID_00000062909287372794923770000002325153988852284858_" style="overflow:visible;"/>
				</clipPath>
				<path style="clip-path:url(#SVGID_00000108270538991553469880000015062140105336819895_);fill:#1F2123;" d="M31.6,182.9      c5.6,2,25.7,1.5,30.1-0.1c3.4-1.3,8-4.6,8.7-9.2c1.4-9.3,3.8-24.7,4.2-44.5l-1.4,2.4c-1.5,1.6-4.6,9.7-5,14.2      c-0.7,7.4-2.1,16.6-3.5,20.7c-1.1,3.2-4.1,4-8.5,4.4l-8.7,0.4h-1.2l-8.6-0.4c-4.4-0.4-7.9-2.4-9-5.6c-1.4-4-2.2-12-2.9-19.5      c-0.4-4.5-3.6-12.6-5.1-14.2l-1.4-2.6c0.3,18,2.5,36.3,4.3,44.7C24.8,177.8,28,181.6,31.6,182.9"/>
			</g>
			<g>
				<defs>
					<rect id="SVGID_00000008138322269222152430000009797088024645292961_" x="11.1" y="50.1" width="71.5" height="134.4"/>
				</defs>
				<clipPath id="SVGID_00000025424663058152120530000012307955256822493321_">
					<use xlink:href="#SVGID_00000008138322269222152430000009797088024645292961_" style="overflow:visible;"/>
				</clipPath>
				
					<path style="clip-path:url(#SVGID_00000025424663058152120530000012307955256822493321_);fill:none;stroke:#FFFFFF;stroke-width:0.6;stroke-linejoin:round;stroke-miterlimit:10;" d="      M31.5,183c5.6,2,25.9,1.5,30.3-0.1c3.4-1.3,8.1-4.7,8.8-9.2c1.4-9.3,3.8-24.8,4.2-44.7l-1.4,2.4c-1.5,1.6-4.6,9.7-5.1,14.3      c-0.7,7.4-2.1,16.7-3.5,20.8c-1.1,3.2-4.1,4-8.5,4.4l-8.7,0.4h-1.2l-8.7-0.4c-4.4-0.4-7.9-2.4-9-5.6c-1.4-4.1-2.2-12.1-2.9-19.6      c-0.4-4.6-3.6-12.7-5.1-14.3l-1.4-2.6c0.3,18.1,2.5,36.5,4.4,44.9C24.6,177.9,27.9,181.7,31.5,183z"/>
			</g>
			<g>
				<defs>
					<rect id="SVGID_00000124878425845812001800000014308452248269482686_" x="11.1" y="50.1" width="71.5" height="134.4"/>
				</defs>
				<clipPath id="SVGID_00000150074147582377156000000001246007776162407087_">
					<use xlink:href="#SVGID_00000124878425845812001800000014308452248269482686_" style="overflow:visible;"/>
				</clipPath>
				<path style="clip-path:url(#SVGID_00000150074147582377156000000001246007776162407087_);fill:#1F2123;" d="M47.8,171.5      c2.9,0,4.7-0.2,8.4-0.4c3.2-0.2,7.5-1,9.2-6.3c1.6-4.7,2.5-14.2,3-17.2c0.4-3,2.1-9.2,3.1-11.2c0.9-1.8,2.9-5.4,3-6.8      c0.1-1.4-1-2.2-2.1-3.7c1.4,3.6-3.7,13.2-5,21.5s-1.9,11.9-2.9,15.9c-1.2,4.4-4.5,6.2-8.5,6.6c-4,0.4-8,0.5-8,0.5h-1.6l-8.9-0.4      c-5-0.8-7.5-3.2-8.3-6.7c-1.2-5.1-2.2-10.6-3.3-17.8c-1.3-8.3-5.8-16-4.4-19.6c-1,1.5-2.2,2.2-2.1,3.7c0.1,1.4,1.7,4.4,2.7,6.2      c1,1.9,2.3,6.9,2.7,9.9c0.4,3,1.8,14.2,3,18.4c1.6,5.3,6.6,6.7,9.8,6.9c3.7,0.2,5.4,0.4,8.4,0.4L47.8,171.5z"/>
			</g>
			<g>
				<defs>
					<rect id="SVGID_00000180340798985989793940000013982151645321684886_" x="11.1" y="50.1" width="71.5" height="134.4"/>
				</defs>
				<clipPath id="SVGID_00000116915525369473099530000008067791222217401987_">
					<use xlink:href="#SVGID_00000180340798985989793940000013982151645321684886_" style="overflow:visible;"/>
				</clipPath>
				
					<path style="clip-path:url(#SVGID_00000116915525369473099530000008067791222217401987_);fill:none;stroke:#FFFFFF;stroke-width:0.2;stroke-miterlimit:10;" d="      M47.8,171.5c2.9,0,4.7-0.2,8.4-0.4c3.2-0.2,7.5-1,9.3-6.3c1.6-4.8,2.6-14.3,3-17.3s2.1-9.3,3.1-11.3c0.9-1.8,2.9-5.5,3-6.9      s-1-2.2-2.1-3.7c1.4,3.7-3.7,13.3-5,21.7s-1.9,12-2.9,16c-1.2,4.4-4.5,6.3-8.5,6.7s-8,0.5-8,0.5h-1.6l-8.9-0.4      c-5-0.8-7.5-3.2-8.3-6.8c-1.2-5.1-2.2-10.7-3.3-17.9c-1.3-8.4-5.8-16.1-4.4-19.8c-1,1.5-2.2,2.3-2.1,3.7s1.7,4.4,2.7,6.2      c1,1.9,2.3,7,2.7,10c0.4,3,1.8,14.3,3,18.6c1.6,5.4,6.6,6.8,9.8,7c3.7,0.2,5.4,0.4,8.4,0.4H47.8z"/>
			</g>
			<g>
				<defs>
					<rect id="SVGID_00000023254607681607200110000014131709036220880524_" x="11.1" y="50.1" width="71.5" height="134.4"/>
				</defs>
				<clipPath id="SVGID_00000013154087695149827250000008495825520196984977_">
					<use xlink:href="#SVGID_00000023254607681607200110000014131709036220880524_" style="overflow:visible;"/>
				</clipPath>
				<path style="clip-path:url(#SVGID_00000013154087695149827250000008495825520196984977_);fill:#1F2123;" d="M48.1,58.6      c3.7,0.1,14.2-0.2,21.2,0.9c2.6,0.4,3.4,2.2,3.7,4.8c0.6,6,1.5,7.5,1.7,8.9c0.6,3.7,2.6,12.7,3.3,13.9c2.7,5,3.6,6.5,4.3,7.3      c0.6-10.6-1.9-29.3-4.4-38.1c-1.8-6.3-1.3-5.6-6.3-5.8c-0.5,0-1.8,1.8-1.9,1.9L67,54.8c0,0-2.5,0.4-4,0.4c-0.5,0-5.5,0-14.8,0      h-0.7h-1.1h-0.7c-9.3,0-14.5,0-15,0c-1.5,0-3.6-0.3-3.6-0.3l-3.4-3.4c-0.2-0.1-0.7-0.9-1.3-0.9c-4.8-0.3-4.8,0.3-6.3,4.8      c-3.3,10.1-5.6,28.4-4.6,38.4c0.7-0.8,1.8-1.3,4.5-6.3c0.8-1.3,2.4-10.7,3-14.4c0.2-1.4,1.1-2.9,1.7-8.9      c0.3-2.5,1.5-4.3,4.1-4.8c6.9-1.1,17.2-0.7,21-0.9L48.1,58.6z"/>
			</g>
			<g>
				<defs>
					<rect id="SVGID_00000118356613537628500580000002755184589337957560_" x="11.1" y="50.1" width="71.5" height="134.4"/>
				</defs>
				<clipPath id="SVGID_00000020375673586600152670000009041407484379162294_">
					<use xlink:href="#SVGID_00000118356613537628500580000002755184589337957560_" style="overflow:visible;"/>
				</clipPath>
				
					<path style="clip-path:url(#SVGID_00000020375673586600152670000009041407484379162294_);fill:none;stroke:#FFFFFF;stroke-width:0.6;stroke-miterlimit:10;" d="      M48.1,58.5c3.7,0.1,14.3-0.2,21.3,0.9c2.7,0.4,3.5,2.3,3.7,4.8c0.6,6.1,1.5,7.6,1.7,9c0.6,3.8,2.6,12.8,3.3,14.1      c2.7,5.1,3.6,6.6,4.3,7.4C83,83.9,80.5,65,78,56.2c-1.8-6.4-1.3-5.7-6.3-5.9c-0.5,0-1.8,1.8-1.9,1.9l-2.7,2.5c0,0-2.5,0.4-4,0.4      c-0.5,0-5.5,0-14.8,0h-0.7h-1.1h-0.7c-9.3,0-14.5,0.1-15,0.1c-1.5,0-3.6-0.3-3.6-0.3l-3.4-3.4c-0.2-0.1-0.8-0.9-1.3-0.9      c-4.8-0.3-4.8,0.3-6.3,4.9c-3.3,10.3-5.7,28.7-4.6,38.8c0.7-0.9,1.8-1.3,4.5-6.4c0.8-1.3,2.4-10.8,3-14.6c0.2-1.4,1.1-2.9,1.7-9      c0.3-2.5,1.5-4.4,4.1-4.8c7-1.1,17.3-0.8,21-0.9L48.1,58.5z"/>
			</g>
			<g>
				<defs>
					<rect id="SVGID_00000042734048760124987810000014548569327400328119_" x="11.1" y="50.1" width="71.5" height="134.4"/>
				</defs>
				<clipPath id="SVGID_00000109023929966937789740000018032263893849220025_">
					<use xlink:href="#SVGID_00000042734048760124987810000014548569327400328119_" style="overflow:visible;"/>
				</clipPath>
				<path style="clip-path:url(#SVGID_00000109023929966937789740000018032263893849220025_);fill:#1F2123;" d="M48.1,58.8h0.6      c3.7,0.1,14.2,0,21.2,1.1c2.6,0.4,2.5,2.2,2.9,4.7c0.3,2,0.6,3.3,0.8,4.7c1.1,9.8,4.6,20.3,5.9,22.5c1.7,2.9,1.4,4.6,1.4,5.9      c0,0,1.5-0.9,1.4-4C82.4,93,81,91,81,91s-5-10-6.3-21.8c-0.2-1.6-0.3-3.2-0.5-4.5c-0.5-2.6-0.6-5.6-3.3-6      c-7.2-1.1-18.2-0.8-22.1-0.9h-0.5h-2.2h-0.5c-3.9,0.1-14.6-0.2-21.9,0.9c-2.8,0.4-3.3,3.4-3.7,6c-0.3,1.4-0.4,3-0.5,4.5      c-1.3,11.8-5.9,21.1-5.9,21.1S12,93,12.1,93.8c-0.1,3.1,1.6,4,1.6,4c0-1.3-0.3-3,1.4-5.9c1.3-2.3,4.4-12.7,5.5-22.5      c0.2-1.4,0.5-2.7,0.8-4.7c0.3-2.5,0.6-4.3,3.3-4.7c6.9-1.1,17.2-1,20.9-1.1h0.6L48.1,58.8z"/>
			</g>
			<g>
				<defs>
					<rect id="SVGID_00000132048133595524227840000009067243911252919475_" x="11.1" y="50.1" width="71.5" height="134.4"/>
				</defs>
				<clipPath id="SVGID_00000009572245124965828530000010511711428097201802_">
					<use xlink:href="#SVGID_00000132048133595524227840000009067243911252919475_" style="overflow:visible;"/>
				</clipPath>
				
					<path style="clip-path:url(#SVGID_00000009572245124965828530000010511711428097201802_);fill:none;stroke:#FFFFFF;stroke-width:0.2;stroke-miterlimit:10;" d="      M48.1,58.8h0.6c3.7,0.1,14.3,0,21.2,1.1c2.6,0.4,2.6,2.2,2.9,4.7c0.3,2,0.6,3.3,0.8,4.7c1.1,9.8,4.6,20.3,5.9,22.6      c1.7,2.9,1.4,4.6,1.4,6c0,0,1.5-0.9,1.4-4c0.1-0.7-1.3-2.7-1.3-2.7s-5-10.1-6.3-21.9c-0.2-1.6-0.3-3.2-0.5-4.5      c-0.5-2.6-0.6-5.6-3.3-6c-7.2-1.1-18.2-0.8-22.1-0.9h-0.5h-2.2h-0.5c-3.9,0.1-14.7-0.2-21.9,0.9c-2.8,0.4-3.3,3.5-3.8,6      c-0.3,1.4-0.4,3-0.5,4.5c-1.3,11.8-5.9,21.1-5.9,21.1s-1.6,2.8-1.5,3.5c-0.1,3.1,1.6,4,1.6,4c0-1.3-0.3-3,1.4-6      c1.3-2.3,4.4-12.8,5.5-22.6c0.2-1.4,0.5-2.7,0.8-4.7c0.3-2.5,0.6-4.3,3.3-4.7c6.9-1.1,17.2-1,21-1.1h0.6H48.1z"/>
			</g>
			<g>
				<defs>
					<rect id="SVGID_00000018946736726829494580000000526731206649353874_" x="11.1" y="50.1" width="71.5" height="134.4"/>
				</defs>
				<clipPath id="SVGID_00000108278823824591437600000008384519005205882767_">
					<use xlink:href="#SVGID_00000018946736726829494580000000526731206649353874_" style="overflow:visible;"/>
				</clipPath>
				<g style="clip-path:url(#SVGID_00000108278823824591437600000008384519005205882767_);">
					<text transform="matrix(1.0269 0 0 1 38.021 105.6313)" class="st10 st44 st45">SYSTEM S</text>
				</g>
			</g>
			<g>
				<defs>
					<rect id="SVGID_00000143581556597568606950000012370846123433736098_" x="11.1" y="50.1" width="71.5" height="134.4"/>
				</defs>
				<clipPath id="SVGID_00000172433730070832159550000003156481236609771396_">
					<use xlink:href="#SVGID_00000143581556597568606950000012370846123433736098_" style="overflow:visible;"/>
				</clipPath>
				<g style="clip-path:url(#SVGID_00000172433730070832159550000003156481236609771396_);">
					<text transform="matrix(1.0269 0 0 1 49.0229 105.6313)" class="st10 st44 st45">TA</text>
				</g>
			</g>
			<g>
				<defs>
					<rect id="SVGID_00000057854153858053583030000002051514008150589079_" x="11.1" y="50.1" width="71.5" height="134.4"/>
				</defs>
				<clipPath id="SVGID_00000149363921942266384810000016496444520469067167_">
					<use xlink:href="#SVGID_00000057854153858053583030000002051514008150589079_" style="overflow:visible;"/>
				</clipPath>
				<g style="clip-path:url(#SVGID_00000149363921942266384810000016496444520469067167_);">
					<text transform="matrix(1.0269 0 0 1 51.4946 105.6313)" class="st10 st44 st45">TU</text>
				</g>
			</g>
			<g>
				<defs>
					<rect id="SVGID_00000000220931248730460680000001044988766350235280_" x="11.1" y="50.1" width="71.5" height="134.4"/>
				</defs>
				<clipPath id="SVGID_00000127031261522576439360000010754024274723709583_">
					<use xlink:href="#SVGID_00000000220931248730460680000001044988766350235280_" style="overflow:visible;"/>
				</clipPath>
				<g style="clip-path:url(#SVGID_00000127031261522576439360000010754024274723709583_);">
					<text transform="matrix(1.0269 0 0 1 54.2837 105.6313)" class="st10 st44 st45">S</text>
				</g>
			</g>
		</g>
		<polygon class="st10" points="36.5,150.5 36.5,149.1 36,149.1 36,148.9 37.3,148.9 37.3,149.1 36.8,149.1 36.8,150.5   "/>
		<polygon class="st49" points="36.5,150.5 36.5,149.1 36,149.1 36,148.9 37.3,148.9 37.3,149.1 36.8,149.1 36.8,150.5   "/>
		<rect x="40.8" y="150.2" class="st10" width="0.3" height="0.3"/>
		<rect x="40.7" y="150.2" class="st49" width="0.3" height="0.4"/>
		<rect x="43.1" y="149.9" class="st10" width="0.5" height="0.2"/>
		<rect x="47.4" y="149.9" class="st10" width="0.5" height="0.2"/>
		<rect x="51.7" y="149.9" class="st10" width="0.5" height="0.2"/>
		<g>
			<g>
				<defs>
					<rect id="SVGID_00000001663497564591265960000011114802197383276707_" x="11.1" y="50.1" width="71.5" height="134.4"/>
				</defs>
				<clipPath id="SVGID_00000047036493866272939300000016211230008420329097_">
					<use xlink:href="#SVGID_00000001663497564591265960000011114802197383276707_" style="overflow:visible;"/>
				</clipPath>
				<path style="clip-path:url(#SVGID_00000047036493866272939300000016211230008420329097_);fill:#FFFFFF;" d="M52.4,150.5      L52.4,150.5c0-0.2,0-0.3,0.1-0.4c0.1-0.1,0.2-0.2,0.4-0.3l0.1-0.1c0.1,0,0.1-0.1,0.2-0.1c0-0.1,0.1-0.1,0.1-0.2      c0-0.1,0-0.1-0.1-0.2c-0.1,0-0.1-0.1-0.2-0.1c-0.1,0-0.2,0-0.2,0.1c-0.1,0.1-0.1,0.1-0.1,0.2l0,0h-0.2l0,0c0-0.2,0-0.3,0.1-0.4      c0.1-0.1,0.2-0.1,0.4-0.1s0.3,0,0.4,0.1c0.1,0.1,0.1,0.2,0.1,0.3s0,0.2-0.1,0.3s-0.1,0.1-0.2,0.2L53,150      c-0.1,0.1-0.2,0.1-0.3,0.2c-0.1,0.1-0.1,0.1-0.1,0.2h0.8v0.2L52.4,150.5L52.4,150.5z"/>
			</g>
			<g>
				<defs>
					<rect id="SVGID_00000100356686165850433160000011719836728928952745_" x="11.1" y="50.1" width="71.5" height="134.4"/>
				</defs>
				<clipPath id="SVGID_00000061473105759094409280000000956908323047388577_">
					<use xlink:href="#SVGID_00000100356686165850433160000011719836728928952745_" style="overflow:visible;"/>
				</clipPath>
				<path style="clip-path:url(#SVGID_00000061473105759094409280000000956908323047388577_);fill:#FFFFFF;" d="M53.8,149.7      c-0.1,0-0.1-0.1-0.2-0.1c0-0.1,0-0.1,0-0.2c0-0.1,0-0.2,0.1-0.3s0.2-0.1,0.3-0.1s0.3,0,0.3,0.1c0.1,0.1,0.1,0.2,0.1,0.3      s0,0.1-0.1,0.2c0,0.1-0.1,0.1-0.2,0.1c0.1,0,0.1,0.1,0.2,0.1c0,0.1,0.1,0.1,0.1,0.2c0,0.1,0,0.3-0.1,0.3      c-0.1,0.1-0.2,0.1-0.4,0.1s-0.3,0-0.4-0.1c-0.1-0.1-0.1-0.2-0.1-0.3s0-0.2,0.1-0.2C53.7,149.8,53.8,149.8,53.8,149.7       M53.8,150.1c0,0.1,0,0.2,0.1,0.2c0.1,0.1,0.1,0.1,0.2,0.1c0.1,0,0.2,0,0.2-0.1c0.1-0.1,0.1-0.1,0.1-0.2c0-0.1,0-0.2-0.1-0.2      s-0.1-0.1-0.2-0.1c-0.1,0-0.2,0-0.2,0.1C53.8,149.9,53.8,150,53.8,150.1 M53.8,149.4c0,0.1,0,0.1,0.1,0.2c0,0,0.1,0.1,0.2,0.1      c0.1,0,0.1,0,0.2-0.1c0,0,0.1-0.1,0.1-0.2s0-0.1-0.1-0.2c0,0-0.1-0.1-0.2-0.1s-0.1,0-0.2,0.1C53.9,149.3,53.8,149.4,53.8,149.4"/>
			</g>
			<g>
				<defs>
					<rect id="SVGID_00000052810865938876690250000011299162202080579759_" x="11.1" y="50.1" width="71.5" height="134.4"/>
				</defs>
				<clipPath id="SVGID_00000149351177784237278550000008708787215731807373_">
					<use xlink:href="#SVGID_00000052810865938876690250000011299162202080579759_" style="overflow:visible;"/>
				</clipPath>
				<path style="clip-path:url(#SVGID_00000149351177784237278550000008708787215731807373_);fill:#FFFFFF;" d="M54.8,150.5      L54.8,150.5c0-0.2,0-0.3,0.1-0.4c0.1-0.1,0.2-0.2,0.4-0.3l0.1-0.1c0.1,0,0.1-0.1,0.2-0.1c0-0.1,0.1-0.1,0.1-0.2      c0-0.1,0-0.1-0.1-0.2c-0.1,0-0.1-0.1-0.2-0.1c-0.1,0-0.2,0-0.2,0.1c-0.1,0.1-0.1,0.1-0.1,0.2l0,0h-0.2l0,0c0-0.2,0-0.3,0.1-0.4      c0.1-0.1,0.2-0.1,0.4-0.1s0.3,0,0.4,0.1c0.1,0.1,0.1,0.2,0.1,0.3s0,0.2-0.1,0.3s-0.1,0.1-0.2,0.2l-0.1,0.1      c-0.1,0.1-0.2,0.1-0.3,0.2c-0.1,0.1-0.1,0.1-0.1,0.2h0.8v0.2H54.8z"/>
			</g>
			<g>
				<defs>
					<rect id="SVGID_00000035522150166579365110000010848999719785900177_" x="11.1" y="50.1" width="71.5" height="134.4"/>
				</defs>
				<clipPath id="SVGID_00000102525153229045316010000012193085249566443399_">
					<use xlink:href="#SVGID_00000035522150166579365110000010848999719785900177_" style="overflow:visible;"/>
				</clipPath>
				<path style="clip-path:url(#SVGID_00000102525153229045316010000012193085249566443399_);fill:#1F2123;" d="M70.4,63      c-0.2-0.9-0.9-1.5-1.7-1.6c-0.6,0-1.1-0.1-1.7-0.1c-0.2,0-0.4,0-0.6,0c0,0,0,0-0.1,0c-0.4,0-0.7,0-1.1-0.1      c-0.6,0-1.1-0.1-1.7-0.1c-0.6,0-1.1-0.1-1.7-0.1c-0.6,0-1.1,0-1.7-0.1c-0.6,0-1.1,0-1.7-0.1c-0.6,0-1.1,0-1.7-0.1      c-0.6,0-1.1,0-1.7,0c-0.6,0-1.1,0-1.7,0c-0.6,0-1.1,0-1.7,0c-0.6,0-1.1,0-1.7,0c-0.6,0-1.1,0-1.7,0c-0.6,0-1.1,0-1.7,0      c-0.6,0-1.1,0-1.7,0c-0.6,0-1.1,0-1.7,0c-0.6,0-1.1,0-1.7,0c-0.6,0-1.1,0-1.7,0c-0.6,0-1.1,0-1.7,0c-0.6,0-1.1,0-1.7,0      c-0.6,0-1.1,0-1.7,0.1c-0.6,0-1.1,0-1.7,0.1c-0.6,0-1.1,0-1.7,0.1c-0.6,0-1.1,0-1.7,0.1c-0.6,0-1.1,0.1-1.7,0.1      c-0.4,0-0.7,0-1.1,0.1c-0.1,0-0.2,0-0.2,0c-0.1,0-0.2,0-0.3,0c-0.6,0-1.1,0.1-1.7,0.1c-0.9,0.1-1.6,0.7-1.7,1.6      c-2.6,14.2-3.1,28.7-1.5,43.1c0.1,0.9,0.3,1.7,0.7,2.5c0.1,0.2,0.3,0.3,0.4,0.4c7.2,4.8,15.4,6.3,23.5,6.2h0.5      c8.1,0,16.3-1.7,23.5-6.4c0.2-0.1,0.4-0.3,0.6-0.6c0.3-0.7,0.5-1.4,0.6-2.1C73.5,91.7,73,77.2,70.4,63 M40.7,112.5      c-0.1,0.2-0.2,0.3-0.3,0.4s-0.3,0.2-0.4,0.3c-0.2,0.1-0.3,0.1-0.5,0.1s-0.3,0-0.5-0.1s-0.3-0.2-0.4-0.3      c-0.1-0.1-0.2-0.3-0.3-0.4c-0.1-0.2-0.1-0.3-0.1-0.5s0-0.3,0.1-0.5s0.2-0.3,0.3-0.4s0.3-0.2,0.4-0.3c0.2-0.1,0.3-0.1,0.5-0.1      s0.3,0,0.5,0.1s0.3,0.2,0.4,0.3c0.1,0.1,0.2,0.3,0.3,0.4c0.1,0.2,0.1,0.3,0.1,0.5C40.8,112.2,40.8,112.4,40.7,112.5 M48.2,112.5      c-0.1,0.2-0.2,0.3-0.3,0.4s-0.3,0.2-0.4,0.3c-0.2,0.1-0.3,0.1-0.5,0.1s-0.3,0-0.5-0.1s-0.3-0.2-0.4-0.3      c-0.1-0.1-0.2-0.3-0.3-0.4c-0.1-0.2-0.1-0.3-0.1-0.5s0-0.3,0.1-0.5s0.2-0.3,0.3-0.4s0.3-0.2,0.4-0.3c0.2-0.1,0.3-0.1,0.5-0.1      s0.3,0,0.5,0.1s0.3,0.2,0.4,0.3c0.1,0.1,0.2,0.3,0.3,0.4c0.1,0.2,0.1,0.3,0.1,0.5C48.3,112.2,48.2,112.4,48.2,112.5 M55.7,112.5      c-0.1,0.2-0.2,0.3-0.3,0.4s-0.3,0.2-0.4,0.3c-0.2,0.1-0.3,0.1-0.5,0.1s-0.3,0-0.5-0.1s-0.3-0.2-0.4-0.3      c-0.1-0.1-0.2-0.3-0.3-0.4c-0.1-0.2-0.1-0.3-0.1-0.5s0-0.3,0.1-0.5s0.2-0.3,0.3-0.4s0.3-0.2,0.4-0.3c0.2-0.1,0.3-0.1,0.5-0.1      s0.3,0,0.5,0.1s0.3,0.2,0.4,0.3c0.1,0.1,0.2,0.3,0.3,0.4c0.1,0.2,0.1,0.3,0.1,0.5C55.8,112.2,55.7,112.4,55.7,112.5 M69.2,103.5      H24.7V69.6h44.5V103.5z"/>
			</g>
			<g>
				<defs>
					<rect id="SVGID_00000105414557723447321420000007735313628818891454_" x="11.1" y="50.1" width="71.5" height="134.4"/>
				</defs>
				<clipPath id="SVGID_00000095323921701518813050000004583745425394460043_">
					<use xlink:href="#SVGID_00000105414557723447321420000007735313628818891454_" style="overflow:visible;"/>
				</clipPath>
				
					<path style="clip-path:url(#SVGID_00000095323921701518813050000004583745425394460043_);fill:none;stroke:#F1F2F3;stroke-width:0.5;stroke-miterlimit:3.864;" d="      M70.5,62.8c-0.2-0.9-0.9-1.5-1.7-1.6c-0.6,0-1.1-0.1-1.7-0.1c-0.2,0-0.4,0-0.6,0c0,0,0,0-0.1,0c-0.4,0-0.7,0-1.1-0.1      c-0.6,0-1.1-0.1-1.7-0.1c-0.6,0-1.1-0.1-1.7-0.1c-0.6,0-1.1,0-1.7-0.1c-0.6,0-1.1,0-1.7-0.1c-0.6,0-1.1,0-1.7-0.1      c-0.6,0-1.1,0-1.7,0c-0.6,0-1.1,0-1.7,0c-0.6,0-1.1,0-1.7,0c-0.6,0-1.1,0-1.7,0c-0.6,0-1.1,0-1.7,0c-0.6,0-1.1,0-1.7,0      c-0.6,0-1.1,0-1.7,0c-0.6,0-1.1,0-1.7,0c-0.6,0-1.1,0-1.7,0c-0.6,0-1.1,0-1.7,0c-0.6,0-1.1,0-1.7,0c-0.6,0-1.1,0-1.7,0      c-0.6,0-1.1,0-1.7,0.1c-0.6,0-1.1,0-1.7,0.1c-0.6,0-1.1,0-1.7,0.1c-0.6,0-1.1,0-1.7,0.1c-0.6,0-1.1,0.1-1.7,0.1      c-0.4,0-0.7,0-1.1,0.1c-0.1,0-0.2,0-0.2,0c-0.1,0-0.2,0-0.3,0c-0.6,0-1.1,0.1-1.7,0.1c-0.9,0.1-1.6,0.7-1.7,1.6      c-2.6,14.3-3.1,28.8-1.5,43.3c0.1,0.9,0.3,1.7,0.7,2.5c0.1,0.2,0.3,0.3,0.4,0.4c7.3,4.8,15.5,6.3,23.6,6.3h0.5      c8.1,0,16.4-1.7,23.6-6.4c0.2-0.1,0.4-0.3,0.6-0.6c0.3-0.7,0.5-1.4,0.6-2.1C73.6,91.7,73.1,77.1,70.5,62.8 M40.7,112.6      c-0.1,0.2-0.2,0.3-0.3,0.4c-0.1,0.1-0.3,0.2-0.4,0.3c-0.2,0.1-0.3,0.1-0.5,0.1s-0.3,0-0.5-0.1s-0.3-0.2-0.4-0.3      c-0.1-0.1-0.2-0.3-0.3-0.4c-0.1-0.2-0.1-0.3-0.1-0.5s0-0.3,0.1-0.5s0.2-0.3,0.3-0.4s0.3-0.2,0.4-0.3c0.2-0.1,0.3-0.1,0.5-0.1      s0.3,0,0.5,0.1s0.3,0.2,0.4,0.3c0.1,0.1,0.2,0.3,0.3,0.4c0.1,0.2,0.1,0.3,0.1,0.5C40.8,112.3,40.7,112.5,40.7,112.6 M48.2,112.6      c-0.1,0.2-0.2,0.3-0.3,0.4c-0.1,0.1-0.3,0.2-0.4,0.3c-0.2,0.1-0.3,0.1-0.5,0.1s-0.3,0-0.5-0.1s-0.3-0.2-0.4-0.3      c-0.1-0.1-0.2-0.3-0.3-0.4c-0.1-0.2-0.1-0.3-0.1-0.5s0-0.3,0.1-0.5s0.2-0.3,0.3-0.4s0.3-0.2,0.4-0.3c0.2-0.1,0.3-0.1,0.5-0.1      s0.3,0,0.5,0.1s0.3,0.2,0.4,0.3c0.1,0.1,0.2,0.3,0.3,0.4c0.1,0.2,0.1,0.3,0.1,0.5C48.3,112.3,48.2,112.5,48.2,112.6 M55.7,112.6      c-0.1,0.2-0.2,0.3-0.3,0.4c-0.1,0.1-0.3,0.2-0.4,0.3s-0.3,0.1-0.5,0.1s-0.3,0-0.5-0.1s-0.3-0.2-0.4-0.3      c-0.1-0.1-0.2-0.3-0.3-0.4c-0.1-0.2-0.1-0.3-0.1-0.5s0-0.3,0.1-0.5s0.2-0.3,0.3-0.4s0.3-0.2,0.4-0.3c0.2-0.1,0.3-0.1,0.5-0.1      s0.3,0,0.5,0.1s0.3,0.2,0.4,0.3c0.1,0.1,0.2,0.3,0.3,0.4c0.1,0.2,0.1,0.3,0.1,0.5C55.8,112.3,55.8,112.5,55.7,112.6 M69.3,103.5      H24.6v-34h44.7V103.5z"/>
			</g>
			<g>
				<defs>
					<rect id="SVGID_00000134944696820281037480000015178350780314514859_" x="11.1" y="50.1" width="71.5" height="134.4"/>
				</defs>
				<clipPath id="SVGID_00000008143850650986869060000009846010905930965936_">
					<use xlink:href="#SVGID_00000134944696820281037480000015178350780314514859_" style="overflow:visible;"/>
				</clipPath>
				<path style="clip-path:url(#SVGID_00000008143850650986869060000009846010905930965936_);fill:#1F2123;" d="M72.8,89.6      c0-0.2,0-0.4,0-0.5c0-1,0-2.1-0.1-3.1c0-0.2,0-0.4,0-0.6c0-1-0.1-2.1-0.1-3.1c0-0.2,0-0.3,0-0.5c-0.1-1-0.1-2.1-0.2-3.1      c0-0.2,0-0.4,0-0.5c-0.1-1-0.2-2.1-0.2-3.1c0-0.2,0-0.4,0-0.5c-0.1-1.1-0.2-2.1-0.3-3.1c0-0.2,0-0.3-0.1-0.5      c-0.1-1.1-0.3-2.1-0.4-3.1c0-0.2-0.1-0.4-0.1-0.5c-0.1-0.8-0.3-1.6-0.4-2.3c-0.1-0.4-0.1-0.7-0.2-1c0-0.1,0-0.2-0.1-0.4      c0-0.1-0.1-0.3-0.1-0.4c-0.1-0.6-0.6-1.2-1.1-1.4c-0.2-0.1-0.4-0.1-0.6-0.1c-0.3,0-0.5,0-0.8,0c-0.2,0-0.5,0-0.7,0      c-0.9-0.1-1.9-0.1-2.8-0.2c-0.2,0-0.4,0-0.6,0c-0.8,0-1.6-0.1-2.4-0.1c-0.2,0-0.5,0-0.7,0c-0.8,0-1.6-0.1-2.4-0.1      c-0.2,0-0.4,0-0.6,0c-0.8,0-1.7,0-2.5-0.1c-0.2,0-0.5,0-0.7,0c-0.8,0-1.5,0-2.3,0c-0.3,0-0.5,0-0.8,0c-0.9,0-1.8,0-2.6,0      c-0.2,0-0.4,0-0.7,0c-0.7,0-1.5,0-2.2,0c-0.2,0-0.4,0-0.6,0c-0.9,0-1.9,0-2.8,0c-0.2,0-0.5,0-0.7,0c-0.7,0-1.5,0-2.2,0      c-0.2,0-0.4,0-0.7,0c-0.9,0-1.7,0-2.6,0.1c-0.2,0-0.4,0-0.7,0c-0.8,0-1.6,0.1-2.4,0.1c-0.2,0-0.4,0-0.6,0      c-0.8,0-1.6,0.1-2.4,0.1c-0.2,0-0.5,0-0.7,0c-0.9,0-1.8,0.1-2.6,0.1c-0.3,0-0.5,0-0.8,0s-0.5,0-0.8,0s-0.5,0.1-0.7,0.2      c-0.5,0.3-0.9,0.8-1,1.3c0,0.2-0.1,0.4-0.1,0.6c0,0.1,0,0.2-0.1,0.3c-0.1,0.3-0.1,0.6-0.2,0.9c-0.1,0.8-0.3,1.6-0.4,2.4      c0,0.2,0,0.3-0.1,0.5c-0.2,1-0.3,2-0.4,3.1c0,0.2,0,0.4-0.1,0.6c-0.1,1-0.2,2-0.3,3.1c0,0.2,0,0.3,0,0.5      c-0.1,0.6-0.1,1.2-0.2,1.8c0,0.4-0.1,0.9-0.1,1.3c0,0.2,0,0.3,0,0.5c-0.1,1-0.1,2.1-0.2,3.1c0,0.2,0,0.4,0,0.6      c0,1-0.1,2.1-0.1,3.1c0,0.2,0,0.3,0,0.5c0,1,0,2.1-0.1,3.1c0,0.2,0,0.3,0,0.5c0,1,0,2.1,0,3.1c0,0.2,0,0.4,0,0.5      c0,1.1,0,2.1,0.1,3.1c0,0.2,0,0.4,0,0.5c0,1.1,0.1,2.1,0.2,3.1c0,0.2,0,0.3,0,0.5c0.1,0.9,0.1,1.7,0.2,2.6c0,0.2,0,0.4,0.1,0.6      c0,0.2,0,0.4,0.1,0.6c0.1,0.7,0.2,1.4,0.3,2c0,0.2,0.1,0.5,0.1,0.7c0,0.1,0.1,0.2,0.1,0.4c0.1,0.2,0.1,0.4,0.2,0.5      c0.2,0.4,0.3,0.8,0.5,1.1l0.5,0.8l0.3,0.5l1.4,2.4l0.1,0.1c0.1,0.1,0.2,0.3,0.3,0.5c0.3,0.6,0.7,1.5,0.9,2.2      c0.1,0.3,0.2,0.6,0.3,0.9c0.1,0.2,0.1,0.4,0.1,0.5s0,0.2,0.1,0.3c0,0.1,0,0.2,0.1,0.3l0,0c0,0.1,0,0.2,0.1,0.3      c0,0.1,0,0.2,0,0.3s0,0.2,0,0.3s0,0.2,0,0.3s0,0.2,0,0.3v0.1c0,0.1,0,0.2,0,0.3c0,0.5,0,0.9,0.1,1.4c0,0.2,0,0.5,0,0.7      s0,0.4,0,0.6c0,0.1,0,0.2,0,0.3c0,0.3,0,0.7,0.1,1c0,0.5,0,0.9,0.1,1.4c0,0.2,0,0.3,0,0.5s0,0.4,0,0.6c0,0.1,0,0.2,0,0.2      c0,0.5,0.1,0.9,0.1,1.4s0.1,0.9,0.1,1.4v0.1c0,0.2,0,0.3,0,0.5s0,0.5,0.1,0.7c0,0.5,0.1,0.9,0.1,1.4c0,0.3,0.1,0.7,0.1,1      c0,0.1,0,0.2,0,0.3s0,0.1,0,0.2c0,0.4,0.1,0.8,0.1,1.2c0,0.5,0.1,0.9,0.1,1.4c0,0.2,0,0.4,0.1,0.6c0,0.2,0,0.3,0.1,0.5      c0,0.1,0,0.2,0,0.2c0,0.5,0.1,0.9,0.1,1.4c0.1,0.5,0.1,0.9,0.2,1.4c0,0.1,0,0.1,0,0.2c0,0.2,0,0.3,0.1,0.5      c0,0.2,0.1,0.4,0.1,0.7c0.1,0.4,0.1,0.9,0.2,1.4c0,0.3,0.1,0.7,0.1,1c0,0.1,0,0.2,0,0.3c0,0.2,0.1,0.5,0.1,0.8      c0.1,0.5,0.2,1.1,0.2,1.7c0,0.3,0.1,0.7,0.1,1c0,0.1,0,0.3,0.1,0.4c0.1,0.8,0.3,1.7,0.4,2.5c0.1,0.9,0.3,1.7,0.4,2.4v0.1      c0,0.2,0.1,0.3,0.2,0.5c0.3,0.4,0.7,0.8,1.2,0.9c0.3,0.1,0.6,0.2,0.9,0.2c1,0.2,2,0.4,3.1,0.6c1,0.2,2,0.3,3,0.4      c0.2,0,0.5,0,0.7,0.1c0.7,0.1,1.5,0.1,2.3,0.2c0.2,0,0.5,0,0.7,0c0.8,0,1.7,0.1,2.5,0.1c0.2,0,0.3,0,0.5,0c0.9,0,1.7,0,2.6,0      c0.2,0,0.4,0,0.6,0c0.8,0,1.6,0,2.4-0.1c0.3,0,0.6,0,0.9-0.1c0.8-0.1,1.6-0.1,2.4-0.2c0.2,0,0.5,0,0.7-0.1c1-0.1,2-0.2,2.9-0.4      c1.2-0.2,2.3-0.4,3.3-0.7c0.2-0.1,0.5-0.1,0.7-0.2c0.5-0.1,0.9-0.4,1.1-0.8c0.1-0.2,0.2-0.4,0.3-0.6v-0.1      c0.1-0.6,0.3-1.5,0.4-2.4c0.1-0.7,0.2-1.5,0.3-2.3c0-0.2,0.1-0.5,0.1-0.7c0.1-0.3,0.1-0.7,0.1-1c0.1-0.6,0.2-1.1,0.2-1.5      c0-0.3,0.1-0.6,0.1-0.8s0-0.3,0.1-0.5c0-0.3,0.1-0.6,0.1-0.8c0.1-0.5,0.1-0.9,0.2-1.4c0-0.2,0.1-0.5,0.1-0.7s0-0.4,0.1-0.6v-0.1      c0.1-0.5,0.1-0.9,0.2-1.4s0.1-0.9,0.1-1.4c0-0.1,0-0.2,0-0.3c0-0.2,0-0.3,0.1-0.5c0-0.2,0-0.3,0.1-0.5c0-0.5,0.1-0.9,0.1-1.4      c0-0.4,0.1-0.8,0.1-1.2v-0.1c0-0.1,0-0.3,0-0.4c0-0.3,0.1-0.6,0.1-0.9c0-0.5,0.1-0.9,0.1-1.4c0-0.3,0-0.5,0.1-0.8      c0-0.2,0-0.3,0-0.5l0,0c0-0.5,0.1-0.9,0.1-1.4s0.1-0.9,0.1-1.4c0-0.1,0-0.2,0-0.4s0-0.3,0-0.5s0-0.3,0-0.5      c0-0.5,0.1-0.9,0.1-1.4c0-0.4,0-0.8,0.1-1.2c0-0.1,0-0.1,0-0.2c0-0.2,0-0.4,0-0.6c0-0.2,0-0.5,0-0.7c0-0.5,0-0.9,0.1-1.4      c0-0.1,0-0.2,0-0.3v-0.1c0-0.1,0-0.2,0-0.2c0-0.1,0-0.2,0-0.3s0-0.2,0-0.3s0-0.2,0-0.3s0-0.2,0-0.3c0,0,0,0,0-0.1s0-0.2,0.1-0.3      c0-0.1,0-0.2,0.1-0.3c0-0.2,0.1-0.4,0.1-0.6c0.1-0.2,0.1-0.5,0.2-0.8c0.3-0.8,0.6-1.6,0.9-2.2c0.1-0.2,0.2-0.4,0.3-0.5l0,0      l1.4-2.4l0.4-0.6l0.4-0.7c0.2-0.3,0.4-0.7,0.5-1.1c0.1-0.2,0.1-0.4,0.2-0.6c0-0.1,0.1-0.2,0.1-0.4c0.1-0.3,0.1-0.5,0.1-0.7      c0.1-0.6,0.2-1.3,0.3-2c0-0.2,0-0.3,0.1-0.5c0.1-1,0.2-2,0.3-3.1c0-0.2,0-0.4,0-0.5c0.1-1,0.1-2,0.2-3.1c0-0.2,0-0.4,0-0.6      c0-1,0.1-2.1,0.1-3.1c0-0.2,0-0.3,0-0.5C72.8,91.7,72.8,90.6,72.8,89.6 M24.7,102.2v-0.6v-3.1V98v-3v-0.5v-3.1v-0.5v-3.1v-0.5      v-3.1v-0.5v-3.1V80v-3.1v-0.5v-3.1v-0.5v-3H26h0.6h3.2h0.6h1.8H33h3.1h0.7h1.9h0.6h3H43h1.8h0.7h3.1h0.7h1.8h0.7H55h0.6h1.9H58      h3h0.8h1.8h0.7h3.1H68h1.2v3v0.5v3.1v0.5V80v0.5v3.1V84v3.1v0.6v3.1v0.5v3.1v0.5V98v0.6v3.1v0.5v1.3h-1.9h-0.6H65h-0.7h-3.1h-3      h-3.3h-0.6h-1.8h-0.7h-3.2H48h-1.8h-0.7h-3.1h-3.1H36h-0.6h-1.8H33h-3.1h-0.7h-1.8h-0.6h-2.1C24.7,103.5,24.7,102.2,24.7,102.2z       M37.4,112.1c0-0.9,0.6-1.7,1.5-2c0.2,0,0.3-0.1,0.5-0.1c0,0,0,0,0.1,0c0.5,0,1,0.2,1.4,0.6c0.2,0.2,0.3,0.3,0.4,0.5      c0.1,0.2,0.2,0.4,0.2,0.6H42h0.7H45c0.1-0.4,0.2-0.8,0.5-1.1c0.1-0.2,0.3-0.3,0.5-0.4c0.3-0.2,0.6-0.3,1-0.3s0.8,0.1,1.1,0.3      c0.1,0.1,0.3,0.2,0.4,0.4c0.3,0.3,0.4,0.7,0.5,1.1h2.4h0.8h0.3c0-0.2,0.1-0.4,0.2-0.6c0.1-0.2,0.2-0.4,0.4-0.6      c0.4-0.4,0.9-0.6,1.4-0.6h0.1c0.2,0,0.4,0.1,0.6,0.1c0.7,0.3,1.3,1,1.3,1.9c0,0.1,0,0.2,0,0.4c0,0.2-0.1,0.4-0.2,0.6      c-0.2,0.4-0.6,0.8-1.1,1c-0.2,0.1-0.4,0.1-0.7,0.1c0,0,0,0-0.1,0c-0.9,0-1.7-0.7-1.9-1.5h-0.7H49c-0.1,0.4-0.3,0.8-0.6,1      c-0.4,0.3-0.8,0.5-1.3,0.5c-0.4,0-0.7-0.1-1.1-0.3c-0.4-0.3-0.8-0.7-0.9-1.2h-2.7h-1c-0.2,0.8-0.9,1.4-1.7,1.5      c-0.1,0-0.2,0-0.3,0s-0.2,0-0.3,0c-0.6-0.1-1.1-0.5-1.4-1c-0.1-0.2-0.2-0.3-0.2-0.5C37.5,112.4,37.4,112.2,37.4,112.1       M62.3,131.7c0,0.2,0,0.4,0,0.6c0,0.2,0,0.4-0.1,0.6c0,0.2-0.1,0.4-0.1,0.6c0,0.2-0.1,0.4-0.1,0.6c-0.1,0.5-0.2,1-0.4,1.5      c-0.1,0.5-0.3,1-0.5,1.4c-0.2,0.5-0.4,0.9-0.6,1.4c-0.2,0.4-0.5,0.9-0.8,1.3c-0.6,0.8-1.2,1.6-1.9,2.3s-1.5,1.4-2.3,1.9      c-0.8,0.6-1.7,1-2.6,1.4c-0.9,0.4-1.9,0.7-2.9,0.9s-2,0.3-3,0.3s-2-0.1-3-0.3s-1.9-0.5-2.9-0.9c-0.9-0.4-1.8-0.9-2.6-1.4      c-0.8-0.6-1.6-1.2-2.3-1.9s-1.3-1.5-1.9-2.3c-0.3-0.4-0.5-0.9-0.8-1.3c-0.2-0.4-0.5-0.9-0.6-1.4c-0.2-0.5-0.4-0.9-0.5-1.4      s-0.3-1-0.4-1.5c0-0.1,0-0.2-0.1-0.3c0-0.1,0-0.2-0.1-0.3c0-0.1,0-0.2,0-0.3s0-0.2,0-0.3s0-0.2,0-0.3s0-0.2,0-0.3s0-0.2,0-0.3      s0-0.2,0-0.3s0-0.2,0-0.3c0-0.2,0-0.4,0-0.6c0-0.2,0-0.4,0-0.6c0-0.2,0-0.4,0.1-0.6c0-0.2,0.1-0.4,0.1-0.6      c0-0.2,0.1-0.4,0.1-0.6c0.1-0.5,0.2-1,0.4-1.5c0.1-0.5,0.3-1,0.5-1.4c0.2-0.5,0.4-0.9,0.6-1.4c0.2-0.4,0.5-0.9,0.8-1.3      c0.6-0.8,1.2-1.6,1.9-2.3s1.5-1.4,2.3-1.9c0.8-0.6,1.7-1,2.6-1.4c0.9-0.4,1.9-0.7,2.9-0.9s2-0.3,3-0.3s2,0.1,3,0.3      s1.9,0.5,2.9,0.9c0.9,0.4,1.8,0.9,2.6,1.4c0.8,0.6,1.6,1.2,2.3,1.9s1.3,1.5,1.9,2.3c0.3,0.4,0.5,0.9,0.8,1.3      c0.2,0.4,0.5,0.9,0.6,1.4c0.2,0.5,0.4,0.9,0.5,1.4s0.3,1,0.4,1.5c0,0.1,0,0.2,0.1,0.3c0,0.1,0,0.2,0.1,0.3c0,0.1,0,0.2,0,0.3      s0,0.2,0,0.3s0,0.2,0,0.3s0,0.2,0,0.3s0,0.2,0,0.3s0,0.2,0,0.3s0,0.2,0,0.3C62.3,131.3,62.3,131.5,62.3,131.7"/>
			</g>
			<g>
				<defs>
					<rect id="SVGID_00000145747318076172063600000004639198726711621009_" x="11.1" y="50.1" width="71.5" height="134.4"/>
				</defs>
				<clipPath id="SVGID_00000000941093978909300140000003986513605958628493_">
					<use xlink:href="#SVGID_00000145747318076172063600000004639198726711621009_" style="overflow:visible;"/>
				</clipPath>
				
					<path style="clip-path:url(#SVGID_00000000941093978909300140000003986513605958628493_);fill:none;stroke:#FFFFFF;stroke-width:0.4;" d="      M73,89.5c0-0.2,0-0.4,0-0.5c0-1,0-2.1-0.1-3.1c0-0.2,0-0.4,0-0.6c0-1-0.1-2.1-0.1-3.1c0-0.2,0-0.3,0-0.5c-0.1-1-0.1-2.1-0.2-3.1      c0-0.2,0-0.4,0-0.5C72.5,77,72.4,76,72.4,75c0-0.2,0-0.4,0-0.5c-0.1-1.1-0.2-2.1-0.3-3.1c0-0.2,0-0.3-0.1-0.5      c-0.1-1.1-0.3-2.1-0.4-3.1c0-0.2-0.1-0.4-0.1-0.6c-0.1-0.8-0.3-1.6-0.4-2.3c-0.1-0.4-0.1-0.7-0.2-1c0-0.1,0-0.2-0.1-0.4      c0-0.1-0.1-0.3-0.1-0.4c-0.1-0.6-0.6-1.2-1.1-1.4c-0.2-0.1-0.4-0.1-0.6-0.1c-0.3,0-0.5,0-0.8,0c-0.2,0-0.5,0-0.7,0      c-0.9-0.1-1.9-0.1-2.8-0.2c-0.2,0-0.4,0-0.6,0c-0.8,0-1.6-0.1-2.4-0.1c-0.2,0-0.5,0-0.7,0c-0.8,0-1.6-0.1-2.4-0.1      c-0.2,0-0.4,0-0.6,0c-0.8,0-1.7,0-2.5-0.1c-0.2,0-0.5,0-0.7,0c-0.8,0-1.5,0-2.3,0c-0.3,0-0.5,0-0.8,0c-0.9,0-1.8,0-2.6,0      c-0.2,0-0.4,0-0.7,0c-0.7,0-1.5,0-2.2,0c-0.2,0-0.4,0-0.6,0c-0.9,0-1.9,0-2.8,0c-0.2,0-0.5,0-0.7,0c-0.7,0-1.5,0-2.2,0      c-0.2,0-0.4,0-0.7,0c-0.9,0-1.7,0-2.6,0.1c-0.2,0-0.4,0-0.7,0c-0.8,0-1.6,0.1-2.5,0.1c-0.2,0-0.4,0-0.6,0      c-0.8,0-1.6,0.1-2.4,0.1c-0.2,0-0.5,0-0.7,0c-0.9,0-1.8,0.1-2.7,0.1c-0.3,0-0.5,0-0.8,0s-0.5,0-0.8,0s-0.5,0.1-0.7,0.2      c-0.5,0.3-0.9,0.8-1,1.4c0,0.2-0.1,0.4-0.1,0.6c0,0.1,0,0.2-0.1,0.3c-0.1,0.3-0.1,0.6-0.2,0.9c-0.1,0.8-0.3,1.6-0.4,2.4      c0,0.2,0,0.3-0.1,0.5c-0.2,1-0.3,2-0.4,3.1c0,0.2,0,0.4-0.1,0.6c-0.1,1-0.2,2.1-0.3,3.1c0,0.2,0,0.3,0,0.5      c-0.1,0.6-0.1,1.2-0.2,1.8c0,0.4-0.1,0.9-0.1,1.3c0,0.2,0,0.3,0,0.5c-0.1,1-0.1,2.1-0.2,3.1c0,0.2,0,0.4,0,0.6      c0,1-0.1,2.1-0.1,3.1c0,0.2,0,0.3,0,0.5c0,1,0,2.1-0.1,3.1c0,0.2,0,0.3,0,0.5c0,1,0,2.1,0,3.1c0,0.2,0,0.4,0,0.5      c0,1.1,0,2.1,0.1,3.1c0,0.2,0,0.4,0,0.5c0,1.1,0.1,2.1,0.2,3.1c0,0.2,0,0.3,0,0.5c0.1,0.9,0.1,1.7,0.2,2.6c0,0.2,0,0.4,0.1,0.6      c0,0.2,0,0.4,0.1,0.6c0.1,0.7,0.2,1.4,0.3,2c0,0.2,0.1,0.5,0.1,0.8c0,0.1,0.1,0.2,0.1,0.4c0.1,0.2,0.1,0.4,0.2,0.5      c0.2,0.4,0.3,0.8,0.5,1.1l0.5,0.8l0.3,0.5l1.4,2.4l0.1,0.1c0.1,0.1,0.2,0.3,0.3,0.5c0.3,0.6,0.7,1.5,0.9,2.2      c0.1,0.3,0.2,0.6,0.3,0.9c0.1,0.2,0.1,0.4,0.1,0.5s0,0.2,0.1,0.3c0,0.1,0,0.2,0.1,0.3l0,0c0,0.1,0,0.2,0.1,0.3      c0,0.1,0,0.2,0,0.3s0,0.2,0,0.3s0,0.2,0,0.3s0,0.2,0,0.3v0.1c0,0.1,0,0.2,0,0.3c0,0.5,0,0.9,0.1,1.4c0,0.2,0,0.5,0,0.7      s0,0.4,0,0.6c0,0.1,0,0.2,0,0.3c0,0.3,0,0.7,0.1,1c0,0.5,0,0.9,0.1,1.4c0,0.2,0,0.3,0,0.5s0,0.4,0,0.6c0,0.1,0,0.2,0,0.2      c0,0.5,0.1,0.9,0.1,1.4s0.1,0.9,0.1,1.4v0.1c0,0.2,0,0.3,0,0.5s0,0.5,0.1,0.7c0,0.5,0.1,0.9,0.1,1.4c0,0.3,0.1,0.7,0.1,1      c0,0.1,0,0.2,0,0.3s0,0.1,0,0.2c0,0.4,0.1,0.8,0.1,1.2c0,0.5,0.1,0.9,0.1,1.4c0,0.2,0,0.4,0.1,0.6c0,0.2,0,0.3,0.1,0.5      c0,0.1,0,0.2,0,0.2c0,0.5,0.1,0.9,0.1,1.4c0.1,0.5,0.1,0.9,0.2,1.4c0,0.1,0,0.1,0,0.2c0,0.2,0,0.3,0.1,0.5      c0,0.2,0.1,0.4,0.1,0.7c0.1,0.5,0.1,0.9,0.2,1.4c0,0.3,0.1,0.7,0.1,1c0,0.1,0,0.2,0,0.3c0,0.2,0.1,0.5,0.1,0.8      c0.1,0.5,0.2,1.1,0.2,1.7c0,0.3,0.1,0.7,0.1,1c0,0.1,0,0.3,0.1,0.4c0.1,0.8,0.3,1.7,0.4,2.5c0.1,0.9,0.3,1.7,0.4,2.4v0.1      c0,0.2,0.1,0.3,0.2,0.5c0.3,0.4,0.7,0.8,1.2,0.9c0.3,0.1,0.6,0.2,0.9,0.2c1,0.2,2,0.4,3.1,0.6c1,0.2,2,0.3,3,0.4      c0.2,0,0.5,0,0.7,0.1c0.7,0.1,1.5,0.1,2.3,0.2c0.2,0,0.5,0,0.7,0c0.8,0,1.7,0.1,2.5,0.1c0.2,0,0.3,0,0.5,0c0.9,0,1.7,0,2.6,0      c0.2,0,0.4,0,0.7,0c0.8,0,1.6,0,2.4-0.1c0.3,0,0.6,0,0.9-0.1c0.8-0.1,1.6-0.1,2.4-0.2c0.2,0,0.5,0,0.7-0.1c1-0.1,2-0.2,2.9-0.4      c1.2-0.2,2.3-0.4,3.3-0.7c0.2-0.1,0.5-0.1,0.7-0.2c0.5-0.1,0.9-0.4,1.2-0.8c0.1-0.2,0.2-0.4,0.3-0.6v-0.1      c0.1-0.7,0.3-1.5,0.4-2.4c0.1-0.7,0.2-1.5,0.4-2.3c0-0.2,0.1-0.5,0.1-0.7c0.1-0.3,0.1-0.7,0.1-1c0.1-0.6,0.2-1.1,0.2-1.6      c0-0.3,0.1-0.6,0.1-0.8s0-0.3,0.1-0.5c0-0.3,0.1-0.6,0.1-0.8c0.1-0.5,0.1-0.9,0.2-1.4c0-0.2,0.1-0.5,0.1-0.7s0-0.4,0.1-0.6v-0.1      c0.1-0.5,0.1-0.9,0.2-1.4s0.1-0.9,0.1-1.4c0-0.1,0-0.2,0-0.3c0-0.2,0-0.3,0.1-0.5c0-0.2,0-0.3,0.1-0.5c0-0.5,0.1-0.9,0.1-1.4      c0-0.4,0.1-0.8,0.1-1.2v-0.1c0-0.1,0-0.3,0-0.4c0-0.3,0.1-0.6,0.1-0.9c0-0.5,0.1-0.9,0.1-1.4c0-0.3,0-0.5,0.1-0.8      c0-0.2,0-0.3,0-0.5l0,0c0-0.5,0.1-0.9,0.1-1.4s0.1-0.9,0.1-1.4c0-0.1,0-0.2,0-0.4s0-0.3,0-0.5s0-0.3,0-0.5      c0-0.5,0.1-0.9,0.1-1.4c0-0.4,0-0.8,0.1-1.2c0-0.1,0-0.1,0-0.2c0-0.2,0-0.4,0-0.6c0-0.2,0-0.5,0-0.7c0-0.5,0-0.9,0.1-1.4      c0-0.1,0-0.2,0-0.3v-0.1c0-0.1,0-0.2,0-0.2c0-0.1,0-0.2,0-0.3s0-0.2,0-0.3s0-0.2,0-0.3s0-0.2,0-0.3c0,0,0,0,0-0.1s0-0.2,0.1-0.3      c0-0.1,0-0.2,0.1-0.3c0-0.2,0.1-0.4,0.1-0.6c0.1-0.2,0.1-0.5,0.2-0.8c0.3-0.8,0.6-1.6,0.9-2.2c0.1-0.2,0.2-0.4,0.3-0.5l0,0      l1.4-2.4l0.4-0.6l0.4-0.7c0.2-0.3,0.4-0.7,0.5-1.1c0.1-0.2,0.1-0.4,0.2-0.6c0-0.1,0.1-0.2,0.1-0.4c0.1-0.3,0.1-0.5,0.1-0.7      c0.1-0.6,0.2-1.3,0.3-2c0-0.2,0-0.3,0.1-0.5c0.1-1,0.2-2,0.3-3.1c0-0.2,0-0.4,0-0.5c0.1-1,0.1-2,0.2-3.1c0-0.2,0-0.4,0-0.6      c0-1,0.1-2.1,0.1-3.1c0-0.2,0-0.3,0-0.5C73,91.6,73,90.6,73,89.5z M24.6,102.2v-0.6v-3.1V98v-3.1v-0.5v-3.1v-0.5v-3.1v-0.5V84      v-0.5v-3.1v-0.6v-3.1v-0.5V73v-0.5v-3.1h1.3h0.6h3.2h0.6h1.8h0.7H36h0.7h1.9h0.6h3H43h1.8h0.7h3.1h0.7h1.8h0.7H55h0.6h1.9h0.6h3      h0.8h1.8h0.7h3.1h0.7h1.2v3V73v3.1v0.5v3.1v0.5v3.1v0.5v3.1v0.6v3.1v0.5v3.1v0.5v3.1v0.6v3.1v0.5v1.3h-1.9h-0.6h-1.8h-0.7h-3.1      h-3H55h-0.6h-1.8h-0.7h-3.2h-0.6h-1.8h-0.7h-3.1h-3.1H36h-0.6h-1.8h-0.7h-3.1h-0.7h-1.8h-0.6h-2.1V102.2z M37.4,112.1      c0-0.9,0.6-1.7,1.5-2c0.2,0,0.3-0.1,0.5-0.1c0,0,0,0,0.1,0c0.5,0,1,0.2,1.4,0.6c0.2,0.2,0.3,0.3,0.4,0.5      c0.1,0.2,0.2,0.4,0.2,0.6H42h0.7H45c0.1-0.4,0.2-0.8,0.5-1.1c0.1-0.2,0.3-0.3,0.5-0.4c0.3-0.2,0.6-0.3,1-0.3s0.8,0.1,1.1,0.3      c0.1,0.1,0.3,0.2,0.4,0.4c0.3,0.3,0.4,0.7,0.5,1.1h2.4h0.8h0.3c0-0.2,0.1-0.4,0.2-0.6c0.1-0.2,0.2-0.4,0.4-0.6      c0.4-0.4,0.9-0.6,1.4-0.6h0.1c0.2,0,0.4,0.1,0.6,0.1c0.7,0.3,1.3,1,1.3,1.9c0,0.1,0,0.2,0,0.4c0,0.2-0.1,0.4-0.2,0.6      c-0.2,0.4-0.6,0.8-1.1,1c-0.2,0.1-0.4,0.1-0.7,0.1c0,0,0,0-0.1,0c-0.9,0-1.7-0.7-1.9-1.5h-0.7H49c-0.1,0.4-0.3,0.8-0.6,1      c-0.4,0.3-0.8,0.5-1.3,0.5c-0.4,0-0.8-0.1-1.1-0.3c-0.4-0.3-0.8-0.7-0.9-1.2h-2.7h-1c-0.2,0.8-0.9,1.4-1.7,1.5      c-0.1,0-0.2,0-0.3,0s-0.2,0-0.3,0c-0.6-0.1-1.1-0.5-1.4-1c-0.1-0.2-0.2-0.4-0.2-0.5C37.4,112.4,37.4,112.2,37.4,112.1z       M62.4,131.8c0,0.2,0,0.4,0,0.6c0,0.2,0,0.4-0.1,0.6c0,0.2-0.1,0.4-0.1,0.6c0,0.2-0.1,0.4-0.1,0.6c-0.1,0.5-0.2,1-0.4,1.5      c-0.1,0.5-0.3,1-0.5,1.4c-0.2,0.5-0.4,0.9-0.6,1.4c-0.2,0.4-0.5,0.9-0.8,1.3c-0.6,0.8-1.2,1.6-1.9,2.3s-1.5,1.4-2.3,1.9      c-0.8,0.6-1.7,1-2.7,1.4c-0.9,0.4-1.9,0.7-2.9,0.9s-2,0.3-3,0.3s-2-0.1-3-0.3s-2-0.5-2.9-0.9s-1.8-0.9-2.7-1.4      c-0.8-0.6-1.6-1.2-2.3-1.9s-1.4-1.5-1.9-2.3c-0.3-0.4-0.5-0.9-0.8-1.3c-0.2-0.4-0.5-0.9-0.6-1.4c-0.2-0.5-0.4-0.9-0.5-1.4      s-0.3-1-0.4-1.5c0-0.1,0-0.2-0.1-0.3c0-0.1,0-0.2-0.1-0.3c0-0.1,0-0.2,0-0.3s0-0.2,0-0.3s0-0.2,0-0.3s0-0.2,0-0.3s0-0.2,0-0.3      s0-0.2,0-0.3s0-0.2,0-0.3c0-0.2,0-0.4,0-0.6c0-0.2,0-0.4,0-0.6c0-0.2,0-0.4,0.1-0.6c0-0.2,0.1-0.4,0.1-0.6      c0-0.2,0.1-0.4,0.1-0.6c0.1-0.5,0.2-1,0.4-1.5c0.1-0.5,0.3-1,0.5-1.4c0.2-0.5,0.4-0.9,0.6-1.4c0.2-0.4,0.5-0.9,0.8-1.3      c0.6-0.8,1.2-1.6,1.9-2.3s1.5-1.4,2.3-1.9c0.8-0.6,1.7-1,2.7-1.4c0.9-0.4,1.9-0.7,2.9-0.9s2-0.3,3-0.3s2,0.1,3,0.3      s2,0.5,2.9,0.9s1.8,0.9,2.7,1.4c0.8,0.6,1.6,1.2,2.3,1.9s1.4,1.5,1.9,2.3c0.3,0.4,0.5,0.9,0.8,1.3c0.2,0.4,0.5,0.9,0.6,1.4      c0.2,0.5,0.4,0.9,0.5,1.4s0.3,1,0.4,1.5c0,0.1,0,0.2,0.1,0.3c0,0.1,0,0.2,0.1,0.3c0,0.1,0,0.2,0,0.3s0,0.2,0,0.3s0,0.2,0,0.3      s0,0.2,0,0.3s0,0.2,0,0.3s0,0.2,0,0.3s0,0.2,0,0.3C62.4,131.4,62.4,131.6,62.4,131.8z"/>
			</g>
			<g>
				<defs>
					<rect id="SVGID_00000098935519047364125160000006817717957214650518_" x="11.1" y="50.1" width="71.5" height="134.4"/>
				</defs>
				<clipPath id="SVGID_00000030464761930811177290000010343117328420614572_">
					<use xlink:href="#SVGID_00000098935519047364125160000006817717957214650518_" style="overflow:visible;"/>
				</clipPath>
				<path style="clip-path:url(#SVGID_00000030464761930811177290000010343117328420614572_);fill:#EC1C24;" d="M55.4,111.1      c-0.1-0.1-0.3-0.2-0.4-0.3c-0.2-0.1-0.3-0.1-0.5-0.1s-0.3,0-0.5,0.1s-0.3,0.2-0.4,0.3c-0.1,0.1-0.2,0.3-0.3,0.4      c-0.1,0.2-0.1,0.3-0.1,0.5s0,0.3,0.1,0.5s0.2,0.3,0.3,0.4s0.3,0.2,0.4,0.3c0.2,0.1,0.3,0.1,0.5,0.1s0.3,0,0.5-0.1      s0.3-0.2,0.4-0.3c0.1-0.1,0.2-0.3,0.3-0.4c0.1-0.2,0.1-0.3,0.1-0.5s0-0.3-0.1-0.5C55.6,111.4,55.5,111.2,55.4,111.1"/>
			</g>
			<g>
				<defs>
					<rect id="SVGID_00000005234313034749095340000014711093978854028716_" x="11.1" y="50.1" width="71.5" height="134.4"/>
				</defs>
				<clipPath id="SVGID_00000045578485523743412330000001590885129518129815_">
					<use xlink:href="#SVGID_00000005234313034749095340000014711093978854028716_" style="overflow:visible;"/>
				</clipPath>
				<path style="clip-path:url(#SVGID_00000045578485523743412330000001590885129518129815_);fill:#FFF100;" d="M47.9,111.1      c-0.1-0.1-0.3-0.2-0.4-0.3c-0.2-0.1-0.3-0.1-0.5-0.1s-0.3,0-0.5,0.1s-0.3,0.2-0.4,0.3c-0.1,0.1-0.2,0.3-0.3,0.4      c-0.1,0.2-0.1,0.3-0.1,0.5s0,0.3,0.1,0.5s0.2,0.3,0.3,0.4s0.3,0.2,0.4,0.3c0.2,0.1,0.3,0.1,0.5,0.1s0.3,0,0.5-0.1      s0.3-0.2,0.4-0.3c0.1-0.1,0.2-0.3,0.3-0.4c0.1-0.2,0.1-0.3,0.1-0.5s0-0.3-0.1-0.5C48.1,111.4,48,111.2,47.9,111.1"/>
			</g>
			<g>
				<defs>
					<rect id="SVGID_00000121256948047541942130000006570465307075822231_" x="11.1" y="50.1" width="71.5" height="134.4"/>
				</defs>
				<clipPath id="SVGID_00000052808549306741486970000005562339779441645216_">
					<use xlink:href="#SVGID_00000121256948047541942130000006570465307075822231_" style="overflow:visible;"/>
				</clipPath>
				<path style="clip-path:url(#SVGID_00000052808549306741486970000005562339779441645216_);fill:#FFF100;" d="M47.9,111.1      c-0.1-0.1-0.3-0.2-0.4-0.3c-0.2-0.1-0.3-0.1-0.5-0.1s-0.3,0-0.5,0.1s-0.3,0.2-0.4,0.3c-0.1,0.1-0.2,0.3-0.3,0.4      c-0.1,0.2-0.1,0.3-0.1,0.5s0,0.3,0.1,0.5s0.2,0.3,0.3,0.4s0.3,0.2,0.4,0.3c0.2,0.1,0.3,0.1,0.5,0.1s0.3,0,0.5-0.1      s0.3-0.2,0.4-0.3c0.1-0.1,0.2-0.3,0.3-0.4c0.1-0.2,0.1-0.3,0.1-0.5s0-0.3-0.1-0.5C48.1,111.4,48,111.2,47.9,111.1"/>
			</g>
			<g>
				<defs>
					<rect id="SVGID_00000005244418836881674120000015485042262547720121_" x="11.1" y="50.1" width="71.5" height="134.4"/>
				</defs>
				<clipPath id="SVGID_00000088100020686139473810000016229820420033661870_">
					<use xlink:href="#SVGID_00000005244418836881674120000015485042262547720121_" style="overflow:visible;"/>
				</clipPath>
				<path style="clip-path:url(#SVGID_00000088100020686139473810000016229820420033661870_);fill:#EC1C24;" d="M55.4,111.1      c-0.1-0.1-0.3-0.2-0.4-0.3c-0.2-0.1-0.3-0.1-0.5-0.1s-0.3,0-0.5,0.1s-0.3,0.2-0.4,0.3c-0.1,0.1-0.2,0.3-0.3,0.4      c-0.1,0.2-0.1,0.3-0.1,0.5s0,0.3,0.1,0.5s0.2,0.3,0.3,0.4s0.3,0.2,0.4,0.3c0.2,0.1,0.3,0.1,0.5,0.1s0.3,0,0.5-0.1      s0.3-0.2,0.4-0.3c0.1-0.1,0.2-0.3,0.3-0.4c0.1-0.2,0.1-0.3,0.1-0.5s0-0.3-0.1-0.5C55.6,111.4,55.5,111.2,55.4,111.1"/>
			</g>
			<g>
				<defs>
					<rect id="SVGID_00000109725317754113928620000014342270905015772303_" x="11.1" y="50.1" width="71.5" height="134.4"/>
				</defs>
				<clipPath id="SVGID_00000030461222096736097890000006211823458335389095_">
					<use xlink:href="#SVGID_00000109725317754113928620000014342270905015772303_" style="overflow:visible;"/>
				</clipPath>
				<path style="clip-path:url(#SVGID_00000030461222096736097890000006211823458335389095_);fill:#1F2123;" d="M40.4,111.1      c-0.1-0.1-0.3-0.2-0.4-0.3c-0.2-0.1-0.3-0.1-0.5-0.1s-0.4,0-0.5,0.1c-0.2,0.1-0.3,0.2-0.4,0.3c-0.1,0.1-0.2,0.3-0.3,0.4      c-0.1,0.2-0.1,0.3-0.1,0.5s0,0.4,0.1,0.5c0.1,0.2,0.2,0.3,0.3,0.4s0.3,0.2,0.4,0.3c0.2,0.1,0.3,0.1,0.5,0.1s0.4,0,0.5-0.1      c0.2-0.1,0.3-0.2,0.4-0.3s0.2-0.3,0.3-0.4c0.1-0.2,0.1-0.3,0.1-0.5s0-0.4-0.1-0.5C40.7,111.3,40.6,111.2,40.4,111.1"/>
			</g>
			<g>
				<defs>
					<rect id="SVGID_00000161627526274523589060000016904831318939434914_" x="11.1" y="50.1" width="71.5" height="134.4"/>
				</defs>
				<clipPath id="SVGID_00000119115632746787605940000014018680741973819315_">
					<use xlink:href="#SVGID_00000161627526274523589060000016904831318939434914_" style="overflow:visible;"/>
				</clipPath>
				<path style="clip-path:url(#SVGID_00000119115632746787605940000014018680741973819315_);fill:#1F2123;" d="M47.9,111.1      c-0.1-0.1-0.3-0.2-0.4-0.3c-0.2-0.1-0.3-0.1-0.5-0.1s-0.4,0-0.5,0.1c-0.2,0.1-0.3,0.2-0.4,0.3c-0.1,0.1-0.2,0.3-0.3,0.4      c-0.1,0.2-0.1,0.3-0.1,0.5s0,0.4,0.1,0.5c0.1,0.2,0.2,0.3,0.3,0.4s0.3,0.2,0.4,0.3c0.2,0.1,0.3,0.1,0.5,0.1s0.4,0,0.5-0.1      c0.2-0.1,0.3-0.2,0.4-0.3c0.1-0.1,0.2-0.3,0.3-0.4c0.1-0.2,0.1-0.3,0.1-0.5s0-0.4-0.1-0.5C48.1,111.3,48,111.2,47.9,111.1"/>
			</g>
			<g>
				<defs>
					<rect id="SVGID_00000171679842627009070280000007013573554975613624_" x="11.1" y="50.1" width="71.5" height="134.4"/>
				</defs>
				<clipPath id="SVGID_00000059282525271753747250000007361879531643414952_">
					<use xlink:href="#SVGID_00000171679842627009070280000007013573554975613624_" style="overflow:visible;"/>
				</clipPath>
				<path style="clip-path:url(#SVGID_00000059282525271753747250000007361879531643414952_);fill:#1F2123;" d="M55.4,111.1      c-0.1-0.1-0.3-0.2-0.4-0.3c-0.2-0.1-0.3-0.1-0.5-0.1s-0.4,0-0.5,0.1c-0.2,0.1-0.3,0.2-0.4,0.3c-0.1,0.1-0.2,0.3-0.3,0.4      c-0.1,0.2-0.1,0.3-0.1,0.5s0,0.4,0.1,0.5c0.1,0.2,0.2,0.3,0.3,0.4s0.3,0.2,0.4,0.3c0.2,0.1,0.3,0.1,0.5,0.1s0.4,0,0.5-0.1      c0.2-0.1,0.3-0.2,0.4-0.3c0.1-0.1,0.2-0.3,0.3-0.4c0.1-0.2,0.1-0.3,0.1-0.5s0-0.4-0.1-0.5C55.6,111.3,55.5,111.2,55.4,111.1"/>
			</g>
			<g>
				<defs>
					<rect id="SVGID_00000003064817233043008560000016598995365835982246_" x="11.1" y="50.1" width="71.5" height="134.4"/>
				</defs>
				<clipPath id="SVGID_00000059993243378280592300000002795066014125919397_">
					<use xlink:href="#SVGID_00000003064817233043008560000016598995365835982246_" style="overflow:visible;"/>
				</clipPath>
				<path style="clip-path:url(#SVGID_00000059993243378280592300000002795066014125919397_);fill:#FFFFFF;" d="M54.4,110      c-1,0-1.9,0.8-2,1.8H49c-0.1-1-1-1.8-2-1.8s-1.9,0.8-2,1.8h-3.5c-0.1-1-1-1.8-2-1.8c-1.1,0-2,0.9-2,2c0,1.1,0.9,2,2,2      c0.9,0,1.7-0.7,1.9-1.5H45c0.2,0.9,1,1.5,1.9,1.5s1.7-0.7,1.9-1.5h3.6c0.2,0.9,1,1.5,1.9,1.5c1.1,0,2-0.9,2-2      C56.4,110.9,55.5,110,54.4,110 M40.7,112.5c-0.1,0.2-0.2,0.3-0.3,0.4s-0.3,0.2-0.4,0.3c-0.2,0.1-0.3,0.1-0.5,0.1s-0.3,0-0.5-0.1      s-0.3-0.2-0.4-0.3c-0.1-0.1-0.2-0.3-0.3-0.4c-0.1-0.2-0.1-0.3-0.1-0.5s0-0.3,0.1-0.5s0.2-0.3,0.3-0.4s0.3-0.2,0.4-0.3      c0.2-0.1,0.3-0.1,0.5-0.1s0.3,0,0.5,0.1s0.3,0.2,0.4,0.3c0.1,0.1,0.2,0.3,0.3,0.4c0.1,0.2,0.1,0.3,0.1,0.5      C40.8,112.2,40.8,112.4,40.7,112.5 M48.2,112.5c-0.1,0.2-0.2,0.3-0.3,0.4s-0.3,0.2-0.4,0.3c-0.2,0.1-0.3,0.1-0.5,0.1      s-0.3,0-0.5-0.1s-0.3-0.2-0.4-0.3c-0.1-0.1-0.2-0.3-0.3-0.4c-0.1-0.2-0.1-0.3-0.1-0.5s0-0.3,0.1-0.5s0.2-0.3,0.3-0.4      s0.3-0.2,0.4-0.3c0.2-0.1,0.3-0.1,0.5-0.1s0.3,0,0.5,0.1s0.3,0.2,0.4,0.3c0.1,0.1,0.2,0.3,0.3,0.4c0.1,0.2,0.1,0.3,0.1,0.5      C48.3,112.2,48.2,112.4,48.2,112.5 M55.7,112.5c-0.1,0.2-0.2,0.3-0.3,0.4s-0.3,0.2-0.4,0.3c-0.2,0.1-0.3,0.1-0.5,0.1      s-0.3,0-0.5-0.1s-0.3-0.2-0.4-0.3c-0.1-0.1-0.2-0.3-0.3-0.4c-0.1-0.2-0.1-0.3-0.1-0.5s0-0.3,0.1-0.5s0.2-0.3,0.3-0.4      s0.3-0.2,0.4-0.3c0.2-0.1,0.3-0.1,0.5-0.1s0.3,0,0.5,0.1s0.3,0.2,0.4,0.3c0.1,0.1,0.2,0.3,0.3,0.4c0.1,0.2,0.1,0.3,0.1,0.5      C55.8,112.2,55.7,112.4,55.7,112.5"/>
			</g>
		</g>
		<rect x="47.4" y="149" class="st10" width="0.8" height="2.8"/>
		<g>
			<g>
				<defs>
					<rect id="SVGID_00000142870061973011916900000007830311971866805646_" x="11.1" y="50.1" width="71.5" height="134.4"/>
				</defs>
				<clipPath id="SVGID_00000090995358518662875850000018424788067865906828_">
					<use xlink:href="#SVGID_00000142870061973011916900000007830311971866805646_" style="overflow:visible;"/>
				</clipPath>
				<path style="clip-path:url(#SVGID_00000090995358518662875850000018424788067865906828_);fill:#FFFFFF;" d="M48.3,149H49      l0.6,1.7l0,0c0-0.3-0.1-0.7-0.1-1V149h0.7v2.8h-0.7l-0.6-1.6l0,0c0,0.3,0.1,0.5,0.1,0.8v0.8h-0.7V149z"/>
			</g>
			<g>
				<defs>
					<rect id="SVGID_00000098213027166969263200000005473167225711341478_" x="11.1" y="50.1" width="71.5" height="134.4"/>
				</defs>
				<clipPath id="SVGID_00000143600133734853990700000011798666639940636084_">
					<use xlink:href="#SVGID_00000098213027166969263200000005473167225711341478_" style="overflow:visible;"/>
				</clipPath>
				<path style="clip-path:url(#SVGID_00000143600133734853990700000011798666639940636084_);fill:#FFFFFF;" d="M50.4,149h0.7      l0.6,1.7l0,0c0-0.3-0.1-0.7-0.1-1V149h0.7v2.8h-0.7l-0.6-1.6l0,0c0,0.3,0.1,0.5,0.1,0.8v0.8h-0.7V149z"/>
			</g>
			<g>
				<defs>
					<rect id="SVGID_00000181045868536020078920000008840287748750488231_" x="11.1" y="50.1" width="71.5" height="134.4"/>
				</defs>
				<clipPath id="SVGID_00000183212129266062761300000011000297387474573756_">
					<use xlink:href="#SVGID_00000181045868536020078920000008840287748750488231_" style="overflow:visible;"/>
				</clipPath>
				<path style="clip-path:url(#SVGID_00000183212129266062761300000011000297387474573756_);fill:#FFFFFF;" d="M56.2,151.9      l-0.6-2.8h0.8l0.2,1.2c0,0.2,0.1,0.5,0.1,0.7l0,0c0-0.2,0-0.5,0.1-0.7l0.2-1.2h0.8l-0.8,2.8H56.2z"/>
			</g>
			<g>
				<defs>
					<rect id="SVGID_00000116923402960210017190000014567201681646157463_" x="11.1" y="50.1" width="71.5" height="134.4"/>
				</defs>
				<clipPath id="SVGID_00000041263522764131248820000018075836373145611186_">
					<use xlink:href="#SVGID_00000116923402960210017190000014567201681646157463_" style="overflow:visible;"/>
				</clipPath>
				<path style="clip-path:url(#SVGID_00000041263522764131248820000018075836373145611186_);fill:#FFFFFF;" d="M58.5,150.9      l-0.1-0.7c0-0.2,0-0.4-0.1-0.5l0,0c0,0.2,0,0.4-0.1,0.5l-0.1,0.7H58.5z M58.6,151.9l-0.1-0.4H58l-0.1,0.4h-0.8l0.7-2.8h0.9      l0.6,2.8H58.6z"/>
			</g>
			<g>
				<defs>
					<rect id="SVGID_00000148654210954183029140000009496750235209413021_" x="11.1" y="50.1" width="71.5" height="134.4"/>
				</defs>
				<clipPath id="SVGID_00000132771225431069812480000013350329750423004063_">
					<use xlink:href="#SVGID_00000148654210954183029140000009496750235209413021_" style="overflow:visible;"/>
				</clipPath>
				<path style="clip-path:url(#SVGID_00000132771225431069812480000013350329750423004063_);fill:#FFFFFF;" d="M59.3,149.4v-0.2      h0.1c0.1,0,0.1,0,0.1,0.1C59.5,149.4,59.4,149.4,59.3,149.4L59.3,149.4z M59.3,149.5L59.3,149.5l0.2,0.2h0.1l-0.1-0.2      c0.1,0,0.1,0,0.1-0.1s0-0.1-0.1-0.1h-0.2v0.4h0.1L59.3,149.5L59.3,149.5z M59.4,149.1c0.2,0,0.3,0.1,0.3,0.3s-0.1,0.3-0.3,0.3      s-0.3-0.1-0.3-0.3C59.1,149.2,59.2,149.1,59.4,149.1 M59.4,149c-0.2,0-0.4,0.2-0.4,0.4s0.2,0.4,0.4,0.4s0.4-0.2,0.4-0.4      C59.8,149.2,59.6,149,59.4,149"/>
			</g>
			<g>
				<defs>
					<rect id="SVGID_00000105428103817408723900000003825013709431226760_" x="11.1" y="50.1" width="71.5" height="134.4"/>
				</defs>
				<clipPath id="SVGID_00000111888858567004813410000014624003968344629384_">
					<use xlink:href="#SVGID_00000105428103817408723900000003825013709431226760_" style="overflow:visible;"/>
				</clipPath>
				<path style="clip-path:url(#SVGID_00000111888858567004813410000014624003968344629384_);fill:#FFFFFF;" d="M54.1,148.9      c-0.8,0-1.5,0.7-1.5,1.5s0.7,1.5,1.5,1.5s1.5-0.7,1.5-1.5S55,148.9,54.1,148.9 M54.1,151.6c-0.6,0-1.1-0.5-1.1-1.1      s0.5-1.1,1.1-1.1s1.1,0.5,1.1,1.1C55.3,151.1,54.8,151.6,54.1,151.6"/>
			</g>
			<g>
				<defs>
					<rect id="SVGID_00000161591962809331276670000011528767739224844969_" x="11.1" y="50.1" width="71.5" height="134.4"/>
				</defs>
				<clipPath id="SVGID_00000052808536891600677630000009125713923388704943_">
					<use xlink:href="#SVGID_00000161591962809331276670000011528767739224844969_" style="overflow:visible;"/>
				</clipPath>
				<path style="clip-path:url(#SVGID_00000052808536891600677630000009125713923388704943_);fill:#FFFFFF;" d="M54.1,149.6      c-0.5,0-0.9,0.4-0.9,0.9s0.4,0.9,0.9,0.9s0.9-0.4,0.9-0.9S54.6,149.6,54.1,149.6"/>
			</g>
			<g>
				<defs>
					<rect id="SVGID_00000148618969177278715640000010826751668019657137_" x="11.1" y="50.1" width="71.5" height="134.4"/>
				</defs>
				<clipPath id="SVGID_00000012461397387275436710000014748998417324317059_">
					<use xlink:href="#SVGID_00000148618969177278715640000010826751668019657137_" style="overflow:visible;"/>
				</clipPath>
				<path style="clip-path:url(#SVGID_00000012461397387275436710000014748998417324317059_);fill:#FFFFFF;" d="M34.1,151.9v-1.7      h0.4c0.1,0,0.3,0,0.3,0c0.1,0,0.1,0,0.2,0.1c0.1,0,0.1,0.1,0.1,0.2c0,0.1,0,0.2,0,0.3c0,0.2,0,0.3-0.1,0.4      c-0.1,0.1-0.2,0.1-0.4,0.1h-0.1v0.7h-0.4V151.9z M34.5,150.9L34.5,150.9L34.5,150.9c0.1,0,0.2,0,0.2-0.1c0,0,0.1-0.1,0.1-0.2      c0-0.1,0-0.1-0.1-0.2c0,0-0.1,0-0.2,0l0,0V150.9z"/>
			</g>
			<g>
				<defs>
					<rect id="SVGID_00000065757500743040228940000011415402226832642463_" x="11.1" y="50.1" width="71.5" height="134.4"/>
				</defs>
				<clipPath id="SVGID_00000032612169253273403900000002461566027673949836_">
					<use xlink:href="#SVGID_00000065757500743040228940000011415402226832642463_" style="overflow:visible;"/>
				</clipPath>
				<path style="clip-path:url(#SVGID_00000032612169253273403900000002461566027673949836_);fill:#FFFFFF;" d="M35.4,151      c0-0.2,0-0.4,0-0.5s0-0.2,0.1-0.2c0-0.1,0.1-0.1,0.2-0.2c0.1,0,0.2-0.1,0.3-0.1s0.2,0,0.3,0.1c0.1,0,0.1,0.1,0.2,0.2      c0,0.1,0.1,0.1,0.1,0.2c0,0.1,0,0.2,0,0.5c0,0.2,0,0.4,0,0.5s0,0.2-0.1,0.2c0,0.1-0.1,0.1-0.2,0.2c-0.1,0-0.2,0.1-0.3,0.1      s-0.2,0-0.3-0.1c-0.1,0-0.1-0.1-0.2-0.2c0-0.1-0.1-0.1-0.1-0.2C35.4,151.4,35.4,151.2,35.4,151 M36.1,151.2v-0.3      c0-0.2,0-0.3,0-0.4l-0.1-0.1c-0.1,0-0.1,0-0.1,0.1c0,0,0,0.2,0,0.4v0.3c0,0.2,0,0.3,0,0.4l0.1,0.1c0.1,0,0.1,0,0.1-0.1      C36.1,151.5,36.1,151.4,36.1,151.2"/>
			</g>
			<g>
				<defs>
					<rect id="SVGID_00000151526302093128022580000007799801457606428843_" x="11.1" y="50.1" width="71.5" height="134.4"/>
				</defs>
				<clipPath id="SVGID_00000166660122924820355600000003630331566597954976_">
					<use xlink:href="#SVGID_00000151526302093128022580000007799801457606428843_" style="overflow:visible;"/>
				</clipPath>
				<path style="clip-path:url(#SVGID_00000166660122924820355600000003630331566597954976_);fill:#FFFFFF;" d="M37,151.9l-0.3-1.7      h0.4l0.1,0.8c0,0.1,0,0.2,0,0.2c0,0.1,0,0.1,0,0.2c0-0.1,0-0.1,0-0.2c0-0.1,0-0.1,0-0.2l0.1-0.8h0.4l0.1,0.8c0,0,0,0.1,0,0.2      c0,0.1,0,0.1,0,0.2c0-0.1,0-0.2,0-0.2c0-0.1,0-0.1,0-0.1l0.1-0.8h0.4L38,152h-0.4l-0.1-0.7c0-0.1,0-0.1,0-0.2c0-0.1,0-0.1,0-0.2      c0,0.1,0,0.2,0,0.2c0,0.1,0,0.1,0,0.2l-0.1,0.7L37,151.9L37,151.9z"/>
			</g>
		</g>
		<polygon class="st10" points="38.6,150.2 38.6,151.9 39.5,151.9 39.5,151.5 39,151.5 39,151.2 39.5,151.2 39.5,150.8 39,150.8     39,150.5 39.5,150.5 39.5,150.2   "/>
		<g>
			<g>
				<defs>
					<rect id="SVGID_00000052084950421588745270000000151680862049184189_" x="11.1" y="50.1" width="71.5" height="134.4"/>
				</defs>
				<clipPath id="SVGID_00000007430655724868365520000011685598532351207836_">
					<use xlink:href="#SVGID_00000052084950421588745270000000151680862049184189_" style="overflow:visible;"/>
				</clipPath>
				<path style="clip-path:url(#SVGID_00000007430655724868365520000011685598532351207836_);fill:#FFFFFF;" d="M39.8,151.9v-1.7      h0.5c0.1,0,0.3,0,0.3,0c0.1,0,0.1,0,0.2,0.1l0.1,0.1c0,0.1,0,0.1,0,0.2c0,0.1,0,0.2-0.1,0.3c0,0.1-0.1,0.1-0.2,0.2      c0.1,0.1,0.2,0.2,0.2,0.4l0,0v0.1c0,0.2,0,0.3,0.1,0.4h-0.5v-0.1v-0.1v-0.1v-0.1c0-0.1,0-0.2,0-0.2l-0.1-0.1h-0.1v0.7      L39.8,151.9L39.8,151.9z M40.2,150.9L40.2,150.9L40.2,150.9c0.1,0,0.2,0,0.2,0s0.1-0.1,0.1-0.2c0-0.1,0-0.1-0.1-0.2      c0,0-0.1,0-0.2,0l0,0l0,0V150.9z"/>
			</g>
		</g>
		<polygon class="st10" points="41.1,150.2 41.1,151.9 42.1,151.9 42.1,151.5 41.5,151.5 41.5,151.2 42,151.2 42,150.8 41.5,150.8     41.5,150.5 42.1,150.5 42.1,150.2   "/>
		<g>
			<g>
				<defs>
					<rect id="SVGID_00000093166002598729573490000007943940795961947310_" x="11.1" y="50.1" width="71.5" height="134.4"/>
				</defs>
				<clipPath id="SVGID_00000181076789042675605460000014727162882476050608_">
					<use xlink:href="#SVGID_00000093166002598729573490000007943940795961947310_" style="overflow:visible;"/>
				</clipPath>
				<path style="clip-path:url(#SVGID_00000181076789042675605460000014727162882476050608_);fill:#FFFFFF;" d="M42.3,151.9v-1.7      h0.4c0.2,0,0.3,0,0.4,0c0.1,0,0.1,0.1,0.2,0.1c0,0.1,0.1,0.1,0.1,0.2c0,0.1,0,0.2,0,0.5c0,0.2,0,0.4,0,0.5s0,0.2-0.1,0.2      c0,0.1-0.1,0.1-0.2,0.1c-0.1,0-0.2,0-0.4,0L42.3,151.9L42.3,151.9z M42.7,150.5v1.1l0,0l0,0h0.1c0,0,0.1,0,0.1-0.1v-0.1      c0-0.1,0-0.2,0-0.4l0,0c0-0.1,0-0.2,0-0.3s0-0.1,0-0.1S42.9,150.6,42.7,150.5C42.8,150.5,42.8,150.5,42.7,150.5L42.7,150.5      L42.7,150.5"/>
			</g>
			<g>
				<defs>
					<rect id="SVGID_00000011732041253047157710000014603947557535838373_" x="11.1" y="50.1" width="71.5" height="134.4"/>
				</defs>
				<clipPath id="SVGID_00000149364664993209712960000017617823667814875318_">
					<use xlink:href="#SVGID_00000011732041253047157710000014603947557535838373_" style="overflow:visible;"/>
				</clipPath>
				<path style="clip-path:url(#SVGID_00000149364664993209712960000017617823667814875318_);fill:#FFFFFF;" d="M44.2,151.9v-1.7      h0.4c0.1,0,0.2,0,0.3,0s0.1,0,0.1,0.1c0.1,0,0.1,0.1,0.1,0.1c0,0.1,0,0.1,0,0.2c0,0.1,0,0.1,0,0.2c0,0.1-0.1,0.1-0.1,0.2      c0.1,0,0.1,0.1,0.2,0.2c0,0.1,0.1,0.1,0.1,0.2c0,0.1,0,0.2,0,0.2s-0.1,0.1-0.1,0.2c0,0-0.1,0.1-0.2,0.1s-0.2,0-0.3,0H44.2z       M44.6,150.8L44.6,150.8c0.1,0,0.2,0,0.2-0.1c0,0,0.1-0.1,0.1-0.2c0-0.1,0-0.1-0.1-0.1c0,0-0.1,0-0.2,0l0,0l0,0V150.8z       M44.6,151.6L44.6,151.6c0.1,0,0.2,0,0.2-0.1c0,0,0.1-0.1,0.1-0.2c0-0.1,0-0.1-0.1-0.2c0,0-0.1-0.1-0.2-0.1l0,0V151.6z"/>
			</g>
		</g>
		<polygon class="st10" points="45.7,151.9 45.7,151.2 45.3,150.2 45.8,150.2 45.9,150.7 46.1,150.2 46.5,150.2 46.1,151.2     46.1,151.9   "/>
		<g>
			<g>
				<defs>
					<rect id="SVGID_00000085229311003975389410000016974798854573558463_" x="11.1" y="50.1" width="71.5" height="134.4"/>
				</defs>
				<clipPath id="SVGID_00000106865449309404064640000015338333512906363310_">
					<use xlink:href="#SVGID_00000085229311003975389410000016974798854573558463_" style="overflow:visible;"/>
				</clipPath>
				<path style="clip-path:url(#SVGID_00000106865449309404064640000015338333512906363310_);fill:#FFFFFF;" d="M47.2,108.6h-0.6      v-0.1c0-0.1,0-0.2,0.1-0.2c0.1-0.1,0.2-0.1,0.4-0.2s0.3-0.1,0.4-0.2c0.1,0,0.1-0.1,0.1-0.1c0-0.1-0.1-0.1-0.2-0.2      c-0.1,0-0.3-0.1-0.4-0.1c-0.2,0-0.3,0-0.4,0.1c-0.1,0-0.2,0.1-0.2,0.2h-0.6c0-0.1,0.1-0.3,0.4-0.4c0.2-0.1,0.5-0.2,0.9-0.2      s0.7,0.1,1,0.2c0.2,0.1,0.4,0.2,0.4,0.4c0,0.1,0,0.1-0.1,0.2s-0.3,0.2-0.6,0.3c-0.1,0.1-0.2,0.1-0.3,0.1      C47.2,108.4,47.2,108.5,47.2,108.6 M46.6,108.7h0.6v0.3h-0.6V108.7z"/>
			</g>
		</g>
		<path class="st79" d="M55.4,107.2l-2.5,1.7 M52.9,107.2l2.5,1.7 M38.6,108.1l0.6,0.8l1.5-1.7"/>
		<g>
			<g>
				<defs>
					<rect id="SVGID_00000070092741162478978710000015883571135618383529_" x="11.1" y="50.1" width="71.5" height="134.4"/>
				</defs>
				<clipPath id="SVGID_00000001628498895590265680000016887844195244910015_">
					<use xlink:href="#SVGID_00000070092741162478978710000015883571135618383529_" style="overflow:visible;"/>
				</clipPath>
				<path style="clip-path:url(#SVGID_00000001628498895590265680000016887844195244910015_);fill:#1F2123;" d="M62.4,131.1      c0,8.5-6.9,15.5-15.3,15.5s-15.3-6.9-15.3-15.5c0-8.5,6.9-15.5,15.3-15.5S62.4,122.6,62.4,131.1"/>
			</g>
			<g>
				<defs>
					<rect id="SVGID_00000054962269662249826210000016721876779295682234_" x="11.1" y="50.1" width="71.5" height="134.4"/>
				</defs>
				<clipPath id="SVGID_00000054227638650099532290000006987740812749624255_">
					<use xlink:href="#SVGID_00000054962269662249826210000016721876779295682234_" style="overflow:visible;"/>
				</clipPath>
				
					<ellipse style="clip-path:url(#SVGID_00000054227638650099532290000006987740812749624255_);fill:none;stroke:#FFFFFF;stroke-width:0.4;" cx="47" cy="131.1" rx="15.4" ry="15.5"/>
			</g>
			<g>
				<defs>
					<rect id="SVGID_00000034768487247501637390000007063307070302559422_" x="11.1" y="50.1" width="71.5" height="134.4"/>
				</defs>
				<clipPath id="SVGID_00000132068555875354519690000009204876564571131838_">
					<use xlink:href="#SVGID_00000034768487247501637390000007063307070302559422_" style="overflow:visible;"/>
				</clipPath>
				<path style="clip-path:url(#SVGID_00000132068555875354519690000009204876564571131838_);fill:#1F2123;" d="M47.3,129.5l9.2-9.3      c0.5-0.5-0.2-1-0.2-1c-5.6-4.4-13.6-4.3-19,0.4c0,0-0.3,0.4,0.1,0.8l9.2,9.3C46.8,129.8,46.9,129.9,47.3,129.5"/>
			</g>
			<g>
				<defs>
					<rect id="SVGID_00000031178203324178357650000009395413812899959740_" x="11.1" y="50.1" width="71.5" height="134.4"/>
				</defs>
				<clipPath id="SVGID_00000018233345338639559480000017262318138918906007_">
					<use xlink:href="#SVGID_00000031178203324178357650000009395413812899959740_" style="overflow:visible;"/>
				</clipPath>
				
					<path style="clip-path:url(#SVGID_00000018233345338639559480000017262318138918906007_);fill:none;stroke:#FFFFFF;stroke-width:0.2;stroke-linecap:round;stroke-linejoin:round;stroke-miterlimit:3.864;" d="      M47.3,129.5l9.3-9.4c0.5-0.5-0.2-1-0.2-1c-5.6-4.5-13.6-4.4-19.1,0.4c0,0-0.3,0.4,0.1,0.8l9.2,9.3      C46.8,129.8,46.9,129.9,47.3,129.5z"/>
			</g>
			<g>
				<defs>
					<rect id="SVGID_00000014614901654491200010000002072067273817227171_" x="11.1" y="50.1" width="71.5" height="134.4"/>
				</defs>
				<clipPath id="SVGID_00000036936689441788619410000014221267743539244181_">
					<use xlink:href="#SVGID_00000014614901654491200010000002072067273817227171_" style="overflow:visible;"/>
				</clipPath>
				<path style="clip-path:url(#SVGID_00000036936689441788619410000014221267743539244181_);fill:#1F2123;" d="M48.7,130.7l9.2-9.2      c0.5-0.5,1,0.2,1,0.2c4.4,5.6,4.3,13.7-0.3,19.1c0,0-0.4,0.3-0.8-0.1l-9-9C48.6,131.5,48.3,131.1,48.7,130.7"/>
			</g>
			<g>
				<defs>
					<rect id="SVGID_00000046308244119583103950000006570280481728973441_" x="11.1" y="50.1" width="71.5" height="134.4"/>
				</defs>
				<clipPath id="SVGID_00000010276610642885406930000012018170904004464802_">
					<use xlink:href="#SVGID_00000046308244119583103950000006570280481728973441_" style="overflow:visible;"/>
				</clipPath>
				
					<path style="clip-path:url(#SVGID_00000010276610642885406930000012018170904004464802_);fill:none;stroke:#FFFFFF;stroke-width:0.2;stroke-miterlimit:3.864;" d="      M45.2,131.6l-9.1,9.1c-0.5,0.5-1-0.2-1-0.2c-4.4-5.6-4.3-13.7,0.3-19.2c0,0,0.4-0.4,0.8,0.1l9.1,9.2      C45.6,130.7,45.6,131.2,45.2,131.6z M48.7,130.7l9.2-9.3c0.5-0.5,1,0.2,1,0.2c4.4,5.6,4.3,13.7-0.3,19.2c0,0-0.4,0.4-0.8-0.1      l-9-9.1C48.6,131.5,48.3,131.1,48.7,130.7z"/>
			</g>
			<g>
				<defs>
					<rect id="SVGID_00000057846057403215122670000002753660908929683887_" x="11.1" y="50.1" width="71.5" height="134.4"/>
				</defs>
				<clipPath id="SVGID_00000153692567829638878050000015550863866486102206_">
					<use xlink:href="#SVGID_00000057846057403215122670000002753660908929683887_" style="overflow:visible;"/>
				</clipPath>
				<path style="clip-path:url(#SVGID_00000153692567829638878050000015550863866486102206_);fill:#1F2123;" d="M46.6,132.8      l-9.2,9.2c-0.5,0.5,0.2,1,0.2,1c5.6,4.4,13.6,4.3,19-0.4c0,0,0.3-0.4-0.1-0.8l-9-9.1C47.4,132.6,47.1,132.4,46.6,132.8"/>
			</g>
			<g>
				<defs>
					<rect id="SVGID_00000142894287711744428710000013880022009166996131_" x="11.1" y="50.1" width="71.5" height="134.4"/>
				</defs>
				<clipPath id="SVGID_00000059280129452963651810000006299195346323095216_">
					<use xlink:href="#SVGID_00000142894287711744428710000013880022009166996131_" style="overflow:visible;"/>
				</clipPath>
				
					<path style="clip-path:url(#SVGID_00000059280129452963651810000006299195346323095216_);fill:none;stroke:#FFFFFF;stroke-width:0.2;stroke-miterlimit:3.864;" d="      M46.6,132.8l-9.2,9.3c-0.5,0.5,0.2,1,0.2,1c5.6,4.5,13.6,4.4,19.1-0.4c0,0,0.3-0.4-0.1-0.8l-9.1-9.2      C47.4,132.6,47.1,132.3,46.6,132.8z"/>
			</g>
		</g>
		<path class="st88" d="M51,119.8L51,119.8l-0.7,1.8l-4.8,2.2l-2.7-1.2l1-1.9l4.3-1.7L51,119.8 M45.7,122.9l0.6-1.1l3.7-1.5     M44.6,121.2l1.7,0.6"/>
		<polygon class="st10" points="43.8,139.5 50.4,139.5 47.1,142.7   "/>
		<polyline class="st89" points="59.1,129.6 59.1,131.6 55.3,131.6   "/>
		<polyline class="st90" points="59.2,129.6 59.2,131.7 55.3,131.7   "/>
		<polygon class="st10" points="55.7,130 53.2,131.5 55.7,133   "/>
		<polygon class="st91" points="36.7,128.8 34.4,130.1 36.7,131.4   "/>
		<polygon class="st10" points="36.7,128.8 36.7,131.4 34.4,130.1   "/>
	</g>
</g>
</svg>