<?xml version="1.0" encoding="UTF-8"?>
<!-- Generator: Adobe Illustrator 26.0.1, SVG Export Plug-In . SVG Version: 6.00 Build 0)  -->
<svg version="1.1" id="Layer_1" xmlns="http://www.w3.org/2000/svg" xmlns:xlink="http://www.w3.org/1999/xlink" x="0px" y="0px" viewBox="0 0 410.9 158.9" style="enable-background:new 0 0 410.9 158.9;" xml:space="preserve">
<style type="text/css">
	.st0{clip-path:url(#SVGID_00000090268640837262055660000002927154054159939980_);fill:#FFFFFF;}
	.st1{clip-path:url(#SVGID_00000023254730731860651220000011855043331844338062_);}
	.st2{clip-path:url(#SVGID_00000054986054273392405420000006276139178928730761_);}
	.st3{fill:#FFFFFF;}
	.st4{clip-path:url(#SVGID_00000018944699844995997880000016823943805691073171_);}
	.st5{clip-path:url(#SVGID_00000103266240198718557040000010992235930717011097_);}
	.st6{clip-path:url(#SVGID_00000101799216621331865010000010659127408809249170_);}
	.st7{clip-path:url(#SVGID_00000010286984163822323310000001678668934051071158_);}
	.st8{fill:#CDCCCB;}
	.st9{clip-path:url(#SVGID_00000041260971794870755180000010052657111549395086_);}
	.st10{clip-path:url(#SVGID_00000110430757881253705850000014330341861010880184_);}
	.st11{clip-path:url(#SVGID_00000175309641713770166220000014286840331880913557_);}
	.st12{clip-path:url(#SVGID_00000177463190338925395240000006469525126657567671_);}
	.st13{clip-path:url(#SVGID_00000072986309959387677700000013068278132777084041_);}
	.st14{clip-path:url(#SVGID_00000142866350117564699500000008398652089189924281_);}
	.st15{clip-path:url(#SVGID_00000139254307690707866430000013249304215688310174_);}
	.st16{clip-path:url(#SVGID_00000158030079202297070940000016340332935884791953_);}
	.st17{clip-path:url(#SVGID_00000156561308787178926210000013556310070311629232_);}
	.st18{clip-path:url(#SVGID_00000016055679550052630100000016252783029628411008_);}
	.st19{clip-path:url(#SVGID_00000170967196712648088620000017373331419524294062_);}
	.st20{clip-path:url(#SVGID_00000043436493988981204860000006305481573160221353_);}
	.st21{clip-path:url(#SVGID_00000036239766356079767910000002653273558745578660_);}
	.st22{clip-path:url(#SVGID_00000070112937174733389250000014823489803918329216_);}
	.st23{clip-path:url(#SVGID_00000061455207347634359890000002026772141001920897_);}
	.st24{clip-path:url(#SVGID_00000089565761296627009150000002665153144544016022_);}
	.st25{clip-path:url(#SVGID_00000072281155465749516900000012844258331773934499_);}
	.st26{clip-path:url(#SVGID_00000163758932582055756250000002182645142978707366_);}
	.st27{fill:#1F2123;}
	.st28{clip-path:url(#SVGID_00000180363781813930980570000004518188913163288199_);}
	.st29{fill:#E12827;}
	.st30{clip-path:url(#SVGID_00000098927044271826260680000013189802303709633212_);}
	.st31{clip-path:url(#SVGID_00000023987896810907856050000005902748979894295181_);}
	.st32{clip-path:url(#SVGID_00000176003071650022739040000011401793805417473696_);}
	.st33{clip-path:url(#SVGID_00000178906922202778959640000005770976982150057110_);}
	.st34{clip-path:url(#SVGID_00000063619020065328114930000001946367801726563493_);}
	.st35{clip-path:url(#SVGID_00000133517664643943942650000001038303408969332151_);}
	.st36{clip-path:url(#SVGID_00000018949813169350282600000013235879965682376106_);}
	.st37{clip-path:url(#SVGID_00000018940282816394654830000008740585225165262271_);}
	.st38{clip-path:url(#SVGID_00000112631128737665151030000010409833827562893240_);}
	.st39{clip-path:url(#SVGID_00000054956076681585879920000018290191970679196341_);}
	.st40{clip-path:url(#SVGID_00000017499048158772314650000017116545693914840472_);}
	.st41{clip-path:url(#SVGID_00000178891347920920221840000015486017858962944658_);}
	.st42{clip-path:url(#SVGID_00000014627556602364384280000016353391191818062732_);}
	.st43{clip-path:url(#SVGID_00000183959515523228193760000014415143815919510165_);}
	.st44{clip-path:url(#SVGID_00000164495073999250635840000004760892716496585093_);}
	.st45{clip-path:url(#SVGID_00000164510395084347008280000011256194657686502027_);}
	.st46{clip-path:url(#SVGID_00000134211796327805912710000013750394353940065453_);}
	.st47{clip-path:url(#SVGID_00000132789014237884580300000004221834032322895781_);}
	.st48{clip-path:url(#SVGID_00000016797155477590013060000016553421009326397117_);}
	.st49{clip-path:url(#SVGID_00000009576098551459097410000002587996792447262873_);}
	.st50{clip-path:url(#SVGID_00000030447188422475969160000010391408877635626429_);}
	.st51{clip-path:url(#SVGID_00000177482510907825514080000011698054584030340508_);}
	.st52{clip-path:url(#SVGID_00000180362698631352146500000012598380475598777761_);}
	.st53{clip-path:url(#SVGID_00000134212841428678833050000008559279271573730214_);}
	.st54{clip-path:url(#SVGID_00000139973904234772443120000003699497024705412742_);}
	.st55{font-family:'HelveticaNeueLTStd-Cn';}
	.st56{font-size:11px;}
</style>
<g>
	<g>
		<defs>
			<rect id="SVGID_1_" x="20.7" y="57.4" width="39.3" height="15.9"/>
		</defs>
		<clipPath id="SVGID_00000052099130348609408610000012307461469726906013_">
			<use xlink:href="#SVGID_1_" style="overflow:visible;"/>
		</clipPath>
		<path style="clip-path:url(#SVGID_00000052099130348609408610000012307461469726906013_);fill:#FFFFFF;" d="M55.2,65.2h-30    c-0.3,0-0.6-0.3-0.6-0.7c0-0.4,0.3-0.7,0.6-0.7h30c0.3,0,0.6,0.3,0.6,0.7S55.5,65.2,55.2,65.2 M55.4,69.1h-2.2v-1.3h2.2V69.1z     M51.3,69.1h-2.2v-1.3h2.2V69.1z M47.2,69.1H45v-1.3h2.2V69.1z M43.2,69.1H41v-1.3h2.2V69.1z M36.9,67.8h2.2v1.3h-2.2V67.8z     M35,69.1h-2.2v-1.3H35V69.1z M31,69.1h-2.2v-1.3H31V69.1z M26.9,69.1h-2.2v-1.3h2.2V69.1z M24.7,60h2.2v1.3h-2.2V60z M28.8,60H31    v1.3h-2.2V60z M32.9,60h2.2v1.3h-2.2V60z M36.9,60h2.2v1.3h-2.2V60z M41,60h2.2v1.3H41V60z M45.1,60h2.2v1.3h-2.2V60z M49.1,60    h2.2v1.3h-2.2V60z M53.2,60h2.2v1.3h-2.2V60z M57.6,57.4H39.9h-0.7h-16c-1.6,0-2.7,1.5-2.4,2.9c0.4,1.5,1.2,6.5,2,9.6    c0.4,1.5,1.4,2.3,2.9,2.3h12.2v1h5v-1H55c1.6,0,2.6-0.8,2.9-2.3c0.8-3.1,1.6-8.2,2-9.6C60.3,58.9,59.1,57.4,57.6,57.4"/>
	</g>
</g>
<g>
	<g>
		<g>
			<defs>
				<rect id="SVGID_00000068640354109743884300000018393953553011549056_" x="115.1" width="295.8" height="158.9"/>
			</defs>
			<clipPath id="SVGID_00000128457101178280876200000004102303561986418826_">
				<use xlink:href="#SVGID_00000068640354109743884300000018393953553011549056_" style="overflow:visible;"/>
			</clipPath>
			<g style="clip-path:url(#SVGID_00000128457101178280876200000004102303561986418826_);">
				<g>
					<defs>
						<rect id="SVGID_00000069381572425818219540000006131524701357045164_" x="115.1" width="295.8" height="158.9"/>
					</defs>
					<clipPath id="SVGID_00000116230348649283248090000017648537078891353534_">
						<use xlink:href="#SVGID_00000069381572425818219540000006131524701357045164_" style="overflow:visible;"/>
					</clipPath>
					<g style="clip-path:url(#SVGID_00000116230348649283248090000017648537078891353534_);">
						<path class="st3" d="M313.9,158.9H242v-6.4h1.6v-4.3l5.5-13.3L241.9,89h-2.2V6.3l1.1,0.2c19.9,2.8,36.6,5.4,37.3,5.5h0.1        c1.1,0,17.2,0.5,36.9,1h1v72.2h-2.3l-7.2,50.3l6,13.8v3.8h1.4v5.8H313.9z M244,157h67.9v-2h-1.4v-5.4l-6-13.9l1.9-13.4h-57.3        l2,13l-5.6,13.4v5.9H244V157z M279,120.3h27.8l5.3-37.1h2V15c-17.2-0.5-31.5-0.9-35.1-1L279,120.3L279,120.3z M248.9,120.3        H277V13.8c-3.6-0.6-18.1-2.8-35.3-5.2v78.5h1.9L248.9,120.3z"/>
					</g>
				</g>
				<g>
					<defs>
						<rect id="SVGID_00000040557010646843852040000009550181248247272838_" x="115.1" width="295.8" height="158.9"/>
					</defs>
					<clipPath id="SVGID_00000109732358953452696820000000737763665743313300_">
						<use xlink:href="#SVGID_00000040557010646843852040000009550181248247272838_" style="overflow:visible;"/>
					</clipPath>
					<g style="clip-path:url(#SVGID_00000109732358953452696820000000737763665743313300_);">
						<path class="st3" d="M243.4,59.3c-0.5-5.7-0.8-9.5-0.7-11.3c0.2-9.8,7-13.2,13.3-13.2h43.7c6.3,0,13.1,3.5,13.3,13.2        c0,1.8-0.2,5.6-0.7,11.3l-0.7-0.1c0.5-5.7,0.8-9.4,0.7-11.2c-0.3-11.7-9.7-12.6-12.7-12.6H256c-2.9,0-12.4,0.9-12.7,12.6        c0,1.7,0.2,5.5,0.7,11.2L243.4,59.3z"/>
					</g>
				</g>
				<g>
					<defs>
						<rect id="SVGID_00000132767113748051908880000012628572820276539526_" x="115.1" width="295.8" height="158.9"/>
					</defs>
					<clipPath id="SVGID_00000064331897372251559100000017317199707999736494_">
						<use xlink:href="#SVGID_00000132767113748051908880000012628572820276539526_" style="overflow:visible;"/>
					</clipPath>
					<g style="clip-path:url(#SVGID_00000064331897372251559100000017317199707999736494_);">
						<path class="st3" d="M241.7,89.1H115.1V25.9l0.4-0.3c18.4-15.3,42.9-25,64.3-25.6l0,0h1c0.1,0,0.2,0,0.3,0c0.2,0,0.3,0,0.5,0        c10.5,0,38.1,3.5,59.4,6.5l0.9,0.1v82.5H241.7z M200.8,87.2h38.9V58.9h-38.9L200.8,87.2L200.8,87.2z M160.4,87.2h38.4V58.9        h-38.4V87.2z M117.1,87.2h41.3V58.9h-41.3C117.1,58.9,117.1,87.2,117.1,87.2z M200.8,56.9h38.9V8.4C210,4.2,190,2,181.7,2        v54.9H200.8z M158.4,56.9h21.3V2C158.9,2.5,135,12,117,26.8v30h41.4V56.9z M408.8,85.2H314V13h1c24.4,0.7,43.4,1.3,56.4,1.7        c32.3,1.1,36.6,5.9,36.9,6.4l0.2,0.3v0.7h2.3v61h-2.1v2.1H408.8z M316,83.2h90.8v-2.1h2.1v-57h-2.3v-2        c-1.1-0.8-7.3-4.4-35.2-5.4c-12.8-0.5-31.4-1-55.3-1.7v68.2H316z"/>
					</g>
				</g>
				<g>
					<defs>
						<rect id="SVGID_00000140727019115576265570000007439991119372319377_" x="115.1" width="295.8" height="158.9"/>
					</defs>
					<clipPath id="SVGID_00000145047320579177231610000008651021233324023996_">
						<use xlink:href="#SVGID_00000140727019115576265570000007439991119372319377_" style="overflow:visible;"/>
					</clipPath>
					<g style="clip-path:url(#SVGID_00000145047320579177231610000008651021233324023996_);">
						<path class="st3" d="M398.3,84.3h-74.5v-20c0-3.5,3.4-6.3,6.2-6.3h62.2c2.8,0,6.2,2.8,6.2,6.3v20H398.3z M324.4,83.6h73.2        V64.3c0-3.1-3-5.7-5.5-5.7h-62.2c-2.5,0-5.5,2.5-5.5,5.7L324.4,83.6L324.4,83.6z M388.7,45.2h-56.2c-2.7,0-4.2-0.9-4.6-2.6        c-0.4-1.9-0.1-12.3,4.6-15c4.3-2.4,8.9-2.4,15.3-2.3h1.2h14.7h8.6h1.2c6.4,0,11,0,15.3,2.3l0,0c4.8,2.6,5,13.1,4.6,15        C393,44.3,391.4,45.2,388.7,45.2z M346.7,25.9c-5.7,0-10,0.1-13.9,2.3c-4.2,2.3-4.8,12.1-4.3,14.2c0.3,1.4,1.7,2.1,4,2.1h56.2        c2.4,0,3.7-0.7,4-2.1c0.5-2.2-0.1-11.9-4.3-14.2c-4.1-2.3-8.7-2.3-15-2.3h-1.2h-14.7h-8.6h-1.2        C347.4,25.9,347.1,25.9,346.7,25.9z M223.4,43.8c-4.5,0-13.3-0.5-21.8-0.9c-8-0.4-15.6-0.8-19.2-0.8s-11.2,0.4-19.2,0.8        c-10.2,0.5-20.7,1.1-23.9,0.8c-5.6-0.4-15.8-3.1-15.5-6.8S129.7,24,145.4,19c15.6-5,36.8-4.5,37-4.5s21.4-0.4,37,4.5l0,0        c15.7,5,21.4,14.2,21.6,17.9c0.3,3.7-10,6.4-15.5,6.8C225,43.8,224.3,43.8,223.4,43.8z M182.5,41.4c3.7,0,11.2,0.4,19.2,0.8        c10.1,0.5,20.6,1.1,23.8,0.9c6.1-0.5,15.1-3.2,14.9-6.1c-0.2-3.4-5.9-12.5-21.2-17.3c-15.5-4.9-36.6-4.5-36.8-4.5        c-0.2,0-21.3-0.4-36.8,4.5c-15.3,4.9-20.9,13.9-21.2,17.3c-0.2,2.9,8.8,5.6,14.9,6.1c3.2,0.2,13.7-0.3,23.8-0.9        C171.2,41.8,178.8,41.4,182.5,41.4z"/>
					</g>
				</g>
				<g>
					<defs>
						<rect id="SVGID_00000160899866786373731570000018214284528265736838_" x="115.1" width="295.8" height="158.9"/>
					</defs>
					<clipPath id="SVGID_00000146485874835051220840000004715515302819396784_">
						<use xlink:href="#SVGID_00000160899866786373731570000018214284528265736838_" style="overflow:visible;"/>
					</clipPath>
					<g style="clip-path:url(#SVGID_00000146485874835051220840000004715515302819396784_);">
						<path class="st8" d="M208.8,72.3c-0.8,1.2-1.8,2.4-3,3.7c-0.7,0.8-1.5,1.5-2.3,2.1c0.9,1.1,1.5,2.3,1.5,3.2        c-0.1,1.7-3.5,4.1-6.6,5.4s-7.4,2.5-17.5,2.5s-14.4-1.3-17.5-2.5c-3.1-1.3-6.5-3.7-6.6-5.4c-0.1-0.9,0.6-2.1,1.5-3.2        c-0.8-0.6-1.6-1.3-2.3-2.1c-1.2-1.2-2.2-2.5-3-3.7c-2.4,0-7.9-2.6-9.7-7.2c-2.1-5.2-2-10.5-0.6-11.3s5.5,1.7,8.3,4.5h29.9h0.2        H211c2.8-2.8,6.8-5.3,8.3-4.5c1.4,0.8,1.5,6.1-0.6,11.3C216.6,69.6,211.2,72.2,208.8,72.3 M152.9,21.7        c8.6-10.3,19.6-12.2,27.9-12.2s19.3,2,27.9,12.2c8.6,10.3,9.5,16.8,7.7,18.9c-1.7,2.1-6.6,1.3-16.1-1.5        c-9.6-2.8-19.5-2.2-19.5-2.2s-9.9-0.6-19.5,2.2s-14.4,3.6-16.1,1.5C143.4,38.6,144.2,32,152.9,21.7 M180.8,1        c-26.3,0-47.6,21.3-47.6,47.6s21.3,47.6,47.6,47.6s47.6-21.3,47.6-47.6S207.1,1,180.8,1"/>
					</g>
				</g>
				<g>
					<defs>
						<rect id="SVGID_00000023275806693977844770000005611585300251521937_" x="115.1" width="295.8" height="158.9"/>
					</defs>
					<clipPath id="SVGID_00000060018942533016801010000009273896020476865435_">
						<use xlink:href="#SVGID_00000023275806693977844770000005611585300251521937_" style="overflow:visible;"/>
					</clipPath>
					<g style="clip-path:url(#SVGID_00000060018942533016801010000009273896020476865435_);">
						<path class="st3" d="M180.8,97.2c-26.8,0-48.6-21.8-48.6-48.6S154,0,180.8,0s48.6,21.8,48.6,48.6S207.6,97.2,180.8,97.2z         M180.8,2c-25.7,0-46.6,20.9-46.6,46.6s20.9,46.6,46.6,46.6s46.6-20.9,46.6-46.6S206.5,2,180.8,2z M180.8,90.2        c-10.2,0-14.6-1.3-17.9-2.6c-2.8-1.2-7.1-3.8-7.2-6.3c-0.1-1.1,0.6-2.3,1.1-3.1c-0.6-0.5-1.2-1-1.7-1.6c-1-1.1-2-2.2-2.8-3.4        c-2.8-0.3-8.2-3-10.1-7.8c-1.9-4.8-2.4-11.2-0.2-12.5c2.4-1.4,7.2,2.4,9.2,4.4h59.2c2-1.9,6.8-5.8,9.2-4.4        c2.3,1.3,1.8,7.7-0.2,12.5c-1.9,4.8-7.3,7.4-10.1,7.8c-0.9,1.2-1.8,2.3-2.8,3.4c-0.5,0.5-1.1,1.1-1.7,1.6        c0.6,0.8,1.2,2,1.1,3.1c-0.2,2.5-4.4,5.1-7.2,6.3C195.4,88.9,190.9,90.2,180.8,90.2z M143.2,54.6c-0.1,0-0.2,0-0.3,0.1        c-0.7,0.5-1,5,1,10.1c1.7,4.3,6.9,6.5,8.8,6.5h0.5l0.3,0.4c0.9,1.2,1.9,2.4,2.9,3.6c0.7,0.7,1.4,1.3,2.2,2l0.8,0.6l-0.6,0.8        c-0.9,1.1-1.3,2.1-1.3,2.5c0.1,1,2.7,3.2,6,4.6c3.1,1.3,7.3,2.5,17.2,2.5c9.8,0,14-1.2,17.2-2.5c3.3-1.4,5.9-3.6,6-4.6        c0-0.4-0.4-1.4-1.3-2.5l-0.6-0.8l0.8-0.6c0.8-0.6,1.6-1.3,2.2-2c1.1-1.1,2.1-2.3,2.9-3.6l0.3-0.4h0.5c1.8,0,7.1-2.3,8.8-6.5        c2-5.1,1.7-9.5,1-10.1c-0.6-0.4-3.9,1.2-7.1,4.3l-0.3,0.3h-60.9L150,59C147.2,56.1,144.2,54.6,143.2,54.6z M212.9,42.8        c-2.9,0-7.1-1-13-2.7c-9.3-2.7-19.1-2.2-19.1-2.2h-0.1h-0.1c-0.1,0-9.9-0.5-19.1,2.2c-9.9,2.9-15,3.8-17.2,1.2        c-2.3-2.8-0.8-10.1,7.7-20.2c7-8.3,16.7-12.6,28.7-12.6s21.6,4.2,28.7,12.6c8.5,10.1,10,17.4,7.7,20.2        C216.3,42.3,214.9,42.8,212.9,42.8z M183.1,35.9c3.6,0,10.5,0.3,17.4,2.3c8.3,2.4,13.7,3.5,15.1,1.8c1.4-1.6,0.5-7.9-7.7-17.6        c-6.7-8-15.6-11.9-27.1-11.9s-20.4,3.9-27.1,11.9c-8.2,9.7-9.1,16-7.7,17.6c1.4,1.7,6.8,0.6,15.1-1.8        c9.3-2.7,18.8-2.3,19.8-2.2C181,36,181.9,35.9,183.1,35.9z"/>
					</g>
				</g>
				<g>
					<defs>
						<rect id="SVGID_00000044173640787459528350000001500316443582952600_" x="115.1" width="295.8" height="158.9"/>
					</defs>
					<clipPath id="SVGID_00000092420917823978747690000003428171213357054088_">
						<use xlink:href="#SVGID_00000044173640787459528350000001500316443582952600_" style="overflow:visible;"/>
					</clipPath>
					<g style="clip-path:url(#SVGID_00000092420917823978747690000003428171213357054088_);">
						<path class="st8" d="M153.6,62.4c-0.3-1.2-1.4-2.7-2.8-4.2c-2.8-2.8-6.9-5.4-8.3-4.5c-1.4,0.8-1.5,6.1,0.6,11.3        c1.8,4.6,7.3,7.2,9.7,7.2c0.3,0,0.6,0,0.8-0.1C155.2,71.3,154.4,66,153.6,62.4"/>
					</g>
				</g>
				<g>
					<defs>
						<rect id="SVGID_00000016049472779355169170000012917498395371482501_" x="115.1" width="295.8" height="158.9"/>
					</defs>
					<clipPath id="SVGID_00000114757975378502213180000000171815632410920893_">
						<use xlink:href="#SVGID_00000016049472779355169170000012917498395371482501_" style="overflow:visible;"/>
					</clipPath>
					<g style="clip-path:url(#SVGID_00000114757975378502213180000000171815632410920893_);">
						<path class="st3" d="M152.8,73.3L152.8,73.3c-2.7,0-8.6-2.7-10.7-7.8c-1.9-4.8-2.4-11.2-0.2-12.6c2.3-1.3,7.1,2.2,9.5,4.7        c1.2,1.2,2.7,3,3.1,4.6l0,0c2.1,9.5,0.1,10.5-0.5,10.8C153.7,73.2,153.3,73.3,152.8,73.3z M143.2,54.6c-0.1,0-0.2,0-0.3,0.1        c-0.7,0.5-1,5,1,10.1c1.6,4.1,6.6,6.6,8.8,6.6l0,0c0.2,0,0.3,0,0.3,0c0.4-0.3,0.8-2.7-0.5-8.6c-0.2-0.9-1.1-2.3-2.5-3.7        C147.3,56.1,144.2,54.6,143.2,54.6z"/>
					</g>
				</g>
				<g>
					<defs>
						<rect id="SVGID_00000029030974540491519240000010119165231630794152_" x="115.1" width="295.8" height="158.9"/>
					</defs>
					<clipPath id="SVGID_00000126323225616457122020000002415088865770163108_">
						<use xlink:href="#SVGID_00000029030974540491519240000010119165231630794152_" style="overflow:visible;"/>
					</clipPath>
					<g style="clip-path:url(#SVGID_00000126323225616457122020000002415088865770163108_);">
						<path class="st8" d="M219.1,53.7c-1.5-0.8-5.5,1.7-8.3,4.5c-1.4,1.4-2.5,3-2.8,4.2c-0.8,3.6-1.6,8.9,0,9.7        c0.2,0.1,0.5,0.1,0.8,0.1c2.4,0,7.9-2.6,9.7-7.2C220.6,59.9,220.4,54.6,219.1,53.7"/>
					</g>
				</g>
				<g>
					<defs>
						<rect id="SVGID_00000157291408643432285210000005380181066657084811_" x="115.1" width="295.8" height="158.9"/>
					</defs>
					<clipPath id="SVGID_00000069374737109016118790000012664385785454212539_">
						<use xlink:href="#SVGID_00000157291408643432285210000005380181066657084811_" style="overflow:visible;"/>
					</clipPath>
					<g style="clip-path:url(#SVGID_00000069374737109016118790000012664385785454212539_);">
						<path class="st3" d="M208.7,73.3c-0.5,0-0.9-0.1-1.2-0.2c-0.7-0.3-2.7-1.3-0.5-10.8c0.4-1.7,1.9-3.4,3.1-4.6        c2.5-2.5,7.3-6,9.5-4.7l0,0c2.3,1.3,1.8,7.7-0.2,12.6C217.3,70.6,211.4,73.3,208.7,73.3L208.7,73.3z M208.4,71.3        c0,0,0.1,0,0.3,0l0,0c2.2,0,7.2-2.5,8.8-6.6c2-5.1,1.7-9.6,1-10.1c-0.6-0.4-4,1.2-7.1,4.4c-1.4,1.4-2.3,2.8-2.5,3.7        C207.6,68.5,208,71,208.4,71.3L208.4,71.3z"/>
					</g>
				</g>
				<g>
					<defs>
						<rect id="SVGID_00000092453358402566963660000006543473902408466100_" x="115.1" width="295.8" height="158.9"/>
					</defs>
					<clipPath id="SVGID_00000137123703364961060440000006634173814689976971_">
						<use xlink:href="#SVGID_00000092453358402566963660000006543473902408466100_" style="overflow:visible;"/>
					</clipPath>
					<g style="clip-path:url(#SVGID_00000137123703364961060440000006634173814689976971_);">
						<path class="st8" d="M203.4,78c-0.8-1-1.8-1.9-2.5-2c-1.3-0.2-20.2,0-20.2,0s-18.9-0.2-20.2,0c-0.7,0.1-1.6,1-2.5,2        c-0.9,1.1-1.5,2.3-1.5,3.2c0.1,1.7,3.5,4.2,6.6,5.4c3.1,1.3,7.4,2.6,17.5,2.6c10.2,0,14.5-1.3,17.5-2.6        c3.1-1.3,6.5-3.7,6.6-5.4C205,80.3,204.3,79,203.4,78"/>
					</g>
				</g>
				<g>
					<defs>
						<rect id="SVGID_00000057140217751192903840000013511840851842501766_" x="115.1" width="295.8" height="158.9"/>
					</defs>
					<clipPath id="SVGID_00000155147103251243909660000014906537629055194543_">
						<use xlink:href="#SVGID_00000057140217751192903840000013511840851842501766_" style="overflow:visible;"/>
					</clipPath>
					<g style="clip-path:url(#SVGID_00000155147103251243909660000014906537629055194543_);">
						<path class="st3" d="M180.8,90.2c-10.2,0-14.6-1.3-17.9-2.6c-2.8-1.2-7.1-3.8-7.2-6.3c-0.1-1.5,1.2-3.2,1.7-3.9        c0.5-0.6,1.8-2.1,3.1-2.3c1.3-0.2,17.2-0.1,20.4,0c3.1,0,19-0.2,20.4,0c1.3,0.2,2.6,1.7,3.1,2.3l0,0c0.5,0.7,1.8,2.4,1.7,3.9        c-0.2,2.5-4.4,5.1-7.2,6.3C195.4,88.9,190.9,90.2,180.8,90.2z M166.3,76.9c-3,0-5.2,0-5.6,0.1c-0.2,0-1,0.6-1.9,1.6        c-0.9,1.1-1.3,2.1-1.3,2.5c0.1,1,2.7,3.2,6,4.6c3.1,1.3,7.4,2.5,17.2,2.5s14.1-1.2,17.2-2.5c3.3-1.4,5.9-3.6,6-4.6        c0-0.4-0.4-1.4-1.3-2.5l0,0c-0.9-1.1-1.6-1.6-1.9-1.6c-1-0.2-12.8-0.1-20,0C176.5,76.9,170.6,76.9,166.3,76.9z"/>
					</g>
				</g>
				<g>
					<defs>
						<rect id="SVGID_00000150810155017260517330000013748135936816918968_" x="115.1" width="295.8" height="158.9"/>
					</defs>
					<clipPath id="SVGID_00000023268921801276731050000008703009540284367798_">
						<use xlink:href="#SVGID_00000150810155017260517330000013748135936816918968_" style="overflow:visible;"/>
					</clipPath>
					<g style="clip-path:url(#SVGID_00000023268921801276731050000008703009540284367798_);">
						<path class="st3" d="M277.9,139.9c-8.1,0-25.3-4.6-25.5-4.7l-0.2-0.1v-0.2c0-0.4-4.5-35.7-7.3-61.3v-0.3l0,0l0,0        c-0.6-5.6-1.1-10.3-1.4-14.1v-0.4h69v0.4c-0.3,3.8-0.8,8.6-1.4,14.1l0,0c-2.8,25.7-7.3,61.3-7.3,61.6v0.2l-0.2,0.1        C303.2,135.3,285.9,139.9,277.9,139.9z M252.8,134.7c2,0.5,17.6,4.6,25.1,4.6s23.1-4,25.1-4.6c0.4-3,4.6-36.4,7.2-61h-64.6        C248.2,98.2,252.4,131.7,252.8,134.7z M245.5,73h64.8c0.6-5.2,1-9.8,1.4-13.5h-67.5C244.5,63.2,244.9,67.8,245.5,73z"/>
					</g>
				</g>
			</g>
		</g>
		<g>
			<defs>
				<rect id="SVGID_00000129921574710086771780000015484452944205440385_" x="115.1" width="295.8" height="158.9"/>
			</defs>
			<clipPath id="SVGID_00000062173006247377344950000003009115795685594013_">
				<use xlink:href="#SVGID_00000129921574710086771780000015484452944205440385_" style="overflow:visible;"/>
			</clipPath>
			<g style="clip-path:url(#SVGID_00000062173006247377344950000003009115795685594013_);">
				<path class="st3" d="M257,124.3h-5.4v-7.9h3.8L257,124.3z M253.5,122.3h1l-0.8-3.9h-0.2V122.3z"/>
			</g>
		</g>
		<g>
			<defs>
				<rect id="SVGID_00000101104478837525535550000006222157998853136521_" x="115.1" width="295.8" height="158.9"/>
			</defs>
			<clipPath id="SVGID_00000072266187208929737740000004636771334863731893_">
				<use xlink:href="#SVGID_00000101104478837525535550000006222157998853136521_" style="overflow:visible;"/>
			</clipPath>
			<g style="clip-path:url(#SVGID_00000072266187208929737740000004636771334863731893_);">
				<g>
					<defs>
						<rect id="SVGID_00000097498190091657932920000011266432105418046108_" x="115.1" width="295.8" height="158.9"/>
					</defs>
					<clipPath id="SVGID_00000124148870181045725750000015936250379011982513_">
						<use xlink:href="#SVGID_00000097498190091657932920000011266432105418046108_" style="overflow:visible;"/>
					</clipPath>
					<g style="clip-path:url(#SVGID_00000124148870181045725750000015936250379011982513_);">
						<path class="st3" d="M272.8,146.5v-10.4h-7.9v10.4c0,0,0.8,1.5,3.9,1.5C272,148,272.8,146.5,272.8,146.5"/>
					</g>
				</g>
				<g>
					<defs>
						<rect id="SVGID_00000163786481003990899450000010946235506126691235_" x="115.1" width="295.8" height="158.9"/>
					</defs>
					<clipPath id="SVGID_00000099644149880026359950000014742129697664817299_">
						<use xlink:href="#SVGID_00000163786481003990899450000010946235506126691235_" style="overflow:visible;"/>
					</clipPath>
					<g style="clip-path:url(#SVGID_00000099644149880026359950000014742129697664817299_);">
						<path class="st3" d="M268.9,149c-3.7,0-4.7-1.9-4.8-2.1l-0.1-0.2v-11.6h9.9v11.6l-0.1,0.2C273.6,147.2,272.6,149,268.9,149z         M265.9,146.2c0.3,0.3,1.1,0.9,3,0.9s2.7-0.6,3-0.9v-9H266v9H265.9z"/>
					</g>
				</g>
				<g>
					<defs>
						<rect id="SVGID_00000014614801491067588120000011659313239215270301_" x="115.1" width="295.8" height="158.9"/>
					</defs>
					<clipPath id="SVGID_00000113352884369484257320000000738026545902094988_">
						<use xlink:href="#SVGID_00000014614801491067588120000011659313239215270301_" style="overflow:visible;"/>
					</clipPath>
					<g style="clip-path:url(#SVGID_00000113352884369484257320000000738026545902094988_);">
						<path class="st3" d="M299.8,113.2h-43.1c-1.8,0-2.5-1.8-2.6-2.7c-1.3-3.9-3.7-30.8-3.7-32.8c0-0.7,0.2-1.2,0.7-1.6        c1-0.8,2.6-0.5,2.6-0.5h49.2c0.2,0,1.7-0.2,2.6,0.5c0.4,0.4,0.7,0.9,0.7,1.6c0,2-2.4,28.9-3.7,32.8        C302.3,111.4,301.6,113.2,299.8,113.2z M252.8,76.2c-0.5,0-1,0.1-1.4,0.4c-0.3,0.2-0.4,0.6-0.4,1.1c0,2.7,2.5,28.9,3.7,32.6        c0,0.1,0.3,2.2,2,2.2h43.1c1.7,0,2-2.1,2-2.2c1.2-3.7,3.7-30,3.7-32.7c0-0.5-0.1-0.8-0.4-1.1c-0.7-0.6-2.1-0.3-2.1-0.3h-0.1        h-49.3C253.5,76.2,253.2,76.2,252.8,76.2z M290.9,111.3h-26c-0.6,0-1-0.5-1-1V93.4c0-0.6,0.5-1,1-1h26c0.6,0,1,0.5,1,1v16.9        C291.9,110.9,291.4,111.3,290.9,111.3z M264.9,93.1c-0.2,0-0.4,0.2-0.4,0.4v16.9c0,0.2,0.2,0.4,0.4,0.4h26        c0.2,0,0.4-0.2,0.4-0.4v-17c0-0.2-0.2-0.4-0.4-0.4L264.9,93.1L264.9,93.1z M300.6,91.4h-45.9c-1.3,0-2.4-1.1-2.4-2.4v-8.8        c0-1.3,1.1-2.4,2.4-2.4h45.9c1.3,0,2.4,1.1,2.4,2.4V89C303,90.3,301.9,91.4,300.6,91.4z M254.6,78.5c-1,0-1.7,0.8-1.7,1.7V89        c0,1,0.8,1.7,1.7,1.7h45.9c1,0,1.7-0.8,1.7-1.7v-8.8c0-1-0.8-1.7-1.7-1.7H254.6z M306,56.7h-56.2c-2.7,0-4.2-0.9-4.6-2.6        c-0.4-1.9-0.1-12.3,4.6-15c4.3-2.4,8.9-2.3,15.3-2.3h1.2H281h8.6h1.2c6.4,0,11,0,15.3,2.3c4.8,2.6,5,13.1,4.6,15        C310.2,55.8,308.7,56.7,306,56.7z M264,37.5c-5.7,0-10,0.1-13.9,2.3c-4.2,2.3-4.8,12.1-4.3,14.2c0.3,1.4,1.7,2.1,4,2.1H306        c2.4,0,3.7-0.7,4-2.1c0.5-2.2-0.1-11.9-4.3-14.2l0,0c-4.1-2.3-8.7-2.3-15-2.3h-1.2h-14.7h-8.6H265        C264.7,37.5,264.3,37.5,264,37.5z"/>
					</g>
				</g>
				<g>
					<defs>
						<rect id="SVGID_00000119105961614269930430000001654164962156954753_" x="115.1" width="295.8" height="158.9"/>
					</defs>
					<clipPath id="SVGID_00000179632205740940785160000017527840078011893673_">
						<use xlink:href="#SVGID_00000119105961614269930430000001654164962156954753_" style="overflow:visible;"/>
					</clipPath>
					<g style="clip-path:url(#SVGID_00000179632205740940785160000017527840078011893673_);">
						<path class="st8" d="M273.6,125.6v-8c0,0-3.1-3.7-10-3.7s-9.1,1.8-9.1,5.1c0,3.2,1.9,6.6,4.9,6.6s3.3,1.9,3.3,3.3        s-0.5,7.3,4,7.3h5.9c0,0,1.1-0.2,1.1-2L273.6,125.6L273.6,125.6z"/>
					</g>
				</g>
				<g>
					<defs>
						<rect id="SVGID_00000150783985873901075630000001917929694412123539_" x="115.1" width="295.8" height="158.9"/>
					</defs>
					<clipPath id="SVGID_00000119091812774530601850000010898694132802935225_">
						<use xlink:href="#SVGID_00000150783985873901075630000001917929694412123539_" style="overflow:visible;"/>
					</clipPath>
					<g style="clip-path:url(#SVGID_00000119091812774530601850000010898694132802935225_);">
						<path class="st3" d="M272.6,137.2h-5.9c-1.3,0-2.4-0.4-3.3-1.3c-1.8-1.8-1.7-5.1-1.7-6.6c0-0.2,0-0.3,0-0.4        c0-1.5-0.4-2.3-2.4-2.3c-3.6,0-5.9-4-5.9-7.6c0-5.4,5.4-6.1,10.1-6.1c7.3,0,10.7,3.9,10.8,4.1l0.2,0.3v17        C274.6,136.4,273.4,137.1,272.6,137.2L272.6,137.2z M272.3,135.3L272.3,135.3L272.3,135.3z M263.6,114.9c-7.1,0-8.1,2-8.1,4.1        c0,2.7,1.6,5.6,3.9,5.6c2,0,4.3,0.8,4.3,4.3c0,0.1,0,0.3,0,0.4c0,1.2-0.1,3.9,1.1,5.2c0.5,0.5,1.1,0.7,1.8,0.7h5.7        c0.1-0.1,0.3-0.4,0.3-1V118C271.8,117.2,269,114.9,263.6,114.9z"/>
					</g>
				</g>
			</g>
		</g>
		<g>
			<defs>
				<rect id="SVGID_00000023972791695327999550000013277254715807372418_" x="115.1" width="295.8" height="158.9"/>
			</defs>
			<clipPath id="SVGID_00000104688185456843142010000008450499786466287807_">
				<use xlink:href="#SVGID_00000023972791695327999550000013277254715807372418_" style="overflow:visible;"/>
			</clipPath>
			<g style="clip-path:url(#SVGID_00000104688185456843142010000008450499786466287807_);">
				
					<rect x="407.3" y="23.2" transform="matrix(1 -4.379021e-03 4.379021e-03 1 -0.2269 1.7856)" class="st3" width="0.7" height="59"/>
			</g>
		</g>
		<g>
			<defs>
				<rect id="SVGID_00000119116078158664070780000010250658869098217130_" x="115.1" width="295.8" height="158.9"/>
			</defs>
			<clipPath id="SVGID_00000081640467560401221080000002492549735616225199_">
				<use xlink:href="#SVGID_00000119116078158664070780000010250658869098217130_" style="overflow:visible;"/>
			</clipPath>
			<g style="clip-path:url(#SVGID_00000081640467560401221080000002492549735616225199_);">
				<g>
					<defs>
						<rect id="SVGID_00000021094658597367444680000000868097709518362781_" x="115.1" width="295.8" height="158.9"/>
					</defs>
					<clipPath id="SVGID_00000017495727302475138760000003432525624411415481_">
						<use xlink:href="#SVGID_00000021094658597367444680000000868097709518362781_" style="overflow:visible;"/>
					</clipPath>
					<g style="clip-path:url(#SVGID_00000017495727302475138760000003432525624411415481_);">
						<path class="st27" d="M136.5,82.2c5,0,9-4,9-9s-4-9-9-9s-9,4-9,9S131.5,82.2,136.5,82.2"/>
					</g>
				</g>
				<g>
					<defs>
						<rect id="SVGID_00000083795486149557522930000008820812502500459185_" x="115.1" width="295.8" height="158.9"/>
					</defs>
					<clipPath id="SVGID_00000051345135771338235020000014151181543279378061_">
						<use xlink:href="#SVGID_00000083795486149557522930000008820812502500459185_" style="overflow:visible;"/>
					</clipPath>
					<g style="clip-path:url(#SVGID_00000051345135771338235020000014151181543279378061_);">
						<path class="st29" d="M136.5,83.1c-5.5,0-9.9-4.4-9.9-9.9s4.4-9.9,9.9-9.9s9.9,4.4,9.9,9.9S142,83.1,136.5,83.1z M136.5,65.2        c-4.4,0-8.1,3.6-8.1,8.1s3.6,8.1,8.1,8.1c4.4,0,8.1-3.6,8.1-8.1S140.9,65.2,136.5,65.2z"/>
					</g>
				</g>
				<g>
					<defs>
						<rect id="SVGID_00000113349669965383964670000011230763027985655731_" x="115.1" width="295.8" height="158.9"/>
					</defs>
					<clipPath id="SVGID_00000131346350690265935850000016299265398051218061_">
						<use xlink:href="#SVGID_00000113349669965383964670000011230763027985655731_" style="overflow:visible;"/>
					</clipPath>
					<g style="clip-path:url(#SVGID_00000131346350690265935850000016299265398051218061_);">
						<path class="st27" d="M180.4,82.2c5,0,9-4,9-9s-4-9-9-9s-9,4-9,9S175.4,82.2,180.4,82.2"/>
					</g>
				</g>
				<g>
					<defs>
						<rect id="SVGID_00000093142655975729125640000014202357380531475131_" x="115.1" width="295.8" height="158.9"/>
					</defs>
					<clipPath id="SVGID_00000150067756796388834130000016675707938229404319_">
						<use xlink:href="#SVGID_00000093142655975729125640000014202357380531475131_" style="overflow:visible;"/>
					</clipPath>
					<g style="clip-path:url(#SVGID_00000150067756796388834130000016675707938229404319_);">
						<path class="st29" d="M180.4,83.1c-5.5,0-9.9-4.4-9.9-9.9s4.4-9.9,9.9-9.9s9.9,4.4,9.9,9.9C190.3,78.7,185.9,83.1,180.4,83.1z         M180.4,65.2c-4.4,0-8.1,3.6-8.1,8.1s3.6,8.1,8.1,8.1c4.4,0,8.1-3.6,8.1-8.1S184.8,65.2,180.4,65.2z"/>
					</g>
				</g>
				<g>
					<defs>
						<rect id="SVGID_00000052087844796448968220000012633087822105843134_" x="115.1" width="295.8" height="158.9"/>
					</defs>
					<clipPath id="SVGID_00000055670859939209587500000013552141652022275762_">
						<use xlink:href="#SVGID_00000052087844796448968220000012633087822105843134_" style="overflow:visible;"/>
					</clipPath>
					<g style="clip-path:url(#SVGID_00000055670859939209587500000013552141652022275762_);">
						<path class="st27" d="M221,82.2c5,0,9-4,9-9s-4-9-9-9s-9,4-9,9S216,82.2,221,82.2"/>
					</g>
				</g>
				<g>
					<defs>
						<rect id="SVGID_00000083088349528903156670000004247929288846330293_" x="115.1" width="295.8" height="158.9"/>
					</defs>
					<clipPath id="SVGID_00000060742881828591894680000006800120818138663868_">
						<use xlink:href="#SVGID_00000083088349528903156670000004247929288846330293_" style="overflow:visible;"/>
					</clipPath>
					<g style="clip-path:url(#SVGID_00000060742881828591894680000006800120818138663868_);">
						<path class="st29" d="M221,83.1c-5.5,0-9.9-4.4-9.9-9.9s4.4-9.9,9.9-9.9s9.9,4.4,9.9,9.9S226.4,83.1,221,83.1z M221,65.2        c-4.4,0-8.1,3.6-8.1,8.1s3.6,8.1,8.1,8.1c4.4,0,8.1-3.6,8.1-8.1S225.4,65.2,221,65.2z"/>
					</g>
				</g>
				<g>
					<defs>
						<rect id="SVGID_00000111151252158172096830000008873660536414746265_" x="115.1" width="295.8" height="158.9"/>
					</defs>
					<clipPath id="SVGID_00000062151972527848031010000015201463709329814448_">
						<use xlink:href="#SVGID_00000111151252158172096830000008873660536414746265_" style="overflow:visible;"/>
					</clipPath>
					<g style="clip-path:url(#SVGID_00000062151972527848031010000015201463709329814448_);">
						<path class="st27" d="M151.8,39.6c5,0,9-4,9-9s-4-9-9-9s-9,4-9,9S146.8,39.6,151.8,39.6"/>
					</g>
				</g>
				<g>
					<defs>
						<rect id="SVGID_00000070080999667169509100000018289127185586156426_" x="115.1" width="295.8" height="158.9"/>
					</defs>
					<clipPath id="SVGID_00000170243365917220878080000013918742056821692597_">
						<use xlink:href="#SVGID_00000070080999667169509100000018289127185586156426_" style="overflow:visible;"/>
					</clipPath>
					<g style="clip-path:url(#SVGID_00000170243365917220878080000013918742056821692597_);">
						<path class="st29" d="M151.8,40.6c-5.5,0-9.9-4.4-9.9-9.9s4.4-9.9,9.9-9.9s9.9,4.4,9.9,9.9C161.7,36.1,157.2,40.6,151.8,40.6z         M151.8,22.6c-4.4,0-8.1,3.6-8.1,8.1c0,4.4,3.6,8.1,8.1,8.1c4.4,0,8.1-3.6,8.1-8.1C159.8,26.2,156.2,22.6,151.8,22.6z"/>
					</g>
				</g>
				<g>
					<defs>
						<rect id="SVGID_00000125572895861498372120000005594082761315065505_" x="115.1" width="295.8" height="158.9"/>
					</defs>
					<clipPath id="SVGID_00000072246108399731206870000006171542123670212492_">
						<use xlink:href="#SVGID_00000125572895861498372120000005594082761315065505_" style="overflow:visible;"/>
					</clipPath>
					<g style="clip-path:url(#SVGID_00000072246108399731206870000006171542123670212492_);">
						<path class="st27" d="M208.1,39.6c5,0,9-4,9-9s-4-9-9-9s-9,4-9,9S203.1,39.6,208.1,39.6"/>
					</g>
				</g>
				<g>
					<defs>
						<rect id="SVGID_00000151513925336962472510000007274796430548244404_" x="115.1" width="295.8" height="158.9"/>
					</defs>
					<clipPath id="SVGID_00000145023538417424686560000002814284903900337052_">
						<use xlink:href="#SVGID_00000151513925336962472510000007274796430548244404_" style="overflow:visible;"/>
					</clipPath>
					<g style="clip-path:url(#SVGID_00000145023538417424686560000002814284903900337052_);">
						<path class="st29" d="M208.1,40.6c-5.5,0-9.9-4.4-9.9-9.9s4.4-9.9,9.9-9.9s9.9,4.4,9.9,9.9C218,36.1,213.5,40.6,208.1,40.6z         M208.1,22.6c-4.4,0-8.1,3.6-8.1,8.1c0,4.4,3.6,8.1,8.1,8.1c4.4,0,8.1-3.6,8.1-8.1C216.1,26.2,212.5,22.6,208.1,22.6z"/>
					</g>
				</g>
				<g>
					<defs>
						<rect id="SVGID_00000107577415754894313910000014553439351544321164_" x="115.1" width="295.8" height="158.9"/>
					</defs>
					<clipPath id="SVGID_00000084499931134534344270000009565888891058073480_">
						<use xlink:href="#SVGID_00000107577415754894313910000014553439351544321164_" style="overflow:visible;"/>
					</clipPath>
					<g style="clip-path:url(#SVGID_00000084499931134534344270000009565888891058073480_);">
						<path class="st27" d="M261.5,48c5,0,9-4,9-9s-4-9-9-9s-9,4-9,9S256.6,48,261.5,48"/>
					</g>
				</g>
				<g>
					<defs>
						<rect id="SVGID_00000031912313671662132950000014902968545762530958_" x="115.1" width="295.8" height="158.9"/>
					</defs>
					<clipPath id="SVGID_00000088120002395942111040000010402986306461445793_">
						<use xlink:href="#SVGID_00000031912313671662132950000014902968545762530958_" style="overflow:visible;"/>
					</clipPath>
					<g style="clip-path:url(#SVGID_00000088120002395942111040000010402986306461445793_);">
						<path class="st29" d="M261.5,49c-5.5,0-9.9-4.4-9.9-9.9s4.4-9.9,9.9-9.9s9.9,4.4,9.9,9.9S267,49,261.5,49z M261.5,31        c-4.4,0-8.1,3.6-8.1,8.1c0,4.4,3.6,8.1,8.1,8.1s8.1-3.6,8.1-8.1S266,31,261.5,31z"/>
					</g>
				</g>
				<g>
					<defs>
						<rect id="SVGID_00000057829612149962256020000013915313213250359175_" x="115.1" width="295.8" height="158.9"/>
					</defs>
					<clipPath id="SVGID_00000040540498805786397980000000246455042346341809_">
						<use xlink:href="#SVGID_00000057829612149962256020000013915313213250359175_" style="overflow:visible;"/>
					</clipPath>
					<g style="clip-path:url(#SVGID_00000040540498805786397980000000246455042346341809_);">
						<path class="st27" d="M293.5,48c5,0,9-4,9-9s-4-9-9-9s-9,4-9,9S288.5,48,293.5,48"/>
					</g>
				</g>
				<g>
					<defs>
						<rect id="SVGID_00000025415009214331194160000015847589214638112148_" x="115.1" width="295.8" height="158.9"/>
					</defs>
					<clipPath id="SVGID_00000044178475338428049950000015424513936658131083_">
						<use xlink:href="#SVGID_00000025415009214331194160000015847589214638112148_" style="overflow:visible;"/>
					</clipPath>
					<g style="clip-path:url(#SVGID_00000044178475338428049950000015424513936658131083_);">
						<path class="st29" d="M293.5,49c-5.5,0-9.9-4.4-9.9-9.9s4.4-9.9,9.9-9.9s9.9,4.4,9.9,9.9S299,49,293.5,49z M293.5,31        c-4.4,0-8.1,3.6-8.1,8.1c0,4.4,3.6,8.1,8.1,8.1c4.4,0,8.1-3.6,8.1-8.1C301.5,34.6,297.9,31,293.5,31z"/>
					</g>
				</g>
				<g>
					<defs>
						<rect id="SVGID_00000005972999147786617480000018421474188559088318_" x="115.1" width="295.8" height="158.9"/>
					</defs>
					<clipPath id="SVGID_00000077312913701510135910000005828683170059369348_">
						<use xlink:href="#SVGID_00000005972999147786617480000018421474188559088318_" style="overflow:visible;"/>
					</clipPath>
					<g style="clip-path:url(#SVGID_00000077312913701510135910000005828683170059369348_);">
						<path class="st27" d="M360.3,74.7c5,0,9-4,9-9s-4-9-9-9s-9,4-9,9S355.3,74.7,360.3,74.7"/>
					</g>
				</g>
				<g>
					<defs>
						<rect id="SVGID_00000140010555319509997820000007821705808684083868_" x="115.1" width="295.8" height="158.9"/>
					</defs>
					<clipPath id="SVGID_00000183950115260402899560000005410033898234223260_">
						<use xlink:href="#SVGID_00000140010555319509997820000007821705808684083868_" style="overflow:visible;"/>
					</clipPath>
					<g style="clip-path:url(#SVGID_00000183950115260402899560000005410033898234223260_);">
						<path class="st29" d="M360.3,75.7c-5.5,0-9.9-4.4-9.9-9.9s4.4-9.9,9.9-9.9s9.9,4.4,9.9,9.9C370.2,71.2,365.8,75.7,360.3,75.7z         M360.3,57.7c-4.4,0-8.1,3.6-8.1,8.1c0,4.4,3.6,8.1,8.1,8.1c4.4,0,8.1-3.6,8.1-8.1C368.3,61.3,364.7,57.7,360.3,57.7z"/>
					</g>
				</g>
				<g>
					<defs>
						<rect id="SVGID_00000134929507469574929400000018112941582640986035_" x="115.1" width="295.8" height="158.9"/>
					</defs>
					<clipPath id="SVGID_00000003082332509394460870000002016566505931585717_">
						<use xlink:href="#SVGID_00000134929507469574929400000018112941582640986035_" style="overflow:visible;"/>
					</clipPath>
					<g style="clip-path:url(#SVGID_00000003082332509394460870000002016566505931585717_);">
						<path class="st27" d="M290.4,150.8c5,0,9-4,9-9s-4-9-9-9s-9,4-9,9S285.5,150.8,290.4,150.8"/>
					</g>
				</g>
				<g>
					<defs>
						<rect id="SVGID_00000057148173722215956480000012388304151614234249_" x="115.1" width="295.8" height="158.9"/>
					</defs>
					<clipPath id="SVGID_00000124129156833624337930000003090033275174575781_">
						<use xlink:href="#SVGID_00000057148173722215956480000012388304151614234249_" style="overflow:visible;"/>
					</clipPath>
					<g style="clip-path:url(#SVGID_00000124129156833624337930000003090033275174575781_);">
						<path class="st29" d="M290.4,151.7c-5.5,0-9.9-4.4-9.9-9.9s4.4-9.9,9.9-9.9s9.9,4.4,9.9,9.9S295.9,151.7,290.4,151.7z         M290.4,133.8c-4.4,0-8.1,3.6-8.1,8.1c0,4.4,3.6,8.1,8.1,8.1s8.1-3.6,8.1-8.1C298.5,137.4,294.9,133.8,290.4,133.8z"/>
					</g>
				</g>
			</g>
		</g>
		<g>
			<defs>
				<rect id="SVGID_00000029010311220309229970000007051041968308420792_" x="115.1" width="295.8" height="158.9"/>
			</defs>
			<clipPath id="SVGID_00000178191167674669006670000011006214136974436788_">
				<use xlink:href="#SVGID_00000029010311220309229970000007051041968308420792_" style="overflow:visible;"/>
			</clipPath>
			<g style="clip-path:url(#SVGID_00000178191167674669006670000011006214136974436788_);">
				<g>
					<path class="st3" d="M133.9,76.2c0.2-0.6,0.7-1.3,1.6-2.3l0.9-0.9c0.4-0.4,0.6-0.7,0.8-0.9c0.1-0.2,0.2-0.6,0.2-1       c0-0.8-0.3-1.2-0.9-1.2c-0.4,0-0.7,0.1-0.8,0.4s-0.2,0.8-0.2,1.5h-1.8v-0.4c0-2,0.9-2.9,2.8-2.9c0.9,0,1.6,0.3,2.1,0.8       s0.7,1.1,0.7,1.9c0,1-0.4,1.9-1.2,2.8l-1.4,1.5c-0.7,0.7-1,1.2-1,1.7h3.5v1.5h-5.5C133.6,77.6,133.7,76.8,133.9,76.2z"/>
				</g>
			</g>
		</g>
		<g>
			<defs>
				<rect id="SVGID_00000085951965495981226750000012909558096438013835_" x="115.1" width="295.8" height="158.9"/>
			</defs>
			<clipPath id="SVGID_00000176728569645160617610000016963095295047343023_">
				<use xlink:href="#SVGID_00000085951965495981226750000012909558096438013835_" style="overflow:visible;"/>
			</clipPath>
			<g style="clip-path:url(#SVGID_00000176728569645160617610000016963095295047343023_);">
				<g>
					<path class="st3" d="M177.6,70.2c1.6,0,2.5-0.6,2.8-1.7h1.4v10h-1.9v-7h-2.3V70.2z"/>
				</g>
			</g>
		</g>
		<g>
			<defs>
				<rect id="SVGID_00000084529937824807630030000015344033494147949753_" x="115.1" width="295.8" height="158.9"/>
			</defs>
			<clipPath id="SVGID_00000165214577486537385320000014258600342551090845_">
				<use xlink:href="#SVGID_00000084529937824807630030000015344033494147949753_" style="overflow:visible;"/>
			</clipPath>
			<g style="clip-path:url(#SVGID_00000165214577486537385320000014258600342551090845_);">
				<g>
					<path class="st3" d="M219.7,75.1c0,0.8,0.1,1.4,0.2,1.7c0.1,0.3,0.4,0.4,0.9,0.4c0.4,0,0.7-0.2,0.8-0.5s0.2-0.7,0.2-1.3       c0-0.5-0.1-1-0.2-1.2c-0.2-0.3-0.7-0.4-1.6-0.4v-1.5c0.7,0,1.1-0.1,1.4-0.3c0.2-0.2,0.4-0.6,0.4-1.1c0-0.7-0.3-1.1-0.9-1.1       c-0.6,0-0.9,0.3-0.9,0.8v0.6h-1.8V71c0-1.7,0.9-2.6,2.6-2.6c1.8,0,2.7,0.8,2.7,2.5c0,0.6-0.1,1.1-0.4,1.5       c-0.2,0.4-0.6,0.6-1,0.6c1.1,0.1,1.6,1,1.6,2.4c0,2.1-1,3.2-2.9,3.2c-1.8,0-2.7-1-2.7-2.9v-0.6H219.7z"/>
				</g>
			</g>
		</g>
		<g>
			<defs>
				<rect id="SVGID_00000026847622917088156110000005707345777072597403_" x="115.1" width="295.8" height="158.9"/>
			</defs>
			<clipPath id="SVGID_00000124884497457588764520000012276772974522324115_">
				<use xlink:href="#SVGID_00000026847622917088156110000005707345777072597403_" style="overflow:visible;"/>
			</clipPath>
			<g style="clip-path:url(#SVGID_00000124884497457588764520000012276772974522324115_);">
				<g>
					<path class="st3" d="M150.7,32.8c0,0.7,0.1,1.2,0.2,1.5c0.1,0.3,0.4,0.4,0.8,0.4c0.7,0,1-0.6,1-1.7v-0.7c0-1.1-0.4-1.7-1.1-1.7       c-0.3,0-0.5,0.1-0.7,0.3c-0.2,0.2-0.3,0.3-0.3,0.5H149l0.3-5.2h4.9v1.5h-3.4l-0.1,2.1c0.3-0.4,0.8-0.6,1.5-0.6       c0.9,0,1.6,0.3,2,0.9s0.6,1.5,0.6,2.6c0,1.2-0.2,2.1-0.7,2.7c-0.5,0.6-1.2,0.8-2.1,0.8c-1.1,0-1.9-0.3-2.3-0.8       c-0.4-0.5-0.6-1.4-0.6-2.6H150.7z"/>
				</g>
			</g>
		</g>
		<g>
			<defs>
				<rect id="SVGID_00000164488694748558677800000012917564718316012703_" x="115.1" width="295.8" height="158.9"/>
			</defs>
			<clipPath id="SVGID_00000085960932762492991920000007924225862860951202_">
				<use xlink:href="#SVGID_00000164488694748558677800000012917564718316012703_" style="overflow:visible;"/>
			</clipPath>
			<g style="clip-path:url(#SVGID_00000085960932762492991920000007924225862860951202_);">
				<g>
					<path class="st3" d="M205,32.4l3.1-6.3h2.1v6.3h0.9v1.5h-0.9V36h-1.9v-2.1H205V32.4z M206.4,32.4h1.9v-4.1L206.4,32.4z"/>
				</g>
			</g>
		</g>
		<g>
			<defs>
				<rect id="SVGID_00000057829849379802008870000002500902115322043801_" x="115.1" width="295.8" height="158.9"/>
			</defs>
			<clipPath id="SVGID_00000050654899046015573580000016789691572741864877_">
				<use xlink:href="#SVGID_00000057829849379802008870000002500902115322043801_" style="overflow:visible;"/>
			</clipPath>
			<g style="clip-path:url(#SVGID_00000050654899046015573580000016789691572741864877_);">
				<g>
					<path class="st3" d="M260.6,38.3c0.3-0.5,0.8-0.7,1.4-0.7c0.8,0,1.4,0.3,1.8,0.8s0.6,1.3,0.6,2.4c0,1.3-0.2,2.2-0.6,2.8       s-1.1,0.9-2.2,0.9s-1.8-0.3-2.2-1c-0.4-0.6-0.6-1.6-0.6-2.8v-2.5c0-1.4,0.2-2.5,0.6-3.1s1.2-0.9,2.3-0.9c0.9,0,1.5,0.2,1.9,0.6       c0.4,0.4,0.6,0.9,0.6,1.4v0.2h-1.7c0-0.3-0.1-0.5-0.2-0.6s-0.3-0.2-0.5-0.2c-0.8,0-1.1,0.5-1.1,1.6L260.6,38.3L260.6,38.3z        M260.6,40.6v0.9c0,0.6,0.1,1,0.2,1.3c0.1,0.2,0.4,0.4,0.7,0.4c0.3,0,0.6-0.1,0.7-0.3c0.2-0.2,0.2-0.5,0.2-1.1v-1.4       c0-0.8-0.3-1.2-0.9-1.2C260.9,39.1,260.6,39.6,260.6,40.6z"/>
				</g>
			</g>
		</g>
		<g>
			<defs>
				<rect id="SVGID_00000165926314213805989590000002963199006613031300_" x="115.1" width="295.8" height="158.9"/>
			</defs>
			<clipPath id="SVGID_00000105410199732735769290000013946949863774638220_">
				<use xlink:href="#SVGID_00000165926314213805989590000002963199006613031300_" style="overflow:visible;"/>
			</clipPath>
			<g style="clip-path:url(#SVGID_00000105410199732735769290000013946949863774638220_);">
				<g>
					<path class="st3" d="M291.8,44.3c0-0.8,0.3-2.1,0.8-3.9c0.5-1.8,1.2-3.3,1.9-4.5h-4v-1.5h5.7v1.4c-0.8,1.5-1.4,3-1.8,4.5       c-0.4,1.6-0.6,2.9-0.6,4H291.8z"/>
				</g>
			</g>
		</g>
		<g>
			<defs>
				<rect id="SVGID_00000098194021152529415770000012117280330752977295_" x="115.1" width="295.8" height="158.9"/>
			</defs>
			<clipPath id="SVGID_00000085239981891044404180000016351757601740952757_">
				<use xlink:href="#SVGID_00000098194021152529415770000012117280330752977295_" style="overflow:visible;"/>
			</clipPath>
			<g style="clip-path:url(#SVGID_00000085239981891044404180000016351757601740952757_);">
				<g>
					<path class="st3" d="M357.6,68.9h1.7c0,0.6,0.3,0.8,0.7,0.8c0.4,0,0.7-0.1,0.9-0.4c0.2-0.3,0.3-0.7,0.3-1.2v-1       c-0.3,0.5-0.8,0.7-1.4,0.7c-0.8,0-1.4-0.3-1.8-0.8s-0.6-1.3-0.6-2.4c0-1.3,0.2-2.3,0.6-2.9c0.4-0.6,1.1-0.9,2.2-0.9       s1.8,0.3,2.2,1c0.4,0.6,0.6,1.6,0.6,2.8v2.5c0,1.4-0.2,2.5-0.6,3.1s-1.2,0.9-2.3,0.9c-0.8,0-1.4-0.2-1.8-0.6s-0.6-0.9-0.6-1.5       v-0.1H357.6z M359.2,63.8v1.4c0,0.8,0.3,1.2,0.9,1.2s0.9-0.5,0.9-1.5V64c0-0.6-0.1-1-0.2-1.3c-0.1-0.2-0.4-0.4-0.7-0.4       c-0.3,0-0.6,0.1-0.7,0.3C359.3,62.9,359.2,63.3,359.2,63.8z"/>
				</g>
			</g>
		</g>
		<g>
			<defs>
				<rect id="SVGID_00000016058830068696930000000015981946503276138893_" x="115.1" width="295.8" height="158.9"/>
			</defs>
			<clipPath id="SVGID_00000047741899152064566030000004770198167157558176_">
				<use xlink:href="#SVGID_00000016058830068696930000000015981946503276138893_" style="overflow:visible;"/>
			</clipPath>
			<g style="clip-path:url(#SVGID_00000047741899152064566030000004770198167157558176_);">
				<g>
					<path class="st3" d="M289,141.7c-0.4-0.2-0.7-0.4-0.9-0.8c-0.2-0.3-0.3-0.9-0.3-1.5c0-0.7,0.2-1.2,0.7-1.7       c0.5-0.4,1.1-0.6,1.9-0.6c1.7,0,2.6,0.8,2.6,2.5c0,0.7-0.1,1.2-0.3,1.5s-0.5,0.5-1,0.7c0.5,0.1,0.8,0.3,1.1,0.7       c0.3,0.3,0.4,0.9,0.4,1.9c0,2-0.9,3.1-2.8,3.1c-1,0-1.7-0.2-2.2-0.7s-0.7-1.2-0.7-2.3c0-0.8,0.1-1.4,0.3-1.8       C288.2,142.2,288.6,141.9,289,141.7z M289.5,143.8v0.8c0,0.8,0.3,1.2,1,1.2c0.6,0,0.9-0.5,0.9-1.4v-0.8c0-0.9-0.3-1.3-0.9-1.3       C289.8,142.4,289.5,142.9,289.5,143.8z M289.6,139.8c0,0.9,0.3,1.3,0.9,1.3s0.9-0.5,0.9-1.4c0-0.8-0.3-1.1-0.9-1.1       C289.9,138.5,289.6,138.9,289.6,139.8z"/>
				</g>
			</g>
		</g>
	</g>
</g>
<text transform="matrix(1 0 0 1 2.258301e-02 87.4793)" class="st3 st55 st56">Vehicle Connector</text>
</svg>