<?xml version="1.0" encoding="UTF-8"?>
<!-- Generator: Adobe Illustrator 26.0.1, SVG Export Plug-In . SVG Version: 6.00 Build 0)  -->
<svg version="1.1" id="Layer_1" xmlns="http://www.w3.org/2000/svg" xmlns:xlink="http://www.w3.org/1999/xlink" x="0px" y="0px" viewBox="0 0 701.6 180.6" style="enable-background:new 0 0 701.6 180.6;" xml:space="preserve">
<style type="text/css">
	.st0{clip-path:url(#SVGID_00000026872222091352322660000005658557452612118967_);}
	.st1{fill:#1F2123;}
	.st2{clip-path:url(#SVGID_00000145754058574231423290000014967852415514815408_);}
	.st3{fill:#FFFFFF;}
	.st4{clip-path:url(#SVGID_00000083794764454570270920000000650815286144815550_);}
	.st5{clip-path:url(#SVGID_00000154399617093743264840000008091890088574593169_);}
	.st6{clip-path:url(#SVGID_00000034771004883299460330000006749428509148333452_);}
	.st7{clip-path:url(#SVGID_00000021838307190473594960000005648919801951084444_);}
	.st8{clip-path:url(#SVGID_00000151511646615511894180000017175663165749082767_);}
	.st9{clip-path:url(#SVGID_00000113352569789719539450000003121080512562220179_);}
	.st10{clip-path:url(#SVGID_00000043424967297217410760000017365115780629724844_);}
	.st11{fill:#231F20;}
	.st12{clip-path:url(#SVGID_00000153705599046535571140000018173580010838068657_);}
	.st13{clip-path:url(#SVGID_00000169534094105124935000000005199333712213587605_);}
	.st14{clip-path:url(#SVGID_00000083058976463994204850000002592960811249528244_);}
	.st15{clip-path:url(#SVGID_00000051351903439916153870000009084900519456157101_);}
	.st16{clip-path:url(#SVGID_00000011004511212985809890000018014637592410805902_);}
	.st17{clip-path:url(#SVGID_00000137845523056804790630000012459654533544982180_);}
	.st18{clip-path:url(#SVGID_00000052782387805943321420000015112849748256855970_);}
	.st19{clip-path:url(#SVGID_00000182527543555676254620000003144002200552407989_);}
	.st20{clip-path:url(#SVGID_00000044156727003283092740000001867529251735402915_);}
	.st21{clip-path:url(#SVGID_00000054252596028675949810000016765886384000845962_);}
	.st22{clip-path:url(#SVGID_00000136390118028153734520000002750350473741137305_);}
	.st23{clip-path:url(#SVGID_00000018201628391242667240000010557877073287494802_);}
	.st24{clip-path:url(#SVGID_00000121266088137557084910000006282471467496406172_);}
	.st25{clip-path:url(#SVGID_00000166638158798569269480000004603067052464113553_);}
	.st26{clip-path:url(#SVGID_00000142866920857687858650000008201755277103763360_);}
	.st27{clip-path:url(#SVGID_00000127756107720710422810000011909298586156124037_);}
	.st28{clip-path:url(#SVGID_00000029007272924834488990000005086424522953139891_);}
	.st29{clip-path:url(#SVGID_00000089556380410717274690000012084021024952449684_);}
	.st30{clip-path:url(#SVGID_00000071555660149877729640000005966655402661616529_);}
	.st31{clip-path:url(#SVGID_00000119089545651009898820000010233708016768526992_);}
	.st32{clip-path:url(#SVGID_00000128480134871429705940000016057021087179338417_);}
	.st33{clip-path:url(#SVGID_00000074404303088738452790000001395053958587320498_);}
	.st34{clip-path:url(#SVGID_00000172436300712891260680000013365607061216765092_);}
	.st35{clip-path:url(#SVGID_00000009582672463745664020000002118580163902784675_);}
	.st36{clip-path:url(#SVGID_00000031900277088656752780000016160706867608736181_);}
	.st37{clip-path:url(#SVGID_00000180326807167934825650000011884369814276017060_);}
	.st38{clip-path:url(#SVGID_00000129184562705335370580000004438089065617602435_);}
	.st39{clip-path:url(#SVGID_00000166662360081250480290000006734376431618743443_);}
	.st40{clip-path:url(#SVGID_00000114073753540732648830000007330796512650154431_);}
	.st41{clip-path:url(#SVGID_00000114769253660666212250000016748144335866570368_);}
	.st42{clip-path:url(#SVGID_00000111875288326995336570000004909415151047347108_);}
	.st43{clip-path:url(#SVGID_00000038404788805606757330000005273300380399783343_);}
	.st44{clip-path:url(#SVGID_00000110471754163515366070000011838134976809143485_);}
	.st45{clip-path:url(#SVGID_00000137097424290788051010000006559002690076024718_);}
	.st46{clip-path:url(#SVGID_00000066497392963546352180000005713880328842790833_);}
	.st47{fill:#E12827;}
	.st48{clip-path:url(#SVGID_00000060752075450678376090000010624103146508655001_);}
	.st49{clip-path:url(#SVGID_00000101071185872643012220000002983204974086899871_);}
	.st50{clip-path:url(#SVGID_00000168075063470995813730000010848491167090736789_);}
	.st51{clip-path:url(#SVGID_00000168797529903215400290000007198389837917388711_);}
	.st52{clip-path:url(#SVGID_00000006710227096842766010000013502019079849071000_);}
	.st53{clip-path:url(#SVGID_00000078045651792544818150000009780229783343278222_);}
	.st54{clip-path:url(#SVGID_00000068677160073362270090000010228168995276303790_);}
	.st55{clip-path:url(#SVGID_00000039116037369307109820000008523069219716972679_);}
	.st56{clip-path:url(#SVGID_00000102509977864517852100000001173572324367939723_);}
	.st57{clip-path:url(#SVGID_00000004521272396480394100000000070080807258050460_);}
	.st58{clip-path:url(#SVGID_00000037659334231184966490000017096752719910444673_);}
	.st59{clip-path:url(#SVGID_00000079480228204029160370000012887260232316221331_);}
	.st60{clip-path:url(#SVGID_00000018202147239537040920000002294894021104551840_);}
	.st61{clip-path:url(#SVGID_00000074430561810726090590000002203403722165259939_);}
	.st62{clip-path:url(#SVGID_00000103235642387091030530000014353666152606141863_);}
	.st63{clip-path:url(#SVGID_00000013163995833485369560000008897555946030620315_);}
	.st64{clip-path:url(#SVGID_00000117676384608893309700000009064492911274488745_);}
	.st65{clip-path:url(#SVGID_00000025439587409652393740000002351512789529710728_);}
	.st66{font-family:'HelveticaNeue-Medium';}
	.st67{font-size:24px;}
	.st68{font-family:'HelveticaNeue';}
	.st69{font-size:14px;}
	.st70{fill:#919090;}
</style>
<g>
	<g>
		<g>
			<defs>
				<rect id="SVGID_1_" x="227.4" y="31.3" width="124.4" height="98.9"/>
			</defs>
			<clipPath id="SVGID_00000095308235423439486960000017232471749817802630_">
				<use xlink:href="#SVGID_1_" style="overflow:visible;"/>
			</clipPath>
			<g style="clip-path:url(#SVGID_00000095308235423439486960000017232471749817802630_);">
				<path class="st1" d="M248.7-105.2c0,0-5.9-10.4-5.5-10.4c0.5,0-1.5-0.2-1.5-0.2l-2.5,0.3c-1,0.8-2.7,6.1-5.8,18.2      c-6.3,24.5-7.6,58.8-2,82.9c0.4,1.8,0.5,1.4,1.5,2.8c1.4,2,4.4,5.1,7.4,8.6c7.4,8.8,4.1,10.4,2.8,24.4      c-1.1,11.7-0.1,32.5,6,75.6c1.4,9.8,7.6,18.2,17.1,20.3c4.8,1.1,10.9,2,22,2h1.7c11.2,0,17.2-1.3,22.1-2.4      c9.4-2.1,15.7-10.3,17.2-20c6.1-43.1,7.1-63.9,6-75.6c-1.3-14-4.8-15.5,2.7-24.3c3-3.5,5.9-6.7,7.4-8.6c1-1.4,1.1-1,1.5-2.8      c5.6-24.1,4.2-58.4-2-82.9c-3.1-12.1-4.8-17.3-5.8-18.2l-2.5-0.3c0,0-2,0.2-1.5,0.2c0.5,0-5.5,10.3-5.5,10.3"/>
			</g>
		</g>
		<g>
			<defs>
				<rect id="SVGID_00000024685689772154588080000005935075083586200764_" x="227.4" y="31.3" width="124.4" height="98.9"/>
			</defs>
			<clipPath id="SVGID_00000148654949079954341370000010276017994498171304_">
				<use xlink:href="#SVGID_00000024685689772154588080000005935075083586200764_" style="overflow:visible;"/>
			</clipPath>
			<g style="clip-path:url(#SVGID_00000148654949079954341370000010276017994498171304_);">
				<path class="st3" d="M288,120.1c-11.5,0-17.4-0.9-22.2-2c-9.1-2-16-10.1-17.4-20.6c-5.4-38-7.3-62.1-6-75.9      c0.3-3.7,0.8-6.5,1.2-8.7c1.1-6.5,1.5-9-3.9-15.5c-1.2-1.4-2.5-2.9-3.6-4.1c-1.6-1.8-3-3.4-3.8-4.5c-0.3-0.3-0.4-0.6-0.6-0.8      c-0.5-0.6-0.7-0.8-0.9-2.2c-5.4-23.2-4.6-57.4,2-83.2c3.7-14.2,5-17.6,5.9-18.3l0.1-0.1l2.7-0.3l0,0c0.8,0.1,1.2,0.1,1.5,0.2      l0,0h0.1l0,0c0.3,0.1,0.3,0.2,0.3,0.3c0,0,0,0.1-0.1,0.2c0.4,1.2,3.5,6.6,5.4,9.9l-0.6,0.3c-4.1-7.1-5.3-9.3-5.5-10.2      c-0.4,0-1-0.1-1.2-0.1l-2.4,0.3c-1.2,1.3-3.7,10.3-5.6,17.9c-6.6,25.7-7.5,59.8-2,82.9c0.3,1.3,0.4,1.4,0.8,1.9      c0.2,0.2,0.3,0.4,0.6,0.8c0.8,1.1,2.2,2.7,3.8,4.5c1.1,1.3,2.4,2.6,3.6,4.2c5.7,6.7,5.2,9.4,4.1,16.1c-0.3,2.3-0.8,5.1-1.2,8.7      c-1.3,13.8,0.6,37.8,6,75.7c1.4,10.2,8.1,18.1,16.9,20c4.7,1,10.6,2,22,2h1.7c11.6,0,17.7-1.4,22.1-2.3      c8.8-2,15.5-9.7,16.9-19.8c5.4-37.9,7.3-61.9,6-75.7c-0.3-3.7-0.8-6.5-1.3-8.8c-1.1-6.5-1.6-9.2,4-15.8c1.2-1.4,2.5-2.9,3.6-4.2      c1.6-1.8,3-3.3,3.8-4.5c0.3-0.3,0.4-0.6,0.6-0.8c0.4-0.5,0.5-0.7,0.8-1.9c5.4-23.1,4.6-57.2-2-82.9c-2-7.7-4.4-16.6-5.6-17.9      l-2.4-0.3c-0.2,0-0.8,0.1-1.2,0.1c-0.3,0.8-1.4,3.1-5.5,10.1l-0.6-0.3c2-3.3,5-8.7,5.4-9.9c0-0.1-0.1-0.1-0.1-0.2      c0-0.2,0-0.3,0.3-0.3l0,0h0.3l0,0c0.3,0,0.7-0.1,1.3-0.1l0,0l2.7,0.3l0.1,0.1c0.9,0.8,2.3,4.2,5.9,18.3      c6.6,25.8,7.5,60.1,2,83.2c-0.3,1.4-0.4,1.6-1,2.2c-0.2,0.2-0.3,0.4-0.6,0.8c-0.8,1.1-2.2,2.7-3.8,4.5c-1.1,1.3-2.4,2.7-3.6,4.2      c-5.4,6.4-5,8.8-3.8,15.3c0.4,2.3,0.9,5.2,1.3,8.8c1.3,13.8-0.6,37.9-6,75.9c-1.4,10.4-8.3,18.3-17.5,20.4      c-5.6,1.3-11.6,2.4-22.3,2.4L288,120.1z"/>
			</g>
		</g>
		<g>
			<defs>
				<rect id="SVGID_00000056407512463387763650000004229763159365851578_" x="227.4" y="31.3" width="124.4" height="98.9"/>
			</defs>
			<clipPath id="SVGID_00000014625123597607458640000007456182931519651263_">
				<use xlink:href="#SVGID_00000056407512463387763650000004229763159365851578_" style="overflow:visible;"/>
			</clipPath>
			<g style="clip-path:url(#SVGID_00000014625123597607458640000007456182931519651263_);">
				<path class="st3" d="M285.4,97.6c-3.7,0-7-0.1-11.1-0.6c-9-1.1-15.6-2.9-18.1-15.7c-5.2-26.3-6.3-37.7-7.8-61.1      c-0.1-1.3-0.2-2.5-0.2-3.6c-0.5-8.5-0.7-12.7-7-18.9c-3.6-3.6-8.2-8.8-8.3-8.8l0.3-0.3c0.1,0.1,4.7,5.3,8.3,8.8      c6.4,6.4,6.6,11,7.1,19.3c0.1,1.1,0.1,2.3,0.2,3.6c1.5,23.4,2.6,34.7,7.8,61c2.5,12.5,8.9,14.3,17.8,15.4      c5.1,0.7,9,0.7,13.8,0.6h1.3c4.8,0.1,8.7,0,13.8-0.6c8.8-1.1,15.3-2.9,17.8-15.4c5.2-26.3,6.3-37.6,7.8-61      c0.1-1.3,0.2-2.5,0.2-3.6c0.4-8.3,0.7-12.9,7.1-19.3c3.6-3.6,8.2-8.7,8.3-8.8l0.3,0.3c-0.1,0.1-4.8,5.3-8.3,8.8      c-6.2,6.2-6.5,10.4-7,18.9c-0.1,1.1-0.2,2.3-0.2,3.6c-1.5,23.4-2.6,34.7-7.8,61.1c-2.5,12.8-9.1,14.6-18.2,15.7      c-5.2,0.7-9,0.7-13.8,0.6h-1.3C287.2,97.6,286.4,97.6,285.4,97.6z"/>
			</g>
		</g>
		<g>
			<defs>
				<rect id="SVGID_00000087393720542154407500000013801572033204619411_" x="227.4" y="31.3" width="124.4" height="98.9"/>
			</defs>
			<clipPath id="SVGID_00000029045099021682018950000011772484208410686121_">
				<use xlink:href="#SVGID_00000087393720542154407500000013801572033204619411_" style="overflow:visible;"/>
			</clipPath>
			<g style="clip-path:url(#SVGID_00000029045099021682018950000011772484208410686121_);">
				<path class="st1" d="M289.4,72.2l2.5-0.1c12.3,0,19.7-1.7,22.2-2.3c2.5-0.6,4.8-1.4,5.7-5.9c3.1-17.5,4.9-35.2,6.1-55.6      c0.3-5.2,1.7-8.1,3.5-11.9c1.4-3.1,3.5-5.8,5.2-9.1c1.4-2.5,2.3-5.6,2.5-10c1.4-22.3,2.4-43.2-3.1-73.2      c-0.4-2.5-2.5-4.3-4.3-4.5c-4.6-0.3-11-1.4-40.2-1.4h-1.4c-29.2,0-35.6,1-40.2,1.4c-1.9,0.2-3.9,2-4.3,4.5      c-5.5,30.2-4.6,51-3.1,73.2c0.3,4.4,1.2,7.5,2.5,10c1.8,3.2,3.8,6,5.3,9.1c1.8,3.8,3.1,6.7,3.5,11.9c1.2,20.5,3,38.1,6.1,55.6      c0.8,4.4,3.1,5.2,5.7,5.9c2.5,0.6,9.9,2.3,22.2,2.3l2.5,0.1H289.4z"/>
			</g>
		</g>
		<g>
			<defs>
				<rect id="SVGID_00000152258178146735762070000009651099072853375125_" x="227.4" y="31.3" width="124.4" height="98.9"/>
			</defs>
			<clipPath id="SVGID_00000024713922905473082210000007336611259976807093_">
				<use xlink:href="#SVGID_00000152258178146735762070000009651099072853375125_" style="overflow:visible;"/>
			</clipPath>
			<g style="clip-path:url(#SVGID_00000024713922905473082210000007336611259976807093_);">
				<path class="st3" d="M288.3,72.3l-2.5-0.1c-8.5,0-16-0.8-22.3-2.3c-2.7-0.7-4.9-1.5-5.8-5.9c-3-16.3-4.8-33.5-6.1-55.7      c-0.3-4.9-1.6-7.7-3.2-11.3l-0.3-0.6c-0.8-1.8-1.9-3.4-2.9-5.2c-0.8-1.3-1.5-2.5-2.3-3.9c-1.5-2.8-2.3-5.9-2.5-10      c-1.5-23.5-2.2-43.8,3.1-73.3c0.4-2.3,2.5-4.4,4.4-4.6c0.7-0.1,1.4-0.1,2.1-0.2c4.8-0.4,13-1.2,38.1-1.2h1.4      c25.1,0,33.2,0.8,38.1,1.2c0.8,0.1,1.4,0.2,2.1,0.2c2,0.2,4,2.2,4.4,4.6c5.4,29.5,4.7,49.8,3.1,73.3c-0.3,4.2-1,7.2-2.5,10      c-0.8,1.4-1.5,2.6-2.3,3.9c-1.1,1.8-2.1,3.4-2.9,5.2l-0.3,0.6c-1.6,3.6-2.9,6.4-3.2,11.3c-1.3,22.2-3.1,39.3-6.1,55.7      c-0.8,4.3-3.1,5.3-5.8,5.9c-6.3,1.5-13.8,2.3-22.3,2.3L288.3,72.3z M289.5-101.6h-1.4c-25.1,0-33.3,0.8-38.1,1.2      c-0.8,0.1-1.4,0.2-2.1,0.2c-1.7,0.1-3.8,2-4.2,4.4c-5.4,29.5-4.7,49.8-3.1,73.3c0.3,4.1,1,7.2,2.5,9.9c0.8,1.4,1.5,2.6,2.3,3.9      c1.1,1.8,2.1,3.4,2.9,5.2l0.3,0.6c1.6,3.6,3,6.4,3.2,11.4c1.3,22.2,3.1,39.4,6.1,55.6c0.8,4.2,3.1,5.1,5.6,5.8      c6.3,1.5,13.8,2.3,22.2,2.3l2.5,0.1h1.2l2.5-0.1c8.4,0,15.9-0.8,22.2-2.3c2.6-0.6,4.8-1.5,5.6-5.8c3-16.3,4.8-33.5,6.1-55.6      c0.3-4.9,1.6-7.8,3.2-11.4l0.3-0.6c0.8-1.8,1.9-3.4,2.9-5.2c0.8-1.3,1.6-2.5,2.3-3.9c1.5-2.8,2.3-5.9,2.5-9.9      c1.5-23.5,2.2-43.8-3.1-73.3c-0.4-2.5-2.5-4.3-4.2-4.4c-0.7-0.1-1.4-0.1-2.1-0.2C322.8-101,314.7-101.6,289.5-101.6z"/>
			</g>
		</g>
	</g>
	<g>
		<polygon class="st1" points="304.4,88.4 304.1,87.5 302.9,87 301.8,87.5 301.5,88.4 301.8,89.5 302.9,89.7 304.1,89.5   "/>
	</g>
	<g>
		<path class="st3" d="M302.9,89.9l-1.4-0.3l-0.3-1.3l0.3-0.9l1.4-0.6l1.4,0.6l0.3,0.9l-0.3,1.3L302.9,89.9z M301.8,89.4l1.1,0.3    l1.1-0.3l0.3-1l-0.3-0.8l-1.1-0.5l-1.1,0.5l-0.3,0.8L301.8,89.4z"/>
	</g>
	<g>
		<polygon class="st1" points="304.4,79.9 304.1,78.9 302.9,78.5 301.8,78.9 301.5,79.9 301.8,81 302.9,81.2 304.1,81   "/>
	</g>
	<g>
		<path class="st3" d="M302.9,81.5l-1.4-0.3l-0.3-1.3l0.3-1.3l1.4-0.3l1.4,0.3l0.3,1.3l-0.3,1.3L302.9,81.5z M301.8,81l1.1,0.3    l1.1-0.3l0.3-1l-0.3-1l-1.1-0.3l-1.1,0.3l-0.3,1L301.8,81z"/>
	</g>
	<g>
		<polygon class="st1" points="295.4,79.9 294.9,78.9 293.9,78.5 292.8,78.9 292.2,79.9 292.8,81 293.9,81.2 294.9,81   "/>
	</g>
	<g>
		<path class="st3" d="M294,81.5L294,81.5l-1.3-0.3l-0.7-1.3l0.7-1.3l1.3-0.3l1,0.3l0.7,1.3l-0.7,1.3L294,81.5z M292.8,81l1.1,0.3    l0.8-0.3l0.6-1l-0.6-1l-0.8-0.3l-1.1,0.3l-0.6,1L292.8,81z"/>
	</g>
	<g>
		<polygon class="st1" points="295.4,88.4 294.9,87.5 293.9,87 292.8,87.5 292.2,88.4 292.8,89.5 293.9,89.7 294.9,89.5   "/>
	</g>
	<g>
		<path class="st3" d="M294,89.9L294,89.9l-1.3-0.3l-0.7-1.3l0.7-0.9l1.3-0.6l1,0.7l0.7,0.9l-0.7,1.3L294,89.9z M292.8,89.4l1.1,0.3    l0.8-0.3l0.6-1l-0.6-0.8l-0.8-0.5l-1.1,0.5l-0.6,0.8L292.8,89.4z"/>
	</g>
	<g>
		<polygon class="st1" points="286.1,79.9 285.9,78.9 284.7,78.5 283.8,78.9 283.2,79.9 283.8,81 284.7,81.2 285.9,81   "/>
	</g>
	<g>
		<path class="st3" d="M284.7,81.5L284.7,81.5l-1-0.3l-0.7-1.3l0.7-1.3l1-0.3l1.4,0.3l0.3,1.3l-0.3,1.3L284.7,81.5z M283.8,81    l0.8,0.3l1.1-0.3l0.3-1l-0.3-1l-1.1-0.3l-0.8,0.3l-0.6,1L283.8,81z"/>
	</g>
	<g>
		<polygon class="st1" points="286.1,88.4 285.9,87.5 284.7,87 283.8,87.5 283.2,88.4 283.8,89.5 284.7,89.7 285.9,89.5   "/>
	</g>
	<g>
		<path class="st3" d="M284.7,89.9l-1-0.3l-0.7-1.3l0.7-0.9l1-0.6l1.4,0.6l0.3,0.9l-0.3,1.3L284.7,89.9z M283.8,89.4l0.8,0.3    l1.1-0.3l0.3-1l-0.3-0.8l-1.1-0.5l-0.8,0.5l-0.6,0.8L283.8,89.4z"/>
	</g>
	<g>
		<polygon class="st1" points="277.1,79.9 276.9,78.9 275.7,78.5 274.6,78.9 274.2,79.9 274.6,81 275.7,81.2 276.9,81   "/>
	</g>
	<g>
		<path class="st3" d="M275.7,81.5l-1.4-0.3l-0.3-1.3l0.3-1.3l1.4-0.3l1.4,0.3l0.3,1.3l-0.3,1.3L275.7,81.5z M274.6,81l1.1,0.3    l1.1-0.3l0.3-1l-0.3-1l-1.1-0.3l-1.1,0.3l-0.3,1L274.6,81z"/>
	</g>
	<g>
		<polygon class="st1" points="277.1,88.4 276.9,87.5 275.7,87 274.6,87.5 274.2,88.4 274.6,89.5 275.7,89.7 276.9,89.5   "/>
	</g>
	<g>
		<path class="st3" d="M275.7,89.9l-1.4-0.3l-0.3-1.3l0.3-0.9l1.4-0.6l1.4,0.6l0.3,0.9l-0.3,1.3L275.7,89.9z M274.6,89.4l1.1,0.3    l1.1-0.3l0.3-1l-0.3-0.8l-1.1-0.5l-1.1,0.5l-0.3,0.8L274.6,89.4z"/>
	</g>
	<g>
		<g>
			<defs>
				<rect id="SVGID_00000177442300668558566080000009266343446944057487_" x="227.4" y="31.3" width="124.4" height="98.9"/>
			</defs>
			<clipPath id="SVGID_00000001659518871065063520000000352373148052850857_">
				<use xlink:href="#SVGID_00000177442300668558566080000009266343446944057487_" style="overflow:visible;"/>
			</clipPath>
			<g style="clip-path:url(#SVGID_00000001659518871065063520000000352373148052850857_);">
				<path class="st1" d="M261.4,119.2c9.9,3.6,46,2.7,53.8-0.3c6-2.3,14.4-8.3,15.5-16.3c2.5-16.6,6.8-44.1,7.6-79.5l-2.4,4.2      c-2.6,2.8-8.2,17.2-9,25.4c-1.2,13.2-3.8,29.6-6.3,37c-2,5.6-7.2,7.2-15.1,7.8L290,98.3h-2.1l-15.4-0.8c-7.9-0.6-14-4.3-16-9.9      c-2.5-7.2-3.9-21.4-5.2-34.8c-0.8-8.2-6.5-22.5-9.1-25.4l-2.4-4.7c0.4,32.1,4.5,64.9,7.7,79.7      C249.2,110.2,255,116.9,261.4,119.2"/>
			</g>
		</g>
		<g>
			<defs>
				<rect id="SVGID_00000051357412461357703930000014943050029226083221_" x="227.4" y="31.3" width="124.4" height="98.9"/>
			</defs>
			<clipPath id="SVGID_00000114759706178506110900000000805124093261745334_">
				<use xlink:href="#SVGID_00000051357412461357703930000014943050029226083221_" style="overflow:visible;"/>
			</clipPath>
			<g style="clip-path:url(#SVGID_00000114759706178506110900000000805124093261745334_);">
				<path class="st3" d="M286.6,122.2c-10.5,0-20.8-0.8-25.4-2.4l0,0c-6.8-2.4-12.5-9.3-14.2-17.2c-3.5-15.9-7.4-49.4-7.8-80.2      c0-0.2,0.1-0.3,0.3-0.3s0.3,0,0.4,0.2l2.4,4.7c2.6,3,8.5,17.5,9.2,25.7c1.2,13.1,2.7,27.7,5.2,34.9c1.9,5.4,7.9,9.2,15.7,9.8      l15.5,0.8h2.1l15.5-0.8c7.8-0.6,13-2.1,14.9-7.6c2.6-7.6,5.2-24.5,6.3-37.1c0.8-8.2,6.5-22.8,9.1-25.7l2.4-4.2      c0.1-0.2,0.3-0.2,0.4-0.2c0.2,0.1,0.3,0.2,0.3,0.3c-0.7,34.5-4.8,61.9-7.3,78.3l-0.3,1.6c-1.2,7.8-9.1,14.2-15.9,16.7      C310.9,121.3,298.6,122.2,286.6,122.2z M261.3,119.1c9.6,3.4,45.9,2.7,53.8-0.3c6.6-2.5,14.3-8.6,15.5-16.1l0.3-1.6      c2.5-16.1,6.5-43.1,7.3-76.8l-1.7,3.1c0,0,0,0.1-0.1,0.1c-2.5,2.7-8.2,17.1-8.9,25.3c-1.2,12.7-3.7,29.6-6.4,37.3      c-2,5.9-7.4,7.5-15.5,8.1L290,98.9h-2.2l-15.5-0.8c-8.2-0.7-14.4-4.6-16.4-10.3c-2.5-7.3-4-22-5.2-35.1      c-0.8-8.2-6.5-22.5-9.1-25.3c0,0,0-0.1-0.1-0.1l-1.7-3.4c0.5,30.3,4.3,62.9,7.7,78.5C249.3,110.1,254.8,116.8,261.3,119.1      L261.3,119.1z"/>
			</g>
		</g>
		<g>
			<defs>
				<rect id="SVGID_00000063624097948968615550000011501291331927251129_" x="227.4" y="31.3" width="124.4" height="98.9"/>
			</defs>
			<clipPath id="SVGID_00000021807419978999534360000003466905948457767601_">
				<use xlink:href="#SVGID_00000063624097948968615550000011501291331927251129_" style="overflow:visible;"/>
			</clipPath>
			<g style="clip-path:url(#SVGID_00000021807419978999534360000003466905948457767601_);">
				<path class="st1" d="M290.4,99c5.1,0,8.5-0.3,15-0.8c5.8-0.3,13.3-1.9,16.5-11.1c2.9-8.4,4.6-25.3,5.4-30.7      c0.8-5.4,3.7-16.4,5.5-20c1.6-3.2,5.2-9.7,5.4-12.2c0.3-2.5-1.9-3.9-3.7-6.5c2.5,6.5-6.5,23.6-8.9,38.4      c-2.3,14.8-3.3,21.3-5.3,28.4c-2.1,7.8-8.1,11-15.2,11.8c-7.1,0.7-14.3,0.9-14.3,0.9l-3,0.1L272,96.5      c-8.9-1.5-13.4-5.6-14.9-12.1c-2-9.1-3.9-18.9-5.9-31.7c-2.4-14.8-10.3-28.5-7.8-35.1c-1.8,2.6-3.9,4-3.7,6.5      c0.3,2.5,3.1,7.9,4.8,11c1.9,3.4,4.1,12.3,4.8,17.8c0.8,5.4,3.1,25.3,5.4,32.9c2.8,9.5,11.8,12,17.5,12.4      c6.6,0.4,9.6,0.6,15,0.8L290.4,99z"/>
			</g>
		</g>
		<g>
			<defs>
				<rect id="SVGID_00000080209084773401772460000015922545486366786239_" x="227.4" y="31.3" width="124.4" height="98.9"/>
			</defs>
			<clipPath id="SVGID_00000114753239713953749820000005614447787901591179_">
				<use xlink:href="#SVGID_00000080209084773401772460000015922545486366786239_" style="overflow:visible;"/>
			</clipPath>
			<g style="clip-path:url(#SVGID_00000114753239713953749820000005614447787901591179_);">
				<path class="st3" d="M290.4,99.2h-3c-5.4-0.2-8.4-0.3-15-0.8c-4.3-0.3-14.6-2-17.7-12.6c-1.9-6.3-3.8-21.1-4.8-29      c-0.3-1.8-0.4-3.2-0.6-4.2c-0.8-5.6-3.1-14.4-4.8-17.8l-0.2-0.3c-1.8-3.4-4.5-8.4-4.8-11c-0.2-1.9,0.8-3.1,2.1-4.6      c0.5-0.6,1-1.3,1.6-2l0.6-0.8l-0.3,0.9c-1.4,3.7,0.7,10,3.1,17.3c1.8,5.4,3.8,11.6,4.8,17.9c2.1,13.5,3.9,23,5.9,31.9      c1.5,6.7,6.4,10.6,14.8,12.1l15.8,0.8l3-0.1c0.1,0,7.2-0.3,14.3-0.9c8.2-0.8,13.3-4.8,15.1-11.8c1.9-7,2.9-13.4,5.1-27.6l0.2-1      c1-6.4,3.2-13.3,5.3-19.4c2.7-8.3,5.1-15.5,3.7-19.3l-0.3-0.9l0.6,0.8c0.5,0.8,1,1.4,1.6,2c1.3,1.5,2.3,2.7,2.1,4.6      c-0.2,2-2.4,6.4-4.2,9.9c-0.4,0.9-0.9,1.8-1.3,2.5c-1.7,3.5-4.8,14.6-5.5,20.1c-0.2,1-0.3,2.5-0.5,4.2      c-0.9,7.4-2.5,19.9-4.8,26.8c-3.1,9.3-10.5,11-16.6,11.3c-1.3,0.1-2.5,0.2-3.6,0.3C297.4,98.9,294.5,99.2,290.4,99.2L290.4,99.2      z M243.1,17.7c-0.4,0.5-0.8,1-1.2,1.4c-1.3,1.5-2.2,2.7-2,4.4c0.3,2.5,3.1,7.7,4.7,10.9l0.2,0.3c1.8,3.4,4.1,12.2,4.8,17.9      c0.2,0.9,0.3,2.4,0.6,4.2c1,7.9,3,22.7,4.8,29c3.1,10.4,13.3,12.1,17.5,12.4c6.6,0.4,9.6,0.6,15,0.8h3c4.1,0,7.1-0.3,11.5-0.5      c1.1-0.1,2.3-0.2,3.6-0.3c6-0.4,13.3-2,16.4-11.2c2.3-6.9,3.8-19.3,4.8-26.8c0.2-1.7,0.4-3.1,0.5-4.2c0.8-5.5,3.8-16.7,5.5-20.2      c0.3-0.7,0.8-1.5,1.3-2.5c1.7-3.3,4-7.8,4.2-9.8c0.2-1.8-0.8-3-2-4.4c-0.3-0.4-0.8-0.9-1.2-1.4c0.9,3.9-1.4,10.8-3.9,18.8      c-2,6.1-4.2,13-5.2,19.4l-0.2,1c-2.2,14.2-3.2,20.6-5.1,27.6c-2,7.1-7.1,11.1-15.4,12c-7.1,0.7-14.2,0.9-14.3,0.9l-3,0.1      l-15.8-0.8c-8.6-1.4-13.4-5.4-15-12.2c-2-8.9-3.8-18.5-5.9-31.9c-1-6.3-3.1-12.5-4.8-17.9C244.1,27.6,242.1,21.5,243.1,17.7z"/>
			</g>
		</g>
	</g>
	<g>
		<polygon class="st3" points="270.2,61.5 270.2,59.1 269.3,59.1 269.3,58.7 271.6,58.7 271.6,59.1 270.7,59.1 270.7,61.5   "/>
	</g>
	<g>
		<path class="st11" d="M270.8,61.7h-0.7v-2.6h-1v-0.6h2.6v0.6h-1L270.8,61.7L270.8,61.7z M270.3,61.5h0.2v-2.6h1v-0.1h-2.1v0.1h1    L270.3,61.5L270.3,61.5z"/>
	</g>
	<g>
		<rect x="277.8" y="61" class="st3" width="0.4" height="0.5"/>
	</g>
	<g>
		<path class="st11" d="M278.5,61.7h-0.8v-0.8h0.8V61.7z M277.9,61.5h0.4V61h-0.4V61.5z"/>
	</g>
	<g>
		<rect x="282.1" y="60.4" class="st3" width="0.9" height="0.3"/>
	</g>
	<g>
		<rect x="289.7" y="60.4" class="st3" width="0.9" height="0.3"/>
	</g>
	<g>
		<rect x="297.3" y="60.4" class="st3" width="0.9" height="0.3"/>
	</g>
	<g>
		<g>
			<defs>
				<rect id="SVGID_00000106114433166332454760000014722423775347468694_" x="227.4" y="31.3" width="124.4" height="98.9"/>
			</defs>
			<clipPath id="SVGID_00000127726389699233495870000011497724331137683865_">
				<use xlink:href="#SVGID_00000106114433166332454760000014722423775347468694_" style="overflow:visible;"/>
			</clipPath>
			<g style="clip-path:url(#SVGID_00000127726389699233495870000011497724331137683865_);">
				<path class="st3" d="M298.5,61.5L298.5,61.5c0-0.3,0.1-0.5,0.2-0.7c0.2-0.2,0.3-0.3,0.7-0.5l0.3-0.1c0.2-0.1,0.3-0.2,0.3-0.3      c0.1-0.1,0.1-0.2,0.1-0.3c0-0.2-0.1-0.3-0.2-0.3s-0.3-0.1-0.4-0.1s-0.3,0.1-0.4,0.2c-0.1,0.1-0.2,0.3-0.2,0.4l0,0h-0.3v-0.1      c0-0.3,0.1-0.5,0.3-0.7s0.4-0.3,0.7-0.3s0.5,0.1,0.7,0.3c0.2,0.2,0.3,0.3,0.3,0.6c0,0.2-0.1,0.3-0.2,0.5s-0.3,0.3-0.4,0.3      l-0.3,0.1c-0.2,0.1-0.3,0.2-0.4,0.3S299,61,299,61.2h1.4v0.3H298.5z"/>
			</g>
		</g>
		<g>
			<defs>
				<rect id="SVGID_00000137118901494303520180000011997082213480602264_" x="227.4" y="31.3" width="124.4" height="98.9"/>
			</defs>
			<clipPath id="SVGID_00000019642180668938131400000013982368086981149108_">
				<use xlink:href="#SVGID_00000137118901494303520180000011997082213480602264_" style="overflow:visible;"/>
			</clipPath>
			<g style="clip-path:url(#SVGID_00000019642180668938131400000013982368086981149108_);">
				<path class="st3" d="M301.2,60.1c-0.1-0.1-0.2-0.1-0.3-0.3c-0.1-0.1-0.1-0.2-0.1-0.3c0-0.2,0.1-0.3,0.3-0.5      c0.2-0.1,0.3-0.2,0.6-0.2c0.3,0,0.4,0.1,0.6,0.2c0.2,0.2,0.3,0.3,0.3,0.5c0,0.2,0,0.3-0.1,0.3c-0.1,0.1-0.2,0.2-0.3,0.3      c0.2,0.1,0.3,0.2,0.3,0.3c0.1,0.1,0.1,0.3,0.1,0.4c0,0.3-0.1,0.4-0.3,0.6c-0.2,0.2-0.4,0.3-0.7,0.3c-0.3,0-0.5-0.1-0.7-0.3      c-0.2-0.2-0.3-0.3-0.3-0.6c0-0.2,0-0.3,0.1-0.4C300.9,60.3,301,60.2,301.2,60.1 M301.1,60.8c0,0.2,0.1,0.3,0.2,0.4      c0.1,0.1,0.3,0.2,0.4,0.2c0.2,0,0.3-0.1,0.4-0.2c0.1-0.1,0.2-0.3,0.2-0.4c0-0.2-0.1-0.3-0.2-0.3c-0.1-0.1-0.3-0.2-0.4-0.2      c-0.2,0-0.3,0.1-0.4,0.2C301.1,60.5,301.1,60.6,301.1,60.8 M301.2,59.6c0,0.1,0.1,0.3,0.2,0.3c0.1,0.1,0.2,0.1,0.3,0.1      s0.3,0,0.3-0.1c0.1-0.1,0.2-0.2,0.2-0.3s0-0.3-0.1-0.3c-0.1-0.1-0.2-0.1-0.3-0.1s-0.3,0-0.3,0.1      C301.2,59.3,301.2,59.5,301.2,59.6"/>
			</g>
		</g>
		<g>
			<defs>
				<rect id="SVGID_00000016052175744109117760000004479665692493687463_" x="227.4" y="31.3" width="124.4" height="98.9"/>
			</defs>
			<clipPath id="SVGID_00000091699400140303464740000011715085600539030923_">
				<use xlink:href="#SVGID_00000016052175744109117760000004479665692493687463_" style="overflow:visible;"/>
			</clipPath>
			<g style="clip-path:url(#SVGID_00000091699400140303464740000011715085600539030923_);">
				<path class="st3" d="M302.8,61.5L302.8,61.5c0-0.3,0.1-0.5,0.2-0.7c0.2-0.2,0.3-0.3,0.7-0.5l0.3-0.1c0.2-0.1,0.3-0.2,0.3-0.3      c0.1-0.1,0.1-0.2,0.1-0.3c0-0.2-0.1-0.3-0.2-0.3s-0.3-0.1-0.4-0.1s-0.3,0.1-0.4,0.2c-0.1,0.1-0.2,0.3-0.2,0.4l0,0h-0.3v-0.1      c0-0.3,0.1-0.5,0.3-0.7s0.3-0.3,0.7-0.3c0.3,0,0.5,0.1,0.7,0.3c0.2,0.2,0.3,0.3,0.3,0.6c0,0.2-0.1,0.3-0.2,0.5s-0.3,0.3-0.4,0.3      l-0.3,0.1c-0.2,0.1-0.3,0.2-0.4,0.3s-0.2,0.2-0.2,0.3h1.4v0.3H302.8z"/>
			</g>
		</g>
		<g>
			<defs>
				<rect id="SVGID_00000104693453869545293280000002227285854887889586_" x="227.4" y="31.3" width="124.4" height="98.9"/>
			</defs>
			<clipPath id="SVGID_00000162324779322118496590000012284643197507192452_">
				<use xlink:href="#SVGID_00000104693453869545293280000002227285854887889586_" style="overflow:visible;"/>
			</clipPath>
			<g style="clip-path:url(#SVGID_00000162324779322118496590000012284643197507192452_);">
				<path class="st1" d="M335.1-47.2c0-0.3,0-0.7,0-0.9c0-1.9-0.1-3.7-0.1-5.5c0-0.3,0-0.7,0-1c-0.1-1.9-0.1-3.7-0.2-5.5      c0-0.3,0-0.6,0-0.8c-0.1-1.9-0.2-3.7-0.3-5.5c0-0.3-0.1-0.7-0.1-0.9c-0.2-1.9-0.3-3.7-0.4-5.5c0-0.3-0.1-0.7-0.1-0.9      c-0.2-1.9-0.3-3.7-0.6-5.5c0-0.3-0.1-0.6-0.1-0.8c-0.3-1.9-0.5-3.7-0.8-5.5c-0.1-0.3-0.1-0.7-0.2-1c-0.3-1.4-0.4-2.8-0.7-4.2      c-0.1-0.6-0.3-1.3-0.3-1.9c-0.1-0.3-0.1-0.4-0.2-0.6c-0.1-0.3-0.1-0.5-0.2-0.8c-0.2-1.1-1-2-2-2.5c-0.3-0.2-0.7-0.3-1-0.3      c-0.4,0-0.9-0.1-1.4-0.1s-0.8-0.1-1.2-0.1c-1.7-0.1-3.3-0.2-5-0.3c-0.3,0-0.8,0-1.1-0.1c-1.4-0.1-2.9-0.2-4.2-0.2      c-0.4,0-0.8,0-1.3-0.1c-1.4-0.1-2.9-0.1-4.3-0.2c-0.4,0-0.8,0-1.2,0c-1.4-0.1-3-0.1-4.4-0.1c-0.4,0-0.8,0-1.3,0      c-1.4,0-2.7-0.1-4.1-0.1c-0.4,0-0.9,0-1.4,0c-1.5,0-3.1,0-4.7,0c-0.4,0-0.8,0-1.2,0c-1.4,0-2.6,0-4,0c-0.3,0-0.8,0-1.1,0      c-1.6,0-3.3,0-4.9,0.1c-0.4,0-0.8,0-1.2,0c-1.4,0-2.6,0.1-4,0.1c-0.4,0-0.8,0-1.2,0c-1.5,0-3.1,0.1-4.6,0.1c-0.4,0-0.8,0-1.2,0      c-1.4,0.1-2.9,0.1-4.3,0.2c-0.3,0-0.7,0-1,0.1c-1.4,0.1-2.9,0.1-4.3,0.2c-0.4,0-0.8,0-1.2,0.1c-1.6,0.1-3.1,0.2-4.8,0.3      c-0.4,0-0.9,0.1-1.4,0.1c-0.5,0-0.9,0.1-1.4,0.1c-0.4,0-0.8,0.2-1.3,0.3c-0.9,0.5-1.6,1.4-1.8,2.4c-0.1,0.3-0.2,0.7-0.2,1      c0,0.2-0.1,0.3-0.1,0.5c-0.1,0.5-0.3,1.1-0.3,1.6c-0.3,1.4-0.5,2.8-0.8,4.2c-0.1,0.3-0.1,0.6-0.2,0.8c-0.3,1.8-0.5,3.7-0.8,5.5      c0,0.3-0.1,0.7-0.1,1c-0.2,1.8-0.4,3.7-0.6,5.5c0,0.3-0.1,0.5-0.1,0.8c-0.1,1.1-0.2,2.2-0.3,3.2c-0.1,0.8-0.1,1.5-0.2,2.3      c0,0.3-0.1,0.6-0.1,0.9c-0.1,1.9-0.3,3.7-0.3,5.5c0,0.3,0,0.8-0.1,1.1c-0.1,1.9-0.2,3.7-0.2,5.5c0,0.3,0,0.6,0,0.9      c-0.1,1.9-0.1,3.7-0.1,5.5c0,0.3,0,0.6,0,0.8c0,1.9,0,3.7,0,5.5c0,0.3,0,0.7,0,0.9c0,1.9,0.1,3.7,0.2,5.5c0,0.3,0,0.7,0,0.9      c0.1,1.9,0.2,3.7,0.3,5.5c0,0.3,0,0.6,0.1,0.8c0.1,1.5,0.3,3.1,0.4,4.6c0,0.3,0.1,0.7,0.1,1c0,0.3,0.1,0.7,0.1,1      c0.2,1.2,0.3,2.5,0.4,3.6c0,0.4,0.1,0.8,0.3,1.4c0.1,0.3,0.1,0.4,0.2,0.7c0.1,0.3,0.2,0.7,0.3,0.9c0.3,0.8,0.6,1.5,0.9,2      l0.8,1.4l0.5,0.8l2.5,4.2l0.1,0.2c0.2,0.3,0.3,0.6,0.5,0.8c0.6,1.1,1.2,2.6,1.7,4c0.2,0.5,0.3,1,0.4,1.5      c0.1,0.3,0.2,0.7,0.3,0.9c0.1,0.2,0.1,0.4,0.1,0.6s0.1,0.3,0.1,0.6l0,0c0,0.2,0.1,0.4,0.1,0.6c0,0.2,0.1,0.4,0.1,0.6      c0,0.2,0.1,0.4,0.1,0.6c0,0.2,0,0.4,0.1,0.6c0,0.2,0,0.3,0,0.4c0,0.1,0,0.1,0,0.2c0,0.2,0,0.4,0,0.6c0,0.8,0.1,1.6,0.1,2.5      c0,0.4,0,0.8,0.1,1.4c0,0.3,0,0.8,0.1,1.1c0,0.2,0,0.4,0,0.6c0,0.6,0.1,1.2,0.1,1.9c0.1,0.8,0.1,1.6,0.2,2.5      c0,0.3,0,0.6,0.1,0.9c0,0.3,0.1,0.7,0.1,1c0,0.2,0,0.3,0,0.4c0.1,0.8,0.1,1.6,0.2,2.5c0.1,0.8,0.1,1.6,0.2,2.5      c0,0.1,0,0.2,0,0.3c0,0.3,0.1,0.6,0.1,0.8c0,0.4,0.1,0.8,0.1,1.3c0.1,0.8,0.2,1.6,0.2,2.4c0.1,0.6,0.1,1.2,0.2,1.9      c0,0.2,0,0.4,0.1,0.6c0,0.1,0,0.3,0,0.3c0.1,0.7,0.1,1.4,0.2,2c0.1,0.8,0.2,1.6,0.3,2.4c0,0.3,0.1,0.7,0.1,1s0.1,0.6,0.1,0.9      c0,0.2,0,0.3,0.1,0.4c0.1,0.8,0.2,1.6,0.3,2.4s0.2,1.6,0.3,2.4c0,0.1,0,0.2,0,0.3c0,0.3,0.1,0.6,0.1,0.9      c0.1,0.4,0.1,0.8,0.2,1.2c0.1,0.8,0.2,1.6,0.3,2.4c0.1,0.6,0.2,1.2,0.3,1.8c0,0.2,0.1,0.4,0.1,0.6c0.1,0.4,0.1,0.8,0.2,1.4      c0.1,0.9,0.3,2,0.4,3.1c0.1,0.6,0.2,1.2,0.3,1.8c0,0.3,0.1,0.4,0.1,0.7c0.3,1.5,0.4,3.1,0.7,4.5c0.3,1.6,0.5,3.1,0.7,4.2      c0,0.1,0,0.2,0.1,0.3c0.1,0.3,0.2,0.6,0.3,0.8c0.5,0.8,1.3,1.4,2.1,1.6c0.5,0.2,1.1,0.3,1.6,0.4c1.7,0.4,3.6,0.8,5.5,1.1      c1.7,0.3,3.5,0.5,5.4,0.8c0.4,0.1,0.8,0.1,1.3,0.2c1.4,0.2,2.6,0.3,4.1,0.3c0.4,0,0.8,0.1,1.3,0.1c1.4,0.1,3,0.2,4.4,0.2      c0.3,0,0.6,0,0.8,0c1.5,0,3.1,0,4.6,0c0.4,0,0.8,0,1.2,0c1.4,0,2.8-0.1,4.2-0.2c0.5,0,1-0.1,1.5-0.1c1.4-0.1,2.8-0.3,4.2-0.3      c0.4,0,0.8-0.1,1.2-0.1c1.8-0.2,3.5-0.4,5.1-0.7c2.1-0.3,4.1-0.8,5.9-1.2c0.4-0.1,0.8-0.3,1.2-0.3c0.8-0.2,1.5-0.7,2-1.4      c0.3-0.3,0.4-0.7,0.4-1.1c0-0.1,0-0.1,0-0.2c0.2-1.2,0.4-2.6,0.7-4.3c0.2-1.3,0.4-2.6,0.6-4c0.1-0.4,0.1-0.8,0.2-1.3      c0.1-0.6,0.2-1.2,0.3-1.8c0.2-1,0.3-2,0.4-2.8c0.1-0.5,0.2-1,0.2-1.4c0-0.3,0.1-0.6,0.1-0.9c0.1-0.5,0.2-1,0.2-1.5      c0.1-0.8,0.2-1.6,0.3-2.4c0.1-0.4,0.1-0.8,0.2-1.2s0.1-0.7,0.1-1c0-0.1,0-0.1,0-0.2c0.1-0.8,0.2-1.6,0.3-2.4      c0.1-0.8,0.2-1.6,0.3-2.4c0-0.2,0-0.3,0.1-0.6c0-0.3,0.1-0.6,0.1-0.9s0.1-0.6,0.1-0.9c0.1-0.8,0.2-1.6,0.3-2.4      c0.1-0.8,0.2-1.4,0.2-2.2c0-0.1,0-0.2,0-0.3c0-0.3,0.1-0.5,0.1-0.8c0.1-0.6,0.1-1.1,0.2-1.7c0.1-0.8,0.2-1.6,0.2-2.4      c0-0.5,0.1-0.9,0.1-1.4c0-0.3,0.1-0.6,0.1-0.9l0,0c0.1-0.8,0.1-1.6,0.2-2.5c0.1-0.8,0.1-1.6,0.2-2.5c0-0.3,0-0.4,0-0.7      c0-0.3,0-0.6,0.1-0.9c0-0.3,0-0.6,0.1-0.8c0.1-0.8,0.1-1.6,0.2-2.5c0-0.7,0.1-1.4,0.1-2.1c0-0.1,0-0.2,0-0.3      c0-0.3,0-0.8,0.1-1.1c0-0.4,0-0.8,0.1-1.4c0-0.8,0.1-1.6,0.1-2.5c0-0.2,0-0.4,0-0.6c0-0.1,0-0.1,0-0.2c0-0.2,0-0.3,0-0.4      c0-0.2,0-0.4,0.1-0.6c0-0.2,0.1-0.4,0.1-0.6c0-0.2,0.1-0.4,0.1-0.6c0-0.2,0.1-0.3,0.1-0.5V2.3c0-0.2,0.1-0.4,0.1-0.6      s0.1-0.4,0.1-0.6c0.1-0.3,0.2-0.7,0.3-1.1c0.1-0.4,0.3-0.8,0.4-1.4c0.4-1.4,1-2.8,1.6-4c0.2-0.3,0.3-0.7,0.5-0.9l0.1-0.1      l2.5-4.3l0.6-1.1l0.8-1.3c0.3-0.5,0.7-1.2,0.9-2c0.1-0.3,0.3-0.7,0.3-1c0.1-0.3,0.1-0.4,0.2-0.7c0.1-0.5,0.2-0.9,0.2-1.4      c0.2-1.1,0.3-2.3,0.4-3.6c0-0.3,0.1-0.6,0.1-0.8c0.2-1.8,0.3-3.7,0.5-5.5c0-0.3,0.1-0.7,0.1-0.9c0.1-1.8,0.3-3.7,0.3-5.5      c0-0.3,0-0.7,0.1-1.1c0.1-1.8,0.1-3.7,0.2-5.5c0-0.3,0-0.5,0-0.8C335.1-43.5,335.1-45.4,335.1-47.2 M249.1-24.7v-1v-5.5v-0.8      v-5.5v-1v-5.5v-0.9v-5.5v-0.8V-57v-0.9v-5.5v-1.1V-70V-71v-5.5v-0.8v-5.4h2.4h1.1h5.7h1.1h3.2h1.2h5.5h1.2h3.3h1.1h5.4h1.4h3.1      h1.3h5.6h1.2h3.2h1.3h5.6h1.2h3.3h1h5.4h1.4h3.1h1.3h5.6h1.2h2.1v5.4v0.8v5.5v0.9v5.5v0.9v5.5v0.8v5.5v1v5.5v0.9v5.5v0.8v5.5      v1.1v5.5v0.9v2.3h-3.4H324h-3.1h-1.3H314h-5.3h-5.8h-1.1h-3.2h-1.3h-5.6h-1.1h-3.1h-1.3h-5.6h-5.4h-5.8h-1h-3.1H264h-5.6h-1.2      H254h-1.1h-3.7L249.1-24.7L249.1-24.7z M271.9-7.1c0-1.7,1.1-3.1,2.6-3.5c0.3-0.1,0.6-0.1,0.9-0.1h0.1c0.9,0,1.8,0.4,2.5,1.1      c0.3,0.3,0.5,0.6,0.7,0.9s0.3,0.8,0.3,1.1h0.8h1.2h4.2c0.1-0.8,0.4-1.4,0.9-2c0.3-0.3,0.5-0.5,0.8-0.7c0.5-0.3,1.1-0.5,1.8-0.5      c0.8,0,1.4,0.3,2,0.6c0.3,0.2,0.5,0.4,0.7,0.6c0.4,0.5,0.8,1.2,0.8,2h4.2h1.4h0.5c0.1-0.4,0.2-0.8,0.3-1.1s0.4-0.7,0.7-1      c0.7-0.7,1.5-1.1,2.5-1.1c0.1,0,0.2,0,0.2,0c0.4,0,0.8,0.1,1.1,0.3c1.4,0.5,2.3,1.9,2.3,3.4c0,0.3,0,0.4-0.1,0.7      c-0.1,0.3-0.2,0.8-0.3,1c-0.4,0.8-1.1,1.4-2,1.7c-0.3,0.2-0.8,0.2-1.2,0.2h-0.1c-1.6-0.1-3-1.2-3.4-2.7h-1.3h-5.1      c-0.2,0.8-0.6,1.4-1.1,1.9c-0.6,0.5-1.4,0.8-2.4,0.8c-0.7,0-1.4-0.2-1.9-0.5c-0.8-0.5-1.4-1.3-1.6-2.2h-4.8h-1.7      c-0.3,1.4-1.5,2.5-3,2.7c-0.2,0-0.3,0-0.5,0c-0.2,0-0.4,0-0.6-0.1c-1.1-0.2-2-0.8-2.5-1.9c-0.2-0.3-0.3-0.6-0.3-0.9      C271.9-6.6,271.9-6.8,271.9-7.1 M316.3,28c0,0.3,0,0.7-0.1,1.1c0,0.3-0.1,0.7-0.1,1.1c0,0.3-0.1,0.7-0.2,1.1      c-0.1,0.3-0.1,0.7-0.2,1.1c-0.2,0.8-0.4,1.8-0.7,2.6c-0.3,0.8-0.6,1.7-0.9,2.5c-0.3,0.8-0.8,1.6-1.2,2.5      c-0.4,0.8-0.8,1.5-1.4,2.3c-1,1.5-2.1,2.9-3.4,4.2c-1.3,1.3-2.6,2.5-4.2,3.4c-1.5,1-3.1,1.9-4.8,2.5c-1.6,0.7-3.4,1.2-5.1,1.5      c-1.8,0.3-3.6,0.5-5.4,0.5c-1.8,0-3.6-0.2-5.4-0.5c-1.8-0.3-3.5-0.8-5.1-1.5c-1.6-0.7-3.2-1.5-4.8-2.5c-1.5-1-2.9-2.1-4.2-3.4      c-1.3-1.3-2.4-2.7-3.4-4.2c-0.5-0.8-0.9-1.5-1.4-2.3s-0.8-1.6-1.2-2.5c-0.3-0.8-0.7-1.7-0.9-2.5c-0.3-0.8-0.5-1.7-0.7-2.6      c0-0.2-0.1-0.4-0.1-0.6s-0.1-0.4-0.1-0.6s-0.1-0.4-0.1-0.6s-0.1-0.4-0.1-0.6s0-0.4-0.1-0.6c0-0.2,0-0.4-0.1-0.6      c0-0.2,0-0.4,0-0.6s0-0.4,0-0.6s0-0.4,0-0.6c0-0.3,0-0.8,0-1.1c0-0.3,0-0.7,0.1-1.1c0-0.3,0.1-0.7,0.1-1.1      c0-0.3,0.1-0.7,0.2-1.1c0.1-0.3,0.1-0.7,0.2-1.1c0.2-0.8,0.4-1.8,0.7-2.6c0.3-0.8,0.6-1.7,0.9-2.5c0.3-0.8,0.8-1.6,1.2-2.5      c0.4-0.8,0.8-1.5,1.4-2.3c1-1.5,2.1-2.9,3.4-4.2c1.3-1.3,2.6-2.5,4.2-3.4c1.5-1,3.1-1.9,4.8-2.5c1.7-0.7,3.4-1.2,5.1-1.5      c1.8-0.3,3.6-0.5,5.4-0.5c1.8,0,3.6,0.2,5.4,0.5c1.8,0.3,3.5,0.8,5.1,1.5c1.6,0.7,3.2,1.5,4.8,2.5s2.9,2.1,4.2,3.4      c1.3,1.3,2.4,2.7,3.4,4.2c0.5,0.8,0.9,1.5,1.4,2.3s0.8,1.6,1.2,2.5c0.3,0.8,0.7,1.7,0.9,2.5c0.3,0.8,0.5,1.7,0.7,2.6      c0,0.2,0.1,0.4,0.1,0.6s0.1,0.4,0.1,0.6c0,0.2,0.1,0.4,0.1,0.6c0,0.2,0.1,0.4,0.1,0.6c0,0.2,0,0.4,0.1,0.6c0,0.2,0,0.4,0.1,0.6      c0,0.2,0,0.4,0,0.6c0,0.2,0,0.4,0,0.6c0,0.2,0,0.4,0,0.6C316.3,27.2,316.3,27.6,316.3,28"/>
			</g>
		</g>
		<g>
			<defs>
				<rect id="SVGID_00000129190417091150735220000013597446304211831446_" x="227.4" y="31.3" width="124.4" height="98.9"/>
			</defs>
			<clipPath id="SVGID_00000100355121283774127610000000619473560798451364_">
				<use xlink:href="#SVGID_00000129190417091150735220000013597446304211831446_" style="overflow:visible;"/>
			</clipPath>
			<g style="clip-path:url(#SVGID_00000100355121283774127610000000619473560798451364_);">
				<path class="st3" d="M289.1,71.5c-0.8,0-1.7,0-2.5,0c-0.3,0-0.6,0-0.8,0c-1.5,0-3.1-0.1-4.5-0.2h-0.1c-0.4,0-0.8-0.1-1.2-0.1      c-1.4-0.1-2.7-0.2-4.1-0.3l-1.3-0.2c-1.9-0.2-3.7-0.4-5.4-0.8c-2-0.3-3.8-0.7-5.5-1.1c-0.6-0.2-1.1-0.3-1.6-0.4      c-0.8-0.2-1.8-0.8-2.3-1.7c-0.2-0.3-0.3-0.6-0.4-0.9v-0.1c0-0.1,0-0.1,0-0.2c-0.2-1.1-0.4-2.6-0.7-4.2c-0.3-1.4-0.4-3-0.7-4.5      l-0.1-0.7c-0.1-0.6-0.2-1.2-0.3-1.8c-0.2-1.1-0.3-2.1-0.4-3.1c-0.1-0.5-0.2-0.9-0.2-1.4c0-0.2-0.1-0.4-0.1-0.6l-0.3-1.8      c-0.1-0.8-0.2-1.6-0.3-2.4l-0.3-2.2c0-0.1,0-0.2,0-0.3c-0.1-0.8-0.2-1.6-0.3-2.5c-0.1-0.8-0.2-1.6-0.3-2.5l-0.1-0.4      c0-0.2,0-0.4-0.1-0.6v-0.3c0-0.3-0.1-0.7-0.1-1.1c-0.1-0.8-0.2-1.6-0.3-2.5c-0.1-0.7-0.2-1.4-0.2-2c0-0.2,0-0.3,0-0.3l-0.1-0.9      c-0.1-0.5-0.1-1-0.2-1.5c-0.1-0.8-0.2-1.6-0.2-2.5c0-0.4-0.1-0.8-0.1-1.3l-0.1-1.1c-0.1-0.8-0.1-1.6-0.2-2.5      c-0.1-0.8-0.1-1.6-0.2-2.5v-0.4c0-0.3,0-0.6-0.1-0.8l-0.3-7.1c0-0.4,0-0.8-0.1-1.4c0-0.6-0.1-1.1-0.1-1.7V5.9c0-0.2,0-0.3,0-0.4      V5.3c0-0.2,0-0.3,0-0.4c0-0.2,0-0.4-0.1-0.6c0-0.2-0.1-0.4-0.1-0.6c0-0.2-0.1-0.4-0.1-0.6S253,2.7,253,2.5V2.4      c0-0.2-0.1-0.3-0.1-0.5s-0.1-0.4-0.1-0.6c-0.1-0.3-0.1-0.6-0.3-0.9c-0.1-0.5-0.3-1-0.4-1.5c-0.5-1.4-1.1-2.9-1.7-4      c-0.2-0.3-0.3-0.6-0.5-0.8l-3.9-6.8c-0.4-0.6-0.8-1.4-0.9-2c-0.1-0.3-0.3-0.7-0.3-1c-0.1-0.3-0.1-0.4-0.2-0.7      c-0.1-0.5-0.2-1-0.3-1.4c-0.2-1-0.3-2.2-0.5-3.6l-0.3-2c-0.2-1.5-0.3-3.1-0.4-4.6c0-0.3,0-0.6-0.1-0.8c-0.1-1.8-0.3-3.7-0.3-5.6      v-0.9c-0.1-1.8-0.1-3.7-0.2-5.5c0-0.3,0-0.4,0-0.7v-0.3c0-1.9,0-3.7,0-5.6v-0.3c0-0.3,0-0.4,0-0.7c0-1.8,0.1-3.7,0.1-5.5      c0-0.3,0-0.5,0-0.8v-0.2c0.1-1.9,0.1-3.7,0.2-5.6l0.1-1.1c0.1-1.9,0.2-3.7,0.3-5.6c0-0.2,0-0.4,0.1-0.6v-0.3      c0.1-0.8,0.1-1.5,0.2-2.3c0.1-1.1,0.2-2.2,0.3-3.3l0.1-0.8c0.2-1.9,0.3-3.7,0.6-5.6l0.1-1c0.3-2,0.5-3.9,0.8-5.6l0.2-0.8      c0.3-1.4,0.5-2.9,0.8-4.2c0.1-0.6,0.3-1.1,0.3-1.7l0.1-0.5c0.1-0.3,0.2-0.7,0.2-1c0.2-1,0.9-2,2-2.5c0.4-0.3,0.9-0.3,1.4-0.3      c0.3,0,0.7,0,1-0.1l1.8-0.1c1.6-0.1,3.1-0.2,4.8-0.3l1.2-0.1c1.4-0.1,2.9-0.2,4.3-0.2l1-0.1c1.4-0.1,2.9-0.1,4.4-0.2h1.2      c1.5-0.1,3.1-0.1,4.6-0.1h1.2c1.4,0,2.6-0.1,4-0.1h1.2c1.7,0,3.3,0,5-0.1c0.4,0,0.8,0,1.2,0c1.4,0,2.6,0,4,0c0.4,0,0.8,0,1.2,0      c1.6,0,3.1,0,4.8,0h1.4c1.4,0,2.7,0.1,4.1,0.1h1.3c1.4,0,3,0.1,4.4,0.1h1.2c1.4,0.1,2.9,0.1,4.3,0.2l1.3,0.1      c1.4,0.1,2.9,0.1,4.3,0.2l1.1,0.1c1.7,0.1,3.4,0.2,5,0.3h0.4c0.3,0,0.5,0,0.8,0.1l1.4,0.1c0.3,0,0.8,0.1,1.1,0.3      c1.1,0.5,2,1.5,2.1,2.7l0.3,1.4c0.1,0.6,0.3,1.2,0.3,1.9c0.3,1.3,0.5,2.7,0.7,4.2l0.2,1c0.3,1.7,0.5,3.6,0.8,5.6      c0,0.3,0.1,0.6,0.1,0.9c0.2,1.8,0.4,3.7,0.6,5.6l0.1,0.9c0.2,1.8,0.3,3.7,0.4,5.5l0.1,0.9c0.1,1.8,0.3,3.7,0.3,5.6v0.8      c0.1,1.9,0.2,3.7,0.2,5.6v1c0.1,1.9,0.1,3.7,0.1,5.6c0,0.3,0,0.4,0,0.7v0.3c0,2,0,3.8,0,5.5v0.8c0,2-0.1,3.8-0.2,5.6      c0,0.3,0,0.7-0.1,1.1c-0.1,2-0.2,3.8-0.3,5.6l-0.1,0.9c-0.2,2-0.3,3.8-0.5,5.6c0,0.3-0.1,0.6-0.1,0.8c-0.2,1.4-0.3,2.5-0.5,3.6      c0,0.3-0.1,0.8-0.3,1.4c-0.1,0.3-0.1,0.4-0.2,0.7c-0.1,0.3-0.2,0.6-0.3,1c-0.3,0.8-0.6,1.5-0.9,2l-3.9,6.8      c-0.2,0.3-0.3,0.6-0.5,0.9c-0.6,1.1-1.2,2.5-1.6,3.9c-0.2,0.5-0.3,0.9-0.4,1.4c-0.1,0.4-0.2,0.8-0.3,1.1v0.2      c0,0.2-0.1,0.3-0.1,0.4c0,0.2-0.1,0.4-0.1,0.6v0.1c0,0.2-0.1,0.3-0.1,0.4c0,0.2-0.1,0.4-0.1,0.6c0,0.2-0.1,0.4-0.1,0.6      s0,0.4-0.1,0.6c0,0.2,0,0.3,0,0.4v0.2c0,0.2,0,0.4,0,0.6c0,0.8-0.1,1.6-0.1,2.5l-0.1,2.5c0,0.1,0,0.2,0,0.3      c0,0.7-0.1,1.4-0.1,2.1c0,0.8-0.1,1.6-0.2,2.5l-0.1,0.8c0,0.3,0,0.6-0.1,0.9v0.7c-0.1,0.8-0.1,1.6-0.2,2.5      c-0.1,0.8-0.1,1.6-0.2,2.5l-0.2,2.5c-0.1,0.8-0.2,1.6-0.2,2.4l-0.3,2.7c-0.1,0.8-0.2,1.4-0.2,2.2c-0.1,0.8-0.2,1.6-0.3,2.5      c0,0.2,0,0.4-0.1,0.6l-0.2,1.9c-0.1,0.8-0.2,1.6-0.3,2.5c-0.1,0.8-0.2,1.6-0.3,2.5l-0.2,1.4c0,0.3-0.1,0.7-0.1,1      c-0.1,0.8-0.2,1.6-0.3,2.4L321,50c-0.1,0.5-0.1,0.9-0.2,1.4c-0.1,0.8-0.3,1.8-0.4,2.8c-0.1,0.6-0.2,1.2-0.3,1.8l-0.2,1.3      c-0.2,1.4-0.4,2.7-0.6,4c-0.3,1.6-0.5,3.1-0.7,4.3v0.1v0.1c-0.1,0.4-0.3,0.8-0.5,1.2c-0.5,0.8-1.4,1.4-2.2,1.5      c-0.3,0.1-0.8,0.3-1.2,0.3c-1.8,0.4-3.8,0.8-5.9,1.2c-1.7,0.3-3.4,0.5-5.2,0.7c-0.3,0-0.8,0.1-1.1,0.1h-0.2      c-1.4,0.2-2.9,0.3-4.2,0.3c-0.5,0-1,0.1-1.5,0.1c-1.4,0.1-2.8,0.2-4.2,0.2c-0.4,0-0.8,0-1.2,0C290.5,71.5,289.8,71.5,289.1,71.5      z M289-98.5c-0.7,0-1.4,0-2,0c-0.4,0-0.8,0-1.2,0c-1.7,0-3.3,0-5,0.1h-1.2c-1.4,0-2.6,0.1-4,0.1h-1.2c-1.5,0-3.1,0.1-4.6,0.1      h-1.2c-1.4,0.1-2.9,0.1-4.4,0.2l-1,0.1c-1.4,0.1-2.9,0.1-4.3,0.2l-1.2,0.1c-1.6,0.1-3.1,0.2-4.8,0.3l-1.8,0.1      c-0.3,0-0.7,0-1,0.1c-0.4,0-0.8,0.1-1.2,0.3c-0.8,0.4-1.5,1.3-1.7,2.2c-0.1,0.3-0.2,0.7-0.3,1l-0.1,0.5      c-0.1,0.5-0.3,1.1-0.3,1.6c-0.3,1.4-0.5,2.8-0.8,4.2l-0.2,0.8c-0.3,1.7-0.5,3.6-0.8,5.5l-0.1,1c-0.3,1.9-0.4,3.7-0.6,5.5      l-0.1,0.8c-0.1,1.1-0.2,2.2-0.3,3.2c-0.1,0.8-0.1,1.5-0.2,2.3v0.3c0,0.2,0,0.4-0.1,0.6c-0.1,1.8-0.3,3.7-0.3,5.5l-0.1,1.1      c-0.1,1.9-0.2,3.7-0.2,5.5v0.2c0,0.3,0,0.5,0,0.8c-0.1,2-0.1,3.8-0.1,5.5c0,0.3,0,0.4,0,0.7v0.3c0,1.8,0,3.7,0,5.5v0.3      c0,0.3,0,0.4,0,0.7c0,1.9,0.1,3.7,0.2,5.5v0.9c0.1,2,0.2,3.8,0.3,5.5c0,0.3,0,0.6,0.1,0.8c0.1,1.5,0.3,3.1,0.4,4.6l0.3,2      c0.2,1.4,0.3,2.5,0.5,3.6c0,0.3,0.1,0.8,0.2,1.4c0.1,0.2,0.1,0.4,0.2,0.7c0.1,0.3,0.2,0.7,0.3,0.9c0.3,0.8,0.6,1.5,0.9,2      l3.9,6.8c0.2,0.3,0.3,0.5,0.5,0.8c0.6,1.1,1.2,2.6,1.7,4.1c0.2,0.5,0.3,1.1,0.5,1.5c0.1,0.4,0.2,0.7,0.3,1      c0,0.2,0.1,0.4,0.1,0.6s0.1,0.4,0.1,0.6c0,0.3,0.1,0.4,0.1,0.6c0,0.2,0.1,0.4,0.1,0.6c0,0.2,0.1,0.4,0.1,0.6      c0,0.2,0,0.4,0.1,0.6c0,0.2,0,0.3,0,0.5v0.2c0,0.2,0,0.3,0,0.5v0.9c0,0.6,0.1,1.1,0.1,1.7c0,0.4,0,0.8,0.1,1.4l0.3,7.1      c0,0.3,0,0.6,0.1,0.8v0.4c0.1,0.8,0.1,1.6,0.2,2.5s0.1,1.6,0.2,2.5l0.1,1.1c0,0.4,0.1,0.8,0.1,1.3c0.1,0.8,0.2,1.6,0.2,2.5      c0,0.5,0.1,1,0.2,1.5l0.1,0.9c0,0.1,0,0.3,0,0.3c0.1,0.7,0.2,1.4,0.2,2.1c0.1,0.8,0.2,1.6,0.3,2.5c0,0.3,0.1,0.7,0.1,1.1v0.3      c0,0.2,0,0.4,0.1,0.6l0.1,0.4c0.1,0.8,0.2,1.6,0.3,2.5c0.1,0.8,0.2,1.6,0.3,2.4c0,0.1,0,0.2,0,0.3l0.3,2.1      c0.1,0.8,0.2,1.6,0.3,2.4l0.3,1.8c0,0.2,0.1,0.4,0.1,0.6c0.1,0.4,0.1,0.8,0.2,1.4c0.1,0.9,0.3,2,0.4,3.1      c0.1,0.6,0.2,1.2,0.3,1.8l0.1,0.7c0.3,1.5,0.4,3.1,0.7,4.5c0.3,1.6,0.5,3.1,0.7,4.2c0,0.1,0,0.1,0,0.1v0.1      c0.1,0.3,0.2,0.6,0.3,0.8c0.4,0.8,1.2,1.4,2,1.4c0.5,0.2,1.1,0.3,1.6,0.4c1.7,0.4,3.6,0.8,5.5,1.1c1.7,0.3,3.5,0.5,5.4,0.8      l1.3,0.2c1.4,0.2,2.7,0.3,4.1,0.3c0.4,0,0.8,0.1,1.2,0.1h0.1c1.4,0.1,2.9,0.2,4.5,0.2c0.3,0,0.6,0,0.8,0c1.6,0,3.1,0,4.7,0      c0.4,0,0.8,0,1.2,0c1.4,0,2.8-0.1,4.2-0.2c0.5,0,1-0.1,1.5-0.1c1.4-0.1,2.8-0.2,4.2-0.3h0.2c0.3,0,0.8-0.1,1.1-0.1      c1.8-0.2,3.5-0.4,5.2-0.7c2.1-0.3,4.2-0.8,5.9-1.2c0.4-0.1,0.8-0.3,1.2-0.3c0.8-0.2,1.4-0.7,2-1.4c0.2-0.3,0.3-0.7,0.4-1v-0.1      v-0.1c0.2-1.2,0.4-2.6,0.7-4.3c0.2-1.3,0.4-2.6,0.6-4l0.2-1.3c0.1-0.6,0.2-1.2,0.3-1.8c0.2-1,0.3-2,0.4-2.8      c0.1-0.5,0.2-0.9,0.2-1.4l0.3-2.5c0.1-0.8,0.2-1.6,0.3-2.4c0-0.3,0.1-0.7,0.1-0.9l0.2-1.4c0.1-0.8,0.2-1.6,0.3-2.4      c0.1-0.8,0.2-1.6,0.3-2.4l0.2-1.9c0-0.2,0-0.4,0.1-0.6c0.1-0.8,0.2-1.6,0.3-2.5c0.1-0.8,0.2-1.4,0.2-2.2l0.3-2.6      c0.1-0.8,0.2-1.6,0.2-2.5l0.2-2.4c0.1-0.8,0.1-1.7,0.2-2.5c0.1-0.8,0.1-1.6,0.2-2.5v-0.7c0-0.3,0-0.6,0.1-0.9l0.1-0.8      c0.1-0.8,0.1-1.6,0.2-2.5c0-0.7,0.1-1.4,0.1-2.1c0-0.1,0-0.2,0-0.3l0.1-2.5c0-0.8,0.1-1.6,0.1-2.5c0-0.2,0-0.4,0-0.6V5.3      c0-0.2,0-0.3,0-0.4s0-0.4,0.1-0.6c0-0.2,0.1-0.4,0.1-0.6c0-0.3,0.1-0.4,0.1-0.6c0-0.2,0.1-0.3,0.1-0.5V2.5      c0-0.2,0.1-0.4,0.1-0.6s0.1-0.3,0.1-0.5V1.3c0.1-0.3,0.2-0.7,0.3-1.1c0.1-0.4,0.3-0.8,0.4-1.4c0.5-1.4,1.1-2.9,1.7-4      c0.2-0.4,0.4-0.7,0.5-0.9l0.1-0.1l3.9-6.7c0.3-0.5,0.6-1.2,0.9-2c0.2-0.4,0.3-0.7,0.3-1c0.1-0.3,0.1-0.4,0.2-0.7      c0.1-0.5,0.2-0.9,0.2-1.3c0.2-1.1,0.3-2.3,0.5-3.6c0-0.3,0.1-0.6,0.1-0.8c0.2-1.8,0.3-3.7,0.5-5.5l0.1-0.9      c0.1-1.8,0.3-3.7,0.3-5.5c0-0.3,0-0.8,0.1-1.1c0.1-1.8,0.1-3.7,0.2-5.5v-0.8c0-1.7,0-3.6,0-5.5v-0.3c0-0.3,0-0.4,0-0.7      c0-1.8-0.1-3.7-0.1-5.5v-1c-0.1-1.9-0.1-3.7-0.2-5.5V-61c-0.1-1.9-0.2-3.7-0.3-5.5l-0.1-0.9c-0.2-1.9-0.3-3.7-0.4-5.5l-0.1-0.9      c-0.2-1.9-0.3-3.7-0.6-5.5c0-0.3-0.1-0.6-0.1-0.8c-0.3-2-0.5-3.8-0.8-5.5l-0.2-1c-0.3-1.4-0.5-2.9-0.7-4.2      c-0.1-0.6-0.3-1.3-0.3-1.9l-0.3-1.4c-0.2-1-0.9-2-1.9-2.4c-0.3-0.2-0.7-0.2-1-0.3l-1.4-0.1c-0.3,0-0.5,0-0.8-0.1h-0.4      c-1.7-0.1-3.4-0.2-5-0.3l-1.1-0.1c-1.4-0.1-2.9-0.2-4.3-0.2l-1.3-0.1c-1.4-0.1-2.9-0.1-4.3-0.2H308c-1.4-0.1-3-0.1-4.4-0.1h-1.3      c-1.4,0-2.7-0.1-4.1-0.1h-1.4c-1.6,0-3.1,0-4.8,0c-0.4,0-0.8,0-1.2,0C290.4-98.5,289.7-98.5,289-98.5z M288.9,54.8      c-1.8,0-3.7-0.2-5.4-0.5s-3.5-0.8-5.2-1.6c-1.7-0.7-3.3-1.5-4.8-2.5c-1.5-1-2.9-2.2-4.2-3.5c-1.3-1.3-2.5-2.7-3.5-4.2      c-0.5-0.8-0.9-1.5-1.4-2.4c-0.4-0.8-0.8-1.6-1.2-2.5s-0.7-1.7-0.9-2.5c-0.3-0.8-0.5-1.8-0.7-2.6c0-0.2-0.1-0.4-0.1-0.6      s-0.1-0.4-0.1-0.6c0-0.2-0.1-0.4-0.1-0.6c0-0.2-0.1-0.4-0.1-0.6v-0.1c0-0.2,0-0.3-0.1-0.5c0-0.2,0-0.4-0.1-0.6      c0-0.2,0-0.3,0-0.5v-0.1c0-0.2,0-0.4,0-0.6c0-0.2,0-0.4,0-0.6c0-0.3,0-0.8,0-1.1c0-0.3,0-0.8,0.1-1.1c0-0.3,0.1-0.8,0.1-1.1      s0.1-0.8,0.2-1.1c0.1-0.3,0.1-0.7,0.2-1.1c0.2-0.9,0.4-1.8,0.7-2.6s0.6-1.7,0.9-2.5c0.3-0.8,0.8-1.7,1.2-2.5      c0.4-0.8,0.9-1.6,1.4-2.4c1-1.5,2.1-3,3.5-4.2c1.3-1.3,2.7-2.5,4.2-3.5c1.5-1,3.1-1.9,4.8-2.5c1.7-0.7,3.4-1.3,5.2-1.6      c3.6-0.7,7.2-0.7,10.8,0c1.8,0.3,3.5,0.8,5.2,1.6c1.7,0.7,3.3,1.5,4.8,2.5c1.5,1,2.9,2.2,4.2,3.5c1.3,1.3,2.5,2.7,3.5,4.2      c0.5,0.8,0.9,1.5,1.4,2.4c0.4,0.8,0.8,1.6,1.2,2.5c0.3,0.8,0.7,1.7,0.9,2.5c0.3,0.8,0.5,1.8,0.7,2.6c0,0.2,0.1,0.4,0.1,0.6      c0,0.3,0.1,0.4,0.1,0.6s0.1,0.4,0.1,0.6s0.1,0.4,0.1,0.6s0.1,0.4,0.1,0.6s0,0.4,0.1,0.6c0,0.2,0,0.4,0,0.6v0.1      c0,0.2,0,0.3,0,0.5s0,0.4,0,0.6c0,0.3,0,0.8,0,1.1l0,0c0,0.3,0,0.8-0.1,1.1c0,0.3-0.1,0.8-0.1,1.1c-0.1,0.3-0.1,0.8-0.2,1.1      c-0.1,0.3-0.1,0.7-0.2,1.1c-0.2,0.9-0.4,1.8-0.7,2.6c-0.3,0.8-0.6,1.7-0.9,2.5c-0.3,0.8-0.8,1.7-1.2,2.5s-0.9,1.6-1.4,2.4      c-1,1.5-2.1,3-3.5,4.2c-1.3,1.3-2.7,2.5-4.2,3.5c-1.5,1-3.1,1.9-4.8,2.5c-1.7,0.7-3.4,1.2-5.2,1.6      C292.6,54.7,290.8,54.8,288.9,54.8z M288.9-0.4c-1.8,0-3.6,0.2-5.4,0.5c-1.7,0.3-3.5,0.8-5.1,1.5c-1.6,0.7-3.2,1.5-4.7,2.5      s-2.9,2.1-4.2,3.4s-2.4,2.6-3.4,4.2c-0.5,0.8-0.9,1.5-1.4,2.3c-0.4,0.8-0.8,1.6-1.1,2.5c-0.3,0.8-0.7,1.7-0.9,2.5      c-0.3,0.8-0.5,1.7-0.7,2.6c-0.1,0.3-0.2,0.7-0.2,1c-0.1,0.3-0.1,0.7-0.2,1.1c0,0.3-0.1,0.7-0.1,1.1c0,0.3-0.1,0.7-0.1,1.1      c0,0.3,0,0.7,0,1.1c0,0.2,0,0.4,0,0.6c0,0.2,0,0.4,0,0.6v0.1c0,0.2,0,0.3,0,0.5c0,0.2,0,0.4,0.1,0.6c0,0.2,0,0.3,0.1,0.5v0.1      c0,0.2,0.1,0.4,0.1,0.6c0,0.2,0.1,0.4,0.1,0.6c0,0.2,0.1,0.4,0.1,0.6c0,0.2,0.1,0.4,0.1,0.6c0.2,0.8,0.4,1.8,0.7,2.6      c0.3,0.8,0.6,1.7,0.9,2.5c0.3,0.8,0.7,1.6,1.1,2.5c0.4,0.8,0.8,1.5,1.4,2.3c1,1.5,2.1,2.9,3.4,4.2c1.3,1.3,2.6,2.4,4.2,3.4      s3.1,1.9,4.7,2.5c1.6,0.7,3.4,1.2,5.1,1.5c3.5,0.7,7.1,0.7,10.6,0c1.8-0.3,3.5-0.8,5.1-1.5c1.6-0.7,3.2-1.5,4.7-2.5      s2.9-2.1,4.2-3.4c1.3-1.3,2.4-2.6,3.4-4.2c0.5-0.8,0.9-1.5,1.4-2.3c0.4-0.8,0.8-1.6,1.1-2.5s0.7-1.7,0.9-2.5      c0.3-0.8,0.5-1.7,0.7-2.6c0.1-0.3,0.2-0.7,0.2-1c0.1-0.3,0.1-0.7,0.2-1.1c0-0.3,0.1-0.7,0.1-1.1c0-0.3,0.1-0.7,0.1-1.1      c0-0.3,0-0.7,0-1.1c0-0.2,0-0.4,0-0.6c0-0.2,0-0.3,0-0.5v-0.1c0-0.2,0-0.4,0-0.6c0-0.2,0-0.4-0.1-0.6c0-0.2,0-0.4-0.1-0.6      c0-0.2-0.1-0.4-0.1-0.6c0-0.2-0.1-0.4-0.1-0.6s-0.1-0.3-0.1-0.6c0-0.3-0.1-0.4-0.1-0.6c-0.2-0.9-0.4-1.8-0.7-2.6      c-0.3-0.8-0.6-1.7-0.9-2.5c-0.3-0.8-0.8-1.6-1.1-2.5c-0.4-0.8-0.8-1.5-1.4-2.3c-1-1.4-2.1-2.9-3.4-4.2c-1.3-1.3-2.6-2.4-4.2-3.4      c-1.4-1-3.1-1.9-4.7-2.5c-1.6-0.7-3.4-1.2-5.1-1.5C292.5-0.2,290.7-0.4,288.9-0.4z M302.3-3.3L302.3-3.3      c-1.8-0.1-3.2-1.2-3.7-2.7h-6c-0.2,0.7-0.6,1.3-1.2,1.8c-1.3,1.1-3.1,1.3-4.5,0.3c-0.8-0.5-1.4-1.3-1.6-2.1h-6.1      c-0.4,1.4-1.6,2.5-3.1,2.7c-0.3,0.1-0.8,0.1-1.2,0c-1.2-0.2-2.1-0.9-2.7-2c-0.2-0.3-0.3-0.7-0.3-1c-0.1-0.3-0.1-0.5-0.1-0.8      c0-1.8,1.2-3.3,2.9-3.7c0.3-0.1,0.7-0.2,1.1-0.2c1,0,2,0.4,2.6,1.2c0.3,0.3,0.5,0.7,0.8,1c0.2,0.3,0.3,0.7,0.3,1h5.9      c0.1-0.7,0.4-1.4,0.9-2c0.3-0.3,0.6-0.6,0.9-0.8c1.3-0.7,2.8-0.7,4,0.2c0.3,0.2,0.5,0.4,0.8,0.7c0.5,0.5,0.8,1.2,0.9,1.9h5.8      c0.1-0.3,0.2-0.7,0.3-0.9c0.2-0.4,0.4-0.8,0.8-1.1c0.8-0.8,1.7-1.2,2.7-1.2c0.1,0,0.1,0,0.2,0h0.1c0.4,0,0.8,0.1,1.2,0.3      c1.4,0.6,2.5,2,2.5,3.6c0,0.3,0,0.4-0.1,0.7c-0.1,0.4-0.2,0.8-0.4,1.1c-0.4,0.8-1.2,1.5-2.1,1.9C303.1-3.3,302.7-3.3,302.3-3.3z       M292.2-6.4h6.7l0.1,0.2c0.3,1.4,1.7,2.5,3.1,2.5h0.1c0.3,0,0.8-0.1,1.1-0.2c0.8-0.3,1.4-0.8,1.9-1.6c0.2-0.3,0.3-0.6,0.3-1      c0-0.2,0.1-0.4,0.1-0.6c0-1.4-0.8-2.6-2.1-3.1c-0.3-0.2-0.7-0.2-1-0.3h-0.1h-0.1c-0.9,0-1.8,0.3-2.4,1c-0.3,0.3-0.5,0.6-0.7,0.9      c-0.2,0.3-0.3,0.7-0.3,1v0.2h-6.6v-0.2c-0.1-0.7-0.3-1.3-0.8-1.9c-0.2-0.3-0.4-0.4-0.7-0.6c-1-0.7-2.5-0.8-3.6-0.1      c-0.3,0.2-0.6,0.4-0.8,0.7c-0.5,0.5-0.8,1.2-0.8,1.9v0.2h-6.7v-0.2c-0.1-0.3-0.2-0.7-0.3-1.1c-0.2-0.3-0.3-0.7-0.6-0.9      c-0.6-0.6-1.4-1-2.3-1h-0.1c-0.3,0-0.6,0-0.8,0.1c-1.4,0.4-2.5,1.7-2.5,3.3c0,0.3,0,0.5,0.1,0.7c0.1,0.3,0.2,0.6,0.3,0.9      c0.5,0.9,1.4,1.5,2.4,1.7c0.3,0.1,0.7,0.1,1,0c1.4-0.2,2.5-1.2,2.8-2.5l0.1-0.2h6.9l0.1,0.2c0.3,0.8,0.8,1.6,1.5,2      c1.2,0.8,2.9,0.6,4-0.3c0.5-0.4,0.9-1,1.1-1.7H292.2z M329.1-22h-80.4v-61.2h80.4V-22z M249.2-22.6h79.4v-60.3h-79.4V-22.6z"/>
			</g>
		</g>
	</g>
	<g>
		<rect x="289.6" y="58.9" class="st3" width="1.4" height="5.1"/>
	</g>
	<g>
		<g>
			<defs>
				<rect id="SVGID_00000044156916142171187970000010763629732730310077_" x="227.4" y="31.3" width="124.4" height="98.9"/>
			</defs>
			<clipPath id="SVGID_00000008850971977345090500000008271860786985793937_">
				<use xlink:href="#SVGID_00000044156916142171187970000010763629732730310077_" style="overflow:visible;"/>
			</clipPath>
			<g style="clip-path:url(#SVGID_00000008850971977345090500000008271860786985793937_);">
				<path class="st3" d="M291.2,58.9h1.3l1.1,3.1l0,0c-0.1-0.6-0.2-1.2-0.2-1.8v-1.3h1.3V64h-1.3l-1-2.9l0,0c0,0.5,0.1,0.9,0.1,1.4      v1.5h-1.3V58.9z"/>
			</g>
		</g>
		<g>
			<defs>
				<rect id="SVGID_00000140013465357570873220000008650118585083814837_" x="227.4" y="31.3" width="124.4" height="98.9"/>
			</defs>
			<clipPath id="SVGID_00000117640362877477305180000013315796395111552176_">
				<use xlink:href="#SVGID_00000140013465357570873220000008650118585083814837_" style="overflow:visible;"/>
			</clipPath>
			<g style="clip-path:url(#SVGID_00000117640362877477305180000013315796395111552176_);">
				<path class="st3" d="M295,58.9h1.3l1.1,3.1l0,0c-0.1-0.6-0.2-1.2-0.2-1.8v-1.3h1.3V64h-1.3l-1-2.9l0,0c0,0.5,0.1,0.9,0.1,1.4      v1.5H295V58.9L295,58.9z"/>
			</g>
		</g>
		<g>
			<defs>
				<rect id="SVGID_00000143580011824108544710000007429958370947881646_" x="227.4" y="31.3" width="124.4" height="98.9"/>
			</defs>
			<clipPath id="SVGID_00000036930155629539975170000015689931980665653392_">
				<use xlink:href="#SVGID_00000143580011824108544710000007429958370947881646_" style="overflow:visible;"/>
			</clipPath>
			<g style="clip-path:url(#SVGID_00000036930155629539975170000015689931980665653392_);">
				<path class="st3" d="M305.4,64l-1.2-5.1h1.4L306,61c0.1,0.4,0.1,0.8,0.2,1.2l0,0c0.1-0.4,0.1-0.8,0.2-1.2l0.3-2.1h1.4l-1.4,5.1      H305.4z"/>
			</g>
		</g>
		<g>
			<defs>
				<rect id="SVGID_00000090985617231517622310000008555365990619343539_" x="227.4" y="31.3" width="124.4" height="98.9"/>
			</defs>
			<clipPath id="SVGID_00000068638929661527746250000015128238162159783312_">
				<use xlink:href="#SVGID_00000090985617231517622310000008555365990619343539_" style="overflow:visible;"/>
			</clipPath>
			<g style="clip-path:url(#SVGID_00000068638929661527746250000015128238162159783312_);">
				<path class="st3" d="M309.4,62.2l-0.2-1.2c0-0.3-0.1-0.7-0.1-0.9l0,0c0,0.3-0.1,0.7-0.1,0.9l-0.2,1.2H309.4z M309.7,64l-0.1-0.7      h-0.9l-0.1,0.7h-1.4l1.2-5.1h1.7l1.1,5.1H309.7z"/>
			</g>
		</g>
		<g>
			<defs>
				<rect id="SVGID_00000164476283547022104950000010976637795732250765_" x="227.4" y="31.3" width="124.4" height="98.9"/>
			</defs>
			<clipPath id="SVGID_00000000210181995635503620000016080854997056455088_">
				<use xlink:href="#SVGID_00000164476283547022104950000010976637795732250765_" style="overflow:visible;"/>
			</clipPath>
			<g style="clip-path:url(#SVGID_00000000210181995635503620000016080854997056455088_);">
				<path class="st3" d="M310.8,59.5v-0.3h0.2c0.1,0,0.2,0,0.2,0.2C311.2,59.6,311.1,59.6,310.8,59.5L310.8,59.5L310.8,59.5z       M310.8,59.6h0.2l0.3,0.3h0.1l-0.3-0.3c0.1,0,0.2-0.1,0.2-0.3c0-0.2-0.1-0.3-0.3-0.3h-0.3v0.8h0.1L310.8,59.6L310.8,59.6z       M311,59c0.3,0,0.6,0.3,0.6,0.6c0,0.3-0.3,0.6-0.6,0.6c-0.3,0-0.6-0.3-0.6-0.6C310.4,59.2,310.7,59,311,59 M311,58.9      c-0.4,0-0.7,0.3-0.7,0.7c0,0.4,0.3,0.7,0.7,0.7s0.7-0.3,0.7-0.7C311.7,59.2,311.4,58.9,311,58.9"/>
			</g>
		</g>
		<g>
			<defs>
				<rect id="SVGID_00000107568956873245761050000016526800028354322357_" x="227.4" y="31.3" width="124.4" height="98.9"/>
			</defs>
			<clipPath id="SVGID_00000096765393016576809790000015201840572197575065_">
				<use xlink:href="#SVGID_00000107568956873245761050000016526800028354322357_" style="overflow:visible;"/>
			</clipPath>
			<g style="clip-path:url(#SVGID_00000096765393016576809790000015201840572197575065_);">
				<path class="st3" d="M301.7,58.7c-1.5,0-2.7,1.3-2.7,2.8c0,1.5,1.2,2.8,2.7,2.8c1.5,0,2.7-1.3,2.7-2.8      C304.4,59.9,303.2,58.7,301.7,58.7 M301.7,63.5c-1.1,0-2-0.9-2-2s0.9-2,2-2s2,0.9,2,2S302.8,63.5,301.7,63.5"/>
			</g>
		</g>
		<g>
			<defs>
				<rect id="SVGID_00000116218751115185310120000012119065765402087585_" x="227.4" y="31.3" width="124.4" height="98.9"/>
			</defs>
			<clipPath id="SVGID_00000055672039734535811050000002468015209714746035_">
				<use xlink:href="#SVGID_00000116218751115185310120000012119065765402087585_" style="overflow:visible;"/>
			</clipPath>
			<g style="clip-path:url(#SVGID_00000055672039734535811050000002468015209714746035_);">
				<path class="st3" d="M301.7,59.8c-0.9,0-1.6,0.8-1.6,1.6c0,0.9,0.8,1.6,1.6,1.6c0.8,0,1.6-0.8,1.6-1.6      C303.3,60.5,302.5,59.8,301.7,59.8"/>
			</g>
		</g>
		<g>
			<defs>
				<rect id="SVGID_00000099653529975247321980000004301056146947068052_" x="227.4" y="31.3" width="124.4" height="98.9"/>
			</defs>
			<clipPath id="SVGID_00000046297224146623659840000009595123387525669009_">
				<use xlink:href="#SVGID_00000099653529975247321980000004301056146947068052_" style="overflow:visible;"/>
			</clipPath>
			<g style="clip-path:url(#SVGID_00000046297224146623659840000009595123387525669009_);">
				<path class="st3" d="M265.9,64v-3.1h0.7c0.3,0,0.4,0,0.6,0c0.1,0,0.3,0.1,0.3,0.1c0.1,0.1,0.2,0.2,0.3,0.3      c0.1,0.2,0.1,0.3,0.1,0.5c0,0.3-0.1,0.5-0.3,0.7c-0.2,0.2-0.4,0.3-0.7,0.3h-0.3V64C266.7,64,265.9,64,265.9,64z M266.6,62.2      C266.6,62.2,266.7,62.2,266.6,62.2C266.7,62.2,266.7,62.2,266.6,62.2c0.3,0,0.3,0,0.4-0.1c0.1-0.1,0.1-0.2,0.1-0.3      c0-0.1,0-0.3-0.1-0.3c-0.1-0.1-0.2-0.1-0.3-0.1h-0.1V62.2z"/>
			</g>
		</g>
		<g>
			<defs>
				<rect id="SVGID_00000108275456056118621100000015769824406619056019_" x="227.4" y="31.3" width="124.4" height="98.9"/>
			</defs>
			<clipPath id="SVGID_00000163043674315003638320000003509270622377083266_">
				<use xlink:href="#SVGID_00000108275456056118621100000015769824406619056019_" style="overflow:visible;"/>
			</clipPath>
			<g style="clip-path:url(#SVGID_00000163043674315003638320000003509270622377083266_);">
				<path class="st3" d="M268.1,62.5c0-0.3,0-0.7,0-0.8s0.1-0.3,0.2-0.4c0.1-0.2,0.2-0.3,0.3-0.3c0.2-0.1,0.3-0.1,0.5-0.1      c0.2,0,0.3,0,0.5,0.1c0.2,0.1,0.3,0.2,0.3,0.3c0.1,0.1,0.1,0.3,0.2,0.4c0,0.2,0,0.4,0,0.8c0,0.3,0,0.7,0,0.8      c0,0.2-0.1,0.3-0.2,0.4c-0.1,0.2-0.2,0.3-0.3,0.3s-0.3,0.1-0.5,0.1c-0.2,0-0.3,0-0.5-0.1s-0.3-0.2-0.3-0.3      c-0.1-0.1-0.1-0.3-0.2-0.4C268.2,63.1,268.1,62.8,268.1,62.5 M269.5,62.7v-0.6c0-0.3,0-0.6-0.1-0.6c-0.1-0.1-0.1-0.1-0.3-0.1      c-0.1,0-0.2,0-0.3,0.1c-0.1,0.1-0.1,0.3-0.1,0.6v0.6c0,0.3,0,0.5,0.1,0.6c0,0.1,0.1,0.2,0.3,0.2c0.1,0,0.2,0,0.3-0.1      C269.5,63.2,269.5,63.1,269.5,62.7"/>
			</g>
		</g>
		<g>
			<defs>
				<rect id="SVGID_00000121993013981057524930000000528494777220626094_" x="227.4" y="31.3" width="124.4" height="98.9"/>
			</defs>
			<clipPath id="SVGID_00000156573266972420268450000005116979472274549676_">
				<use xlink:href="#SVGID_00000121993013981057524930000000528494777220626094_" style="overflow:visible;"/>
			</clipPath>
			<g style="clip-path:url(#SVGID_00000156573266972420268450000005116979472274549676_);">
				<path class="st3" d="M271.1,64l-0.6-3.1h0.7l0.2,1.5c0,0.2,0,0.3,0,0.4s0,0.2,0,0.3c0-0.2,0-0.3,0-0.3s0-0.3,0.1-0.3l0.3-1.5      h0.7l0.3,1.5c0,0.1,0,0.2,0.1,0.4c0,0.2,0,0.3,0,0.3c0-0.2,0-0.3,0-0.4s0-0.2,0-0.3l0.2-1.5h0.7l-0.6,3.1h-0.8l-0.2-1.3      c0-0.1,0-0.3,0-0.3s0-0.3,0-0.4c0,0.2,0,0.3,0,0.4c0,0.1,0,0.3,0,0.3l-0.2,1.3L271.1,64L271.1,64z"/>
			</g>
		</g>
	</g>
	<g>
		<polygon class="st3" points="274,60.9 274,64 275.6,64 275.6,63.4 274.7,63.4 274.7,62.7 275.5,62.7 275.5,62.1 274.7,62.1     274.7,61.5 275.6,61.5 275.6,60.9   "/>
	</g>
	<g>
		<g>
			<defs>
				<rect id="SVGID_00000132767337879810862170000015168481820618762134_" x="227.4" y="31.3" width="124.4" height="98.9"/>
			</defs>
			<clipPath id="SVGID_00000051357831258461055450000014480542877748975544_">
				<use xlink:href="#SVGID_00000132767337879810862170000015168481820618762134_" style="overflow:visible;"/>
			</clipPath>
			<g style="clip-path:url(#SVGID_00000051357831258461055450000014480542877748975544_);">
				<path class="st3" d="M276,64v-3.1h0.8c0.3,0,0.4,0,0.6,0c0.1,0,0.3,0.1,0.3,0.1c0.1,0.1,0.2,0.2,0.2,0.3c0,0.1,0.1,0.3,0.1,0.3      c0,0.2,0,0.3-0.1,0.4s-0.2,0.3-0.3,0.3c0.3,0.1,0.3,0.3,0.3,0.7l0,0c0,0,0,0.1,0,0.2c0,0.3,0.1,0.6,0.2,0.7h-0.8      c0-0.1,0-0.2,0-0.2c0-0.1,0-0.2,0-0.3c0-0.1,0-0.1,0-0.2s0-0.1,0-0.2c0-0.2,0-0.3-0.1-0.4s-0.2-0.1-0.3-0.1h-0.2v1.3H276V64z       M276.8,62.2L276.8,62.2C276.9,62.2,276.9,62.2,276.8,62.2c0.3,0,0.3,0,0.4-0.1c0.1-0.1,0.1-0.2,0.1-0.3c0-0.2,0-0.3-0.1-0.3      c-0.1-0.1-0.2-0.1-0.3-0.1c0,0,0,0-0.1,0c0,0,0,0-0.1,0L276.8,62.2L276.8,62.2z"/>
			</g>
		</g>
	</g>
	<g>
		<polygon class="st3" points="278.4,60.9 278.4,64 280.1,64 280.1,63.4 279.2,63.4 279.2,62.7 280,62.7 280,62.1 279.2,62.1     279.2,61.5 280.1,61.5 280.1,60.9   "/>
	</g>
	<g>
		<g>
			<defs>
				<rect id="SVGID_00000051350931621237665060000017739534573263277458_" x="227.4" y="31.3" width="124.4" height="98.9"/>
			</defs>
			<clipPath id="SVGID_00000147217704429760665140000005905093192885995161_">
				<use xlink:href="#SVGID_00000051350931621237665060000017739534573263277458_" style="overflow:visible;"/>
			</clipPath>
			<g style="clip-path:url(#SVGID_00000147217704429760665140000005905093192885995161_);">
				<path class="st3" d="M280.5,64v-3.1h0.8c0.3,0,0.5,0,0.7,0.1c0.2,0.1,0.3,0.2,0.3,0.3c0.1,0.1,0.1,0.3,0.2,0.3      c0,0.2,0,0.4,0,0.8c0,0.4,0,0.7,0,0.8c0,0.2-0.1,0.3-0.2,0.3c-0.1,0.1-0.2,0.2-0.3,0.3c-0.2,0.1-0.3,0.1-0.7,0.1      C281.3,64,280.5,64,280.5,64z M281.3,61.5v2l0,0h0.1c0.1,0,0.2,0,0.2,0c0.1,0,0.1-0.1,0.1-0.1s0.1-0.1,0.1-0.3      c0-0.1,0-0.3,0-0.6v-0.2c0-0.3,0-0.4,0-0.5s0-0.2-0.1-0.2c0-0.1-0.1-0.1-0.1-0.1C281.5,61.5,281.5,61.5,281.3,61.5      C281.4,61.5,281.3,61.5,281.3,61.5L281.3,61.5"/>
			</g>
		</g>
		<g>
			<defs>
				<rect id="SVGID_00000080188380416217958340000008441925524994634684_" x="227.4" y="31.3" width="124.4" height="98.9"/>
			</defs>
			<clipPath id="SVGID_00000119087303405294262640000002890939373523423647_">
				<use xlink:href="#SVGID_00000080188380416217958340000008441925524994634684_" style="overflow:visible;"/>
			</clipPath>
			<g style="clip-path:url(#SVGID_00000119087303405294262640000002890939373523423647_);">
				<path class="st3" d="M284,64v-3.1h0.8c0.3,0,0.4,0,0.5,0s0.2,0.1,0.3,0.1c0.1,0.1,0.2,0.2,0.3,0.3c0.1,0.1,0.1,0.3,0.1,0.4      s0,0.3-0.1,0.3c-0.1,0.1-0.2,0.2-0.3,0.3c0.2,0.1,0.3,0.2,0.3,0.3c0.1,0.1,0.1,0.3,0.1,0.4s0,0.3-0.1,0.4      c-0.1,0.1-0.1,0.3-0.2,0.3c-0.1,0.1-0.2,0.2-0.3,0.2c-0.1,0-0.3,0.1-0.5,0.1L284,64L284,64z M284.8,62.1L284.8,62.1      c0.2,0,0.3,0,0.3-0.1c0.1-0.1,0.1-0.2,0.1-0.3c0-0.1,0-0.2-0.1-0.3c-0.1-0.1-0.2-0.1-0.3-0.1c0,0,0,0-0.1,0l0,0V62.1z       M284.8,63.4L284.8,63.4c0.2,0,0.3,0,0.4-0.1c0.1-0.1,0.1-0.2,0.1-0.3c0-0.2,0-0.3-0.1-0.3c-0.1-0.1-0.2-0.1-0.3-0.1h-0.1V63.4z      "/>
			</g>
		</g>
	</g>
	<g>
		<polygon class="st3" points="286.6,64 286.6,62.6 286,60.9 286.7,60.9 287.1,61.9 287.3,60.9 288.1,60.9 287.4,62.6 287.4,64       "/>
	</g>
	<g>
		<g>
			<defs>
				<rect id="SVGID_00000043435572938723854400000008252929120918743693_" x="227.4" y="31.3" width="124.4" height="98.9"/>
			</defs>
			<clipPath id="SVGID_00000039100313363187353840000004485895941565251507_">
				<use xlink:href="#SVGID_00000043435572938723854400000008252929120918743693_" style="overflow:visible;"/>
			</clipPath>
			<g style="clip-path:url(#SVGID_00000039100313363187353840000004485895941565251507_);">
				<path class="st1" d="M316.4,26.9c0,15.2-12.2,27.6-27.4,27.6c-15.1,0-27.4-12.3-27.4-27.6c0-15.2,12.2-27.6,27.4-27.6      C304.1-0.7,316.4,11.6,316.4,26.9"/>
			</g>
		</g>
		<g>
			<defs>
				<rect id="SVGID_00000111890723368797142030000002987232072572322204_" x="227.4" y="31.3" width="124.4" height="98.9"/>
			</defs>
			<clipPath id="SVGID_00000044156785180276269400000009841350714165101457_">
				<use xlink:href="#SVGID_00000111890723368797142030000002987232072572322204_" style="overflow:visible;"/>
			</clipPath>
			<g style="clip-path:url(#SVGID_00000044156785180276269400000009841350714165101457_);">
				<path class="st3" d="M288.9,54.8c-15.3,0-27.8-12.6-27.8-27.9c0-15.5,12.5-27.9,27.8-27.9c15.3,0,27.8,12.6,27.8,27.9      C316.7,42.3,304.3,54.8,288.9,54.8z M288.9-0.6c-15,0-27.3,12.3-27.3,27.5s12.2,27.5,27.3,27.5c15,0,27.3-12.3,27.3-27.5      S304.1-0.6,288.9-0.6z"/>
			</g>
		</g>
		<g>
			<defs>
				<rect id="SVGID_00000130617993942167458670000009527918307569459631_" x="227.4" y="31.3" width="124.4" height="98.9"/>
			</defs>
			<clipPath id="SVGID_00000119113771771579756410000002562393408828583063_">
				<use xlink:href="#SVGID_00000130617993942167458670000009527918307569459631_" style="overflow:visible;"/>
			</clipPath>
			<g style="clip-path:url(#SVGID_00000119113771771579756410000002562393408828583063_);">
				<path class="st1" d="M292,26.2l16.4-16.5c0.9-0.9,1.8,0.4,1.8,0.4c7.9,10,7.6,24.4-0.6,34.1c0,0-0.7,0.6-1.4-0.2L292.2,28      C291.7,27.6,291.2,27,292,26.2"/>
			</g>
		</g>
		<g>
			<defs>
				<rect id="SVGID_00000020368067977810196170000017339259234626228865_" x="227.4" y="31.3" width="124.4" height="98.9"/>
			</defs>
			<clipPath id="SVGID_00000139991725768610567960000017797268432916028853_">
				<use xlink:href="#SVGID_00000020368067977810196170000017339259234626228865_" style="overflow:visible;"/>
			</clipPath>
			<g style="clip-path:url(#SVGID_00000139991725768610567960000017797268432916028853_);">
				<path class="st3" d="M308.9,44.7c-0.3,0-0.5-0.1-0.8-0.4L292,28.1c-0.4-0.4-0.9-1.2-0.1-2l16.4-16.6c0.3-0.3,0.6-0.4,0.8-0.3      c0.6,0.1,1.1,0.8,1.1,0.8c7.9,10.1,7.6,24.6-0.6,34.5C309.7,44.5,309.3,44.7,308.9,44.7z M309.1,9.5c-0.2,0-0.4,0.1-0.6,0.3      l-16.4,16.6c-0.6,0.6-0.3,1.3,0.1,1.6l16.1,16.2c0.7,0.7,1.2,0.2,1.2,0.2c8.2-9.8,8.5-24.1,0.6-34.1      C310.1,10.1,309.7,9.5,309.1,9.5C309.1,9.5,309.1,9.5,309.1,9.5z M268.8,44.6L268.8,44.6c-0.7-0.1-1.2-0.8-1.2-0.8      c-8-10.1-7.6-24.6,0.6-34.5c0,0,0.8-0.7,1.5,0.1L286,25.8c0.4,0.4,0.4,1.3-0.3,2l-16.1,16.3C269.4,44.4,269.1,44.6,268.8,44.6z       M269,9.2c-0.3,0-0.5,0.2-0.5,0.2c-8.2,9.8-8.5,24.1-0.6,34.1c0,0,0.4,0.6,0.9,0.7c0.3,0,0.4-0.1,0.7-0.3l16.1-16.3      c0.7-0.7,0.7-1.4,0.3-1.7L269.6,9.6C269.4,9.3,269.2,9.2,269,9.2z"/>
			</g>
		</g>
		<g>
			<defs>
				<rect id="SVGID_00000002369891372076135890000000316154586988522657_" x="227.4" y="31.3" width="124.4" height="98.9"/>
			</defs>
			<clipPath id="SVGID_00000099634446098872760310000004723248775580368831_">
				<use xlink:href="#SVGID_00000002369891372076135890000000316154586988522657_" style="overflow:visible;"/>
			</clipPath>
			<g style="clip-path:url(#SVGID_00000099634446098872760310000004723248775580368831_);">
				<path class="st1" d="M288.3,29.9L272,46.4c-0.9,0.9,0.4,1.8,0.4,1.8c9.9,7.9,24.2,7.7,33.9-0.6c0,0,0.6-0.7-0.1-1.4L290,29.9      C289.7,29.6,289,29.2,288.3,29.9"/>
			</g>
		</g>
		<g>
			<defs>
				<rect id="SVGID_00000013893652914262516810000003245764062750677136_" x="227.4" y="31.3" width="124.4" height="98.9"/>
			</defs>
			<clipPath id="SVGID_00000047017866197110178680000015482259572770938300_">
				<use xlink:href="#SVGID_00000013893652914262516810000003245764062750677136_" style="overflow:visible;"/>
			</clipPath>
			<g style="clip-path:url(#SVGID_00000047017866197110178680000015482259572770938300_);">
				<path class="st3" d="M288.9,54.2c-5.9,0-11.8-2-16.7-5.9c0,0-0.7-0.4-0.8-1.1c0-0.3,0.1-0.6,0.3-0.8l16.4-16.6      c0.3-0.3,0.6-0.4,0.9-0.4l0,0c0.4,0,0.8,0.3,1,0.5l16.1,16.3c0.8,0.8,0.2,1.5,0.1,1.6C301.4,52,295.1,54.2,288.9,54.2z       M288.3,29.9l-16.4,16.6c-0.3,0.3-0.3,0.4-0.3,0.7c0.1,0.5,0.7,0.9,0.7,0.9c10,8,24.2,7.7,33.9-0.6c0,0,0.5-0.6-0.2-1.3      L290,29.9c-0.2-0.2-0.5-0.4-0.8-0.4l0,0C288.8,29.5,288.6,29.7,288.3,29.9z"/>
			</g>
		</g>
	</g>
	<g>
		<polygon class="st3" points="283.3,41.9 295,41.9 289.2,47.5   "/>
	</g>
	<g>
		<g>
			<defs>
				<rect id="SVGID_00000170243045327018401920000017907492324760800663_" x="227.4" y="31.3" width="124.4" height="98.9"/>
			</defs>
			<clipPath id="SVGID_00000065767150218932157740000004621462248209030031_">
				<use xlink:href="#SVGID_00000170243045327018401920000017907492324760800663_" style="overflow:visible;"/>
			</clipPath>
			<g style="clip-path:url(#SVGID_00000065767150218932157740000004621462248209030031_);">
				<path class="st1" d="M239.7,22.8c0.4,32,4.7,64.7,8,79.5"/>
			</g>
		</g>
		<g>
			<defs>
				<rect id="SVGID_00000168824973406888856620000005031180137575170727_" x="227.4" y="31.3" width="124.4" height="98.9"/>
			</defs>
			<clipPath id="SVGID_00000158733197757387592680000014604654834480759956_">
				<use xlink:href="#SVGID_00000168824973406888856620000005031180137575170727_" style="overflow:visible;"/>
			</clipPath>
			<g style="clip-path:url(#SVGID_00000158733197757387592680000014604654834480759956_);">
				<path class="st3" d="M247.6,102.5c-3.7-15.8-8-49-8.4-79.7h0.7c0.5,30.6,4.7,63.8,8.4,79.5L247.6,102.5z"/>
			</g>
		</g>
		<g>
			<defs>
				<rect id="SVGID_00000011725540381241188570000009818435437906477502_" x="227.4" y="31.3" width="124.4" height="98.9"/>
			</defs>
			<clipPath id="SVGID_00000081610430613820342520000013193453733602112181_">
				<use xlink:href="#SVGID_00000011725540381241188570000009818435437906477502_" style="overflow:visible;"/>
			</clipPath>
			<g style="clip-path:url(#SVGID_00000081610430613820342520000013193453733602112181_);">
				<path class="st1" d="M330.6,102.6c2.5-16.5,7-44,7.7-79.3"/>
			</g>
		</g>
		<g>
			<defs>
				<rect id="SVGID_00000023265527288967909480000000834542693505912732_" x="227.4" y="31.3" width="124.4" height="98.9"/>
			</defs>
			<clipPath id="SVGID_00000170237950705470585510000017849005233415080079_">
				<use xlink:href="#SVGID_00000023265527288967909480000000834542693505912732_" style="overflow:visible;"/>
			</clipPath>
			<g style="clip-path:url(#SVGID_00000170237950705470585510000017849005233415080079_);">
				<path class="st3" d="M330.6,102.7l-0.7-0.1l0.3-1.6c2.7-16.3,7.2-43.5,8-77.7h0.7c-0.8,34.3-5.3,61.6-8,77.8L330.6,102.7z"/>
			</g>
		</g>
	</g>
	<g>
		<g>
			<defs>
				<rect id="SVGID_00000136409254803764895180000015578570406012586144_" x="227.4" y="31.3" width="124.4" height="149.3"/>
			</defs>
			<clipPath id="SVGID_00000092428737267033454280000012587306858512564610_">
				<use xlink:href="#SVGID_00000136409254803764895180000015578570406012586144_" style="overflow:visible;"/>
			</clipPath>
			<g style="clip-path:url(#SVGID_00000092428737267033454280000012587306858512564610_);">
				<path class="st3" d="M288.7,171c0,0-0.6,0-0.6,0.6v8.5c0,0,0,0.6,0.6,0.6h1.7c0,0,0.6,0,0.6-0.6v-8.5c0,0,0-0.6-0.6-0.6H288.7z"/>
			</g>
		</g>
		<g>
			<defs>
				<rect id="SVGID_00000154397638214238062230000005978900262751442574_" x="227.4" y="31.3" width="124.4" height="149.3"/>
			</defs>
			<clipPath id="SVGID_00000029024182180729439120000006226830205589014412_">
				<use xlink:href="#SVGID_00000154397638214238062230000005978900262751442574_" style="overflow:visible;"/>
			</clipPath>
			<g style="clip-path:url(#SVGID_00000029024182180729439120000006226830205589014412_);">
				<path class="st3" d="M287.2,164.8c0,0-1,0-1,1v8.8c0,0,0,1,1,1h4.8c0,0,1,0,1-1v-8.8c0,0,0-1-1-1L287.2,164.8L287.2,164.8z"/>
			</g>
		</g>
		<g>
			<defs>
				<rect id="SVGID_00000057867902783242479470000017486544279467056802_" x="227.4" y="31.3" width="124.4" height="149.3"/>
			</defs>
			<clipPath id="SVGID_00000105422573176999853650000002767173949510018992_">
				<use xlink:href="#SVGID_00000057867902783242479470000017486544279467056802_" style="overflow:visible;"/>
			</clipPath>
			<g style="clip-path:url(#SVGID_00000105422573176999853650000002767173949510018992_);">
				<path class="st3" d="M291.9,175.7h-4.8c-0.9,0-1.1-0.8-1.1-1.1v-8.8c0-0.9,0.8-1.1,1.1-1.1h4.8c0.9,0,1.1,0.8,1.1,1.1v8.8      C293.1,175.5,292.3,175.7,291.9,175.7z M287.2,164.9c0,0-0.8,0-0.8,0.8v8.8c0,0,0,0.8,0.8,0.8h4.8c0,0,0.8,0,0.8-0.8v-8.8      c0,0,0-0.8-0.8-0.8H287.2z"/>
			</g>
		</g>
		<g>
			<defs>
				<rect id="SVGID_00000099644842377913339390000002409051714696129722_" x="227.4" y="31.3" width="124.4" height="149.3"/>
			</defs>
			<clipPath id="SVGID_00000183214502989457523370000011343107748744808346_">
				<use xlink:href="#SVGID_00000099644842377913339390000002409051714696129722_" style="overflow:visible;"/>
			</clipPath>
			<g style="clip-path:url(#SVGID_00000183214502989457523370000011343107748744808346_);">
				<path class="st1" d="M285,150.6c0,0-1,0-1,1v15.8c0,0,0,1,1,1h9.1c0,0,1,0,1-1v-15.8c0,0,0-1-1-1H285z"/>
			</g>
		</g>
		<g>
			<defs>
				<rect id="SVGID_00000051357977261388310340000005321935312848000150_" x="227.4" y="31.3" width="124.4" height="149.3"/>
			</defs>
			<clipPath id="SVGID_00000010312057987617910240000006492174626226713761_">
				<use xlink:href="#SVGID_00000051357977261388310340000005321935312848000150_" style="overflow:visible;"/>
			</clipPath>
			<g style="clip-path:url(#SVGID_00000010312057987617910240000006492174626226713761_);">
				<path class="st3" d="M294.1,169.3H285c-1.4,0-1.9-1.1-1.9-1.9v-15.8c0-1.4,1.1-1.9,1.9-1.9h9.1c1.4,0,1.9,1.1,1.9,1.9v15.8      C296,168.7,294.9,169.3,294.1,169.3z M284.9,167.6C284.9,167.6,284.9,167.6,284.9,167.6h9.2c0.1,0,0.2,0,0.2-0.1l0,0      c0,0,0,0,0-0.1v-15.8c0-0.1,0-0.2-0.1-0.2l0,0c0,0,0,0-0.1,0h-9.1c-0.1,0-0.2,0-0.2,0.1l0,0c0,0,0,0,0,0.1v15.8      C284.9,167.5,284.9,167.6,284.9,167.6L284.9,167.6z"/>
			</g>
		</g>
		<g>
			<defs>
				<rect id="SVGID_00000170260651753264790120000002122393216324212637_" x="227.4" y="31.3" width="124.4" height="149.3"/>
			</defs>
			<clipPath id="SVGID_00000077297852328806884010000000078187218799794596_">
				<use xlink:href="#SVGID_00000170260651753264790120000002122393216324212637_" style="overflow:visible;"/>
			</clipPath>
			<g style="clip-path:url(#SVGID_00000077297852328806884010000000078187218799794596_);">
				<path class="st3" d="M287.2,144.8c0,0-1,0-1,1v4.1c0,0,0,1,1,1h4.8c0,0,1,0,1-1v-4.1c0,0,0-1-1-1H287.2z"/>
			</g>
		</g>
		<g>
			<defs>
				<rect id="SVGID_00000099656615404108784320000009449013225735566267_" x="227.4" y="31.3" width="124.4" height="149.3"/>
			</defs>
			<clipPath id="SVGID_00000079446725250837524500000015044553624715078532_">
				<use xlink:href="#SVGID_00000099656615404108784320000009449013225735566267_" style="overflow:visible;"/>
			</clipPath>
			<g style="clip-path:url(#SVGID_00000079446725250837524500000015044553624715078532_);">
				<path class="st3" d="M291.9,151h-4.8c-0.9,0-1.1-0.8-1.1-1.1v-4.1c0-0.9,0.8-1.1,1.1-1.1h4.8c0.9,0,1.1,0.8,1.1,1.1v4.1      C293.1,150.7,292.3,151,291.9,151z M287.2,144.9c0,0-0.8,0-0.8,0.8v4.1c0,0,0,0.8,0.8,0.8h4.8c0,0,0.8,0,0.8-0.8v-4.1      c0,0,0-0.8-0.8-0.8H287.2z"/>
			</g>
		</g>
	</g>
	<g>
		<rect x="287.1" y="129.3" class="st47" width="5.1" height="11.3"/>
	</g>
	<g>
		<polygon class="st47" points="289.5,125.8 284.3,131.5 294.9,131.5   "/>
	</g>
</g>
<g>
	<g>
		<g>
			<defs>
				<rect id="SVGID_00000118357612210270024040000018096521947156462234_" x="501.7" y="17.8" width="183.8" height="166.5"/>
			</defs>
			<clipPath id="SVGID_00000129189061821220812890000009623869048292592794_">
				<use xlink:href="#SVGID_00000118357612210270024040000018096521947156462234_" style="overflow:visible;"/>
			</clipPath>
			<g style="clip-path:url(#SVGID_00000129189061821220812890000009623869048292592794_);">
				<path class="st3" d="M635.7,17.8c-3.8,0-7.2,1.5-9.7,4s-4,5.9-4,9.7s1.5,7.2,4,9.7s5.9,4,9.7,4s7.2-1.5,9.7-4s4-5.9,4-9.7      s-1.5-7.2-4-9.7C643,19.3,639.5,17.8,635.7,17.8"/>
			</g>
		</g>
		<g>
			<defs>
				<rect id="SVGID_00000132059930096386684970000005873493878346144147_" x="501.7" y="17.8" width="183.8" height="166.5"/>
			</defs>
			<clipPath id="SVGID_00000151525481882845167730000014547446701558804895_">
				<use xlink:href="#SVGID_00000132059930096386684970000005873493878346144147_" style="overflow:visible;"/>
			</clipPath>
			<g style="clip-path:url(#SVGID_00000151525481882845167730000014547446701558804895_);">
				<path class="st3" d="M594.1,92.4c-1.5,2.9-1.2,5.7,0.2,7.8c0.7,1,1.6,1.9,2.6,2.6c1,0.6,2.2,1.1,3.5,1.2      c2.6,0.3,5.5-0.7,7.6-3.5c0.1-0.1,0.1-0.1,0.1-0.2l8.4-13.3v68.7c0,1.1,0.9,2,2,2s2-0.9,2-2V75.9c0-1.1-0.9-2-2-2s-2,0.9-2,2      v3.7l-11.7,18.6c-1.2,1.5-2.6,2-4,1.9c-0.7-0.1-1.3-0.3-1.8-0.6c-0.5-0.3-1-0.8-1.3-1.3c-0.6-1-0.8-2.4,0-3.9L610,70.1      c0.4-0.7,0.7-1.4,1.1-2.1c3-5.9,4.8-9.6,11.8-12.8c1.6-0.7,3.2-1.3,4.9-1.7s3.4-0.6,5.2-0.6h5.4c6.7,0,12.8,2.7,17.2,7.2      c4.4,4.4,7.2,10.5,7.2,17.2v23.2c0,2.8-1.1,5.3-2.9,7.2c-1.3,1.3-3,2.3-4.9,2.7v-37c0-1.1-0.9-2-2-2s-2,0.9-2,2v39.2v43.2      c0,1.1,0.9,2,2,2s2-0.9,2-2v-41.3c3-0.4,5.7-1.9,7.8-4c2.5-2.5,4-6.1,4-9.9V77.3c0-7.8-3.2-14.9-8.3-20s-12.2-8.3-20-8.3H633      c-2.1,0-4.1,0.2-6,0.7c-2,0.4-3.9,1.1-5.8,1.9c-8.2,3.8-10.3,7.9-13.7,14.6c-0.3,0.7-0.7,1.4-1,2.1L594.1,92.4z"/>
			</g>
		</g>
		<g>
			<defs>
				<rect id="SVGID_00000173126208261977017610000012973219201174365606_" x="501.7" y="17.8" width="183.8" height="166.5"/>
			</defs>
			<clipPath id="SVGID_00000099652024531507133420000000940956786977654696_">
				<use xlink:href="#SVGID_00000173126208261977017610000012973219201174365606_" style="overflow:visible;"/>
			</clipPath>
			<g style="clip-path:url(#SVGID_00000099652024531507133420000000940956786977654696_);">
				<path class="st11" d="M637.7,107.3v48.5c0,1.1-0.9,2-2,2s-2-0.9-2-2v-48.5c0-1.1,0.9-2,2-2S637.7,106.2,637.7,107.3"/>
			</g>
		</g>
		<g>
			<defs>
				<rect id="SVGID_00000129203763724715110290000013485580242654692749_" x="501.7" y="17.8" width="183.8" height="166.5"/>
			</defs>
			<clipPath id="SVGID_00000111906380522632934350000006668384245342891660_">
				<use xlink:href="#SVGID_00000129203763724715110290000013485580242654692749_" style="overflow:visible;"/>
			</clipPath>
			<g style="clip-path:url(#SVGID_00000111906380522632934350000006668384245342891660_);">
				<path class="st1" d="M628.7,24.5c1.8-1.8,4.3-2.9,7-2.9s5.2,1.1,7,2.9s2.9,4.3,2.9,7s-1.1,5.2-2.9,7c-1.8,1.8-4.3,2.9-7,2.9      s-5.2-1.1-7-2.9c-1.8-1.8-2.9-4.3-2.9-7C625.8,28.7,627,26.3,628.7,24.5"/>
			</g>
		</g>
		<g>
			<defs>
				<rect id="SVGID_00000109725129745322645990000014110446492495668885_" x="501.7" y="17.8" width="183.8" height="166.5"/>
			</defs>
			<clipPath id="SVGID_00000080206413696527835710000002287515347354453929_">
				<use xlink:href="#SVGID_00000109725129745322645990000014110446492495668885_" style="overflow:visible;"/>
			</clipPath>
			<g style="clip-path:url(#SVGID_00000080206413696527835710000002287515347354453929_);">
				<path class="st3" d="M635.7,41.9c-2.8,0-5.4-1.1-7.4-3.1s-3.1-4.6-3.1-7.4s1.1-5.4,3.1-7.4l0,0c2-2,4.6-3.1,7.4-3.1      c2.8,0,5.4,1.1,7.4,3.1s3.1,4.6,3.1,7.4s-1.1,5.4-3.1,7.4C641.2,40.9,638.5,41.9,635.7,41.9z M629.2,24.9      c-1.8,1.8-2.7,4.1-2.7,6.6s1,4.8,2.7,6.6c1.8,1.8,4.1,2.7,6.6,2.7s4.8-1,6.6-2.7c1.8-1.8,2.7-4.1,2.7-6.6s-1-4.8-2.7-6.6      c-1.8-1.8-4.1-2.7-6.6-2.7C633.3,22.2,630.9,23.1,629.2,24.9L629.2,24.9z"/>
			</g>
		</g>
	</g>
	<g>
		<polygon class="st1" points="658.5,61.4 635.7,61.4 631.3,75.7 616,83.3 615.6,92.1 610.4,92.4 609,89.1 607.4,92.6 604.3,92.8     604.3,96.3 603.2,100.1 604.3,101.5 604.3,107.5 612.4,157.7 620.2,161.5 672.5,161.5 685.5,80.8 685.5,74.6 683.1,61.4     664.7,61.4 661.3,59.1   "/>
	</g>
	<g>
		<g>
			<defs>
				<rect id="SVGID_00000183944103724505236590000010940349992440336565_" x="593.1" y="51.9" width="92.5" height="132.4"/>
			</defs>
			<clipPath id="SVGID_00000170253613367577544740000011480786584487238325_">
				<use xlink:href="#SVGID_00000183944103724505236590000010940349992440336565_" style="overflow:visible;"/>
			</clipPath>
			<g style="clip-path:url(#SVGID_00000170253613367577544740000011480786584487238325_);">
				<path class="st3" d="M731.9,16.6c3.6,0,6.9,1.5,9.3,3.8l0,0c2.4,2.4,3.8,5.7,3.8,9.3c0,3.6-1.5,6.9-3.8,9.3l-0.1,0.1      c-2.4,2.3-5.6,3.7-9.1,3.7c-3.6,0-6.9-1.5-9.3-3.8l0,0c-2.4-2.4-3.8-5.7-3.8-9.3s1.5-6.9,3.8-9.3l0.1-0.1      C725.1,18,728.3,16.6,731.9,16.6 M752.9,127.1c1.3,0,2.3,1,2.3,2.3c0,1.3-1,2.3-2.3,2.3H647.8c-1.3,0-2.3-1-2.3-2.3      s1-2.3,2.3-2.3C647.8,127.1,752.9,127.1,752.9,127.1z M672.9,88.2l4.2-19.7h-32.3L641,89.1c-0.2,1.1-1.2,1.9-2.3,1.9l0,0h-16.4      c-1.3,0-2.3-1-2.3-2.3s1-2.3,2.3-2.3h14.5l3.7-20.4c0.1-1.2,1.1-2.1,2.3-2.1h37c0.2,0,0.3,0,0.5,0.1c1.3,0.3,2,1.5,1.8,2.7      l-4.8,22.5c-0.3,1.3-1.5,2-2.7,1.8C673.5,90.7,672.7,89.5,672.9,88.2 M794.9,162c1.3,0,2.3,1,2.3,2.3s-1,2.3-2.3,2.3h-184      c-1.3,0-2.3-1-2.3-2.3s1-2.3,2.3-2.3H794.9z M793.6,95.8c1.3,0,2.3,1,2.3,2.3s-1,2.3-2.3,2.3H612.2c-1.3,0-2.3-1-2.3-2.3      s1-2.3,2.3-2.3H793.6z M624.7,107.1c0-1.3,1-2.3,2.3-2.3s2.3,1,2.3,2.3v48c0,1.3-1,2.3-2.3,2.3s-2.3-1-2.3-2.3V107.1z       M776.4,107.1c0-1.3,1-2.3,2.3-2.3s2.3,1,2.3,2.3v48c0,1.3-1,2.3-2.3,2.3s-2.3-1-2.3-2.3V107.1z M707.4,88.7      c0,1.3-1,2.3-2.3,2.3s-2.3-1-2.3-2.3V71.9c0-7.3,3-14,7.8-18.8s11.5-7.8,18.8-7.8h5c7.3,0,14,3,18.8,7.8s7.8,11.5,7.8,18.8v16.8      c0,1.3-1,2.3-2.3,2.3s-2.3-1-2.3-2.3V71.9c0-6-2.5-11.5-6.4-15.5c-4-4-9.5-6.4-15.5-6.4h-5c-6,0-11.5,2.5-15.5,6.4      c-4,4-6.4,9.5-6.4,15.5v16.8H707.4z M745.5,68.3v20.4c0,1.3,1,2.3,2.3,2.3s2.3-1,2.3-2.3V68.3c0-1.3-1-2.3-2.3-2.3      S745.5,67,745.5,68.3 M713.6,68.3v20.4c0,1.3,1,2.3,2.3,2.3s2.3-1,2.3-2.3V68.3c0-1.3-1-2.3-2.3-2.3S713.6,67,713.6,68.3       M737.9,23.7c-1.5-1.5-3.7-2.5-6-2.5s-4.4,0.9-5.9,2.4l-0.1,0.1c-1.5,1.5-2.5,3.7-2.5,6s1,4.5,2.5,6l0,0c1.5,1.5,3.7,2.5,6,2.5      s4.4-0.9,5.9-2.4l0.1-0.1c1.5-1.5,2.5-3.7,2.5-6C740.3,27.4,739.4,25.3,737.9,23.7L737.9,23.7z"/>
			</g>
		</g>
	</g>
	<g>
		<g>
			<defs>
				<rect id="SVGID_00000054264779367128956870000006196378398611970993_" x="501.7" y="17.8" width="183.8" height="166.5"/>
			</defs>
			<clipPath id="SVGID_00000097476190415278117810000012596310343786926256_">
				<use xlink:href="#SVGID_00000054264779367128956870000006196378398611970993_" style="overflow:visible;"/>
			</clipPath>
			<g style="clip-path:url(#SVGID_00000097476190415278117810000012596310343786926256_);">
				<path class="st3" d="M532.8,17.8c3.8,0,7.2,1.5,9.7,4s4,5.9,4,9.7s-1.5,7.2-4,9.7s-5.9,4-9.7,4s-7.2-1.5-9.7-4s-4-5.9-4-9.7      s1.5-7.2,4-9.7S529,17.8,532.8,17.8"/>
			</g>
		</g>
		<g>
			<defs>
				<rect id="SVGID_00000116193310913349041440000000403338311393813681_" x="501.7" y="17.8" width="183.8" height="166.5"/>
			</defs>
			<clipPath id="SVGID_00000137108898930786284520000002481345561104962483_">
				<use xlink:href="#SVGID_00000116193310913349041440000000403338311393813681_" style="overflow:visible;"/>
			</clipPath>
			<g style="clip-path:url(#SVGID_00000137108898930786284520000002481345561104962483_);">
				<path class="st3" d="M574.5,92.4c1.5,2.9,1.2,5.7-0.2,7.8c-0.7,1-1.6,1.9-2.6,2.6c-1,0.6-2.2,1.1-3.5,1.2      c-2.6,0.3-5.5-0.7-7.6-3.5c-0.1-0.1-0.1-0.1-0.1-0.2L552.1,87v68.7c0,1.1-0.9,2-2,2s-2-0.9-2-2V75.9c0-1.1,0.9-2,2-2s2,0.9,2,2      v3.7l11.7,18.6c1.2,1.5,2.6,2,4,1.9c0.7-0.1,1.3-0.3,1.8-0.6c0.5-0.3,1-0.8,1.3-1.3c0.6-1,0.8-2.4,0-3.9l-12.4-24.1      c-0.4-0.7-0.7-1.4-1.1-2.1c-3-5.9-4.8-9.6-11.8-12.8c-1.6-0.7-3.2-1.3-4.9-1.7s-3.4-0.6-5.2-0.6h-5.4c-6.7,0-12.8,2.7-17.2,7.2      c-4.4,4.4-7.2,10.5-7.2,17.2v23.2c0,2.8,1.1,5.3,2.9,7.2c1.3,1.3,3,2.3,4.9,2.7v-37c0-1.1,0.9-2,2-2s2,0.9,2,2v39.2v43.2      c0,1.1-0.9,2-2,2s-2-0.9-2-2v-41.3c-3-0.4-5.7-1.9-7.8-4c-2.5-2.5-4-6.1-4-9.9V77.3c0-7.8,3.2-14.9,8.3-20s12.2-8.3,20-8.3h5.4      c2.1,0,4.1,0.2,6,0.7c2,0.4,3.9,1.1,5.8,1.9c8.2,3.8,10.3,7.9,13.7,14.6c0.3,0.7,0.7,1.4,1,2.1L574.5,92.4z"/>
			</g>
		</g>
		<g>
			<defs>
				<rect id="SVGID_00000057111958052230113160000003608092285042352017_" x="501.7" y="17.8" width="183.8" height="166.5"/>
			</defs>
			<clipPath id="SVGID_00000101086113451655152060000003491993674891195054_">
				<use xlink:href="#SVGID_00000057111958052230113160000003608092285042352017_" style="overflow:visible;"/>
			</clipPath>
			<g style="clip-path:url(#SVGID_00000101086113451655152060000003491993674891195054_);">
				<path class="st3" d="M530.8,107.3v48.5c0,1.1,0.9,2,2,2s2-0.9,2-2v-48.5c0-1.1-0.9-2-2-2S530.8,106.2,530.8,107.3"/>
			</g>
		</g>
		<g>
			<defs>
				<rect id="SVGID_00000020386182027025670910000006928496019765419938_" x="501.7" y="17.8" width="183.8" height="166.5"/>
			</defs>
			<clipPath id="SVGID_00000173851852838633270550000015283586216891371162_">
				<use xlink:href="#SVGID_00000020386182027025670910000006928496019765419938_" style="overflow:visible;"/>
			</clipPath>
			<g style="clip-path:url(#SVGID_00000173851852838633270550000015283586216891371162_);">
				<path class="st1" d="M539.8,24.5c-1.8-1.8-4.3-2.9-7-2.9s-5.2,1.1-7,2.9s-2.9,4.3-2.9,7s1.1,5.2,2.9,7c1.8,1.8,4.3,2.9,7,2.9      s5.2-1.1,7-2.9c1.8-1.8,2.9-4.3,2.9-7C542.7,28.7,541.6,26.3,539.8,24.5"/>
			</g>
		</g>
		<g>
			<defs>
				<rect id="SVGID_00000088845953285377417430000015176733533817042829_" x="501.7" y="17.8" width="183.8" height="166.5"/>
			</defs>
			<clipPath id="SVGID_00000145771758713638528960000007552122249539509654_">
				<use xlink:href="#SVGID_00000088845953285377417430000015176733533817042829_" style="overflow:visible;"/>
			</clipPath>
			<g style="clip-path:url(#SVGID_00000145771758713638528960000007552122249539509654_);">
				<path class="st3" d="M532.8,41.9c-2.8,0-5.4-1.1-7.4-3.1s-3.1-4.6-3.1-7.4s1.1-5.4,3.1-7.4s4.6-3.1,7.4-3.1      c2.8,0,5.4,1.1,7.4,3.1l0,0c2,2,3.1,4.6,3.1,7.4s-1.1,5.4-3.1,7.4C538.2,40.9,535.6,41.9,532.8,41.9z M532.8,22.2      c-2.5,0-4.8,1-6.6,2.7c-1.8,1.8-2.7,4.1-2.7,6.6s1,4.8,2.7,6.6c1.8,1.8,4.1,2.7,6.6,2.7s4.8-1,6.6-2.7c1.8-1.8,2.7-4.1,2.7-6.6      s-1-4.8-2.7-6.6C537.6,23.1,535.3,22.2,532.8,22.2z"/>
			</g>
		</g>
		<g>
			<defs>
				<rect id="SVGID_00000160875106881726285100000005383206000873101476_" x="501.7" y="17.8" width="183.8" height="166.5"/>
			</defs>
			<clipPath id="SVGID_00000172403989077804683290000013042993446651679878_">
				<use xlink:href="#SVGID_00000160875106881726285100000005383206000873101476_" style="overflow:visible;"/>
			</clipPath>
			<g style="clip-path:url(#SVGID_00000172403989077804683290000013042993446651679878_);">
				<path class="st1" d="M575.7,79.5c0,0-5.1,0-5.1,5.1v24.5c0,0,0,5.1,5.1,5.1h16.5c0,0,5.1,0,5.1-5.1V84.7c0,0,0-5.1-5.1-5.1      L575.7,79.5L575.7,79.5z"/>
			</g>
		</g>
		<g>
			<defs>
				<rect id="SVGID_00000016776685458340580720000004263119063507140006_" x="501.7" y="17.8" width="183.8" height="166.5"/>
			</defs>
			<clipPath id="SVGID_00000090286305399675011000000014953257517023339163_">
				<use xlink:href="#SVGID_00000016776685458340580720000004263119063507140006_" style="overflow:visible;"/>
			</clipPath>
			<g style="clip-path:url(#SVGID_00000090286305399675011000000014953257517023339163_);">
				<path class="st3" d="M592.2,116.2h-16.5c-5.1,0-7-4.2-7-7V84.7c0-5.1,4.2-7,7-7h16.5c5.1,0,7,4.2,7,7v24.5      C599.2,114.3,595,116.2,592.2,116.2z M575.8,81.4c-0.8,0-3.3,0.3-3.3,3.3v24.5c0,0.8,0.3,3.3,3.3,3.3h16.5      c0.8,0,3.3-0.3,3.3-3.3V84.7c0-0.8-0.3-3.3-3.3-3.3C592.3,81.4,575.8,81.4,575.8,81.4z"/>
			</g>
		</g>
		<g>
			<defs>
				<rect id="SVGID_00000167384611271906745170000011873677904524091839_" x="501.7" y="17.8" width="183.8" height="166.5"/>
			</defs>
			<clipPath id="SVGID_00000167373393212552177060000017019213333122687112_">
				<use xlink:href="#SVGID_00000167384611271906745170000011873677904524091839_" style="overflow:visible;"/>
			</clipPath>
			<g style="clip-path:url(#SVGID_00000167373393212552177060000017019213333122687112_);">
				<path class="st3" d="M658.7,62.4c1.1,0,2-0.9,2-2s-0.9-2-2-2s-2,0.9-2,2S657.6,62.4,658.7,62.4"/>
			</g>
		</g>
		<g>
			<defs>
				<rect id="SVGID_00000004526322214415468580000012094197184845515955_" x="501.7" y="17.8" width="183.8" height="166.5"/>
			</defs>
			<clipPath id="SVGID_00000075844135069505248620000004961219734641102782_">
				<use xlink:href="#SVGID_00000004526322214415468580000012094197184845515955_" style="overflow:visible;"/>
			</clipPath>
			<g style="clip-path:url(#SVGID_00000075844135069505248620000004961219734641102782_);">
				<path class="st3" d="M604.3,103.3c1.2,0,2.2-1,2.2-2.2s-1-2.2-2.2-2.2s-2.2,1-2.2,2.2C602.1,102.4,603.1,103.3,604.3,103.3"/>
			</g>
		</g>
		<g>
			<defs>
				<rect id="SVGID_00000112595634066259990480000018138916019094793381_" x="501.7" y="17.8" width="183.8" height="166.5"/>
			</defs>
			<clipPath id="SVGID_00000017483596493938973460000004792073185557879702_">
				<use xlink:href="#SVGID_00000112595634066259990480000018138916019094793381_" style="overflow:visible;"/>
			</clipPath>
			<g style="clip-path:url(#SVGID_00000017483596493938973460000004792073185557879702_);">
				<path class="st3" d="M611.2,93.6c1.1,0,2-0.9,2-2s-0.9-2-2-2s-2,0.9-2,2S610.1,93.6,611.2,93.6"/>
			</g>
		</g>
	</g>
	<g>
		<polygon class="st3" points="613.9,90.8 620.3,81.1 620.3,79.8 617.1,80.9 614.5,84.1   "/>
	</g>
</g>
<g>
	<g>
		<defs>
			<rect id="SVGID_00000126316878911720927750000013554881675957848727_" width="35.7" height="35.7"/>
		</defs>
		<clipPath id="SVGID_00000043428597460628876310000003808476925026542240_">
			<use xlink:href="#SVGID_00000126316878911720927750000013554881675957848727_" style="overflow:visible;"/>
		</clipPath>
		<g style="clip-path:url(#SVGID_00000043428597460628876310000003808476925026542240_);">
			<path class="st1" d="M17.9,34C26.8,34,34,26.8,34,17.9S26.8,1.7,17.9,1.7S1.7,8.9,1.7,17.9S8.9,34,17.9,34"/>
		</g>
	</g>
	<g>
		<defs>
			<rect id="SVGID_00000138540702009597272700000009276094083891110293_" width="35.7" height="35.7"/>
		</defs>
		<clipPath id="SVGID_00000120526260236858995030000007262026828056635529_">
			<use xlink:href="#SVGID_00000138540702009597272700000009276094083891110293_" style="overflow:visible;"/>
		</clipPath>
		<g style="clip-path:url(#SVGID_00000120526260236858995030000007262026828056635529_);">
			<path class="st47" d="M17.9,35.7C8,35.7,0,27.7,0,17.9C0,8,8,0,17.9,0c9.8,0,17.9,8,17.9,17.9C35.7,27.7,27.7,35.7,17.9,35.7z      M17.9,3.4c-8,0-14.5,6.5-14.5,14.5s6.5,14.5,14.5,14.5s14.5-6.5,14.5-14.5S25.9,3.4,17.9,3.4z"/>
		</g>
	</g>
</g>
<text transform="matrix(1 0 0 1 11.1895 25.2772)" class="st3 st66 st67">5</text>
<text transform="matrix(1 0 0 1 44.9324 15.2443)" class="st3 st68 st69">Return to store to get your Vehicle Health Report.</text>
<text transform="matrix(1 0 0 1 43.7491 63.6323)" class="st70 st68 st69">Plug in tool via USB at the</text>
<text transform="matrix(1 0 0 1 43.7491 78.6323)" class="st70 st68 st69">kiosk inside store. Follow</text>
<text transform="matrix(1 0 0 1 43.7491 93.6323)" class="st70 st68 st69">instructions on kiosk screen</text>
<text transform="matrix(1 0 0 1 43.7491 108.6323)" class="st70 st68 st69">to receive your Vehicle</text>
<text transform="matrix(1 0 0 1 43.7491 123.6323)" class="st70 st68 st69">Health Report.</text>
<text transform="matrix(1 0 0 1 381.9421 63.6323)" class="st70 st68 st69">Vehicle Health</text>
<text transform="matrix(1 0 0 1 381.9421 78.6323)" class="st70 st68 st69">Report includes</text>
<text transform="matrix(1 0 0 1 381.9421 93.6323)" class="st70 st68 st69">information on</text>
<text transform="matrix(1 0 0 1 381.9421 108.6323)" class="st70 st68 st69">parts availability</text>
<text transform="matrix(1 0 0 1 381.9421 123.6323)" class="st70 st68 st69">for the repair and</text>
<text transform="matrix(1 0 0 1 381.9421 138.6323)" class="st70 st68 st69">local repair shops.</text>
</svg>