<?xml version="1.0" encoding="UTF-8"?>
<!-- Generator: Adobe Illustrator 26.0.1, SVG Export Plug-In . SVG Version: 6.00 Build 0)  -->
<svg version="1.1" id="Layer_1" xmlns="http://www.w3.org/2000/svg" xmlns:xlink="http://www.w3.org/1999/xlink" x="0px" y="0px" viewBox="0 0 700 56.3" style="enable-background:new 0 0 700 56.3;" xml:space="preserve">
<style type="text/css">
	.st0{clip-path:url(#SVGID_00000158716225499618669180000003196834916228165013_);}
	.st1{fill:#1F2123;}
	.st2{fill:#E12827;}
	.st3{fill:#FFFFFF;}
	.st4{font-family:'HelveticaNeue-Medium';}
	.st5{font-size:24px;}
	.st6{font-family:'HelveticaNeue';}
	.st7{font-size:14px;}
	.st8{fill:#919090;}
	.st9{font-size:13px;}
</style>
<g>
	<defs>
		<rect id="SVGID_1_" x="0.5" y="0" width="35.7" height="35.7"/>
	</defs>
	<clipPath id="SVGID_00000011719170479387386120000015547926405356514689_">
		<use xlink:href="#SVGID_1_" style="overflow:visible;"/>
	</clipPath>
	<g style="clip-path:url(#SVGID_00000011719170479387386120000015547926405356514689_);">
		<path class="st1" d="M18.4,34c8.9,0,16.2-7.3,16.2-16.2S27.3,1.6,18.4,1.6S2.2,8.9,2.2,17.8S9.5,34,18.4,34"/>
	</g>
	<g style="clip-path:url(#SVGID_00000011719170479387386120000015547926405356514689_);">
		<path class="st2" d="M18.4,35.7c-9.8,0-17.9-8-17.9-17.9C0.5,8,8.6,0,18.4,0c9.8,0,17.9,8,17.9,17.9    C36.3,27.7,28.3,35.7,18.4,35.7z M18.4,3.3c-8,0-14.5,6.5-14.5,14.5s6.5,14.5,14.5,14.5s14.5-6.5,14.5-14.5S26.4,3.3,18.4,3.3z"/>
	</g>
</g>
<text transform="matrix(1 0 0 1 11.7319 25.2404)" class="st3 st4 st5">3</text>
<text transform="matrix(1 0 0 1 44.291 15.8247)" class="st3 st6 st7">Locate your vehicle's connector and plug in tool.</text>
<text transform="matrix(1 0 0 1 45.8785 50.0767)" class="st8 st6 st9">Location #1 - Driver Side - Under Steering Wheel Column</text>
</svg>