<?xml version="1.0" encoding="UTF-8"?>
<!-- Generator: Adobe Illustrator 26.0.1, SVG Export Plug-In . SVG Version: 6.00 Build 0)  -->
<svg version="1.1" id="Layer_1" xmlns="http://www.w3.org/2000/svg" xmlns:xlink="http://www.w3.org/1999/xlink" x="0px" y="0px" viewBox="0 0 845.2 446.8" style="enable-background:new 0 0 845.2 446.8;" xml:space="preserve">
<style type="text/css">
	.st0{clip-path:url(#SVGID_00000119115009533369507850000014344258664372007094_);fill:none;stroke:#FFDD15;stroke-width:5;}
	.st1{clip-path:url(#SVGID_00000119115009533369507850000014344258664372007094_);fill:#FFFFFF;}
	.st2{clip-path:url(#SVGID_00000108289184384574363550000000154957086481475458_);fill:#6D6E70;}
	.st3{clip-path:url(#SVGID_00000108289184384574363550000000154957086481475458_);fill:#A6A8AB;}
	.st4{clip-path:url(#SVGID_00000108289184384574363550000000154957086481475458_);fill:#808184;}
	.st5{clip-path:url(#SVGID_00000108289184384574363550000000154957086481475458_);fill:#404041;}
	.st6{clip-path:url(#SVGID_00000108289184384574363550000000154957086481475458_);fill:#BBBDBF;}
	.st7{clip-path:url(#SVGID_00000108289184384574363550000000154957086481475458_);fill:#DBDCDD;}
	.st8{clip-path:url(#SVGID_00000108289184384574363550000000154957086481475458_);fill:#D0D2D3;}
	.st9{clip-path:url(#SVGID_00000108289184384574363550000000154957086481475458_);fill:#231F20;}
	.st10{clip-path:url(#SVGID_00000108289184384574363550000000154957086481475458_);fill:#E6E7E8;}
	.st11{clip-path:url(#SVGID_00000108289184384574363550000000154957086481475458_);fill:#EDEDEE;}
	.st12{clip-path:url(#SVGID_00000010990603040494333360000018426438444092744865_);fill:#404041;}
	.st13{clip-path:url(#SVGID_00000010990603040494333360000018426438444092744865_);fill:none;stroke:#FFDD15;stroke-width:5;}
	.st14{clip-path:url(#SVGID_00000010990603040494333360000018426438444092744865_);fill:#FFFFFF;}
	.st15{clip-path:url(#SVGID_00000011023051746756825720000011137901779776541061_);fill:#E12A27;}
	.st16{clip-path:url(#SVGID_00000011023051746756825720000011137901779776541061_);fill:#323031;}
	.st17{clip-path:url(#SVGID_00000011023051746756825720000011137901779776541061_);fill:#A6A8AB;}
	.st18{clip-path:url(#SVGID_00000011023051746756825720000011137901779776541061_);fill:#58595B;}
	.st19{clip-path:url(#SVGID_00000011023051746756825720000011137901779776541061_);fill:#231F20;}
	.st20{clip-path:url(#SVGID_00000011023051746756825720000011137901779776541061_);fill:#404041;}
	.st21{clip-path:url(#SVGID_00000011023051746756825720000011137901779776541061_);fill:#E24F50;}
	.st22{clip-path:url(#SVGID_00000005955074673395948460000018225979939371961231_);fill:#E24F50;}
	.st23{clip-path:url(#SVGID_00000005955074673395948460000018225979939371961231_);fill:#58595B;}
	.st24{clip-path:url(#SVGID_00000005955074673395948460000018225979939371961231_);fill:#696A6C;}
	.st25{clip-path:url(#SVGID_00000003785421202056847140000010225686917534948021_);fill:#929497;}
	.st26{clip-path:url(#SVGID_00000003785421202056847140000010225686917534948021_);fill:#323031;}
	.st27{clip-path:url(#SVGID_00000114778211066692525790000009144531412022915474_);fill:#323031;}
	.st28{clip-path:url(#SVGID_00000114778211066692525790000009144531412022915474_);fill:#4A4A4C;}
	.st29{clip-path:url(#SVGID_00000114778211066692525790000009144531412022915474_);fill:none;stroke:#FFDD15;stroke-width:5;}
	.st30{fill:#FFFFFF;}
	.st31{clip-path:url(#SVGID_00000139294887471826220100000000317360306267786402_);fill:#231F20;}
	.st32{clip-path:url(#SVGID_00000030472492289521017100000017262234409936045205_);fill:none;stroke:#FFDD15;stroke-width:5;}
</style>
<g>
	<g>
		<defs>
			<rect id="SVGID_1_" width="845.2" height="446.8"/>
		</defs>
		<clipPath id="SVGID_00000048500103180034895320000011517283510555137467_">
			<use xlink:href="#SVGID_1_" style="overflow:visible;"/>
		</clipPath>
		
			<path style="clip-path:url(#SVGID_00000048500103180034895320000011517283510555137467_);fill:none;stroke:#FFDD15;stroke-width:5;" d="    M628.1,234v117.3c0,0,0,13.5-13.5,13.5H353.1"/>
		<path style="clip-path:url(#SVGID_00000048500103180034895320000011517283510555137467_);fill:#FFFFFF;" d="M727.2,207.9    l-16.9-4.5l-16.9-4.4c-0.1,0-0.2,0-0.3,0l-0.1,0c-3.6-0.2-7.3-0.2-10.9-0.3l-10.9-0.3l-10.9-0.2c-3.6-0.1-7.3-0.1-10.9-0.1    l-10.9-0.1c-3.6,0-7.3-0.1-10.9,0l-10.9,0.1c-3.6,0-7.3,0-10.9,0.1l-0.1,0c-0.2,0-0.4,0-0.6,0.1l-14.4,4.4l-7.2,2.3    c-2.4,0.8-4.8,1.5-7.2,2.3c-4.8,1.6-9.5,3.2-14.2,4.8c-2.4,0.8-4.7,1.7-7.1,2.5c-2.4,0.8-4.7,1.7-7.1,2.6c2.5-0.5,4.9-1,7.4-1.5    c2.5-0.5,4.9-1,7.4-1.6c4.9-1.1,9.8-2.3,14.7-3.4c2.4-0.6,4.9-1.2,7.3-1.8l7.3-1.8l14.1-3.7c3.5,0.1,7,0.1,10.6,0.1l10.9,0.1    c0.6,0,1.2,0,1.9,0l-6.8,13.8l12.3-13.8c1.2,0,2.4,0,3.6,0l10.9-0.1c3.6,0,7.3-0.1,10.9-0.1l10.9-0.2l10.9-0.3    c3.6-0.1,7.1-0.2,10.7-0.3l16.8,3.8l17.1,3.7l17.1,3.7l17.1,3.6l-16.8-4.7L727.2,207.9z"/>
		<path style="clip-path:url(#SVGID_00000048500103180034895320000011517283510555137467_);fill:#FFFFFF;" d="M590.9,49.4l14.4,4.4    c0.2,0.1,0.4,0.1,0.6,0.1l0.1,0c3.6,0.1,7.3,0.1,10.9,0.1l10.9,0.1c3.6,0,7.3,0,10.9,0l10.9-0.1c3.6,0,7.3-0.1,10.9-0.1l10.9-0.2    l10.9-0.3c3.6-0.1,7.3-0.2,10.9-0.3l0.1,0c0.1,0,0.2,0,0.3,0l16.9-4.4l16.9-4.5l16.9-4.6l16.8-4.7l-17.1,3.6L726.7,42l-17.1,3.7    l-16.8,3.8c-3.6-0.1-7.1-0.2-10.7-0.3l-10.9-0.3l-10.9-0.2c-3.6-0.1-7.3-0.1-10.9-0.1l-10.9-0.1c-1.1,0-2.2,0-3.3,0l-12.5-14l7,14    c-0.7,0-1.3,0-2,0l-10.9,0.1c-3.5,0-7,0-10.6,0.1l-14.1-3.7l-7.3-1.8c-2.4-0.6-4.9-1.2-7.3-1.8c-4.9-1.2-9.8-2.3-14.7-3.4    c-2.4-0.6-4.9-1.1-7.4-1.6c-2.5-0.5-4.9-1-7.4-1.5c2.4,0.9,4.7,1.8,7.1,2.6c2.4,0.9,4.7,1.7,7.1,2.5c4.7,1.7,9.5,3.2,14.2,4.8    c2.4,0.8,4.8,1.6,7.2,2.3L590.9,49.4z"/>
		<path style="clip-path:url(#SVGID_00000048500103180034895320000011517283510555137467_);fill:#FFFFFF;" d="M804.9,215.5l1.8-4.1    c3.7-8.6,11.2-14.8,20.1-16.8C822.5,203.4,815.2,210.4,804.9,215.5 M791.3,220.8H397.7c-0.2-0.1-0.4-0.1-0.7-0.2l-12.2-28.7    L516,219.5c0.7,0.4,1.6,0.6,2.4,0.3l57-20.5c1.2-0.4,2-1.6,1.8-2.9c-6.4-61.2-6.4-79.6,0-140.8c0.1-1.3-0.6-2.5-1.8-2.9l-57-20.5    c-0.3-0.1-0.6-0.2-0.9-0.2c-0.1,0-0.1,0-0.2,0l0-0.1L384.8,59.8l12-28.4c0.6-0.2,1.2-0.3,1.9-0.5h391.3c2.7,0.8,5.3,1.6,7.7,2.5    l3.8,9c4.8,11.4,15.4,19.2,27.5,20.6c1.5,4.8,2.3,10,2.3,15.6v94.7c0,5.5-0.7,10.7-2.2,15.3c-12.2,1.4-22.7,9.1-27.6,20.6l-4,9.5    C795.6,219.4,793.5,220.1,791.3,220.8 M367.5,194h12.2l10.3,24.2C379.2,213.7,372.1,206.1,367.5,194 M474.4,126.1    c0,33.8,12.5,65.4,33.8,86.5l-123.4-20.9l-0.7-1.6c-0.4-1-1.4-1.7-2.6-1.7h-15.8c-2-6.9-3.3-15.2-4.1-24.9l96,19.7l-101.3-26.4    c-2.5-11.7-2.5-50.1,0-61.8c0.6-0.2,1.2-0.4,1.8-0.7l99.5-25.9l-96,19.7c0.8-9.7,2.1-17.9,4.1-24.9h15.7c1.1,0,2.1-0.7,2.6-1.7    l0.7-1.6L508.5,39C487,60.2,474.4,92,474.4,126.1 M571.5,194.8L517.9,214c-23.8-19.8-38-52.6-38-87.9c0-35.5,14.2-68.4,38-88.2    l53.5,19.2C565.3,116.4,565.3,135.5,571.5,194.8 M389.8,33.9l-10.1,23.8h-12C372.2,45.9,379.3,38.5,389.8,33.9 M826.6,57    c-8.8-2-16.3-8.1-19.9-16.7l-1.5-3.6C815.1,41.7,822.3,48.5,826.6,57 M792.8,17.3c-0.6-0.2-1.2-0.2-1.8-0.2H535.9l5.1-5.4    c2.6-2.8,2.5-7.2-0.3-9.8c-1.3-1.2-3-1.9-4.7-1.9c-1.9,0-3.7,0.7-5.1,2.2l-13.9,14.9h-119c-0.5,0-1.1,0.1-1.6,0.2    c-36.2,8.7-45.1,35.9-48,65.1c-5,2.8-5.9,11.1-6.5,17c-0.8,7.1-1.2,16.5-1.2,26.6c0,10.1,0.4,19.5,1.2,26.6    c0.6,5.9,1.5,14.3,6.5,17c2.9,29,11.6,56,46.8,64.8c0.5,0.1,1.1,0.2,1.7,0.2h119.9l14.2,15.2c2.6,2.8,7,2.9,9.8,0.3    c2.8-2.6,2.9-7,0.3-9.8l-5.3-5.7h256.7c0.6,0,1.3-0.1,1.9-0.3c32.9-9.2,51-30.9,51-61V78.7C845.2,57.1,836.1,29,792.8,17.3"/>
		<path style="clip-path:url(#SVGID_00000048500103180034895320000011517283510555137467_);fill:#FFFFFF;" d="M770,189.2    c-0.1,0-0.2,0-0.3,0c-1.5,0.3-2.5,1.8-2.2,3.3c0.3,1.5,1.8,2.5,3.3,2.2l53.3-10.7L770,189.2z"/>
		<path style="clip-path:url(#SVGID_00000048500103180034895320000011517283510555137467_);fill:#FFFFFF;" d="M770,62.8l53.9,4.9    l-53.1-10.4c-0.1,0-0.2,0-0.3,0c-1.5-0.1-2.9,1-3,2.5S768.5,62.7,770,62.8"/>
		<path style="clip-path:url(#SVGID_00000048500103180034895320000011517283510555137467_);fill:#FFFFFF;" d="M704.5,186.4    c-6.8-39-6.8-81.7,0-120.7l48-10.8c9.3,5.4,15.9,34.9,15.9,71.2c0,36.3-6.6,65.8-15.9,71.2L704.5,186.4z M753.9,49.4    c-0.3-0.2-0.7-0.2-1.1-0.2c-0.2,0-0.4,0-0.6,0.1l-50.8,11.4c-1.1,0.2-1.9,1.1-2.1,2.2c-7.3,40.7-7.3,85.6,0,126.3    c0.2,1.1,1,2,2.1,2.2l50.8,11.4c0.6,0.1,1.2,0.1,1.7-0.2c14.8-6.4,20-45.3,20-76.6C773.9,94.6,768.7,55.7,753.9,49.4"/>
		
			<path style="clip-path:url(#SVGID_00000048500103180034895320000011517283510555137467_);fill:none;stroke:#FFDD15;stroke-width:5;" d="    M493.1,165.7H95.5c0,0-13.5,0-13.5,13.5v145.2"/>
	</g>
	<g>
		<defs>
			<path id="SVGID_00000010283943199594005990000011624494808551984043_" d="M568.4,290.3c0,0-15.2,0-17.3,14.1v124.9     c0.7,4.5,3.5,13.5,14.4,14.8h123.9c4.6-0.6,15.5-3.6,15.5-17.4V307.8c0,0,0-17.6-17.5-17.6H568.4z"/>
		</defs>
		<clipPath id="SVGID_00000095302209031222158380000001477493770658292885_">
			<use xlink:href="#SVGID_00000010283943199594005990000011624494808551984043_" style="overflow:visible;"/>
		</clipPath>
		<polygon style="clip-path:url(#SVGID_00000095302209031222158380000001477493770658292885_);fill:#6D6E70;" points="475.9,500.4     451.6,500.4 362,500.4 362,234 598.5,234 598.5,288.6 557.5,419.8   "/>
		<polygon style="clip-path:url(#SVGID_00000095302209031222158380000001477493770658292885_);fill:#A6A8AB;" points="727.7,500     557.5,500 600.2,236.2 727.7,236.2   "/>
		<path style="clip-path:url(#SVGID_00000095302209031222158380000001477493770658292885_);fill:#A6A8AB;" d="M401.4,500.4    c0,0,72.5-24.2,103.3-53.5s55.2-73.7,55.2-73.7l7.8-28c0,0-14.7-4-30.3,2.2c-15.6,6.2-37,23.4-37,23.4l-22.7,22.7l-113.7,41.2    l-1.9,65.9H401.4z"/>
		<path style="clip-path:url(#SVGID_00000095302209031222158380000001477493770658292885_);fill:#808184;" d="M401.4,500.4l0.3,0.8    c0,0,18.2-6.1,40.2-15.8c22-9.7,47.9-23.1,63.4-37.9c30.9-29.5,55.3-73.9,55.3-73.9l0-0.1l8.1-28.9l-0.8-0.2c0,0-4.8-1.3-11.7-1.3    c-5.4,0-12.1,0.8-19.1,3.5c-7.9,3.2-17.2,9-24.5,14.1c-7.3,5.1-12.7,9.4-12.7,9.4l0,0l-22.6,22.6L363.2,434l-1.9,67.2h40.3l0.1,0    L401.4,500.4v-0.8h-38.5l1.9-64.5L478.1,394l22.9-22.8l-0.6-0.6l0.5,0.6c0,0,0.3-0.3,0.9-0.7c2.1-1.7,7.7-6,14.4-10.5    c6.7-4.5,14.6-9.3,21.4-12c6.7-2.7,13.2-3.4,18.5-3.4c3.4,0,6.2,0.3,8.2,0.6c1,0.2,1.8,0.3,2.3,0.4c0.3,0.1,0.5,0.1,0.6,0.1l0.1,0    l0,0l0.2-0.8l-0.8-0.2l-7.8,28l0.8,0.2l-0.7-0.4c0,0-0.1,0.2-0.3,0.5c-2.8,4.9-26,45.6-54.7,73c-15.3,14.6-41,27.9-63,37.6    c-11,4.8-21,8.8-28.2,11.5c-3.6,1.4-6.6,2.4-8.6,3.1c-1,0.4-1.8,0.6-2.3,0.8c-0.5,0.2-0.8,0.3-0.8,0.3L401.4,500.4v-0.8V500.4z"/>
		<path style="clip-path:url(#SVGID_00000095302209031222158380000001477493770658292885_);fill:#A6A8AB;" d="M593,224.6    l-25.3,120.5c0,0-32.8,27.2-64.9,23.7c-32.2-3.5-14.2-15.8-50.2-44.7c-36-28.9-53.1-26.1-58.3-38.4c-5.2-12.3-33.2-27-24.2-61.1    C379.1,190.5,593,224.6,593,224.6"/>
		<path style="clip-path:url(#SVGID_00000095302209031222158380000001477493770658292885_);fill:#808184;" d="M593,224.6l-0.8-0.2    l-25.3,120.5l0.8,0.2l-0.5-0.6c0,0-0.1,0.1-0.3,0.3c-1.6,1.3-9.2,7.2-19.9,12.8c-10.7,5.6-24.5,10.8-38.4,10.8    c-1.9,0-3.8-0.1-5.7-0.3c-8-0.9-12.8-2.3-16-4.3c-2.4-1.5-4-3.3-5.5-5.7c-2.3-3.5-4.2-8.1-8.2-13.8c-3.9-5.7-9.9-12.6-20-20.8    C435,309,421.6,302.4,412.2,298c-4.7-2.2-8.4-3.9-11.2-5.8c-2.8-1.9-4.7-3.9-5.9-6.8c-1.2-2.8-3.4-5.6-6.1-8.7    c-4-4.6-8.9-9.8-12.9-16.1c-4-6.3-6.9-13.8-6.9-23.1c0-3.9,0.5-8.2,1.7-12.8c0.3-1.3,1-2.5,2-3.6c1.7-1.9,4.5-3.6,8.1-5.1    c5.4-2.1,12.8-3.6,21.4-4.6c8.7-0.9,18.7-1.4,29.5-1.4c33,0,73.2,3.8,105.2,7.6c16,1.9,29.9,3.8,39.9,5.2c5,0.7,8.9,1.3,11.7,1.7    c2.7,0.4,4.2,0.6,4.2,0.7L593,224.6l-0.8-0.2L593,224.6l0.1-0.8c0,0-95.1-15.2-161.2-15.2c-16.5,0-31.3,0.9-42.3,3.3    c-5.5,1.2-10.1,2.8-13.6,4.8c-1.7,1-3.2,2.1-4.3,3.4c-1.1,1.3-1.9,2.7-2.3,4.2c-1.2,4.7-1.8,9.1-1.8,13.2c0,12.8,5.5,22.4,11.5,30    c3,3.8,6.1,7.2,8.7,10.2c2.6,3,4.8,5.8,5.8,8.3c1.4,3.2,3.6,5.5,6.5,7.5c4.5,3,10.7,5.3,19.2,9.7c8.5,4.4,19.3,10.7,32.8,21.5    c9,7.2,14.5,13.3,18.4,18.5c2.9,3.9,4.8,7.3,6.4,10.3c1.2,2.2,2.3,4.2,3.5,6c1.8,2.7,4,4.9,7.4,6.5c3.4,1.7,8.1,2.8,14.9,3.5    c2,0.2,3.9,0.3,5.9,0.3c15.3,0,30.2-6.1,41.3-12.1c11.1-6.1,18.3-12.1,18.4-12.1l0.2-0.2L593.9,224l-0.8-0.1L593,224.6z"/>
		<path style="clip-path:url(#SVGID_00000095302209031222158380000001477493770658292885_);fill:#404041;" d="M618,236.2    c0,0-25.6,121.9-37.9,152.6c-12.3,30.6-27.2,70.7-91.3,111.3h-43c0,0,88.1-42.1,109.3-111c21.2-68.9,38.5-152.9,38.5-152.9H618z"/>
		<path style="clip-path:url(#SVGID_00000095302209031222158380000001477493770658292885_);fill:#BBBDBF;" d="M489,500    c64.1-40.6,79-80.7,91.3-111.3c12.3-30.6,37.9-152.6,37.9-152.6h24.4c0,0-30.4,121.9-42.7,152.6c-12.3,30.6-27.2,70.7-91.3,111.3    H489z"/>
		<path style="clip-path:url(#SVGID_00000095302209031222158380000001477493770658292885_);fill:#A6A8AB;" d="M677.3,236.2    c0,0-1.3,29-4.7,43.1c-3.5,14.1-33.8,110.1-63.2,156.9L562.6,500h-54c64.1-40.6,79-80.7,91.3-111.3    c12.3-30.6,42.7-152.6,42.7-152.6H677.3z"/>
		<path style="clip-path:url(#SVGID_00000095302209031222158380000001477493770658292885_);fill:#DBDCDD;" d="M628.7,290.3H626    c-1.4,5.4-2.9,10.9-4.4,16.5c-4.4,16.2-9,33-13.2,47.4c-2.1,7.2-4.1,13.9-6,19.6c-1.9,5.7-3.5,10.5-4.9,14    c-6.2,15.4-12.9,32.7-25.9,51.4c-1.2,1.7-2.5,3.4-3.8,5.2c0.2,0,0.4,0,0.7,0h2.7c15-20.3,22.3-39.3,28.9-55.6    C606.7,371.8,619.1,327,628.7,290.3"/>
		<path style="clip-path:url(#SVGID_00000095302209031222158380000001477493770658292885_);fill:#D0D2D3;" d="M631.5,290.3h-2.8    c-9.7,36.7-22,81.5-28.8,98.4c-6.6,16.3-13.8,35.3-28.9,55.6h3.3c0.5-0.7,1-1.4,1.5-2.1c13.5-19.2,20.4-37.2,26.5-52.4    c1.6-3.9,3.4-9.2,5.4-15.5C614.8,352.5,624,318.9,631.5,290.3"/>
		<path style="clip-path:url(#SVGID_00000095302209031222158380000001477493770658292885_);fill:#231F20;" d="M607.5,233.8    c0,0-0.1,0.5-0.3,1.4c-1.4,6.8-7.9,37.4-15.5,69.9c-3.8,16.3-7.9,33-11.7,47.4c-3.8,14.5-7.5,26.6-10.3,33.8    c-6.2,15.3-13.7,34.1-28.1,53.8c-14.4,19.7-35.8,40.3-69.7,59.3l0.8,1.4c34.1-19.1,55.6-39.9,70.2-59.7    c14.6-19.9,22.1-38.8,28.3-54.1c3.1-7.7,7-21.1,11.2-36.9c12.4-47.2,26.8-115.8,26.8-115.8L607.5,233.8z"/>
		<path style="clip-path:url(#SVGID_00000095302209031222158380000001477493770658292885_);fill:#D0D2D3;" d="M672.2,290.3h-2.8    c-9.2,30.1-34.9,105.9-60,145.8l-6,8.2h3.3l4.9-6.7l0-0.1c7.5-11.9,14.9-26.7,22-42.6c10.6-23.8,20.3-49.9,27.7-71.3    c3.7-10.7,6.8-20.3,9.2-27.9C671.1,293.8,671.7,292,672.2,290.3"/>
		<path style="clip-path:url(#SVGID_00000095302209031222158380000001477493770658292885_);fill:#D0D2D3;" d="M669.4,290.3h-2.8    c-4.5,14.7-12.8,39.8-22.9,66.2c-5.4,14.1-11.4,28.6-17.6,42.1c-6.2,13.5-12.6,25.9-18.9,36l-7.1,9.7h3.3l6-8.2    C634.5,396.2,660.2,320.4,669.4,290.3"/>
		<path style="clip-path:url(#SVGID_00000095302209031222158380000001477493770658292885_);fill:#808184;" d="M684.3,236.1    c0,0,0,0.5-0.1,1.3c-0.1,2.9-0.6,10.2-1.3,18.4c-0.8,8.2-1.8,17.2-3.4,23.3c-0.9,3.5-3.4,12.1-7.2,23.8c-5.7,17.6-14.2,42-24,66.5    c-9.8,24.4-20.9,48.9-31.9,66.3l0.7,0.4l-0.6-0.5l-46.8,63.9l1.3,0.9l46.8-64l0,0c14.7-23.5,29.7-59.2,41.4-90.8    c5.8-15.8,10.9-30.6,14.7-42.3c3.8-11.7,6.3-20.4,7.2-23.9c1.8-7.1,2.9-17.9,3.7-26.9c0.8-9,1.1-16.3,1.1-16.3L684.3,236.1z"/>
		<path style="clip-path:url(#SVGID_00000095302209031222158380000001477493770658292885_);fill:#808184;" d="M712.4,227.8    c0,0-0.1,0.8-0.3,2.3c-0.6,5.1-2.2,17.8-3.9,30.5c-0.9,6.3-1.8,12.6-2.6,17.9c-0.8,5.3-1.6,9.6-2.2,11.8    c-1.4,5.3-5.5,22.5-9.1,39.8c-1.8,8.6-3.6,17.3-4.9,24.4c-0.6,3.6-1.2,6.7-1.5,9.4c-0.4,2.6-0.6,4.7-0.6,6c0,3.3-0.1,7.5-0.1,11.9    c0,4.6,0.2,9.4,0.8,13.8c0.7,4.4,1.8,8.3,4,11l1.3-1c-1.9-2.4-3-6.1-3.7-10.3c-0.7-4.2-0.8-9-0.8-13.6c0-4.4,0.1-8.5,0.2-11.9    c0-1.2,0.2-3.2,0.6-5.8c2.6-18.1,13-64.3,15.5-73.4c0.7-2.7,1.6-7.9,2.6-14.3c2.9-19.1,6.4-48.4,6.4-48.4L712.4,227.8z"/>
		<path style="clip-path:url(#SVGID_00000095302209031222158380000001477493770658292885_);fill:#808184;" d="M717.9,230.7    c0,0-0.1,0.8-0.3,2.3c-0.6,5.1-2.2,17.8-3.9,30.5c-0.9,6.3-1.8,12.6-2.6,17.9c-0.8,5.3-1.6,9.6-2.2,11.8    c-1.4,5.3-5.5,22.5-9.1,39.8c-1.8,8.6-3.6,17.3-4.9,24.4c-0.6,3.6-1.2,6.7-1.5,9.4c-0.4,2.6-0.6,4.7-0.6,6c0,3.3-0.1,7.5-0.1,11.9    c0,4.6,0.2,9.4,0.8,13.8c0.7,4.4,1.8,8.3,4,11l1.3-1c-1.9-2.4-3-6.1-3.7-10.3c-0.7-4.2-0.8-9-0.8-13.6c0-4.4,0.1-8.5,0.2-11.9    c0-1.2,0.2-3.2,0.6-5.8c2.6-18.1,13-64.3,15.5-73.4c0.7-2.7,1.6-7.9,2.6-14.3c2.9-19.1,6.4-48.4,6.4-48.4L717.9,230.7z"/>
		<path style="clip-path:url(#SVGID_00000095302209031222158380000001477493770658292885_);fill:#A6A8AB;" d="M712.7,355.8    l-19.7-8.5l-32.2,12.3c-3.1,1.2-5.1,4.1-5.1,7.4c0,5.6,5.6,9.4,10.8,7.4l22.4-8.5l18.6,7.2L712.7,355.8z"/>
		<polygon style="clip-path:url(#SVGID_00000095302209031222158380000001477493770658292885_);fill:#BBBDBF;" points="711.8,358.9     707.5,373.1 688.9,365.9 688.9,348.9   "/>
		<path style="clip-path:url(#SVGID_00000095302209031222158380000001477493770658292885_);fill:#D0D2D3;" d="M688.9,347.7    l-28.4,10.8c-3.5,1.3-5.8,4.7-5.8,8.4h1.1c0-3.3,2-6.3,5.1-7.4l25.4-9.7v-1h2.7l1.4-0.5L688.9,347.7z M689.2,366    c0,0.4-0.1,0.7-0.1,1.1l4.1,1.6c0-0.3,0.1-0.7,0.1-1.1L689.2,366z M687.5,366.4l-21,8c-0.9,0.4-1.9,0.5-2.8,0.5c-4.2,0-8-3.4-8-8    h-1.1c0,2.6,1.1,4.9,2.7,6.5c1.7,1.6,3.9,2.6,6.3,2.6c1.1,0,2.2-0.2,3.2-0.6l20.5-7.8C687.4,367.3,687.5,366.9,687.5,366.4     M694.8,368.2c0,0.4-0.1,0.7-0.1,1.1l10.2,3.9v-1.1L694.8,368.2z"/>
		<path style="clip-path:url(#SVGID_00000095302209031222158380000001477493770658292885_);fill:#BBBDBF;" d="M688.9,365.9l-1.4,0.5    c0,0.4-0.1,0.8-0.1,1.2l1.5-0.6l0.2,0.1c0-0.3,0.1-0.7,0.1-1.1L688.9,365.9z"/>
		<path style="clip-path:url(#SVGID_00000095302209031222158380000001477493770658292885_);fill:#BBBDBF;" d="M693.3,367.6    c-0.1,0.4-0.1,0.7-0.1,1.1l1.5,0.6c0-0.3,0.1-0.7,0.1-1.1L693.3,367.6z"/>
		<path style="clip-path:url(#SVGID_00000095302209031222158380000001477493770658292885_);fill:#D0D2D3;" d="M690.3,348.3l-1.4,0.5    h2.7L690.3,348.3z M691.5,348.9v1.2l13.4,5.8v-1.2L691.5,348.9z M686.2,349.9l-25.4,9.7c-3.1,1.2-5.1,4.1-5.1,7.4h1.1    c0-2.9,1.8-5.4,4.4-6.5l25-9.5V349.9z M686.2,365.8l-20.1,7.6c-0.8,0.3-1.7,0.5-2.5,0.5h0c-1.8,0-3.5-0.7-4.8-2    c-1.3-1.2-2.1-2.9-2.1-4.9h-1.1c0,4.6,3.7,8,8,8c0.9,0,1.9-0.2,2.8-0.5l21-8l1.4-0.5l0.3,0.1l4.1,1.6l1.5,0.6l10.1,3.9l-16-6.2    h-2.7V365.8z"/>
		<path style="clip-path:url(#SVGID_00000095302209031222158380000001477493770658292885_);fill:#DBDCDD;" d="M691.5,350v1.2    l13.4,5.8v-1.2L691.5,350z M691.5,365.8v0.1h-2.7l16,6.2V371L691.5,365.8z"/>
		<path style="clip-path:url(#SVGID_00000095302209031222158380000001477493770658292885_);fill:#D0D2D3;" d="M691.5,348.9    L691.5,348.9L691.5,348.9L691.5,348.9z M688.8,350l-2.6,1v14.8l2.7-1L688.8,350L688.8,350z"/>
		<polygon style="clip-path:url(#SVGID_00000095302209031222158380000001477493770658292885_);fill:#DBDCDD;" points="688.9,350     688.9,364.8 688.9,364.8 691.5,365.8 691.5,351.2   "/>
		<polygon style="clip-path:url(#SVGID_00000095302209031222158380000001477493770658292885_);fill:#E6E7E8;" points="688.9,348.9     686.2,348.9 686.2,349.9 688.9,348.9   "/>
		<path style="clip-path:url(#SVGID_00000095302209031222158380000001477493770658292885_);fill:#E6E7E8;" d="M691.5,348.9h-2.7l0,0    l2.7,1.2L691.5,348.9L691.5,348.9z M688.9,348.9l-2.7,1v1.1l2.6-1l0,0V348.9 M688.9,364.8l-2.7,1v0.1h2.7V364.8z"/>
		<path style="clip-path:url(#SVGID_00000095302209031222158380000001477493770658292885_);fill:#EDEDEE;" d="M688.9,348.9    L688.9,348.9v1.2l2.7,1.2V350L688.9,348.9z M688.9,364.8L688.9,364.8l0,1.1h2.7v-0.1L688.9,364.8z"/>
		<path style="clip-path:url(#SVGID_00000095302209031222158380000001477493770658292885_);fill:#A6A8AB;" d="M726.4,258.7    c0,0-8.3,70.1-16.9,92.9c-8.6,22.7-32.2,82.9-32.2,82.9v25.1l10.7,22.9l38.4-26.7V258.7z"/>
		<path style="clip-path:url(#SVGID_00000095302209031222158380000001477493770658292885_);fill:#808184;" d="M726.4,258.7l-0.8-0.1    c0,0-0.1,1.1-0.4,3.1c-0.9,6.9-3.1,24.3-6.1,42.6c-1.5,9.1-3.2,18.4-4.9,26.7c-1.8,8.3-3.6,15.5-5.5,20.4    c-4.3,11.4-12.4,32.1-19.3,50c-3.5,8.9-6.7,17.2-9,23.2c-1.2,3-2.1,5.4-2.8,7.1c-0.7,1.7-1,2.6-1,2.6l-0.1,0.1v25.4l11.2,23.9    l39.5-27.5V258.7l-1.6-0.1L726.4,258.7h-0.8v196.7l-37.3,25.9l-10.3-21.9v-24.9h-0.8l0.7,0.3c0,0,23.5-60.2,32.2-82.9    c2.2-5.8,4.3-14.4,6.3-24.2c6-29.4,10.7-68.8,10.7-68.8L726.4,258.7h-0.8H726.4z"/>
		<path style="clip-path:url(#SVGID_00000095302209031222158380000001477493770658292885_);fill:#404041;" d="M692.6,236.2v12.1    h10.7v2.4h1.7l-1.2,2.4h1.2v3.3h1.4v3.8l1.2,1.9v3.3h1.4v2.6l1.4,1.7v2.6l2.1,1.2l-2.1,2.8l2.1,1.2v2.8h3.1v2.4h3.1l2.6,14.2    c0,0,5.2-31.5,5.2-34.4c0-2.8-1.2-0.9-1.2-0.9l-1.4-1.7l0.7-1.7l-1.7-1.2l1.4-0.7l-2.1-1.7l0.7-2.1l-1.4-2.1l0.9-1.4l-1.9-1.9    l1.9-1.9l-1.4-1.9l0.2-1.4l-4.3-0.5c0,0,0.5-4.2-2.1-5.3H692.6z"/>
		<path style="clip-path:url(#SVGID_00000095302209031222158380000001477493770658292885_);fill:#404041;" d="M676.4,315.6    c-2.5,4.3-2,9.2,1,11c3.1,1.8,7.6-0.3,10-4.6c2.5-4.3,2-9.2-1-11C683.3,309.2,678.8,311.3,676.4,315.6"/>
		<path style="clip-path:url(#SVGID_00000095302209031222158380000001477493770658292885_);fill:#404041;" d="M661.3,365.4    c-1.2,2.2-1,4.6,0.5,5.5c1.5,0.9,3.8-0.1,5-2.3c1.2-2.2,1-4.6-0.5-5.5C664.8,362.3,662.6,363.3,661.3,365.4"/>
		<path style="clip-path:url(#SVGID_00000095302209031222158380000001477493770658292885_);fill:#404041;" d="M673.5,360.6    c-1.2,2.2-1,4.6,0.5,5.5c1.5,0.9,3.8-0.1,5-2.3c1.2-2.2,1-4.6-0.5-5.5C677,357.4,674.7,358.4,673.5,360.6"/>
		<path style="clip-path:url(#SVGID_00000095302209031222158380000001477493770658292885_);fill:#231F20;" d="M620.9,392.9    l-12.1-4.7c-1.9-0.7-2.8-2.8-2.1-4.6l14.2-36.8c0.7-1.9,2.8-2.8,4.6-2.1l12.1,4.7c1.8,0.7,2.8,2.8,2.1,4.6l-14.2,36.8    C624.8,392.7,622.8,393.6,620.9,392.9"/>
		<path style="clip-path:url(#SVGID_00000095302209031222158380000001477493770658292885_);fill:#A6A8AB;" d="M449.2,427.9    c0,0,50.5-8.4,59.4-18.9c8.8-10.5,38.1-51.5,55.7-51.6"/>
		<path style="clip-path:url(#SVGID_00000095302209031222158380000001477493770658292885_);fill:#808184;" d="M449.4,428.7    c0,0,12.7-2.1,26.4-5.5c6.9-1.7,14.1-3.8,20.1-6c3-1.1,5.7-2.3,8-3.6c2.3-1.3,4.1-2.6,5.3-4c2.2-2.6,5.7-7.2,10-12.5    c6.4-8,14.5-17.7,22.6-25.4c4.1-3.9,8.1-7.2,12-9.6c3.8-2.4,7.4-3.8,10.5-3.8l0-1.6c-4.7,0-9.9,2.7-15.4,6.8    c-8.1,6.1-16.7,15.4-24.1,24.2c-7.4,8.8-13.6,17-16.9,20.9c-1,1.2-2.7,2.4-4.9,3.6c-3.8,2.1-9.1,4.1-14.9,5.9    c-8.7,2.7-18.5,5-26.1,6.6c-3.8,0.8-7.1,1.4-9.4,1.8c-1.2,0.2-2.1,0.4-2.7,0.5c-0.6,0.1-1,0.2-1,0.2L449.4,428.7z"/>
	</g>
	<g>
		<defs>
			<rect id="SVGID_00000004531019741827139890000008285765596928360862_" width="845.2" height="446.8"/>
		</defs>
		<clipPath id="SVGID_00000170279679583240835180000015215113246874280103_">
			<use xlink:href="#SVGID_00000004531019741827139890000008285765596928360862_" style="overflow:visible;"/>
		</clipPath>
		<path style="clip-path:url(#SVGID_00000170279679583240835180000015215113246874280103_);fill:#404041;" d="M489.2,189.8    c13.3,0,24.1-10.8,24.1-24.1s-10.8-24.1-24.1-24.1c-13.3,0-24.1,10.8-24.1,24.1S475.9,189.8,489.2,189.8"/>
		
			<ellipse transform="matrix(0.982 -0.1891 0.1891 0.982 -22.5118 95.5061)" style="clip-path:url(#SVGID_00000170279679583240835180000015215113246874280103_);fill:none;stroke:#FFDD15;stroke-width:5;" cx="489.2" cy="165.7" rx="24.1" ry="24.1"/>
		<path style="clip-path:url(#SVGID_00000170279679583240835180000015215113246874280103_);fill:#FFFFFF;" d="M482.1,179.4    c-0.9,0-1.8-0.3-2.5-1.1l-8-8c-1.4-1.4-1.4-3.7,0-5.1c1.4-1.4,3.7-1.4,5.1,0l5.4,5.4l17.7-17.7c1.4-1.4,3.7-1.4,5.1,0    c1.4,1.4,1.4,3.7,0,5.1l-20.2,20.2C483.9,179.1,483,179.4,482.1,179.4"/>
		<path style="clip-path:url(#SVGID_00000170279679583240835180000015215113246874280103_);fill:#404041;" d="M627.9,249.5    c13.3,0,24.1-10.8,24.1-24.1s-10.8-24.1-24.1-24.1c-13.3,0-24.1,10.8-24.1,24.1S614.6,249.5,627.9,249.5"/>
		
			<ellipse transform="matrix(0.8944 -0.4472 0.4472 0.8944 -34.5173 304.5851)" style="clip-path:url(#SVGID_00000170279679583240835180000015215113246874280103_);fill:none;stroke:#FFDD15;stroke-width:5;" cx="627.9" cy="225.4" rx="24.1" ry="24.1"/>
		<path style="clip-path:url(#SVGID_00000170279679583240835180000015215113246874280103_);fill:#FFFFFF;" d="M620.7,239.1    c-0.9,0-1.8-0.3-2.5-1.1l-8-8c-1.4-1.4-1.4-3.7,0-5.1c1.4-1.4,3.7-1.4,5.1,0l5.4,5.4l17.7-17.7c1.4-1.4,3.7-1.4,5.1,0    c1.4,1.4,1.4,3.7,0,5.1l-20.2,20.2C622.6,238.8,621.7,239.1,620.7,239.1"/>
	</g>
	<g>
		<defs>
			<path id="SVGID_00000168081549405089824090000011472070800454579887_" d="M20,85.7c-17.5,0-17.5,17.6-17.5,17.6v118.9     c0,17.6,17.5,17.6,17.5,17.6H139c17.5,0,17.5-17.6,17.5-17.6V103.2c0-17.6-17.5-17.6-17.5-17.6H20z"/>
		</defs>
		<clipPath id="SVGID_00000060746929682150645110000011701065109649792430_">
			<use xlink:href="#SVGID_00000168081549405089824090000011472070800454579887_" style="overflow:visible;"/>
		</clipPath>
		<polygon style="clip-path:url(#SVGID_00000060746929682150645110000011701065109649792430_);fill:#E12A27;" points="-87.7,204.7     -82.5,275.6 230.6,280.1 235.1,107.6 201.4,89.2   "/>
		<path style="clip-path:url(#SVGID_00000060746929682150645110000011701065109649792430_);fill:#323031;" d="M-76.5,80.2l258.4-3    l14.2,1.5l-26.9,100.1l-18,13.9l-76.9,15c0,0-47.2,6-79.9,8.6s-67.1,4.1-67.1,4.1L-76.5,80.2z"/>
		<path style="clip-path:url(#SVGID_00000060746929682150645110000011701065109649792430_);fill:#A6A8AB;" d="M-54.7,105.3    c0,0,97.5,20.2,109.1,22.5s33.7,3,46.5-2.6s52.5-19.9,71.6-49.9S-54.7,57.7-54.7,57.7V105.3z"/>
		<path style="clip-path:url(#SVGID_00000060746929682150645110000011701065109649792430_);fill:#58595B;" d="M116.6,169.8H41.4    c-0.5,0-0.9-0.4-0.8-0.9l0.6-5.8c0.1-0.5,0.4-0.8,0.9-0.8h75c0.5,0,1,0.5,0.9,1l-0.6,5.7C117.4,169.5,117.1,169.8,116.6,169.8"/>
		<path style="clip-path:url(#SVGID_00000060746929682150645110000011701065109649792430_);fill:#231F20;" d="M-61.9,201.5    c0,0,74.2,8.1,136.1,6.2l18.4-3.8c0,0-136.5-4.9-154.5-6.7V201.5z"/>
		<path style="clip-path:url(#SVGID_00000060746929682150645110000011701065109649792430_);fill:#231F20;" d="M74.3,207.7    c0,0,6.6-3,11.8,11.5c5.2,14.5,9.7,36.4,9.7,36.4h3.4c0,0-2.6-17.8-5.5-28s-7.6-15.5-7.6-17.5c0.1-2,0.4-3.5,2.2-3.5    s-6.8-1.4-6.8-1.4L74.3,207.7z"/>
		<path style="clip-path:url(#SVGID_00000060746929682150645110000011701065109649792430_);fill:#404041;" d="M190.1,81L155,179.8    c-2.1,6-7.7,10.1-14,10.3l-34,1.5c-5.2,0.2-10.3,1.8-14.7,4.6l-18,11.5c0,0,73.5-4.9,85.9-15s12-13.1,15.4-21s33-83.6,33-83.6    l3.4-15.4L190.1,81z"/>
		<path style="clip-path:url(#SVGID_00000060746929682150645110000011701065109649792430_);fill:#E24F50;" d="M75.2,207.9    c-0.9,0-1.5,0.1-1.5,0.1s-39.7,5-71.5,7.9v6.2c21.5-2.9,77.9-12.1,77.9-12.1C78.9,208.2,76.7,207.9,75.2,207.9"/>
	</g>
	<g>
		<defs>
			<rect id="SVGID_00000011032775959600636000000013935798984914755519_" width="845.2" height="446.8"/>
		</defs>
		<clipPath id="SVGID_00000085956584899650778430000000316243110618837382_">
			<use xlink:href="#SVGID_00000011032775959600636000000013935798984914755519_" style="overflow:visible;"/>
		</clipPath>
		<path style="clip-path:url(#SVGID_00000085956584899650778430000000316243110618837382_);fill:#E24F50;" d="M156.5,194.8    c-0.5,0.2-1,0.4-1.5,0.6c-6.5,4.4-37.3,8.1-54.4,9.9c-3.8,0.4-7.5,0.8-10.7,1.1c-0.4,0-0.6,0.1-0.7,0.1c-1.8,0.2-2.5,1.1-2.8,1.8    c-0.1,0.2-0.1,0.4-0.1,0.7c33.7-3.9,56-7.6,70.4-10.6V194.8z"/>
		<path style="clip-path:url(#SVGID_00000085956584899650778430000000316243110618837382_);fill:#58595B;" d="M86.3,208.3    c-0.2,0.4-0.2,0.4-0.2,0.6c0,0,0,0.2,0,0.2c0,0,0,0,0,0c0,0,0,0,0-0.1S86.2,208.5,86.3,208.3"/>
		<path style="clip-path:url(#SVGID_00000085956584899650778430000000316243110618837382_);fill:#696A6C;" d="M156.5,194.5    c-0.5,0.3-1,0.7-1.5,1c0,0,0,0,0,0c0.5-0.2,1-0.4,1.5-0.6V194.5z M100.6,205.4c-5.2,0.5-9.1,0.9-9.9,1c0,0-0.8,0.1,0.8-0.1    C93.1,206.2,96.7,205.8,100.6,205.4"/>
	</g>
	<g>
		<defs>
			<path id="SVGID_00000085230931333958062420000005410813321772846734_" d="M20,85.7c-17.5,0-17.5,17.6-17.5,17.6v118.9     c0,17.6,17.5,17.6,17.5,17.6H139c17.5,0,17.5-17.6,17.5-17.6V103.2c0-17.6-17.5-17.6-17.5-17.6H20z"/>
		</defs>
		<clipPath id="SVGID_00000114072565251877940540000017764803590233069745_">
			<use xlink:href="#SVGID_00000085230931333958062420000005410813321772846734_" style="overflow:visible;"/>
		</clipPath>
		<path style="clip-path:url(#SVGID_00000114072565251877940540000017764803590233069745_);fill:#929497;" d="M116.5,169.8H41.7    c-0.6,0-1.1-0.5-1-1.1l0.3-2.6l76.8,0.3l-0.3,2.6C117.4,169.5,117,169.8,116.5,169.8"/>
		<path style="clip-path:url(#SVGID_00000114072565251877940540000017764803590233069745_);fill:#323031;" d="M-50.9,106.7    c0.1,0,0.3,0.1,0.4,0.1c0.5,0.1,0.9-0.2,1-0.7c0.1-0.5-0.2-0.9-0.7-1c-0.1,0-0.3-0.1-0.4-0.1c-0.5-0.1-0.9,0.2-1,0.7    C-51.6,106.2-51.3,106.6-50.9,106.7z M-47.1,107.5c0.1,0,0.3,0.1,0.4,0.1c0.5,0.1,0.9-0.2,1-0.7c0.1-0.5-0.2-0.9-0.7-1    c-0.1,0-0.3-0.1-0.4-0.1c-0.5-0.1-0.9,0.2-1,0.7C-47.9,106.9-47.6,107.4-47.1,107.5z M-43.4,108.2c0.1,0,0.3,0.1,0.4,0.1    c0.5,0.1,0.9-0.2,1-0.7c0.1-0.5-0.2-0.9-0.7-1c-0.1,0-0.3-0.1-0.4-0.1c-0.5-0.1-0.9,0.2-1,0.7C-44.1,107.7-43.9,108.1-43.4,108.2     M-39.7,109c0.1,0,0.3,0.1,0.4,0.1c0.5,0.1,0.9-0.2,1-0.7s-0.2-0.9-0.7-1c-0.1,0-0.3-0.1-0.4-0.1c-0.5-0.1-0.9,0.2-1,0.7    C-40.4,108.5-40.1,108.9-39.7,109 M-35.9,109.8c0.1,0,0.3,0.1,0.4,0.1c0.5,0.1,0.9-0.2,1-0.7c0.1-0.5-0.2-0.9-0.7-1    c-0.1,0-0.3-0.1-0.4-0.1c-0.5-0.1-0.9,0.2-1,0.7C-36.7,109.3-36.4,109.7-35.9,109.8 M-32.2,110.6c0.1,0,0.3,0.1,0.4,0.1    c0.5,0.1,0.9-0.2,1-0.7c0.1-0.5-0.2-0.9-0.7-1c-0.1,0-0.3-0.1-0.4-0.1c-0.5-0.1-0.9,0.2-1,0.7C-32.9,110-32.7,110.5-32.2,110.6z     M-28.5,111.3c0.1,0,0.3,0.1,0.4,0.1c0.5,0.1,0.9-0.2,1-0.7c0.1-0.5-0.2-0.9-0.7-1c-0.1,0-0.3-0.1-0.4-0.1c-0.5-0.1-0.9,0.2-1,0.7    C-29.2,110.8-28.9,111.2-28.5,111.3 M-24.7,112.1c0.1,0,0.3,0.1,0.4,0.1c0.5,0.1,0.9-0.2,1-0.7c0.1-0.5-0.2-0.9-0.7-1    c-0.1,0-0.3-0.1-0.4-0.1c-0.5-0.1-0.9,0.2-1,0.7C-25.5,111.6-25.2,112-24.7,112.1 M-21,112.9c0.1,0,0.3,0.1,0.4,0.1    c0.5,0.1,0.9-0.2,1-0.7c0.1-0.5-0.2-0.9-0.7-1c-0.1,0-0.3-0.1-0.4-0.1c-0.5-0.1-0.9,0.2-1,0.7C-21.8,112.3-21.5,112.8-21,112.9     M-17.3,113.7c0.1,0,0.3,0.1,0.4,0.1c0.5,0.1,0.9-0.2,1-0.7c0.1-0.5-0.2-0.9-0.7-1c-0.1,0-0.3-0.1-0.4-0.1c-0.5-0.1-0.9,0.2-1,0.7    C-18,113.1-17.7,113.6-17.3,113.7 M-13.5,114.4c0.1,0,0.3,0.1,0.4,0.1c0.5,0.1,0.9-0.2,1-0.7c0.1-0.5-0.2-0.9-0.7-1    c-0.1,0-0.3-0.1-0.4-0.1c-0.5-0.1-0.9,0.2-1,0.7C-14.3,113.9-14,114.3-13.5,114.4 M-9.8,115.2c0.1,0,0.3,0.1,0.4,0.1    c0.5,0.1,0.9-0.2,1-0.7c0.1-0.5-0.2-0.9-0.7-1c-0.1,0-0.3-0.1-0.4-0.1c-0.5-0.1-0.9,0.2-1,0.7C-10.6,114.7-10.3,115.1-9.8,115.2     M-6.1,116c0.1,0,0.3,0.1,0.4,0.1c0.5,0.1,0.9-0.2,1-0.7c0.1-0.5-0.2-0.9-0.7-1c-0.1,0-0.3-0.1-0.4-0.1c-0.5-0.1-0.9,0.2-1,0.7    C-6.8,115.4-6.5,115.9-6.1,116 M-2.4,116.7c0.1,0,0.3,0.1,0.4,0.1c0.5,0.1,0.9-0.2,1-0.7c0.1-0.5-0.2-0.9-0.7-1    c-0.1,0-0.3-0.1-0.4-0.1c-0.5-0.1-0.9,0.2-1,0.7C-3.1,116.2-2.8,116.6-2.4,116.7 M1.4,117.5c0.1,0,0.3,0.1,0.4,0.1    c0.5,0.1,0.9-0.2,1-0.7c0.1-0.5-0.2-0.9-0.7-1c-0.1,0-0.3-0.1-0.4-0.1c-0.5-0.1-0.9,0.2-1,0.7C0.6,117,0.9,117.4,1.4,117.5     M5.1,118.3c0.1,0,0.3,0.1,0.4,0.1c0.5,0.1,0.9-0.2,1-0.7c0.1-0.5-0.2-0.9-0.7-1c-0.1,0-0.3-0.1-0.4-0.1c-0.5-0.1-0.9,0.2-1,0.7    C4.3,117.7,4.6,118.2,5.1,118.3 M8.8,119.1c0.1,0,0.3,0.1,0.4,0.1c0.5,0.1,0.9-0.2,1-0.7c0.1-0.5-0.2-0.9-0.7-1    c-0.1,0-0.3-0.1-0.4-0.1c-0.5-0.1-0.9,0.2-1,0.7C8.1,118.5,8.4,119,8.8,119.1z M12.6,119.8c0.1,0,0.3,0.1,0.4,0.1    c0.5,0.1,0.9-0.2,1-0.7c0.1-0.5-0.2-0.9-0.7-1c-0.1,0-0.3-0.1-0.4-0.1c-0.5-0.1-0.9,0.2-1,0.7C11.8,119.3,12.1,119.7,12.6,119.8z     M16.3,120.6c0.1,0,0.3,0.1,0.4,0.1c0.5,0.1,0.9-0.2,1-0.7c0.1-0.5-0.2-0.9-0.7-1c-0.1,0-0.3-0.1-0.4-0.1c-0.5-0.1-0.9,0.2-1,0.7    C15.5,120.1,15.8,120.5,16.3,120.6 M20,121.4c0.1,0,0.3,0.1,0.4,0.1c0.5,0.1,0.9-0.2,1-0.7c0.1-0.5-0.2-0.9-0.7-1    c-0.1,0-0.3-0.1-0.4-0.1c-0.5-0.1-0.9,0.2-1,0.7C19.3,120.8,19.6,121.3,20,121.4L20,121.4z M23.7,122.1c0.1,0,0.3,0.1,0.4,0.1    c0.5,0.1,0.9-0.2,1-0.7c0.1-0.5-0.2-0.9-0.7-1c-0.1,0-0.3-0.1-0.4-0.1c-0.5-0.1-0.9,0.2-1,0.7C23,121.6,23.3,122,23.7,122.1     M27.5,122.9c0.1,0,0.3,0.1,0.4,0.1c0.5,0.1,0.9-0.2,1-0.7c0.1-0.5-0.2-0.9-0.7-1c-0.1,0-0.3-0.1-0.4-0.1c-0.5-0.1-0.9,0.2-1,0.7    C26.7,122.4,27,122.8,27.5,122.9z M31.2,123.7c0.1,0,0.3,0.1,0.4,0.1c0.5,0.1,0.9-0.2,1-0.7c0.1-0.5-0.2-0.9-0.7-1    c-0.1,0-0.3-0.1-0.4-0.1c-0.5-0.1-0.9,0.2-1,0.7C30.5,123.1,30.7,123.6,31.2,123.7z M34.9,124.4c0.1,0,0.3,0.1,0.4,0.1    c0.5,0.1,0.9-0.2,1-0.7c0.1-0.5-0.2-0.9-0.7-1c-0.1,0-0.3-0.1-0.4-0.1c-0.5-0.1-0.9,0.2-1,0.7C34.2,123.9,34.5,124.3,34.9,124.4z     M38.7,125.2c0.1,0,0.3,0.1,0.4,0.1c0.5,0.1,0.9-0.2,1-0.7c0.1-0.5-0.2-0.9-0.7-1c-0.1,0-0.3-0.1-0.4-0.1c-0.5-0.1-0.9,0.2-1,0.7    C37.9,124.7,38.2,125.1,38.7,125.2 M42.4,126c0.1,0,0.3,0.1,0.4,0.1c0.5,0.1,0.9-0.2,1-0.7c0.1-0.5-0.2-0.9-0.7-1    c-0.1,0-0.3-0.1-0.4-0.1c-0.5-0.1-0.9,0.2-1,0.7C41.7,125.4,41.9,125.9,42.4,126z M46.1,126.7c0.1,0,0.3,0.1,0.4,0.1    c0.5,0.1,0.9-0.2,1-0.7c0.1-0.5-0.2-0.9-0.7-1c-0.1,0-0.3-0.1-0.4-0.1c-0.5-0.1-0.9,0.2-1,0.7C45.4,126.2,45.7,126.6,46.1,126.7z     M49.9,127.5c0.1,0,0.3,0.1,0.4,0.1c0.5,0.1,0.9-0.2,1-0.7c0.1-0.5-0.2-0.9-0.7-1c-0.1,0-0.3-0.1-0.4-0.1c-0.5-0.1-0.9,0.2-1,0.7    C49.1,127,49.4,127.4,49.9,127.5 M53.6,128.2c0.1,0,0.3,0.1,0.4,0.1c0.5,0.1,0.9-0.2,1-0.7c0.1-0.5-0.2-0.9-0.7-1    c-0.1,0-0.3-0.1-0.4-0.1c-0.5-0.1-0.9,0.2-1,0.7C52.9,127.7,53.2,128.2,53.6,128.2z M57.4,128.9c0.1,0,0.3,0,0.4,0.1    c0.5,0.1,0.9-0.2,1-0.7s-0.2-0.9-0.7-1c-0.1,0-0.3,0-0.4-0.1c-0.5-0.1-0.9,0.2-1,0.7C56.6,128.4,56.9,128.9,57.4,128.9     M61.2,129.4c0.1,0,0.3,0,0.4,0c0.5,0.1,0.9-0.3,0.9-0.7c0-0.5-0.3-0.9-0.7-0.9c-0.1,0-0.3,0-0.4,0c-0.5-0.1-0.9,0.3-0.9,0.7    C60.4,129,60.8,129.4,61.2,129.4 M65,129.8c0.1,0,0.3,0,0.4,0c0.5,0,0.9-0.3,0.9-0.8c0-0.5-0.3-0.9-0.8-0.9c-0.1,0-0.3,0-0.4,0    c-0.5,0-0.9,0.3-0.9,0.8C64.2,129.4,64.6,129.8,65,129.8 M68.9,130c0.1,0,0.3,0,0.4,0c0.5,0,0.9-0.3,0.9-0.8    c0-0.5-0.3-0.9-0.8-0.9c-0.1,0-0.3,0-0.4,0c-0.5,0-0.9,0.3-0.9,0.8C68,129.6,68.4,130,68.9,130z M72.7,130.1c0.1,0,0.3,0,0.4,0    c0.5,0,0.8-0.4,0.9-0.8c0-0.5-0.4-0.8-0.8-0.9c-0.1,0-0.3,0-0.4,0c-0.5,0-0.8,0.4-0.9,0.8C71.8,129.8,72.2,130.1,72.7,130.1     M76.5,130.1c0.1,0,0.3,0,0.4,0c0.5,0,0.8-0.4,0.8-0.9c0-0.5-0.4-0.8-0.9-0.8c-0.1,0-0.3,0-0.4,0c-0.5,0-0.8,0.4-0.8,0.9    C75.7,129.8,76,130.2,76.5,130.1 M80.3,130c0.1,0,0.3,0,0.4,0c0.5,0,0.8-0.4,0.8-0.9c0-0.5-0.4-0.8-0.9-0.8c-0.1,0-0.3,0-0.4,0    c-0.5,0-0.8,0.4-0.8,0.9C79.5,129.7,79.9,130,80.3,130L80.3,130z M84.2,129.8c0.1,0,0.3,0,0.4,0c0.5,0,0.8-0.5,0.8-0.9    c0-0.5-0.5-0.8-0.9-0.8c-0.1,0-0.3,0-0.4,0c-0.5,0-0.8,0.5-0.8,0.9C83.3,129.5,83.7,129.8,84.2,129.8 M88,129.3    c0.1,0,0.3,0,0.4-0.1c0.5-0.1,0.8-0.5,0.7-1c-0.1-0.5-0.5-0.8-1-0.7c-0.1,0-0.3,0-0.4,0.1c-0.5,0.1-0.8,0.5-0.7,0.9    C87.1,129.1,87.5,129.4,88,129.3z M91.8,128.7c0.1,0,0.3-0.1,0.4-0.1c0.5-0.1,0.8-0.5,0.7-1c-0.1-0.5-0.5-0.8-1-0.7    c-0.1,0-0.3,0.1-0.4,0.1c-0.5,0.1-0.8,0.5-0.7,1C90.9,128.5,91.3,128.8,91.8,128.7 M95.5,127.9c0.1,0,0.3-0.1,0.4-0.1    c0.4-0.1,0.7-0.6,0.6-1c-0.1-0.5-0.6-0.7-1-0.6c-0.1,0-0.3,0.1-0.4,0.1c-0.5,0.1-0.7,0.6-0.6,1C94.6,127.7,95.1,128,95.5,127.9z     M99.3,126.8c0.1,0,0.3-0.1,0.4-0.1c0.4-0.2,0.7-0.6,0.5-1.1c-0.2-0.4-0.6-0.7-1.1-0.5c-0.1,0-0.3,0.1-0.4,0.1    c-0.4,0.2-0.7,0.6-0.5,1.1C98.3,126.7,98.8,126.9,99.3,126.8 M102.8,125.3c0.1-0.1,0.3-0.1,0.4-0.2c0.4-0.2,0.6-0.7,0.4-1.1    c-0.2-0.4-0.7-0.6-1.1-0.4c-0.1,0.1-0.3,0.1-0.4,0.2c-0.4,0.2-0.6,0.7-0.4,1.1C101.9,125.3,102.4,125.5,102.8,125.3z M106.3,123.8    c0.1-0.1,0.3-0.1,0.4-0.2c0.4-0.2,0.6-0.7,0.5-1.1c-0.2-0.4-0.7-0.6-1.1-0.5c-0.1,0.1-0.3,0.1-0.4,0.2c-0.4,0.2-0.6,0.7-0.5,1.1    C105.4,123.8,105.9,124,106.3,123.8z M109.8,122.4c0.1-0.1,0.3-0.1,0.4-0.2c0.4-0.2,0.6-0.7,0.4-1.1c-0.2-0.4-0.7-0.6-1.1-0.4    c-0.1,0.1-0.3,0.1-0.4,0.2c-0.4,0.2-0.6,0.7-0.4,1.1C108.9,122.3,109.4,122.5,109.8,122.4 M113.3,120.8c0.1-0.1,0.3-0.1,0.4-0.2    c0.4-0.2,0.6-0.7,0.4-1.1c-0.2-0.4-0.7-0.6-1.1-0.4c-0.1,0.1-0.3,0.1-0.4,0.2c-0.4,0.2-0.6,0.7-0.4,1.1    C112.4,120.8,112.9,121,113.3,120.8z M116.8,119.3c0.1-0.1,0.3-0.1,0.4-0.2c0.4-0.2,0.6-0.7,0.4-1.1c-0.2-0.4-0.7-0.6-1.1-0.4    c-0.1,0.1-0.3,0.1-0.4,0.2c-0.4,0.2-0.6,0.7-0.4,1.1C115.9,119.3,116.4,119.5,116.8,119.3 M120.3,117.7c0.1-0.1,0.3-0.1,0.4-0.2    c0.4-0.2,0.6-0.7,0.4-1.1c-0.2-0.4-0.7-0.6-1.1-0.4c-0.1,0.1-0.3,0.1-0.4,0.2c-0.4,0.2-0.6,0.7-0.4,1.1    C119.4,117.7,119.9,117.9,120.3,117.7z M123.7,116c0.1-0.1,0.3-0.1,0.4-0.2c0.4-0.2,0.6-0.7,0.4-1.1s-0.7-0.6-1.1-0.4    c-0.1,0.1-0.3,0.1-0.4,0.2c-0.4,0.2-0.6,0.7-0.4,1.1C122.8,116.1,123.3,116.2,123.7,116z M127.2,114.3c0.1-0.1,0.3-0.1,0.4-0.2    c0.4-0.2,0.6-0.7,0.4-1.1c-0.2-0.4-0.7-0.6-1.1-0.4c-0.1,0.1-0.2,0.1-0.4,0.2c-0.4,0.2-0.6,0.7-0.4,1.1    C126.2,114.4,126.7,114.5,127.2,114.3z M130.5,112.6c0.1-0.1,0.2-0.1,0.4-0.2c0.4-0.2,0.6-0.7,0.3-1.1c-0.2-0.4-0.7-0.6-1.1-0.3    c-0.1,0.1-0.2,0.1-0.4,0.2c-0.4,0.2-0.6,0.7-0.3,1.1C129.6,112.6,130.1,112.8,130.5,112.6z M133.9,110.7c0.1-0.1,0.2-0.1,0.4-0.2    c0.4-0.2,0.5-0.7,0.3-1.1s-0.7-0.5-1.2-0.3c-0.1,0.1-0.2,0.1-0.4,0.2c-0.4,0.2-0.5,0.7-0.3,1.1C133,110.8,133.5,110.9,133.9,110.7     M137.2,108.8c0.1-0.1,0.2-0.1,0.4-0.2c0.4-0.2,0.5-0.8,0.3-1.2c-0.2-0.4-0.8-0.5-1.2-0.3c-0.1,0.1-0.2,0.1-0.4,0.2    c-0.4,0.2-0.5,0.8-0.3,1.2C136.3,108.9,136.8,109,137.2,108.8 M140.5,106.8c0.1-0.1,0.2-0.1,0.4-0.2c0.4-0.2,0.5-0.8,0.3-1.2    c-0.2-0.4-0.8-0.5-1.2-0.3c-0.1,0.1-0.2,0.1-0.4,0.2c-0.4,0.2-0.5,0.8-0.3,1.2C139.6,106.9,140.1,107.1,140.5,106.8 M143.7,104.7    c0.1-0.1,0.2-0.2,0.4-0.2c0.4-0.3,0.5-0.8,0.2-1.2c-0.3-0.4-0.8-0.5-1.2-0.2c-0.1,0.1-0.2,0.2-0.4,0.2c-0.4,0.3-0.5,0.8-0.2,1.2    C142.8,104.9,143.3,105,143.7,104.7 M146.8,102.6c0.1-0.1,0.2-0.2,0.3-0.2c0.4-0.3,0.5-0.8,0.2-1.2c-0.3-0.4-0.8-0.5-1.2-0.2    c-0.1,0.1-0.2,0.2-0.3,0.2c-0.4,0.3-0.5,0.8-0.2,1.2C145.9,102.7,146.5,102.8,146.8,102.6z M149.9,100.3c0.1-0.1,0.2-0.2,0.3-0.3    c0.4-0.3,0.4-0.8,0.2-1.2c-0.3-0.4-0.8-0.4-1.2-0.2c-0.1,0.1-0.2,0.2-0.3,0.3c-0.4,0.3-0.5,0.8-0.2,1.2    C149,100.5,149.6,100.6,149.9,100.3z M153,98c0.1-0.1,0.2-0.2,0.3-0.3c0.4-0.3,0.4-0.8,0.1-1.2c-0.3-0.4-0.8-0.4-1.2-0.1    c-0.1,0.1-0.2,0.2-0.3,0.3c-0.4,0.3-0.4,0.8-0.1,1.2C152.1,98.2,152.6,98.3,153,98 M155.9,95.6c0.1-0.1,0.2-0.2,0.3-0.3    c0.4-0.3,0.4-0.8,0.1-1.2c-0.3-0.4-0.8-0.4-1.2-0.1c-0.1,0.1-0.2,0.2-0.3,0.3c-0.4,0.3-0.4,0.8-0.1,1.2    C155,95.8,155.6,95.9,155.9,95.6z M158.8,93c0.1-0.1,0.2-0.2,0.3-0.3c0.3-0.3,0.4-0.9,0.1-1.2c-0.3-0.3-0.9-0.4-1.2,0    c-0.1,0.1-0.2,0.2-0.3,0.3c-0.3,0.3-0.4,0.8-0.1,1.2C157.9,93.3,158.5,93.3,158.8,93z M161.6,90.4c0.1-0.1,0.2-0.2,0.3-0.3    c0.3-0.3,0.3-0.9,0-1.2c-0.3-0.3-0.9-0.3-1.2,0c-0.1,0.1-0.2,0.2-0.3,0.3c-0.3,0.3-0.3,0.9,0,1.2    C160.7,90.7,161.3,90.7,161.6,90.4 M164.3,87.7c0.1-0.1,0.2-0.2,0.3-0.3c0.3-0.3,0.3-0.9,0-1.2c-0.3-0.3-0.9-0.3-1.2,0    c-0.1,0.1-0.2,0.2-0.3,0.3c-0.3,0.3-0.3,0.9,0,1.2S163.9,88,164.3,87.7 M166.8,84.8c0.1-0.1,0.2-0.2,0.3-0.3    c0.3-0.4,0.3-0.9-0.1-1.2c-0.4-0.3-0.9-0.3-1.2,0.1c-0.1,0.1-0.2,0.2-0.3,0.3c-0.3,0.4-0.3,0.9,0.1,1.2    C166,85.2,166.5,85.2,166.8,84.8z M169.3,81.8c0.1-0.1,0.2-0.2,0.3-0.3c0.3-0.4,0.2-0.9-0.1-1.2c-0.4-0.3-0.9-0.2-1.2,0.1    c-0.1,0.1-0.2,0.2-0.3,0.3c-0.3,0.4-0.2,0.9,0.1,1.2C168.4,82.3,169,82.2,169.3,81.8 M171.6,78.8c0.1-0.1,0.2-0.2,0.2-0.3    c0.3-0.4,0.2-0.9-0.2-1.2c-0.4-0.3-0.9-0.2-1.2,0.2c-0.1,0.1-0.2,0.2-0.2,0.3c-0.3,0.4-0.2,0.9,0.2,1.2    C170.8,79.2,171.3,79.2,171.6,78.8z"/>
	</g>
	<g>
		<defs>
			<rect id="SVGID_00000137125639851161161160000009116643207609612210_" width="845.2" height="446.8"/>
		</defs>
		<clipPath id="SVGID_00000000918460448899219100000009862707920955451838_">
			<use xlink:href="#SVGID_00000137125639851161161160000009116643207609612210_" style="overflow:visible;"/>
		</clipPath>
		<path style="clip-path:url(#SVGID_00000000918460448899219100000009862707920955451838_);fill:#323031;" d="M3.4,115l0.4,0.1    c0.3,0.1,0.5,0.4,0.5,0.7c-0.1,0.3-0.4,0.5-0.7,0.5l0,0l-0.4-0.1c-0.3-0.1-0.5-0.4-0.5-0.7C2.8,115.1,3.1,114.9,3.4,115"/>
		<path style="clip-path:url(#SVGID_00000000918460448899219100000009862707920955451838_);fill:#323031;" d="M7.2,115.7l0.4,0.1    c0.3,0.1,0.6,0.4,0.5,0.7c-0.1,0.3-0.4,0.6-0.7,0.5l0,0l-0.4-0.1c-0.3-0.1-0.5-0.4-0.5-0.7C6.5,115.9,6.9,115.6,7.2,115.7"/>
		<path style="clip-path:url(#SVGID_00000000918460448899219100000009862707920955451838_);fill:#323031;" d="M10.9,116.5l0.4,0.1    c0.4,0.1,0.6,0.4,0.5,0.8c-0.1,0.4-0.4,0.6-0.8,0.5l0,0l-0.4-0.1c-0.4-0.1-0.6-0.4-0.5-0.8C10.2,116.6,10.6,116.4,10.9,116.5"/>
		<path style="clip-path:url(#SVGID_00000000918460448899219100000009862707920955451838_);fill:#323031;" d="M14.7,117.2l0.4,0.1    c0.4,0.1,0.6,0.4,0.5,0.8c-0.1,0.4-0.4,0.6-0.8,0.5l0,0l-0.4-0.1c-0.4-0.1-0.6-0.4-0.5-0.8C14,117.4,14.3,117.1,14.7,117.2"/>
		<path style="clip-path:url(#SVGID_00000000918460448899219100000009862707920955451838_);fill:#323031;" d="M18.4,117.9l0.4,0.1    c0.4,0.1,0.6,0.5,0.6,0.8c-0.1,0.4-0.5,0.6-0.8,0.6l0,0l-0.4-0.1c-0.4-0.1-0.6-0.5-0.5-0.8C17.7,118.1,18.1,117.9,18.4,117.9"/>
		<path style="clip-path:url(#SVGID_00000000918460448899219100000009862707920955451838_);fill:#323031;" d="M22.2,118.7l0.4,0.1    c0.4,0.1,0.6,0.5,0.6,0.9c-0.1,0.4-0.5,0.6-0.9,0.6l0,0l-0.4-0.1c-0.4-0.1-0.6-0.5-0.6-0.9C21.4,118.9,21.8,118.6,22.2,118.7"/>
		<path style="clip-path:url(#SVGID_00000000918460448899219100000009862707920955451838_);fill:#323031;" d="M25.9,119.5l0.4,0.1    c0.4,0.1,0.7,0.5,0.6,0.9s-0.5,0.7-0.9,0.6l0,0l-0.4-0.1c-0.4-0.1-0.7-0.5-0.6-0.9C25.1,119.6,25.5,119.4,25.9,119.5"/>
		<path style="clip-path:url(#SVGID_00000000918460448899219100000009862707920955451838_);fill:#323031;" d="M29.7,120.2l0.4,0.1    c0.4,0.1,0.7,0.5,0.6,0.9c-0.1,0.4-0.5,0.7-0.9,0.6l0,0l-0.4-0.1c-0.4-0.1-0.7-0.5-0.6-0.9C28.9,120.4,29.3,120.1,29.7,120.2"/>
		<path style="clip-path:url(#SVGID_00000000918460448899219100000009862707920955451838_);fill:#323031;" d="M33.4,121l0.4,0.1    c0.4,0.1,0.7,0.5,0.6,0.9c-0.1,0.4-0.5,0.7-0.9,0.6l0,0l-0.4-0.1c-0.4-0.1-0.7-0.5-0.6-0.9C32.6,121.2,33,120.9,33.4,121"/>
		<path style="clip-path:url(#SVGID_00000000918460448899219100000009862707920955451838_);fill:#323031;" d="M37.2,121.7l0.4,0.1    c0.4,0.1,0.7,0.5,0.6,0.9c-0.1,0.4-0.5,0.7-0.9,0.6l0,0l-0.4-0.1c-0.4-0.1-0.7-0.5-0.6-0.9C36.3,121.9,36.8,121.6,37.2,121.7"/>
		<path style="clip-path:url(#SVGID_00000000918460448899219100000009862707920955451838_);fill:#323031;" d="M40.9,122.5l0.4,0.1    c0.4,0.1,0.7,0.5,0.6,0.9c-0.1,0.4-0.5,0.7-0.9,0.6l0,0l-0.4-0.1c-0.4-0.1-0.7-0.5-0.6-0.9C40.1,122.7,40.5,122.4,40.9,122.5"/>
		<path style="clip-path:url(#SVGID_00000000918460448899219100000009862707920955451838_);fill:#323031;" d="M44.7,123.2l0.4,0.1    c0.4,0.1,0.7,0.5,0.6,1c-0.1,0.4-0.5,0.7-1,0.6h0l-0.4-0.1c-0.4-0.1-0.7-0.5-0.6-1C43.8,123.4,44.2,123.1,44.7,123.2"/>
		<path style="clip-path:url(#SVGID_00000000918460448899219100000009862707920955451838_);fill:#323031;" d="M48.4,124l0.4,0.1    c0.4,0.1,0.7,0.5,0.6,1c-0.1,0.4-0.5,0.7-1,0.6h0l-0.4-0.1c-0.4-0.1-0.7-0.5-0.6-1C47.6,124.2,48,123.9,48.4,124"/>
		<path style="clip-path:url(#SVGID_00000000918460448899219100000009862707920955451838_);fill:#323031;" d="M52.2,124.7l0.4,0.1    c0.4,0.1,0.7,0.5,0.6,1c-0.1,0.4-0.5,0.7-1,0.6h0l-0.4-0.1c-0.4-0.1-0.7-0.5-0.6-1S51.7,124.7,52.2,124.7"/>
		<path style="clip-path:url(#SVGID_00000000918460448899219100000009862707920955451838_);fill:#323031;" d="M55.9,125.4l0.4,0.1h0    c0.5,0.1,0.8,0.5,0.7,0.9c-0.1,0.4-0.5,0.8-0.9,0.7l0,0l-0.4-0.1c-0.4-0.1-0.8-0.5-0.7-1C55,125.7,55.5,125.4,55.9,125.4    L55.9,125.4z"/>
		<path style="clip-path:url(#SVGID_00000000918460448899219100000009862707920955451838_);fill:#323031;" d="M59.7,126l0.4,0l0,0    c0.5,0.1,0.8,0.5,0.7,0.9s-0.5,0.8-0.9,0.7h0l-0.4-0.1c-0.5-0.1-0.8-0.5-0.7-0.9C58.8,126.2,59.2,125.9,59.7,126L59.7,126z"/>
		<path style="clip-path:url(#SVGID_00000000918460448899219100000009862707920955451838_);fill:#323031;" d="M63.4,126.4l0.4,0h0    c0.5,0,0.8,0.4,0.8,0.9s-0.4,0.8-0.9,0.8h0l-0.4,0c-0.5,0-0.8-0.4-0.8-0.9C62.6,126.7,63,126.3,63.4,126.4L63.4,126.4z"/>
		<path style="clip-path:url(#SVGID_00000000918460448899219100000009862707920955451838_);fill:#323031;" d="M67.2,126.6l0.4,0h0    c0.5,0,0.8,0.4,0.8,0.9c0,0.5-0.4,0.8-0.9,0.8h0l-0.4,0c-0.5,0-0.8-0.4-0.8-0.9C66.4,126.9,66.8,126.6,67.2,126.6L67.2,126.6z"/>
		<path style="clip-path:url(#SVGID_00000000918460448899219100000009862707920955451838_);fill:#323031;" d="M71,126.8l0.4,0h0    c0.5,0,0.8,0.4,0.8,0.9c0,0.5-0.4,0.8-0.9,0.8l-0.4,0c-0.5,0-0.8-0.4-0.8-0.9C70.2,127.1,70.5,126.8,71,126.8L71,126.8L71,126.8z"/>
		<path style="clip-path:url(#SVGID_00000000918460448899219100000009862707920955451838_);fill:#323031;" d="M74.8,126.8l0.4,0h0    c0.5,0,0.8,0.4,0.8,0.8c0,0.5-0.4,0.8-0.8,0.8l-0.4,0c-0.5,0-0.8-0.4-0.8-0.8C74,127.2,74.3,126.8,74.8,126.8L74.8,126.8    L74.8,126.8z"/>
		<path style="clip-path:url(#SVGID_00000000918460448899219100000009862707920955451838_);fill:#323031;" d="M78.6,126.7l0.4,0h0    c0.5,0,0.8,0.3,0.9,0.8c0,0.5-0.3,0.8-0.8,0.9l-0.4,0c-0.5,0-0.8-0.3-0.9-0.8C77.8,127.1,78.1,126.7,78.6,126.7L78.6,126.7    L78.6,126.7z"/>
		<path style="clip-path:url(#SVGID_00000000918460448899219100000009862707920955451838_);fill:#323031;" d="M82.4,126.5l0.4,0l0,0    c0.5,0,0.9,0.3,0.9,0.8c0,0.5-0.3,0.9-0.8,0.9l-0.4,0c-0.5,0-0.9-0.3-0.9-0.8C81.6,126.9,81.9,126.5,82.4,126.5L82.4,126.5    L82.4,126.5z"/>
		<path style="clip-path:url(#SVGID_00000000918460448899219100000009862707920955451838_);fill:#323031;" d="M86.2,126.1l0.4-0.1    l0,0c0.5-0.1,0.9,0.3,0.9,0.7c0.1,0.5-0.3,0.9-0.7,0.9l-0.4,0.1c-0.5,0.1-0.9-0.3-0.9-0.7C85.4,126.6,85.7,126.2,86.2,126.1    L86.2,126.1L86.2,126.1z"/>
		<path style="clip-path:url(#SVGID_00000000918460448899219100000009862707920955451838_);fill:#323031;" d="M89.9,125.5l0.4-0.1    l0,0c0.4-0.1,0.9,0.2,0.9,0.7c0.1,0.4-0.2,0.9-0.7,0.9l-0.4,0.1c-0.4,0.1-0.9-0.2-0.9-0.7C89.2,126,89.4,125.6,89.9,125.5    L89.9,125.5L89.9,125.5z"/>
		<path style="clip-path:url(#SVGID_00000000918460448899219100000009862707920955451838_);fill:#323031;" d="M93.6,124.8l0.4-0.1    l0,0c0.4-0.1,0.9,0.2,1,0.6s-0.2,0.9-0.6,1l-0.4,0.1c-0.4,0.1-0.9-0.2-1-0.6C92.9,125.3,93.1,124.9,93.6,124.8L93.6,124.8    L93.6,124.8z"/>
		<path style="clip-path:url(#SVGID_00000000918460448899219100000009862707920955451838_);fill:#323031;" d="M97.2,123.8l0.4-0.1    l0,0c0.4-0.1,0.9,0.1,1,0.5c0.1,0.4-0.1,0.9-0.5,1l-0.4,0.1c-0.4,0.1-0.9-0.1-1-0.5C96.5,124.4,96.8,123.9,97.2,123.8L97.2,123.8    L97.2,123.8z"/>
		<path style="clip-path:url(#SVGID_00000000918460448899219100000009862707920955451838_);fill:#323031;" d="M100.7,122.4l0.4-0.2    c0.4-0.2,0.9,0,1,0.4c0.2,0.4,0,0.9-0.4,1l0,0l-0.4,0.2l0,0c-0.4,0.2-0.9,0-1-0.4C100.1,123,100.3,122.6,100.7,122.4L100.7,122.4z    "/>
		<path style="clip-path:url(#SVGID_00000000918460448899219100000009862707920955451838_);fill:#323031;" d="M104.2,120.9l0.4-0.2    c0.4-0.2,0.8,0,1,0.4c0.2,0.4,0,0.8-0.4,1l-0.4,0.2c-0.4,0.2-0.8,0-1-0.4C103.7,121.5,103.8,121.1,104.2,120.9L104.2,120.9z"/>
		<path style="clip-path:url(#SVGID_00000000918460448899219100000009862707920955451838_);fill:#323031;" d="M107.8,119.4l0.4-0.2    c0.4-0.2,0.8,0,1,0.4c0.2,0.4,0,0.8-0.4,1l-0.4,0.2c-0.4,0.2-0.8,0-1-0.4C107.2,120.1,107.4,119.6,107.8,119.4L107.8,119.4z"/>
		<path style="clip-path:url(#SVGID_00000000918460448899219100000009862707920955451838_);fill:#323031;" d="M111.3,118l0.4-0.2    c0.4-0.2,0.8,0,1,0.4c0.2,0.4,0,0.8-0.4,1l-0.4,0.2c-0.4,0.2-0.8,0-1-0.4C110.7,118.6,110.9,118.1,111.3,118L111.3,118z"/>
		<path style="clip-path:url(#SVGID_00000000918460448899219100000009862707920955451838_);fill:#323031;" d="M114.8,116.4l0.4-0.2    c0.4-0.2,0.8,0,1,0.4c0.2,0.4,0,0.8-0.4,1l-0.4,0.2c-0.4,0.2-0.8,0-1-0.4S114.4,116.6,114.8,116.4L114.8,116.4z"/>
		<path style="clip-path:url(#SVGID_00000000918460448899219100000009862707920955451838_);fill:#323031;" d="M118.2,114.9l0.4-0.2    c0.4-0.2,0.8,0,0.9,0.3c0.2,0.4,0,0.8-0.3,0.9l-0.4,0.2c-0.4,0.2-0.8,0-1-0.3C117.7,115.5,117.9,115,118.2,114.9L118.2,114.9z"/>
		<path style="clip-path:url(#SVGID_00000000918460448899219100000009862707920955451838_);fill:#323031;" d="M121.7,113.2l0.4-0.2    c0.3-0.2,0.7,0,0.9,0.3c0.2,0.3,0,0.7-0.3,0.9l-0.4,0.2c-0.3,0.2-0.8,0-0.9-0.3C121.2,113.8,121.3,113.4,121.7,113.2L121.7,113.2z    "/>
		<path style="clip-path:url(#SVGID_00000000918460448899219100000009862707920955451838_);fill:#323031;" d="M125.1,111.6l0.4-0.2    c0.3-0.2,0.7,0,0.9,0.3c0.2,0.3,0,0.7-0.3,0.9l-0.4,0.2c-0.3,0.2-0.7,0-0.9-0.3C124.7,112.1,124.8,111.7,125.1,111.6L125.1,111.6z    "/>
		<path style="clip-path:url(#SVGID_00000000918460448899219100000009862707920955451838_);fill:#323031;" d="M128.5,109.8l0.4-0.2    c0.3-0.2,0.7,0,0.8,0.3c0.2,0.3,0,0.7-0.3,0.8l-0.4,0.2c-0.3,0.2-0.7,0.1-0.9-0.3C128.1,110.4,128.2,110,128.5,109.8L128.5,109.8z    "/>
		<path style="clip-path:url(#SVGID_00000000918460448899219100000009862707920955451838_);fill:#323031;" d="M131.9,108l0.4-0.2    c0.3-0.2,0.7-0.1,0.8,0.2c0.2,0.3,0.1,0.6-0.2,0.8l-0.4,0.2c-0.3,0.2-0.7,0.1-0.8-0.2C131.5,108.6,131.6,108.2,131.9,108    L131.9,108z"/>
		<path style="clip-path:url(#SVGID_00000000918460448899219100000009862707920955451838_);fill:#323031;" d="M135.2,106.2l0.4-0.2    c0.3-0.2,0.6-0.1,0.8,0.2c0.2,0.3,0.1,0.6-0.2,0.8l-0.4,0.2c-0.3,0.2-0.6,0.1-0.8-0.2C134.8,106.7,134.9,106.3,135.2,106.2    L135.2,106.2z"/>
		<path style="clip-path:url(#SVGID_00000000918460448899219100000009862707920955451838_);fill:#323031;" d="M138.4,104.2l0.4-0.2    c0.3-0.2,0.6-0.1,0.7,0.2c0.2,0.2,0.1,0.6-0.2,0.7l-0.4,0.2c-0.3,0.2-0.6,0.1-0.7-0.2C138.1,104.7,138.2,104.4,138.4,104.2    L138.4,104.2z"/>
		<path style="clip-path:url(#SVGID_00000000918460448899219100000009862707920955451838_);fill:#323031;" d="M141.7,102.2l0.4-0.2    c0.2-0.2,0.5-0.1,0.7,0.1c0.2,0.2,0.1,0.5-0.1,0.7l-0.4,0.2c-0.2,0.2-0.6,0.1-0.7-0.1C141.4,102.7,141.4,102.4,141.7,102.2    L141.7,102.2z"/>
		<path style="clip-path:url(#SVGID_00000000918460448899219100000009862707920955451838_);fill:#323031;" d="M144.8,100.1l0.3-0.2    c0.2-0.1,0.5-0.1,0.7,0.1c0.1,0.2,0.1,0.5-0.1,0.7l-0.3,0.2c-0.2,0.2-0.5,0.1-0.7-0.1C144.6,100.5,144.6,100.2,144.8,100.1    L144.8,100.1z"/>
		<path style="clip-path:url(#SVGID_00000000918460448899219100000009862707920955451838_);fill:#323031;" d="M148,97.9l0.3-0.2    c0.2-0.1,0.5-0.1,0.6,0.1c0.1,0.2,0.1,0.5-0.1,0.6l-0.3,0.3c-0.2,0.1-0.5,0.1-0.6-0.1C147.7,98.3,147.7,98,148,97.9L148,97.9z"/>
		<path style="clip-path:url(#SVGID_00000000918460448899219100000009862707920955451838_);fill:#323031;" d="M151,95.6l0.3-0.3    c0.2-0.1,0.4-0.1,0.6,0.1c0.1,0.2,0.1,0.4-0.1,0.6l-0.3,0.3c-0.2,0.1-0.4,0.1-0.6-0.1C150.8,96,150.8,95.7,151,95.6L151,95.6z"/>
		<path style="clip-path:url(#SVGID_00000000918460448899219100000009862707920955451838_);fill:#323031;" d="M154,93.2l0.3-0.3    c0.2-0.1,0.4-0.1,0.5,0c0.1,0.2,0.1,0.4,0,0.5l-0.3,0.3c-0.2,0.1-0.4,0.1-0.5,0C153.8,93.6,153.8,93.4,154,93.2L154,93.2z"/>
		<path style="clip-path:url(#SVGID_00000000918460448899219100000009862707920955451838_);fill:#4A4A4C;" d="M117.2,162.3h-75    c-0.5,0-0.9,0.4-0.9,0.8l59.3,0.2c0,0,17.6,0,17.6,0c0,0,0-0.1,0-0.1C118.1,162.8,117.7,162.3,117.2,162.3"/>
		
			<path style="clip-path:url(#SVGID_00000000918460448899219100000009862707920955451838_);fill:none;stroke:#FFDD15;stroke-width:5;" d="    M20,85.7c0,0-17.5,0-17.5,17.6v118.9c0,0,0,17.6,17.5,17.6H139c0,0,17.6,0,17.6-17.6V103.2c0,0,0-17.6-17.6-17.6H20z"/>
		
			<path style="clip-path:url(#SVGID_00000000918460448899219100000009862707920955451838_);fill:none;stroke:#FFDD15;stroke-width:5;" d="    M568.4,290.3c0,0-17.6,0-17.6,17.6v118.9c0,0,0,17.6,17.6,17.6h118.9c0,0,17.5,0,17.5-17.6V307.8c0,0,0-17.6-17.5-17.6H568.4z"/>
	</g>
	<rect x="29.7" y="325.4" class="st30" width="304.6" height="80.4"/>
	<g>
		<defs>
			<rect id="SVGID_00000139987978691402856690000001917404168163045279_" width="845.2" height="446.8"/>
		</defs>
		<clipPath id="SVGID_00000016073953795681455110000004105838199664058289_">
			<use xlink:href="#SVGID_00000139987978691402856690000001917404168163045279_" style="overflow:visible;"/>
		</clipPath>
		<path style="clip-path:url(#SVGID_00000016073953795681455110000004105838199664058289_);fill:#231F20;" d="M343.8,374    c-3.7,0-6.7-3-6.7-6.7c0-3.7,3-6.7,6.7-6.7c3.7,0,6.7,3,6.7,6.7C350.4,371,347.4,374,343.8,374 M329.2,374L329.2,374    C329.2,374,329.2,374.4,329.2,374h-2.8v-35.5h2.8c0,0,0,15.5,0,21.8C329.2,370.5,329.2,373.3,329.2,374 M324.4,374    c-0.2,0-0.5,0-0.7,0v-35.5c0.2,0,0.5,0,0.7,0V374z M321.6,374h-4v-35.5h4V374z M312.9,374H310l0.1-35.5h1.7h1.1V374z M308.3,374    h-4v-35.5h4V374z M302.4,374h-5.5v-35.5h5.5V374z M294.7,374c-0.2,0-0.4,0-0.7,0v-35.5c0.2,0,0.4,0,0.7,0V374z M290.2,374    c-0.2,0-0.4,0-0.7,0v-35.5c0.2,0,0.4,0,0.7,0V374z M287.7,374H286H285v-35.5h2.9L287.7,374z M281.7,374h-4v-35.5h4V374z     M275.7,374c-0.2,0-0.5,0-0.7,0v-35.5c0.2,0,0.5,0,0.7,0V374z M272.9,374h-1.7h-1v-35.5h2.9L272.9,374z M265.4,374h-4v-35.5h4V374    z M258,374h-5.5v-35.5h5.5V374z M249,374c-0.2,0-0.5,0-0.7,0v-35.5c0.2,0,0.5,0,0.7,0V374z M246.1,374c-0.2,0-0.5,0-0.7,0v-35.5    c0.2,0,0.5,0,0.7,0V374z M243.3,374h-5.5v-35.5h5.5V374z M235.9,374h-4v-35.5h4V374z M229.7,374c-0.2,0-0.5,0-0.7,0v-35.5    c0.2,0,0.5,0,0.7,0V374z M227,374h-4v-35.5h4V374z M221,374c-0.2,0-0.5,0-0.7,0v-35.5c0.2,0,0.5,0,0.7,0V374z M215.3,374h-2.9    c0,0,0-10.5,0-14.4c0-18.8,0-21.1,0-21.1h2.8V374z M210.6,374c-0.2,0-0.5,0-0.7,0v-35.5c0.2,0,0.5,0,0.7,0V374z M204.9,374h-1.7    h-1.1v-35.5h2.9L204.9,374z M197.3,374c-0.2,0-0.5,0-0.7,0v-35.5c0.2,0,0.5,0,0.7,0V374z M193.2,358.8c0,12.6,0,14.9,0,15.2h0    c0,0,0,0.1,0,0h-2.8v-35.5h2.8C193.2,344.2,193.2,353,193.2,358.8 M188.6,374h-4v-35.5h4V374z M180.9,374c-0.2,0-0.5,0-0.7,0    v-35.5c0.2,0,0.5,0,0.7,0V374z M175.1,374c-0.2,0-0.5,0-0.7,0v-35.5c0.2,0,0.5,0,0.7,0V374z M169.2,374c-0.2,0-0.5,0-0.7,0v-35.5    c0.2,0,0.5,0,0.7,0V374z M166.5,374h-1.7h-1.1v-35.5h2.9L166.5,374z M162.1,374h-1.7h-1.1v-35.5h2.9L162.1,374z M154.4,374    c-0.2,0-0.5,0-0.7,0v-35.5c0.2,0,0.5,0,0.7,0V374z M148.4,374c-0.2,0-0.5,0-0.7,0v-35.5c0.2,0,0.5,0,0.7,0V374z M142.5,374    c-0.2,0-0.5,0-0.7,0v-35.5c0.2,0,0.5,0,0.7,0V374z M136.7,374c-0.2,0-0.5,0-0.7,0v-35.5c0.2,0,0.5,0,0.7,0V374z M134,374h-1.7    h-1.1v-35.5h2.9L134,374z M126.3,374c-0.2,0-0.5,0-0.7,0v-35.5c0.2,0,0.5,0,0.7,0V374z M120.7,374H119h-1.1v-35.5h2.9L120.7,374z     M115.9,374c-0.2,0-0.5,0-0.7,0v-35.5c0.2,0,0.5,0,0.7,0V374z M113.2,374h-4v-35.5h4V374z M107,374c-0.2,0-0.5,0-0.7,0v-35.5    c0.2,0,0.5,0,0.7,0V374z M101.5,374h-2.9l0.1-35.5h1.7h1.1V374z M96.9,374h-4v-35.5h4V374z M89.4,374c-0.2,0-0.5,0-0.7,0v-35.5    c0.2,0,0.5,0,0.7,0V374z M85.2,374h-2.9l0.1-35.5h1.7h1.1V374z M80.8,374h-1.7H78v-35.5h2.9L80.8,374z M73,374c-0.2,0-0.5,0-0.7,0    v-35.5c0.2,0,0.5,0,0.7,0V374z M67.1,374c-0.2,0-0.5,0-0.7,0v-35.5c0.2,0,0.5,0,0.7,0V374z M64.2,374c-0.2,0-0.5,0-0.7,0v-35.5    c0.2,0,0.5,0,0.7,0V374z M59.9,374h-4v-35.5h4V374z M52.7,374H51h-1.1v-35.5h2.9L52.7,374z M43.5,374c-0.2,0-0.5,0-0.7,0v-35.5    c0.2,0,0.5,0,0.7,0V374z M39,374c-0.2,0-0.5,0-0.7,0v-35.5c0.2,0,0.5,0,0.7,0V374z M36.4,374h-2.9l0.1-35.5h1.7h1.1V374z     M20.6,374c-3.7,0-6.7-3-6.7-6.7c0-3.7,3-6.7,6.7-6.7s6.7,3,6.7,6.7C27.3,371,24.3,374,20.6,374 M346,324.4H19.8    c-6.4,0-11.6,5.2-11.6,11.6v62.7c0,6.4,5.2,11.6,11.6,11.6H346c6.4,0,11.6-5.2,11.6-11.6V336C357.6,329.6,352.4,324.4,346,324.4"/>
	</g>
	<g>
		<path class="st30" d="M48.5,390.7h-1.4c-0.1,0-0.1,0-0.1,0.1l-0.5,3.2c0,0,0,0.1,0.1,0.1h1.2c0.1,0,0.2,0.1,0.2,0.2l0,0.5    c0,0.1-0.1,0.2-0.2,0.2h-1.3c-0.1,0-0.1,0-0.1,0.1l-0.5,3.2c0,0.1-0.1,0.2-0.2,0.2l-0.6,0c0,0-0.1,0-0.1-0.1s0-0.1,0-0.1l0.5-3.2    c0,0,0-0.1-0.1-0.1h-3.1c-0.1,0-0.1,0-0.1,0.1l-0.5,3.2c0,0.1-0.1,0.2-0.2,0.2l-0.6,0c0,0-0.1,0-0.1-0.1s0-0.1,0-0.1l0.5-3.2    c0,0,0-0.1-0.1-0.1H40c-0.1,0-0.2-0.1-0.2-0.2l0-0.5c0-0.1,0.1-0.2,0.2-0.2h1.3c0.1,0,0.1,0,0.1-0.1l0.5-3.2c0,0,0-0.1-0.1-0.1    h-1.2c-0.1,0-0.2-0.1-0.2-0.2l0-0.5c0-0.1,0.1-0.2,0.2-0.2h1.3c0.1,0,0.1,0,0.1-0.1l0.5-3.2c0-0.1,0.1-0.2,0.2-0.2l0.6,0    c0.1,0,0.1,0,0.1,0.1s0,0.1,0,0.1l-0.5,3.2c0,0,0,0.1,0.1,0.1h3.1c0.1,0,0.1,0,0.1-0.1l0.5-3.2c0-0.1,0.1-0.2,0.2-0.2l0.6,0    c0.1,0,0.1,0,0.1,0.1s0,0.1,0,0.1l-0.5,3.2c0,0,0,0.1,0.1,0.1h1.2c0.1,0,0.2,0.1,0.2,0.2v0.5C48.7,390.6,48.6,390.7,48.5,390.7z     M45.6,393.9l0.5-3.2c0,0,0-0.1-0.1-0.1h-3.1c-0.1,0-0.1,0-0.1,0.1l-0.5,3.2c0,0,0,0.1,0.1,0.1L45.6,393.9    C45.6,393.9,45.6,393.9,45.6,393.9z"/>
		<path class="st30" d="M65.5,390.7h-1.4c-0.1,0-0.1,0-0.1,0.1l-0.5,3.2c0,0,0,0.1,0.1,0.1h1.2c0.1,0,0.2,0.1,0.2,0.2l0,0.5    c0,0.1-0.1,0.2-0.2,0.2h-1.3c-0.1,0-0.1,0-0.1,0.1l-0.5,3.2c0,0.1-0.1,0.2-0.2,0.2l-0.6,0c0,0-0.1,0-0.1-0.1s0-0.1,0-0.1l0.5-3.2    c0,0,0-0.1-0.1-0.1h-3.1c-0.1,0-0.1,0-0.1,0.1l-0.5,3.2c0,0.1-0.1,0.2-0.2,0.2l-0.6,0c0,0-0.1,0-0.1-0.1s0-0.1,0-0.1l0.5-3.2    c0,0,0-0.1-0.1-0.1h-1.2c-0.1,0-0.2-0.1-0.2-0.2l0-0.5c0-0.1,0.1-0.2,0.2-0.2h1.3c0.1,0,0.1,0,0.1-0.1l0.5-3.2c0,0,0-0.1-0.1-0.1    h-1.2c-0.1,0-0.2-0.1-0.2-0.2l0-0.5c0-0.1,0.1-0.2,0.2-0.2h1.3c0.1,0,0.1,0,0.1-0.1l0.5-3.2c0-0.1,0.1-0.2,0.2-0.2l0.6,0    c0.1,0,0.1,0,0.1,0.1s0,0.1,0,0.1l-0.5,3.2c0,0,0,0.1,0.1,0.1h3.1c0.1,0,0.1,0,0.1-0.1l0.5-3.2c0-0.1,0.1-0.2,0.2-0.2l0.6,0    c0.1,0,0.1,0,0.1,0.1s0,0.1,0,0.1l-0.5,3.2c0,0,0,0.1,0.1,0.1h1.2c0.1,0,0.2,0.1,0.2,0.2v0.5C65.7,390.6,65.6,390.7,65.5,390.7z     M62.6,393.9l0.5-3.2c0,0,0-0.1-0.1-0.1h-3.1c-0.1,0-0.1,0-0.1,0.1l-0.5,3.2c0,0,0,0.1,0.1,0.1L62.6,393.9    C62.5,393.9,62.6,393.9,62.6,393.9z"/>
		<path class="st30" d="M82.4,390.7h-1.4c-0.1,0-0.1,0-0.1,0.1l-0.5,3.2c0,0,0,0.1,0.1,0.1h1.2c0.1,0,0.2,0.1,0.2,0.2l0,0.5    c0,0.1-0.1,0.2-0.2,0.2h-1.3c-0.1,0-0.1,0-0.1,0.1l-0.5,3.2c0,0.1-0.1,0.2-0.2,0.2l-0.6,0c0,0-0.1,0-0.1-0.1s0-0.1,0-0.1l0.5-3.2    c0,0,0-0.1-0.1-0.1h-3.1c-0.1,0-0.1,0-0.1,0.1l-0.5,3.2c0,0.1-0.1,0.2-0.2,0.2l-0.6,0c0,0-0.1,0-0.1-0.1s0-0.1,0-0.1l0.5-3.2    c0,0,0-0.1-0.1-0.1h-1.2c-0.1,0-0.2-0.1-0.2-0.2l0-0.5c0-0.1,0.1-0.2,0.2-0.2h1.3c0.1,0,0.1,0,0.1-0.1l0.5-3.2c0,0,0-0.1-0.1-0.1    h-1.2c-0.1,0-0.2-0.1-0.2-0.2l0-0.5c0-0.1,0.1-0.2,0.2-0.2h1.3c0.1,0,0.1,0,0.1-0.1l0.5-3.2c0-0.1,0.1-0.2,0.2-0.2l0.6,0    c0.1,0,0.1,0,0.1,0.1s0,0.1,0,0.1l-0.5,3.2c0,0,0,0.1,0.1,0.1h3.1c0.1,0,0.1,0,0.1-0.1l0.5-3.2c0-0.1,0.1-0.2,0.2-0.2l0.6,0    c0.1,0,0.1,0,0.1,0.1s0,0.1,0,0.1l-0.5,3.2c0,0,0,0.1,0.1,0.1h1.2c0.1,0,0.2,0.1,0.2,0.2v0.5C82.6,390.6,82.5,390.7,82.4,390.7z     M79.5,393.9l0.5-3.2c0,0,0-0.1-0.1-0.1h-3.1c-0.1,0-0.1,0-0.1,0.1l-0.5,3.2c0,0,0,0.1,0.1,0.1L79.5,393.9    C79.5,393.9,79.5,393.9,79.5,393.9z"/>
		<path class="st30" d="M99.4,390.7H98c-0.1,0-0.1,0-0.1,0.1l-0.5,3.2c0,0,0,0.1,0.1,0.1h1.2c0.1,0,0.2,0.1,0.2,0.2l0,0.5    c0,0.1-0.1,0.2-0.2,0.2h-1.3c-0.1,0-0.1,0-0.1,0.1l-0.5,3.2c0,0.1-0.1,0.2-0.2,0.2l-0.6,0c0,0-0.1,0-0.1-0.1s0-0.1,0-0.1l0.5-3.2    c0,0,0-0.1-0.1-0.1h-3.1c-0.1,0-0.1,0-0.1,0.1l-0.5,3.2c0,0.1-0.1,0.2-0.2,0.2l-0.6,0c0,0-0.1,0-0.1-0.1s0-0.1,0-0.1l0.5-3.2    c0,0,0-0.1-0.1-0.1h-1.2c-0.1,0-0.2-0.1-0.2-0.2l0-0.5c0-0.1,0.1-0.2,0.2-0.2h1.3c0.1,0,0.1,0,0.1-0.1l0.5-3.2c0,0,0-0.1-0.1-0.1    h-1.2c-0.1,0-0.2-0.1-0.2-0.2l0-0.5c0-0.1,0.1-0.2,0.2-0.2h1.3c0.1,0,0.1,0,0.1-0.1l0.5-3.2c0-0.1,0.1-0.2,0.2-0.2l0.6,0    c0.1,0,0.1,0,0.1,0.1s0,0.1,0,0.1l-0.5,3.2c0,0,0,0.1,0.1,0.1H97c0.1,0,0.1,0,0.1-0.1l0.5-3.2c0-0.1,0.1-0.2,0.2-0.2l0.6,0    c0.1,0,0.1,0,0.1,0.1s0,0.1,0,0.1l-0.5,3.2c0,0,0,0.1,0.1,0.1h1.2c0.1,0,0.2,0.1,0.2,0.2v0.5C99.5,390.6,99.5,390.7,99.4,390.7z     M96.5,393.9l0.5-3.2c0,0,0-0.1-0.1-0.1h-3.1c-0.1,0-0.1,0-0.1,0.1l-0.5,3.2c0,0,0,0.1,0.1,0.1L96.5,393.9    C96.4,393.9,96.5,393.9,96.5,393.9z"/>
		<path class="st30" d="M116.3,390.7H115c-0.1,0-0.1,0-0.1,0.1l-0.5,3.2c0,0,0,0.1,0.1,0.1h1.2c0.1,0,0.2,0.1,0.2,0.2l0,0.5    c0,0.1-0.1,0.2-0.2,0.2h-1.3c-0.1,0-0.1,0-0.1,0.1l-0.5,3.2c0,0.1-0.1,0.2-0.2,0.2l-0.6,0c0,0-0.1,0-0.1-0.1s0-0.1,0-0.1l0.5-3.2    c0,0,0-0.1-0.1-0.1h-3.1c-0.1,0-0.1,0-0.1,0.1l-0.5,3.2c0,0.1-0.1,0.2-0.2,0.2l-0.6,0c0,0-0.1,0-0.1-0.1s0-0.1,0-0.1l0.5-3.2    c0,0,0-0.1-0.1-0.1h-1.2c-0.1,0-0.2-0.1-0.2-0.2l0-0.5c0-0.1,0.1-0.2,0.2-0.2h1.3c0.1,0,0.1,0,0.1-0.1l0.5-3.2c0,0,0-0.1-0.1-0.1    h-1.2c-0.1,0-0.2-0.1-0.2-0.2l0-0.5c0-0.1,0.1-0.2,0.2-0.2h1.3c0.1,0,0.1,0,0.1-0.1l0.5-3.2c0-0.1,0.1-0.2,0.2-0.2l0.6,0    c0.1,0,0.1,0,0.1,0.1s0,0.1,0,0.1l-0.5,3.2c0,0,0,0.1,0.1,0.1h3.1c0.1,0,0.1,0,0.1-0.1l0.5-3.2c0-0.1,0.1-0.2,0.2-0.2l0.6,0    c0.1,0,0.1,0,0.1,0.1s0,0.1,0,0.1l-0.5,3.2c0,0,0,0.1,0.1,0.1h1.2c0.1,0,0.2,0.1,0.2,0.2v0.5C116.5,390.6,116.4,390.7,116.3,390.7    z M113.4,393.9l0.5-3.2c0,0,0-0.1-0.1-0.1h-3.1c-0.1,0-0.1,0-0.1,0.1l-0.5,3.2c0,0,0,0.1,0.1,0.1L113.4,393.9    C113.4,393.9,113.4,393.9,113.4,393.9z"/>
		<path class="st30" d="M133.3,390.7h-1.4c-0.1,0-0.1,0-0.1,0.1l-0.5,3.2c0,0,0,0.1,0.1,0.1h1.2c0.1,0,0.2,0.1,0.2,0.2l0,0.5    c0,0.1-0.1,0.2-0.2,0.2h-1.3c-0.1,0-0.1,0-0.1,0.1l-0.5,3.2c0,0.1-0.1,0.2-0.2,0.2l-0.6,0c0,0-0.1,0-0.1-0.1s0-0.1,0-0.1l0.5-3.2    c0,0,0-0.1-0.1-0.1H127c-0.1,0-0.1,0-0.1,0.1l-0.5,3.2c0,0.1-0.1,0.2-0.2,0.2l-0.6,0c0,0-0.1,0-0.1-0.1s0-0.1,0-0.1l0.5-3.2    c0,0,0-0.1-0.1-0.1h-1.2c-0.1,0-0.2-0.1-0.2-0.2l0-0.5c0-0.1,0.1-0.2,0.2-0.2h1.3c0.1,0,0.1,0,0.1-0.1l0.5-3.2c0,0,0-0.1-0.1-0.1    h-1.2c-0.1,0-0.2-0.1-0.2-0.2l0-0.5c0-0.1,0.1-0.2,0.2-0.2h1.3c0.1,0,0.1,0,0.1-0.1l0.5-3.2c0-0.1,0.1-0.2,0.2-0.2l0.6,0    c0.1,0,0.1,0,0.1,0.1s0,0.1,0,0.1l-0.5,3.2c0,0,0,0.1,0.1,0.1h3.1c0.1,0,0.1,0,0.1-0.1l0.5-3.2c0-0.1,0.1-0.2,0.2-0.2l0.6,0    c0.1,0,0.1,0,0.1,0.1s0,0.1,0,0.1l-0.5,3.2c0,0,0,0.1,0.1,0.1h1.2c0.1,0,0.2,0.1,0.2,0.2v0.5C133.4,390.6,133.4,390.7,133.3,390.7    z M130.4,393.9l0.5-3.2c0,0,0-0.1-0.1-0.1h-3.1c-0.1,0-0.1,0-0.1,0.1l-0.5,3.2c0,0,0,0.1,0.1,0.1L130.4,393.9    C130.3,393.9,130.4,393.9,130.4,393.9z"/>
		<path class="st30" d="M150.2,390.7h-1.4c-0.1,0-0.1,0-0.1,0.1l-0.5,3.2c0,0,0,0.1,0.1,0.1h1.2c0.1,0,0.2,0.1,0.2,0.2l0,0.5    c0,0.1-0.1,0.2-0.2,0.2h-1.3c-0.1,0-0.1,0-0.1,0.1l-0.5,3.2c0,0.1-0.1,0.2-0.2,0.2l-0.6,0c0,0-0.1,0-0.1-0.1s0-0.1,0-0.1l0.5-3.2    c0,0,0-0.1-0.1-0.1H144c-0.1,0-0.1,0-0.1,0.1l-0.5,3.2c0,0.1-0.1,0.2-0.2,0.2l-0.6,0c0,0-0.1,0-0.1-0.1s0-0.1,0-0.1l0.5-3.2    c0,0,0-0.1-0.1-0.1h-1.2c-0.1,0-0.2-0.1-0.2-0.2l0-0.5c0-0.1,0.1-0.2,0.2-0.2h1.3c0.1,0,0.1,0,0.1-0.1l0.5-3.2c0,0,0-0.1-0.1-0.1    h-1.2c-0.1,0-0.2-0.1-0.2-0.2l0-0.5c0-0.1,0.1-0.2,0.2-0.2h1.3c0.1,0,0.1,0,0.1-0.1l0.5-3.2c0-0.1,0.1-0.2,0.2-0.2l0.6,0    c0.1,0,0.1,0,0.1,0.1s0,0.1,0,0.1l-0.5,3.2c0,0,0,0.1,0.1,0.1h3.1c0.1,0,0.1,0,0.1-0.1l0.5-3.2c0-0.1,0.1-0.2,0.2-0.2l0.6,0    c0.1,0,0.1,0,0.1,0.1s0,0.1,0,0.1l-0.5,3.2c0,0,0,0.1,0.1,0.1h1.2c0.1,0,0.2,0.1,0.2,0.2v0.5C150.4,390.6,150.3,390.7,150.2,390.7    z M147.3,393.9l0.5-3.2c0,0,0-0.1-0.1-0.1h-3.1c-0.1,0-0.1,0-0.1,0.1l-0.5,3.2c0,0,0,0.1,0.1,0.1L147.3,393.9    C147.3,393.9,147.3,393.9,147.3,393.9z"/>
		<path class="st30" d="M167.2,390.7h-1.4c-0.1,0-0.1,0-0.1,0.1l-0.5,3.2c0,0,0,0.1,0.1,0.1h1.2c0.1,0,0.2,0.1,0.2,0.2l0,0.5    c0,0.1-0.1,0.2-0.2,0.2h-1.3c-0.1,0-0.1,0-0.1,0.1l-0.5,3.2c0,0.1-0.1,0.2-0.2,0.2l-0.6,0c0,0-0.1,0-0.1-0.1s0-0.1,0-0.1l0.5-3.2    c0,0,0-0.1-0.1-0.1h-3.1c-0.1,0-0.1,0-0.1,0.1l-0.5,3.2c0,0.1-0.1,0.2-0.2,0.2l-0.6,0c0,0-0.1,0-0.1-0.1s0-0.1,0-0.1l0.5-3.2    c0,0,0-0.1-0.1-0.1h-1.2c-0.1,0-0.2-0.1-0.2-0.2l0-0.5c0-0.1,0.1-0.2,0.2-0.2h1.3c0.1,0,0.1,0,0.1-0.1l0.5-3.2c0,0,0-0.1-0.1-0.1    h-1.2c-0.1,0-0.2-0.1-0.2-0.2l0-0.5c0-0.1,0.1-0.2,0.2-0.2h1.3c0.1,0,0.1,0,0.1-0.1l0.5-3.2c0-0.1,0.1-0.2,0.2-0.2l0.6,0    c0.1,0,0.1,0,0.1,0.1s0,0.1,0,0.1l-0.5,3.2c0,0,0,0.1,0.1,0.1h3.1c0.1,0,0.1,0,0.1-0.1l0.5-3.2c0-0.1,0.1-0.2,0.2-0.2l0.6,0    c0.1,0,0.1,0,0.1,0.1s0,0.1,0,0.1l-0.5,3.2c0,0,0,0.1,0.1,0.1h1.2c0.1,0,0.2,0.1,0.2,0.2v0.5C167.4,390.6,167.3,390.7,167.2,390.7    z M164.3,393.9l0.5-3.2c0,0,0-0.1-0.1-0.1h-3.1c-0.1,0-0.1,0-0.1,0.1l-0.5,3.2c0,0,0,0.1,0.1,0.1L164.3,393.9    C164.2,393.9,164.3,393.9,164.3,393.9z"/>
		<path class="st30" d="M184.1,390.7h-1.4c-0.1,0-0.1,0-0.1,0.1l-0.5,3.2c0,0,0,0.1,0.1,0.1h1.2c0.1,0,0.2,0.1,0.2,0.2l0,0.5    c0,0.1-0.1,0.2-0.2,0.2h-1.3c-0.1,0-0.1,0-0.1,0.1l-0.5,3.2c0,0.1-0.1,0.2-0.2,0.2l-0.6,0c0,0-0.1,0-0.1-0.1s0-0.1,0-0.1l0.5-3.2    c0,0,0-0.1-0.1-0.1h-3.1c-0.1,0-0.1,0-0.1,0.1l-0.5,3.2c0,0.1-0.1,0.2-0.2,0.2l-0.6,0c0,0-0.1,0-0.1-0.1s0-0.1,0-0.1l0.5-3.2    c0,0,0-0.1-0.1-0.1h-1.2c-0.1,0-0.2-0.1-0.2-0.2l0-0.5c0-0.1,0.1-0.2,0.2-0.2h1.3c0.1,0,0.1,0,0.1-0.1l0.5-3.2c0,0,0-0.1-0.1-0.1    h-1.2c-0.1,0-0.2-0.1-0.2-0.2l0-0.5c0-0.1,0.1-0.2,0.2-0.2h1.3c0.1,0,0.1,0,0.1-0.1l0.5-3.2c0-0.1,0.1-0.2,0.2-0.2l0.6,0    c0.1,0,0.1,0,0.1,0.1s0,0.1,0,0.1l-0.5,3.2c0,0,0,0.1,0.1,0.1h3.1c0.1,0,0.1,0,0.1-0.1l0.5-3.2c0-0.1,0.1-0.2,0.2-0.2l0.6,0    c0.1,0,0.1,0,0.1,0.1s0,0.1,0,0.1l-0.5,3.2c0,0,0,0.1,0.1,0.1h1.2c0.1,0,0.2,0.1,0.2,0.2v0.5C184.3,390.6,184.2,390.7,184.1,390.7    z M181.2,393.9l0.5-3.2c0,0,0-0.1-0.1-0.1h-3.1c-0.1,0-0.1,0-0.1,0.1l-0.5,3.2c0,0,0,0.1,0.1,0.1L181.2,393.9    C181.2,393.9,181.2,393.9,181.2,393.9z"/>
		<path class="st30" d="M201.1,390.7h-1.4c-0.1,0-0.1,0-0.1,0.1l-0.5,3.2c0,0,0,0.1,0.1,0.1h1.2c0.1,0,0.2,0.1,0.2,0.2l0,0.5    c0,0.1-0.1,0.2-0.2,0.2h-1.3c-0.1,0-0.1,0-0.1,0.1l-0.5,3.2c0,0.1-0.1,0.2-0.2,0.2l-0.6,0c0,0-0.1,0-0.1-0.1s0-0.1,0-0.1l0.5-3.2    c0,0,0-0.1-0.1-0.1h-3.1c-0.1,0-0.1,0-0.1,0.1l-0.5,3.2c0,0.1-0.1,0.2-0.2,0.2l-0.6,0c0,0-0.1,0-0.1-0.1s0-0.1,0-0.1l0.5-3.2    c0,0,0-0.1-0.1-0.1h-1.2c-0.1,0-0.2-0.1-0.2-0.2l0-0.5c0-0.1,0.1-0.2,0.2-0.2h1.3c0.1,0,0.1,0,0.1-0.1l0.5-3.2c0,0,0-0.1-0.1-0.1    h-1.2c-0.1,0-0.2-0.1-0.2-0.2l0-0.5c0-0.1,0.1-0.2,0.2-0.2h1.3c0.1,0,0.1,0,0.1-0.1l0.5-3.2c0-0.1,0.1-0.2,0.2-0.2l0.6,0    c0.1,0,0.1,0,0.1,0.1s0,0.1,0,0.1l-0.5,3.2c0,0,0,0.1,0.1,0.1h3.1c0.1,0,0.1,0,0.1-0.1l0.5-3.2c0-0.1,0.1-0.2,0.2-0.2l0.6,0    c0.1,0,0.1,0,0.1,0.1s0,0.1,0,0.1l-0.5,3.2c0,0,0,0.1,0.1,0.1h1.2c0.1,0,0.2,0.1,0.2,0.2v0.5C201.3,390.6,201.2,390.7,201.1,390.7    z M198.2,393.9l0.5-3.2c0,0,0-0.1-0.1-0.1h-3.1c-0.1,0-0.1,0-0.1,0.1l-0.5,3.2c0,0,0,0.1,0.1,0.1L198.2,393.9    C198.2,393.9,198.2,393.9,198.2,393.9z"/>
		<path class="st30" d="M218,390.7h-1.4c-0.1,0-0.1,0-0.1,0.1l-0.5,3.2c0,0,0,0.1,0.1,0.1h1.2c0.1,0,0.2,0.1,0.2,0.2l0,0.5    c0,0.1-0.1,0.2-0.2,0.2H216c-0.1,0-0.1,0-0.1,0.1l-0.5,3.2c0,0.1-0.1,0.2-0.2,0.2l-0.6,0c0,0-0.1,0-0.1-0.1s0-0.1,0-0.1l0.5-3.2    c0,0,0-0.1-0.1-0.1h-3.1c-0.1,0-0.1,0-0.1,0.1l-0.5,3.2c0,0.1-0.1,0.2-0.2,0.2l-0.6,0c0,0-0.1,0-0.1-0.1s0-0.1,0-0.1l0.5-3.2    c0,0,0-0.1-0.1-0.1h-1.2c-0.1,0-0.2-0.1-0.2-0.2l0-0.5c0-0.1,0.1-0.2,0.2-0.2h1.3c0.1,0,0.1,0,0.1-0.1l0.5-3.2c0,0,0-0.1-0.1-0.1    h-1.2c-0.1,0-0.2-0.1-0.2-0.2l0-0.5c0-0.1,0.1-0.2,0.2-0.2h1.3c0.1,0,0.1,0,0.1-0.1l0.5-3.2c0-0.1,0.1-0.2,0.2-0.2l0.6,0    c0.1,0,0.1,0,0.1,0.1s0,0.1,0,0.1l-0.5,3.2c0,0,0,0.1,0.1,0.1h3.1c0.1,0,0.1,0,0.1-0.1l0.5-3.2c0-0.1,0.1-0.2,0.2-0.2l0.6,0    c0.1,0,0.1,0,0.1,0.1s0,0.1,0,0.1l-0.5,3.2c0,0,0,0.1,0.1,0.1h1.2c0.1,0,0.2,0.1,0.2,0.2v0.5C218.2,390.6,218.2,390.7,218,390.7z     M215.1,393.9l0.5-3.2c0,0,0-0.1-0.1-0.1h-3.1c-0.1,0-0.1,0-0.1,0.1l-0.5,3.2c0,0,0,0.1,0.1,0.1L215.1,393.9    C215.1,393.9,215.1,393.9,215.1,393.9z"/>
		<path class="st30" d="M235,390.7h-1.4c-0.1,0-0.1,0-0.1,0.1l-0.5,3.2c0,0,0,0.1,0.1,0.1h1.2c0.1,0,0.2,0.1,0.2,0.2l0,0.5    c0,0.1-0.1,0.2-0.2,0.2H233c-0.1,0-0.1,0-0.1,0.1l-0.5,3.2c0,0.1-0.1,0.2-0.2,0.2l-0.6,0c0,0-0.1,0-0.1-0.1s0-0.1,0-0.1l0.5-3.2    c0,0,0-0.1-0.1-0.1h-3.1c-0.1,0-0.1,0-0.1,0.1l-0.5,3.2c0,0.1-0.1,0.2-0.2,0.2l-0.6,0c0,0-0.1,0-0.1-0.1s0-0.1,0-0.1l0.5-3.2    c0,0,0-0.1-0.1-0.1h-1.2c-0.1,0-0.2-0.1-0.2-0.2l0-0.5c0-0.1,0.1-0.2,0.2-0.2h1.3c0.1,0,0.1,0,0.1-0.1l0.5-3.2c0,0,0-0.1-0.1-0.1    h-1.2c-0.1,0-0.2-0.1-0.2-0.2l0-0.5c0-0.1,0.1-0.2,0.2-0.2h1.3c0.1,0,0.1,0,0.1-0.1l0.5-3.2c0-0.1,0.1-0.2,0.2-0.2l0.6,0    c0.1,0,0.1,0,0.1,0.1s0,0.1,0,0.1l-0.5,3.2c0,0,0,0.1,0.1,0.1h3.1c0.1,0,0.1,0,0.1-0.1l0.5-3.2c0-0.1,0.1-0.2,0.2-0.2l0.6,0    c0.1,0,0.1,0,0.1,0.1s0,0.1,0,0.1l-0.5,3.2c0,0,0,0.1,0.1,0.1h1.2c0.1,0,0.2,0.1,0.2,0.2v0.5C235.2,390.6,235.1,390.7,235,390.7z     M232.1,393.9l0.5-3.2c0,0,0-0.1-0.1-0.1h-3.1c-0.1,0-0.1,0-0.1,0.1l-0.5,3.2c0,0,0,0.1,0.1,0.1L232.1,393.9    C232.1,393.9,232.1,393.9,232.1,393.9z"/>
		<path class="st30" d="M251.9,390.7h-1.4c-0.1,0-0.1,0-0.1,0.1l-0.5,3.2c0,0,0,0.1,0.1,0.1h1.2c0.1,0,0.2,0.1,0.2,0.2l0,0.5    c0,0.1-0.1,0.2-0.2,0.2h-1.3c-0.1,0-0.1,0-0.1,0.1l-0.5,3.2c0,0.1-0.1,0.2-0.2,0.2l-0.6,0c0,0-0.1,0-0.1-0.1s0-0.1,0-0.1l0.5-3.2    c0,0,0-0.1-0.1-0.1h-3.1c-0.1,0-0.1,0-0.1,0.1l-0.5,3.2c0,0.1-0.1,0.2-0.2,0.2l-0.6,0c0,0-0.1,0-0.1-0.1s0-0.1,0-0.1l0.5-3.2    c0,0,0-0.1-0.1-0.1h-1.2c-0.1,0-0.2-0.1-0.2-0.2l0-0.5c0-0.1,0.1-0.2,0.2-0.2h1.3c0.1,0,0.1,0,0.1-0.1l0.5-3.2c0,0,0-0.1-0.1-0.1    h-1.2c-0.1,0-0.2-0.1-0.2-0.2l0-0.5c0-0.1,0.1-0.2,0.2-0.2h1.3c0.1,0,0.1,0,0.1-0.1l0.5-3.2c0-0.1,0.1-0.2,0.2-0.2l0.6,0    c0.1,0,0.1,0,0.1,0.1s0,0.1,0,0.1l-0.5,3.2c0,0,0,0.1,0.1,0.1h3.1c0.1,0,0.1,0,0.1-0.1l0.5-3.2c0-0.1,0.1-0.2,0.2-0.2l0.6,0    c0.1,0,0.1,0,0.1,0.1s0,0.1,0,0.1l-0.5,3.2c0,0,0,0.1,0.1,0.1h1.2c0.1,0,0.2,0.1,0.2,0.2v0.5C252.1,390.6,252.1,390.7,251.9,390.7    z M249,393.9l0.5-3.2c0,0,0-0.1-0.1-0.1h-3.1c-0.1,0-0.1,0-0.1,0.1l-0.5,3.2c0,0,0,0.1,0.1,0.1L249,393.9    C249,393.9,249,393.9,249,393.9z"/>
		<path class="st30" d="M268.9,390.7h-1.4c-0.1,0-0.1,0-0.1,0.1l-0.5,3.2c0,0,0,0.1,0.1,0.1h1.2c0.1,0,0.2,0.1,0.2,0.2l0,0.5    c0,0.1-0.1,0.2-0.2,0.2h-1.3c-0.1,0-0.1,0-0.1,0.1l-0.5,3.2c0,0.1-0.1,0.2-0.2,0.2l-0.6,0c0,0-0.1,0-0.1-0.1s0-0.1,0-0.1l0.5-3.2    c0,0,0-0.1-0.1-0.1h-3.1c-0.1,0-0.1,0-0.1,0.1l-0.5,3.2c0,0.1-0.1,0.2-0.2,0.2l-0.6,0c0,0-0.1,0-0.1-0.1s0-0.1,0-0.1l0.5-3.2    c0,0,0-0.1-0.1-0.1h-1.2c-0.1,0-0.2-0.1-0.2-0.2l0-0.5c0-0.1,0.1-0.2,0.2-0.2h1.3c0.1,0,0.1,0,0.1-0.1l0.5-3.2c0,0,0-0.1-0.1-0.1    H261c-0.1,0-0.2-0.1-0.2-0.2l0-0.5c0-0.1,0.1-0.2,0.2-0.2h1.3c0.1,0,0.1,0,0.1-0.1l0.5-3.2c0-0.1,0.1-0.2,0.2-0.2l0.6,0    c0.1,0,0.1,0,0.1,0.1s0,0.1,0,0.1l-0.5,3.2c0,0,0,0.1,0.1,0.1h3.1c0.1,0,0.1,0,0.1-0.1l0.5-3.2c0-0.1,0.1-0.2,0.2-0.2l0.6,0    c0.1,0,0.1,0,0.1,0.1s0,0.1,0,0.1l-0.5,3.2c0,0,0,0.1,0.1,0.1h1.2c0.1,0,0.2,0.1,0.2,0.2v0.5C269.1,390.6,269,390.7,268.9,390.7z     M266,393.9l0.5-3.2c0,0,0-0.1-0.1-0.1h-3.1c-0.1,0-0.1,0-0.1,0.1l-0.5,3.2c0,0,0,0.1,0.1,0.1L266,393.9    C266,393.9,266,393.9,266,393.9z"/>
		<path class="st30" d="M285.8,390.7h-1.4c-0.1,0-0.1,0-0.1,0.1l-0.5,3.2c0,0,0,0.1,0.1,0.1h1.2c0.1,0,0.2,0.1,0.2,0.2l0,0.5    c0,0.1-0.1,0.2-0.2,0.2h-1.3c-0.1,0-0.1,0-0.1,0.1l-0.5,3.2c0,0.1-0.1,0.2-0.2,0.2l-0.6,0c0,0-0.1,0-0.1-0.1s0-0.1,0-0.1l0.5-3.2    c0,0,0-0.1-0.1-0.1h-3.1c-0.1,0-0.1,0-0.1,0.1l-0.5,3.2c0,0.1-0.1,0.2-0.2,0.2l-0.6,0c0,0-0.1,0-0.1-0.1s0-0.1,0-0.1l0.5-3.2    c0,0,0-0.1-0.1-0.1h-1.2c-0.1,0-0.2-0.1-0.2-0.2l0-0.5c0-0.1,0.1-0.2,0.2-0.2h1.3c0.1,0,0.1,0,0.1-0.1l0.5-3.2c0,0,0-0.1-0.1-0.1    H278c-0.1,0-0.2-0.1-0.2-0.2l0-0.5c0-0.1,0.1-0.2,0.2-0.2h1.3c0.1,0,0.1,0,0.1-0.1l0.5-3.2c0-0.1,0.1-0.2,0.2-0.2l0.6,0    c0.1,0,0.1,0,0.1,0.1s0,0.1,0,0.1l-0.5,3.2c0,0,0,0.1,0.1,0.1h3.1c0.1,0,0.1,0,0.1-0.1l0.5-3.2c0-0.1,0.1-0.2,0.2-0.2l0.6,0    c0.1,0,0.1,0,0.1,0.1s0,0.1,0,0.1l-0.5,3.2c0,0,0,0.1,0.1,0.1h1.2c0.1,0,0.2,0.1,0.2,0.2v0.5C286,390.6,286,390.7,285.8,390.7z     M282.9,393.9l0.5-3.2c0,0,0-0.1-0.1-0.1h-3.1c-0.1,0-0.1,0-0.1,0.1l-0.5,3.2c0,0,0,0.1,0.1,0.1L282.9,393.9    C282.9,393.9,282.9,393.9,282.9,393.9z"/>
		<path class="st30" d="M302.8,390.7h-1.4c-0.1,0-0.1,0-0.1,0.1l-0.5,3.2c0,0,0,0.1,0.1,0.1h1.2c0.1,0,0.2,0.1,0.2,0.2l0,0.5    c0,0.1-0.1,0.2-0.2,0.2h-1.3c-0.1,0-0.1,0-0.1,0.1l-0.5,3.2c0,0.1-0.1,0.2-0.2,0.2l-0.6,0c0,0-0.1,0-0.1-0.1s0-0.1,0-0.1l0.5-3.2    c0,0,0-0.1-0.1-0.1h-3.1c-0.1,0-0.1,0-0.1,0.1l-0.5,3.2c0,0.1-0.1,0.2-0.2,0.2l-0.6,0c0,0-0.1,0-0.1-0.1s0-0.1,0-0.1l0.5-3.2    c0,0,0-0.1-0.1-0.1h-1.2c-0.1,0-0.2-0.1-0.2-0.2l0-0.5c0-0.1,0.1-0.2,0.2-0.2h1.3c0.1,0,0.1,0,0.1-0.1l0.5-3.2c0,0,0-0.1-0.1-0.1    h-1.2c-0.1,0-0.2-0.1-0.2-0.2l0-0.5c0-0.1,0.1-0.2,0.2-0.2h1.3c0.1,0,0.1,0,0.1-0.1l0.5-3.2c0-0.1,0.1-0.2,0.2-0.2l0.6,0    c0.1,0,0.1,0,0.1,0.1s0,0.1,0,0.1l-0.5,3.2c0,0,0,0.1,0.1,0.1h3.1c0.1,0,0.1,0,0.1-0.1l0.5-3.2c0-0.1,0.1-0.2,0.2-0.2l0.6,0    c0.1,0,0.1,0,0.1,0.1s0,0.1,0,0.1l-0.5,3.2c0,0,0,0.1,0.1,0.1h1.2c0.1,0,0.2,0.1,0.2,0.2v0.5C303,390.6,302.9,390.7,302.8,390.7z     M299.9,393.9l0.5-3.2c0,0,0-0.1-0.1-0.1h-3.1c-0.1,0-0.1,0-0.1,0.1l-0.5,3.2c0,0,0,0.1,0.1,0.1L299.9,393.9    C299.9,393.9,299.9,393.9,299.9,393.9z"/>
		<path class="st30" d="M319.8,390.7h-1.4c-0.1,0-0.1,0-0.1,0.1l-0.5,3.2c0,0,0,0.1,0.1,0.1h1.2c0.1,0,0.2,0.1,0.2,0.2l0,0.5    c0,0.1-0.1,0.2-0.2,0.2h-1.3c-0.1,0-0.1,0-0.1,0.1l-0.5,3.2c0,0.1-0.1,0.2-0.2,0.2l-0.6,0c0,0-0.1,0-0.1-0.1s0-0.1,0-0.1l0.5-3.2    c0,0,0-0.1-0.1-0.1h-3.1c-0.1,0-0.1,0-0.1,0.1l-0.5,3.2c0,0.1-0.1,0.2-0.2,0.2l-0.6,0c0,0-0.1,0-0.1-0.1s0-0.1,0-0.1l0.5-3.2    c0,0,0-0.1-0.1-0.1h-1.2c-0.1,0-0.2-0.1-0.2-0.2l0-0.5c0-0.1,0.1-0.2,0.2-0.2h1.3c0.1,0,0.1,0,0.1-0.1l0.5-3.2c0,0,0-0.1-0.1-0.1    h-1.2c-0.1,0-0.2-0.1-0.2-0.2l0-0.5c0-0.1,0.1-0.2,0.2-0.2h1.3c0.1,0,0.1,0,0.1-0.1l0.5-3.2c0-0.1,0.1-0.2,0.2-0.2l0.6,0    c0.1,0,0.1,0,0.1,0.1s0,0.1,0,0.1l-0.5,3.2c0,0,0,0.1,0.1,0.1h3.1c0.1,0,0.1,0,0.1-0.1l0.5-3.2c0-0.1,0.1-0.2,0.2-0.2l0.6,0    c0.1,0,0.1,0,0.1,0.1s0,0.1,0,0.1l-0.5,3.2c0,0,0,0.1,0.1,0.1h1.2c0.1,0,0.2,0.1,0.2,0.2v0.5C319.9,390.6,319.9,390.7,319.8,390.7    z M316.9,393.9l0.5-3.2c0,0,0-0.1-0.1-0.1h-3.1c-0.1,0-0.1,0-0.1,0.1l-0.5,3.2c0,0,0,0.1,0.1,0.1L316.9,393.9    C316.8,393.9,316.9,393.9,316.9,393.9z"/>
	</g>
	<g>
		<defs>
			<rect id="SVGID_00000133495512725640338700000001693315384009333948_" width="845.2" height="446.8"/>
		</defs>
		<clipPath id="SVGID_00000028307634469723565820000002151121061418953905_">
			<use xlink:href="#SVGID_00000133495512725640338700000001693315384009333948_" style="overflow:visible;"/>
		</clipPath>
		
			<path style="clip-path:url(#SVGID_00000028307634469723565820000002151121061418953905_);fill:none;stroke:#FFDD15;stroke-width:5;" d="    M21.8,321.9c-5.5,0-16,3.3-16,16v58.8c0,5.5,3.3,16,16,16h322.3c5.5,0,16-3.3,16-16v-58.8c0-5.5-3.3-16-16-16H21.8z"/>
	</g>
</g>
</svg>